<?xml version="1.0" encoding="UTF-8"?>
<svg width="705" height="400" version="1.1" viewBox="0 0 186.53 105.83" xmlns="http://www.w3.org/2000/svg" xmlns:cc="http://creativecommons.org/ns#" xmlns:dc="http://purl.org/dc/elements/1.1/" xmlns:rdf="http://www.w3.org/1999/02/22-rdf-syntax-ns#" xmlns:xlink="http://www.w3.org/1999/xlink">
 <defs>
  <linearGradient id="linearGradient1787" x1="1866.7" x2="1866.7" y1="-302.41" y2="-702.41" gradientTransform="matrix(.26955 0 0 .26458 -418.93 80.014)" gradientUnits="userSpaceOnUse">
   <stop stop-color="#e7e8e8" offset="0"/>
   <stop stop-color="#c1c1c2" offset="1"/>
  </linearGradient>
  <pattern id="pattern1766-7" patternTransform="matrix(.2518 0 0 .24903 74.877 44.318)" xlink:href="#pattern1789-1-7"/>
  <pattern id="pattern1789-1-7" patternTransform="matrix(.95333 0 0 .93977 1808.4 469.91)" xlink:href="#pattern2162-9-0"/>
  <pattern id="pattern2162-9-0" patternTransform="matrix(.95982 0 0 .94125 1752.5 345.66)" xlink:href="#pattern2157-9-1"/>
  <pattern id="pattern2157-9-1" width="600" height="345.83008" patternTransform="translate(264.68 -428.75)" patternUnits="userSpaceOnUse">
   <path d="m0 0v345.83h1v-16.234l27.057 16.234h4.9102l26.033-16.234v16.234h2v-16.234l27.057 16.234h3.8868l27.057-16.234v16.234h2v-16.234l27.057 16.234h3.8868l27.057-16.234v16.234h2v-16.234l27.057 16.234h3.8868l27.057-16.234v16.234h2v-16.234l27.057 16.234h3.8867l27.057-16.234v16.234h2v-16.234l27.057 16.234h3.8867l27.057-16.234v16.234h2v-16.234l27.057 16.234h3.8867l27.057-16.234v16.234h2v-16.234l27.057 16.234h3.8867l27.057-16.234v16.234h2v-16.234l27.057 16.234h3.8867l27.057-16.234v16.234h2v-16.234l27.057 16.234h3.8867l27.057-16.234v16.234h1v-345.83h-1v16.4l-27.057-16.234-0.27734-0.16602h-3.332l-0.27734 0.16602-27.057 16.234v-16.4h-2v16.4l-27.057-16.234-0.27734-0.16602h-3.332l-0.27734 0.16602-27.057 16.234v-16.4h-2v16.4l-27.057-16.234-0.27734-0.16602h-3.332l-0.27734 0.16602-27.057 16.234v-16.4h-2v16.4l-27.057-16.234-0.27734-0.16602h-3.332l-0.27734 0.16602-27.057 16.234v-16.4h-2v16.4l-27.057-16.234-0.27734-0.16602h-3.332l-0.27734 0.16602-27.057 16.234v-16.4h-2v16.4l-27.057-16.234-0.27734-0.16602h-3.332l-0.27734 0.16602-27.057 16.234v-16.4h-2v16.4l-27.057-16.234-0.2774-0.16602h-3.332l-0.2774 0.16602-27.057 16.234v-16.4h-2v16.4l-27.057-16.234-0.2774-0.16602h-3.332l-0.2774 0.16602-27.057 16.234v-16.4h-2v16.4l-27.057-16.234-0.2774-0.16602h-3.332l-0.2774 0.16602-27.057 16.234v-16.4h-2v16.4l-27.057-16.234-0.2774-0.16602h-3.332l-0.2774 0.16602-27.057 16.234v-16.4zm29 1.9316v31.141l-26.898-15.002zm2 0 26.898 16.139-26.898 15.002zm58 0v31.141l-26.898-15.002zm2 0 26.898 16.139-26.898 15.002zm58 0v31.141l-26.898-15.002zm2 0 26.898 16.139-26.898 15.002zm58 0v31.141l-26.898-15.002zm2 0 26.898 16.139-26.898 15.002zm58 0v31.141l-26.898-15.002zm2 0 26.898 16.139-26.898 15.002zm58 0v31.141l-26.898-15.002zm2 0 26.898 16.139-26.898 15.002zm58 0v31.141l-26.898-15.002zm2 0 26.898 16.139-26.898 15.002zm58 0v31.141l-26.898-15.002zm2 0 26.898 16.139-26.898 15.002zm58 0v31.141l-26.898-15.002zm2 0 26.898 16.139-26.898 15.002zm58 0v31.141l-26.898-15.002zm2 0 26.898 16.139-26.898 15.002zm-570 17.828 26.703 14.906-26.703 14.906v-28.572zm58 0v29.812l-26.703-14.906zm2 0 26.703 14.906-26.703 14.906v-28.572zm58 0v29.812l-26.703-14.906zm2 0 26.703 14.906-26.703 14.906v-28.572zm58 0v29.812l-26.703-14.906zm2 0 26.703 14.906-26.703 14.906v-28.572zm58 0v29.812l-26.703-14.906zm2 0 26.703 14.906-26.703 14.906v-28.572zm58 0v29.812l-26.703-14.906zm2 0 26.703 14.906-26.703 14.906v-28.572zm58 0v29.812l-26.703-14.906zm2 0 26.703 14.906-26.703 14.906v-28.572zm58 0v29.812l-26.703-14.906zm2 0 26.703 14.906-26.703 14.906v-28.572zm58 0v29.812l-26.703-14.906zm2 0 26.703 14.906-26.703 14.906v-28.572zm58 0v29.812l-26.703-14.906zm2 0 26.703 14.906-26.703 14.906v-28.572zm58 0v29.812l-26.703-14.906zm-570 16.5v31.141l-26.898-16.139zm2 0 26.898 15.002-26.898 16.139zm58 0v31.141l-26.898-16.139zm2 0 26.898 15.002-26.898 16.139zm60 0 26.898 15.002-26.898 16.139zm58 0v31.141l-26.898-16.139zm2 0 26.898 15.002-26.898 16.139zm58 0v31.141l-26.898-16.139zm2 0 26.898 15.002-26.898 16.139zm60 0 26.898 15.002-26.898 16.139zm58 0v31.141l-26.898-16.139zm2 0 26.898 15.002-26.898 16.139zm58 0v31.141l-26.898-16.139zm2 0 26.898 15.002-26.898 16.139zm58 0v31.141l-26.898-16.139zm2 0 26.898 15.002-26.898 16.139zm58 0v31.141l-26.898-16.139zm2 0 26.898 15.002-26.898 16.139zm-570 16.672 27.057 16.234h0.2774l-0.2774 0.16602-27.057 16.234v-16.4zm58 0v32.635l-27.057-16.234-0.2774-0.16602h0.2774zm2 0 27.057 16.234h0.2774l-0.2774 0.16602-27.057 16.234v-16.4zm58 0v32.635l-27.057-16.234-0.2774-0.16602h0.2774zm60 0v32.635l-27.057-16.234-0.2774-0.16602h0.2774zm2 0 27.057 16.234h0.2774l-0.2774 0.16602-27.057 16.234v-16.4zm58 0v32.635l-27.057-16.234-0.2774-0.16602h0.2774zm2 0 27.057 16.234h0.27734l-0.27734 0.16602-27.057 16.234v-16.4zm58 0-0.125 32.561-26.932-16.16-0.27734-0.16602h0.27734zm60 0v32.635l-27.057-16.234-0.27734-0.16602h0.27734zm2 0 27.057 16.234h0.27734l-0.27734 0.16602-27.057 16.234v-16.4zm58 0v32.635l-27.057-16.234-0.27734-0.16602h0.27734zm2 0 27.057 16.234h0.27734l-0.27734 0.16602-27.057 16.234v-16.4zm58 0v32.635l-27.057-16.234-0.27734-0.16602h0.27734zm2 0 27.057 16.234h0.27734l-0.27734 0.16602-27.057 16.234v-16.4zm58 0v32.277l-0.20115 0.23633-26.855-16.113-0.27734-0.16602h0.27734zm2 0 27.057 16.234h0.27734l-0.27734 0.16602-27.057 16.234v-16.4zm58 0v32.635l-27.057-16.234-0.27734-0.16602h0.27734zm-570 18.166v31.141l-26.898-15.002zm2 0 26.898 16.139-26.898 15.002zm58 0v31.141l-26.898-15.002zm2 0 26.898 16.139-26.898 15.002zm58 0v31.141l-26.898-15.002zm2 0 26.898 16.139-26.898 15.002zm58 0v31.141l-26.898-15.002zm2 0 26.898 16.139-26.898 15.002zm58 0v31.141l-26.898-15.002zm2 0 26.898 16.139-26.898 15.002zm58 0v31.141l-26.898-15.002zm2 0 26.898 16.139-26.898 15.002zm58 0v31.141l-26.898-15.002zm2 0 26.898 16.139-26.898 15.002zm58 0v31.141l-26.898-15.002zm2 0 26.898 16.139-26.898 15.002zm58 0v31.141l-26.898-15.002zm2 0 26.898 16.139-26.898 15.002zm58 0v31.141l-26.816-15.051zm2 0 26.898 16.139-26.898 15.002zm-570 17.828 26.703 14.906-26.703 14.906v-28.572zm58 0v29.812l-26.703-14.906zm2 0 26.703 14.906-26.703 14.906v-28.572zm58 0v29.812l-26.703-14.906zm2 0 26.703 14.906-26.703 14.906v-28.572zm58 0v29.812l-26.703-14.906zm2 0 26.703 14.906-26.703 14.906v-28.572zm58 0v29.812l-26.703-14.906zm2 0 26.703 14.906-26.703 14.906v-28.572zm58 0v29.812l-26.703-14.906zm2 0 26.703 14.906-26.703 14.906v-28.572zm58 0v29.812l-26.703-14.906zm2 0 26.703 14.906-26.703 14.906v-28.572zm58 0v29.812l-26.703-14.906zm2 0 26.703 14.906-26.703 14.906v-28.572zm58 0v29.812l-26.703-14.906zm2 0 26.703 14.906-26.703 14.906v-28.572zm118 0v29.812l-26.703-14.906zm-60.027 0.0156 0.0273 29.797-26.703-14.906zm-509.97 16.484v31.141l-26.898-16.139zm2 0 26.898 15.002-26.898 16.139zm58 0v31.141l-26.898-16.139zm2 0 26.898 15.002-26.898 16.139zm58 0v31.141l-26.898-16.139zm2 0 26.898 15.002-26.898 16.139zm58 0v31.141l-26.898-16.139zm2 0 26.898 15.002-26.898 16.139zm58 0v31.141l-26.898-16.139zm2 0 26.898 15.002-26.898 16.139zm58 0v31.141l-26.898-16.139zm2 0 26.898 15.002-26.898 16.139zm58 0v31.141l-26.898-16.139zm2 0 26.898 15.002-26.898 16.139zm58 0v31.141l-26.898-16.139zm2 0 26.898 15.002-26.898 16.139zm58 0v31.141l-26.898-16.139zm2 0 26.898 15.002-26.898 16.139zm60 0 26.898 15.002-26.898 16.139zm-570 16.672 27.057 16.234h0.2774l-0.2774 0.16601-27.057 16.234v-16.4zm58 0v32.635l-27.057-16.234-0.2774-0.16601h0.2774zm2 0 27.057 16.234h0.2774l-0.2774 0.16601-27.057 16.234v-16.4zm58 0v32.635l-27.057-16.234-0.2774-0.16601h0.2774zm2 0 27.057 16.234h0.2774l-0.2774 0.16601-27.057 16.234v-16.4zm58 0v32.635l-27.057-16.234-0.2774-0.16601h0.2774zm2 0 27.057 16.234h0.2774l-0.2774 0.16601-27.057 16.234v-16.4zm58 0v32.635l-27.057-16.234-0.2774-0.16601h0.2774zm2 0 27.057 16.234h0.27734l-0.27734 0.16601-27.057 16.234v-16.4zm58 0v32.635l-27.057-16.234-0.27734-0.16601h0.27734zm2 0 27.057 16.234h0.27734l-0.27734 0.16601-27.057 16.234v-16.4zm58 0v32.635l-27.057-16.234-0.27734-0.16601h0.27734zm2 0 27.057 16.234h0.10742l-27.164 16.4v-16.4zm58 0v32.635l-27.057-16.234-0.27734-0.16601h0.27734zm2 0 27.057 16.234h0.27734l-0.27734 0.16601-27.057 16.234v-16.4zm58 0v32.635l-27.057-16.234-0.27734-0.16601h0.27734zm2 0 27.057 16.234h0.27734l-0.27734 0.16601-27.057 16.234v-16.4zm58 0v32.635l-27.057-16.234-0.27734-0.16601h0.27734zm2 0 26.541 16.709-26.541 15.926v-16.4zm58 0v32.635l-27.057-16.234-0.27734-0.16601h0.27734zm-570 18.166v31.141l-26.898-15.002zm2 0 26.898 16.139-26.898 15.002zm58 0v31.141l-26.898-15.002zm2 0 26.898 16.139-26.898 15.002zm58 0v31.141l-26.898-15.002zm2 0 26.898 16.139-26.898 15.002zm58 0v31.141l-26.898-15.002zm2 0 26.898 16.139-26.898 15.002zm58 0v31.141l-26.898-15.002zm2 0 26.898 16.139-26.898 15.002zm58 0v31.141l-26.898-15.002zm2 0 26.898 16.139-26.898 15.002zm60 0 26.898 16.139-26.898 15.002zm58 0v31.141l-26.898-15.002zm2 0 26.898 16.139-26.898 15.002zm58 0v31.141l-26.898-15.002zm2 0 26.898 16.139-26.898 15.002zm58 0v31.141l-26.898-15.002zm2 0 26.898 16.139-26.898 15.002zm-570 17.828 26.703 14.906-26.703 14.906v-28.572zm58 0v29.812l-26.703-14.906zm2 0 26.703 14.906-26.703 14.906v-28.572zm58 0v29.812l-26.703-14.906zm2 0 26.703 14.906-26.703 14.906v-28.572zm58 0v29.812l-26.703-14.906zm2 0 26.703 14.906-26.703 14.906v-28.572zm58 0v29.812l-26.703-14.906zm2 0 26.703 14.906-26.703 14.906v-28.572zm58 0v29.812l-26.703-14.906zm2 0 26.703 14.906-26.703 14.906v-28.572zm58 0v29.812l-26.703-14.906zm60 0v29.812l-26.703-14.906zm2 0 26.703 14.906-26.703 14.906v-28.572zm58 0v29.812l-26.703-14.906zm2 0 26.703 14.906-26.703 14.906v-28.572zm58 0v29.812l-26.703-14.906zm2 0 26.703 14.906-26.703 14.906v-28.572zm58 0v29.812l-26.703-14.906zm-570 16.5v31.141l-26.898-16.139zm2 0 26.898 15.002-26.898 16.139zm58 0v31.141l-26.898-16.139zm2 0 26.898 15.002-26.898 16.139zm58 0v31.141l-26.898-16.139zm2 0 26.898 15.002-26.898 16.139zm58 0v31.141l-26.898-16.139zm2 0 26.898 15.002-26.898 16.139zm58 0v31.141l-26.898-16.139zm2 0 26.898 15.002-26.898 16.139zm58 0v31.141l-26.898-16.139zm2 0 26.898 15.002-26.898 16.139zm58 0v31.141l-26.26-15.756c8.352-5.789 17.398-10.442 26.26-15.385zm2 0 26.898 15.002-26.898 16.139zm58 0v31.141l-26.898-16.139zm2 0 26.898 15.002-26.898 16.139zm58 0v31.141l-26.898-16.139zm2 0 26.898 15.002-26.898 16.139zm58 0v31.141l-26.898-16.139zm2 0 26.898 15.002-26.898 16.139zm-570 16.672 27.057 16.234h0.2774l-0.2774 0.16602-27.057 16.234v-16.4zm58 0v32.635l-27.057-16.234-0.2774-0.16602h0.2774zm2 0 27.057 16.234h0.2774l-0.2774 0.16602-27.057 16.234v-16.4zm58 0v32.635l-27.057-16.234-0.2774-0.16602h0.2774zm2 0 27.057 16.234h0.2774l-0.2774 0.16602-27.057 16.234v-16.4zm58 0v32.635l-27.057-16.234-0.2774-0.16602h0.2774zm2 0 27.057 16.234h0.2774l-0.2774 0.16602-27.057 16.234v-16.4zm58 0v32.635l-27.057-16.234-0.2774-0.16602h0.2774zm2 0 27.057 16.234h0.27734l-0.27734 0.16602-27.057 16.234v-16.4zm58 0v32.635l-27.057-16.234-0.27734-0.16602h0.27734zm2 0 27.057 16.234h0.27734l-0.27734 0.16602-27.057 16.234v-16.4zm58 0v32.635l-27.057-16.234-0.27734-0.16602h0.27734zm2 0 27.057 16.234h0.27734l-0.27734 0.16602-27.057 16.234v-16.4zm58 0v32.635l-27.057-16.234-0.27734-0.16602h0.27734zm2 0 27.057 16.234h0.27734l-0.27734 0.16602-27.057 16.234v-16.4zm58 0v32.635l-27.057-16.234-0.27734-0.16602h0.27734zm2 0 27.057 16.234h0.27734l-0.27734 0.16602-27.057 16.234v-16.4zm58 0v32.635l-27.057-16.234-0.27734-0.16602h0.27734zm2 0 27.057 16.234h0.27734l-0.27734 0.16602-27.057 16.234v-16.4zm58 0v32.635l-27.057-16.234-0.27734-0.16602h0.27734zm-570 18.166v31.141l-26.898-15.002zm2 0 26.898 16.139-26.898 15.002zm58 0v31.141l-26.898-15.002zm2 0 26.898 16.139-26.898 15.002zm58 0v31.141l-26.898-15.002zm60 0v31.141l-26.898-15.002zm2 0 26.898 16.139-26.898 15.002zm58 0v31.141l-26.898-15.002zm2 0 26.898 16.139-26.898 15.002zm58 0v31.141l-26.898-15.002zm2 0 26.898 16.139-26.898 15.002zm58 0v31.141l-26.898-15.002zm2 0 26.898 16.139-26.898 15.002zm58 0v31.141l-26.898-15.002zm2 0 26.898 16.139-26.898 15.002zm58 0v31.141l-26.898-15.002zm2 0 26.898 16.139-26.898 15.002zm58 0v31.141l-26.898-15.002zm2 0 26.898 16.139-26.898 15.002zm-570 17.828 26.703 14.906-26.703 14.906v-28.572zm58 0v29.812l-26.703-14.906zm2 0 26.703 14.906-26.703 14.906v-28.572zm58 0v29.812l-26.703-14.906zm2 0 26.703 14.906-26.703 14.906v-28.572zm60 0 26.703 14.906-26.703 14.906v-28.572zm58 0v29.812l-26.703-14.906zm2 0 26.703 14.906-26.703 14.906v-28.572zm58 0v29.812l-26.703-14.906zm2 0 26.703 14.906-26.703 14.906v-28.572zm58 0v29.812l-26.703-14.906zm2 0 26.703 14.906-26.703 14.906v-28.572zm58 0v29.812l-26.703-14.906zm2 0 26.703 14.906-26.703 14.906v-28.572zm58 0v29.812l-26.703-14.906zm2 0 26.703 14.906-26.703 14.906v-28.572zm58 0v29.812l-26.703-14.906zm2 0 26.703 14.906-26.703 14.906v-28.572zm58 0v29.812l-26.703-14.906zm-570 16.5v31.141l-26.898-16.139zm2 0 26.898 15.002-26.898 16.139zm58 0v31.141l-26.898-16.139zm2 0 26.898 15.002-26.898 16.139zm58 0v31.141l-26.898-16.139zm2 0 25.594 15.785-25.594 15.355zm58 0v31.141l-26.898-16.139zm2 0 26.898 15.002-26.898 16.139zm58 0v31.141l-26.898-16.139zm2 0 26.898 15.002-26.898 16.139zm58 0v31.141l-26.898-16.139zm2 0 26.898 15.002-26.898 16.139zm58 0v31.141l-26.898-16.139zm60 0v31.141l-26.898-16.139zm2 0 26.898 15.002-26.898 16.139zm60 0 26.898 15.002-26.898 16.139zm58 0v31.141l-26.898-16.139zm2 0 26.898 15.002-26.898 16.139zm-570 16.672 27.057 16.234h0.2774l-0.2774 0.16601-27.057 16.234v-16.4zm58 0v32.635l-27.057-16.234-0.2774-0.16601h0.2774zm2 0 27.057 16.234h0.2774l-0.2774 0.16601-27.057 16.234v-16.4zm58 0v32.635l-27.057-16.234-0.2774-0.16601h0.2774zm2 0 27.057 16.234h0.2774l-0.2774 0.16601-27.057 16.234v-16.4zm60 0 27.057 16.234h0.2774l-0.2774 0.16601-27.057 16.234v-16.4zm58 0v32.635l-27.057-16.234-0.2774-0.16601h0.2774zm2 0 27.057 16.234h0.27734l-0.27734 0.16601-27.057 16.234v-16.4zm58 0v32.635l-27.057-16.234-0.27734-0.16601h0.27734zm2 0 27.057 16.234h0.27734l-0.27734 0.16601-27.057 16.234v-16.4zm58 0v32.635l-27.057-16.234-0.27734-0.16601h0.27734zm2 0 27.057 16.234h0.27734l-0.27734 0.16601-27.057 16.234v-16.4zm60 0 27.057 16.234h0.27734l-0.27734 0.16601-27.057 16.234zm58 0v32.635l-27.057-16.234-0.27734-0.16601h0.27734zm60 0v32.635l-27.057-16.234-0.27734-0.16601h0.27734zm2 0 27.057 16.234h0.27734l-0.27734 0.16601-27.057 16.234v-16.4zm58 0v32.635l-27.057-16.234-0.27734-0.16601h0.27734zm-420.55 0.32813 0.5469 0.35742v31.949l-27.057-16.234-0.2774-0.16601h0.2774zm-149.45 17.838v31.141l-26.898-15.002zm2 0 26.705 16.021-3.5391 2.1992-23.166 12.92zm58 0v31.141l-26.898-15.002zm2 0 26.898 16.139-26.898 15.002zm58 0v31.141l-26.898-15.002zm2 0 26.898 16.139-26.898 15.002zm58 0v31.141l-26.898-15.002zm2 0 26.898 16.139-26.898 15.002zm58 0v31.141l-26.898-15.002zm2 0 26.898 16.139-26.898 15.002zm58 0v31.141l-26.898-15.002zm2 0 26.898 16.139-26.898 15.002zm58 0v31.141l-26.898-15.002zm2 0 26.898 16.139-26.898 15.002zm58 0v31.141l-26.898-15.002zm2 0 26.898 16.139-26.898 15.002zm58 0v31.141l-26.898-15.002zm2 0 26.898 16.139-26.898 15.002zm58 0v31.141l-26.898-15.002zm2 0 26.898 16.139-26.898 15.002zm-570 17.828 26.703 14.906-26.703 14.906v-28.572zm60 0 26.703 14.906-26.703 14.906v-28.572zm58 0v29.812l-26.703-14.906zm2 0 26.703 14.906-26.703 14.906v-28.572zm58 0v29.812l-26.703-14.906zm2 0 26.703 14.906-26.703 14.906v-28.572zm58 0v29.812l-26.703-14.906zm2 0 26.703 14.906-26.703 14.906v-28.572zm58 0v29.812l-26.703-14.906zm2 0 26.703 14.906-26.703 14.906v-28.572zm58 0v29.812l-26.703-14.906zm2 0 26.703 14.906-26.703 14.906v-28.572zm58 0v29.812l-26.703-14.906zm2 0 26.703 14.906-26.703 14.906v-28.572zm58 0v29.812l-26.703-14.906zm2 0 26.703 14.906-26.703 14.906v-28.572zm58 0v29.812l-26.703-14.906zm2 0 26.703 14.906-26.703 14.906v-28.572zm58 0v29.812l-26.703-14.906zm-570 16.5v31.141l-26.898-16.139zm60 0v31.141l-26.898-16.139zm2 0 26.898 15.002-26.898 16.139zm58 0v31.141l-26.898-16.139zm2 0 26.898 15.002-26.898 16.139zm58 0v31.141l-26.898-16.139zm2 0 26.898 15.002-26.898 16.139zm58 0v31.141l-26.898-16.139zm2 0 26.898 15.002-26.898 16.139zm58 0v31.141l-26.898-16.139zm2 0 26.898 15.002-26.898 16.139zm58 0v31.141l-26.898-16.139zm2 0 26.898 15.002-26.898 16.139zm58 0v31.141l-26.898-16.139zm2 0 26.898 15.002-26.898 16.139zm58 0v31.141l-26.898-16.139zm2 0 26.898 15.002-26.898 16.139zm58 0v31.141l-26.898-16.139zm2 0 26.898 15.002-26.898 16.139z" color="#000000" color-rendering="auto" dominant-baseline="auto" fill="#fff" filter="url(#filter5497)" image-rendering="auto" shape-rendering="auto" solid-color="#000000" style="font-feature-settings:normal;font-variant-alternates:normal;font-variant-caps:normal;font-variant-ligatures:normal;font-variant-numeric:normal;font-variant-position:normal;isolation:auto;mix-blend-mode:normal;shape-padding:0;text-decoration-color:#000000;text-decoration-line:none;text-decoration-style:solid;text-indent:0;text-orientation:mixed;text-transform:none;white-space:normal"/>
  </pattern>
 </defs>
 <metadata>
  <rdf:RDF>
   <cc:Work rdf:about="">
    <dc:format>image/svg+xml</dc:format>
    <dc:type rdf:resource="http://purl.org/dc/dcmitype/StillImage"/>
   </cc:Work>
  </rdf:RDF>
 </metadata>
 <rect transform="scale(1,-1)" x="-3.389e-6" y="-105.83" width="186.53" height="105.83" rx="0" ry="0" fill="url(#linearGradient1787)"/>
 <rect x="-3.389e-6" y="-1.6484e-6" width="186.53" height="105.83" fill="url(#pattern1766-7)" opacity=".3"/>
 <g fill="#09b960">
  <path d="m74.811 49.213 6.7469 3.7042-6.7469 3.7042z"/>
  <path d="m89.892 49.213 6.7469 3.7042-6.7469 3.7042z"/>
  <path d="m104.97 49.213 6.7469 3.7042-6.7469 3.7042z"/>
 </g>
</svg>
