<?xml version="1.0" encoding="UTF-8"?>
<!-- Created with Inkscape (http://www.inkscape.org/) -->
<svg width="164" height="314" version="1.1" xml:space="preserve" xmlns="http://www.w3.org/2000/svg" xmlns:cc="http://creativecommons.org/ns#" xmlns:dc="http://purl.org/dc/elements/1.1/" xmlns:rdf="http://www.w3.org/1999/02/22-rdf-syntax-ns#" xmlns:xlink="http://www.w3.org/1999/xlink"><defs><filter id="filter5345-0" x="-.071182" y="-.072837" width="1.1424" height="1.1457" color-interpolation-filters="sRGB"><feGaussianBlur stdDeviation="1.305"/></filter><filter id="filter5951-8" x="-.071182" y="-.072837" width="1.1424" height="1.1457" color-interpolation-filters="sRGB"><feGaussianBlur stdDeviation="1.305"/></filter><linearGradient id="linearGradient4795" x1="339.5" x2="339.5" y1="233" y2="573" gradientTransform="matrix(.54723 0 0 .54723 2742.9 -950.44)" gradientUnits="userSpaceOnUse"><stop stop-color="#e7e8e8" offset="0"/><stop stop-color="#c1c1c2" offset="1"/></linearGradient><clipPath id="clipPath6190"><path d="m2845.5-950.45v156.78h0.255v156.78h103.28l10.916-6.3019v-15.086l15.983-9.2757v-18.107l16.01-8.4914v-35.588l15.599-9.0071v-62.4h-0.255v-47.453l-15.599-9.0071v-35.588l-16.011-8.4914v-18.107l-15.983-9.2757v-17.57l-6.6142-3.8185z" fill="#fff" style="font-variation-settings:'wght' 600"/></clipPath><clipPath id="clipPath6196"><path d="m2845.5-950.45v156.78h0.255v156.78h103.28l10.916-6.3019v-15.086l15.983-9.2757v-18.107l16.01-8.4914v-35.588l15.599-9.0071v-62.4h-0.255v-47.453l-15.599-9.0071v-35.588l-16.011-8.4914v-18.107l-15.983-9.2757v-17.57l-6.6142-3.8185z" fill="#fff" style="font-variation-settings:'wght' 600"/></clipPath><clipPath id="clipPath6202"><path d="m2845.5-950.45v156.78h0.255v156.78h103.28l10.916-6.3019v-15.086l15.983-9.2757v-18.107l16.01-8.4914v-35.588l15.599-9.0071v-62.4h-0.255v-47.453l-15.599-9.0071v-35.588l-16.011-8.4914v-18.107l-15.983-9.2757v-17.57l-6.6142-3.8185z" fill="#fff" style="font-variation-settings:'wght' 600"/></clipPath></defs><metadata><rdf:RDF><cc:Work rdf:about=""><dc:format>image/svg+xml</dc:format><dc:type rdf:resource="http://purl.org/dc/dcmitype/StillImage"/></cc:Work></rdf:RDF></metadata><g transform="translate(-2845.5 950.72)"><text x="2067.4045" y="897.82764" fill="#000000" font-family="Orbitron" font-size="16px" letter-spacing="0px" word-spacing="0px" style="font-feature-settings:normal;font-variant-caps:normal;font-variant-ligatures:normal;font-variant-numeric:normal;line-height:0.25" xml:space="preserve"/><g transform="translate(2977.4 -472.58)" display="none"><rect x="4" y="-28" width="56" height="56" rx="4" fill="#16171c" opacity=".99"/><rect x="5" y="-27" width="54" height="54" rx="3" fill="#2c2f38" fill-rule="evenodd" opacity=".99"/><path d="m32-20-22 13v25l8 5 8-5v-9l-8-4v-7l14-9 14 9v7l-8 4v9l8 5 8-5v-25z" color="#000000" color-rendering="auto" display="inline" filter="url(#filter5345-0)" image-rendering="auto" opacity=".8" shape-rendering="auto" solid-color="#000000" style="isolation:auto;mix-blend-mode:normal;text-decoration-color:#000000;text-decoration-line:none;text-decoration-style:solid;text-indent:0;text-transform:none;white-space:normal"/></g><g transform="translate(2977.4 -472.58)" display="none" opacity=".98"><path d="m32-22-22 13v25l8 5 8-5v-9l-8-4v-7l14-9 14 9v7l-8 4v9l8 5 8-5v-25z" color="#000000" color-rendering="auto" display="inline" fill="#0ce05b" filter="url(#filter5497)" image-rendering="auto" opacity="1" shape-rendering="auto" solid-color="#000000" style="isolation:auto;mix-blend-mode:normal;text-decoration-color:#000000;text-decoration-line:none;text-decoration-style:solid;text-indent:0;text-transform:none;white-space:normal"/></g><g transform="translate(2977.4 -472.58)" display="none" shape-rendering="auto"><path d="m32-20-22 13v25l8 5 8-5v-9l-8-4v-7l14-9 14 9v7l-8 4v9l8 5 8-5v-25z" color="#000000" color-rendering="auto" display="inline" filter="url(#filter5951-8)" image-rendering="auto" opacity=".3" solid-color="#000000" style="isolation:auto;mix-blend-mode:normal;text-decoration-color:#000000;text-decoration-line:none;text-decoration-style:solid;text-indent:0;text-transform:none;white-space:normal"/><path d="m64-75-43 25v49l16 9 16-9v-17l-16-8v-15l27-15 27 15v15l-16 8v17l16 9 16-9v-49z" color="#000000" color-rendering="auto" display="inline" fill="#fff" filter="url(#filter5497)" image-rendering="auto" solid-color="#000000" style="isolation:auto;mix-blend-mode:normal;text-decoration-color:#000000;text-decoration-line:none;text-decoration-style:solid;text-indent:0;text-transform:none;white-space:normal"/><path d="m64.042-75.031-43.042 24.735 0.0057 49.564 15.267 8.7954 15.267-8.7954v-17.602l-13.868-7.9892v-14.36l26.369-15.133 26.285 15.133v14.36l-13.817 8.0284-0.0448 17.557 15.267 8.801 15.267-8.7954v-49.564z" color="#000000" color-rendering="auto" display="inline" fill-opacity=".20859" filter="url(#filter5497)" image-rendering="auto" solid-color="#000000" style="isolation:auto;mix-blend-mode:normal;text-decoration-color:#000000;text-decoration-line:none;text-decoration-style:solid;text-indent:0;text-transform:none;white-space:normal"/></g><rect x="2909.3" y="-950.72" width="103.09" height="314" fill="#fff" stroke-linecap="round" stroke-linejoin="round" stroke-width=".8052" style="font-variation-settings:'wght' 600"/><g stroke-width=".54723"><path d="m2742.9-636.88h372.12v-313.56h-372.12z" clip-path="url(#clipPath6202)" fill="url(#linearGradient4795)"/><path transform="matrix(1 0 0 1.006 0 5.6855)" d="m2744.7-950.44-1.7676 1.0408v1.2056l3.8158-2.2464zm9.8375 0v11.526l-11.605-6.3533v1.194l10.921 5.984-10.921 5.9834v1.1941l11.605-6.3479v16.107l-11.605-6.8333v1.2039l11.109 6.5487h0.1455l-0.1455 0.0865-11.109 6.5367v1.2056l11.605-6.8338v16.112l-11.605-6.3512v1.193l10.921 5.9845-10.921 5.9834v1.194l11.605-6.3479v16.114l-11.605-6.8398v1.2039l11.109 6.5482h0.057l-11.166 6.6116v18.661c3.7584-2.3487 7.7143-4.38 11.605-6.5098v16.114l-11.605-6.8409v1.2056l11.109 6.5476h0.1455l-0.1455 0.0854-11.109 6.5372v1.2066l11.605-6.8404v16.113l-11.605-6.3468v1.193l10.921 5.9845-10.921 5.984v1.193l11.605-6.3479v16.114l-11.605-6.8404v1.2056l11.109 6.5476h0.1455l-0.1455 0.0854-11.109 6.5372v1.2056l11.605-6.8338v16.113l-11.605-6.3528v1.194l10.921 5.9845-10.921 5.9834v1.193l11.605-6.3479v16.113l-11.605-6.8387v1.2056l11.109 6.541h0.1455l-0.1455 0.0865-11.109 6.5421v1.2056l11.605-6.8338v16.113l-11.605-6.3528v1.1941l10.921 5.9845-10.921 5.9829v1.1941l11.605-6.3479v16.114l-11.605-6.8404v1.2039l11.109 6.5421h0.1455l-0.1455 0.0865-11.109 6.5432v1.2056l11.605-6.8338v16.112l-11.605-6.3517v1.193l10.921 5.9845-10.921 5.9834v1.1941l11.605-6.3479v16.114l-11.605-6.8398v1.2039l11.109 6.5482h0.057l-11.166 6.6116v18.661c3.7584-2.3487 7.7143-4.38 11.605-6.5098v16.114l-11.605-6.8409v1.2055l11.109 6.5476h0.1455l-0.1455 0.0854-11.109 6.5372v1.2066l11.605-6.8404v16.113l-11.605-6.3468v1.193l10.921 5.9845-10.921 5.984v1.193l11.605-6.3479v14.072h16.869v-5.4504l9.2548 5.4504h2.0466l-10.726-6.315 14.173-7.763v14.078h1.055v-14.077l14.18 7.763-10.71 6.3145h2.0477l9.2482-5.4504v5.4504h16.87v-14.077l14.18 7.763-10.715 6.315h2.0477l9.2482-5.4504v5.4499h1.054v-5.4504l9.2547 5.4504h2.0467l-10.726-6.315 14.173-7.763v14.078h1.0551v-14.077l14.181 7.763-10.706 6.3145h2.0488l9.2482-5.4504v5.4504h1.054v-5.4504l9.2482 5.4504h2.0488l-10.722-6.315 14.181-7.763v14.078h1.054v-14.077l14.18 7.763-10.71 6.3145h2.0477l9.2548-5.4504v5.4504h1.0529v-5.4504l9.2547 5.4504h2.0477l-10.721-6.315 14.18-7.763v14.078h1.054v-14.077l14.181 7.763-10.722 6.3145h2.0489l9.2482-5.4504v5.4504h1.0539v-5.4504l9.2482 5.4504h2.0488l-10.722-6.315 14.181-7.763v14.078h1.054v-14.077l13.491 8.168-10.033 5.9101h2.0466l8.9675-5.2808 0.2884 0.18606v5.0942h1.0539v-5.4504l9.2482 5.4504h2.0489l-10.722-6.315 14.181-7.763v14.078h1.0528v-14.077l14.181 7.763-10.705 6.3145h2.0489l9.2481-5.4504v5.4504h1.054v-5.4504l9.2548 5.4504h2.0477l-10.721-6.315 14.18-7.763v14.078h1.054v-14.077l14.181 7.763-10.716 6.3145h2.0488l9.2482-5.4504v5.4504h1.054v-5.4504l9.2481 5.4504h2.0489l-10.722-6.315 14.181-7.763v14.078h1.055v-14.077l14.173 7.763-10.726 6.315h2.0466l9.2482-5.4504v5.4499h1.0551v-5.4504l9.2481 5.4504h2.0478l-10.721-6.315 14.18-7.763v14.078h16.87v-5.4504l9.2482 5.4504h2.0477l-10.721-6.315 14.18-7.763v14.078h1.0551v-14.077l11.566 6.3068v-1.1941l-10.844-5.9413 10.844-5.9369v-1.194l-11.527 6.3096v-16.113l11.527 6.7856v-1.2077l-11.177-6.5711h0.1456l11.031-6.5011v-1.2066l-11.527 6.79v-16.114l11.527 6.3107v-1.1941l-10.844-5.9413 10.844-5.9413v-1.194l-11.527 6.3096v-16.113l11.527 6.7906v-1.2077l-11.177-6.5761h0.1456l11.031-6.5011v-1.2055l-11.527 6.7889v-16.114l11.527 6.3107v-1.1941l-10.844-5.9413 10.844-5.9478v-1.194l-11.527 6.3096v-16.112l11.527 6.796v-1.2066l-11.177-6.5832h0.1456l11.031-6.4962v-1.2056l-11.527 6.7889v-16.114l11.527 6.3112v-1.1941l-10.844-5.9402 10.844-5.9413v-1.1952l-11.527 6.3112v-16.113l11.527 6.7889v-1.2066l-11.177-6.5832h0.1456l11.031-6.4945v-1.2066l-11.527 6.7889v-16.113l11.527 6.3063v-1.194l-10.844-5.9413 10.844-5.9364v-1.1952l-11.527 6.3112v-16.113l11.527 6.7889v-1.2066l-11.177-6.5815h0.1456l11.031-6.4962v-1.2066l-11.527 6.79v-16.114l11.527 6.3063v-1.1941l-10.844-5.9413 10.844-5.9369v-1.1941l-11.527 6.3096v-16.113l11.527 6.7856v-1.2077l-11.177-6.5711h0.1456l11.031-6.5011v-1.2066l-11.527 6.79v-16.114l11.527 6.3106v-1.194l-10.844-5.9413 10.844-5.9413v-1.194l-11.527 6.3096v-16.113l11.527 6.7906v-1.2077l-11.177-6.5761h0.1456l11.031-6.5011v-1.2056l-11.527 6.7889v-16.115l11.527 6.3112v-1.1941l-10.844-5.9407 10.844-5.9484v-1.193l-11.527 6.3096v-16.106l11.527 6.7889v-1.2061l-11.177-6.5777h0.1456l11.031-6.5022v-1.2056l-11.527 6.7884v-16.114l11.527 6.3112v-1.1941l-10.844-5.9402 10.844-5.9413v-1.1946l-11.527 6.3112v-11.526h-1.0551v11.526l-14.18-7.763 6.39-3.7633h-2.0478l-4.9228 2.9003v-2.9003h-1.0551v2.9003l-4.9289-2.9003h-2.0477l6.3905 3.7633-14.18 7.763v-11.526h-1.0551v11.526l-14.173-7.763 6.39-3.7633h-2.0477l-4.9229 2.9003v-2.9003h-1.0551v2.9003l-4.9289-2.9003h-2.0466l6.3894 3.7633-14.173 7.763v-11.526h-1.0551v11.526l-14.181-7.763 6.3905-3.7633h-2.0477l-4.9229 2.9003v-2.9003h-1.0539v2.9003l-4.9229-2.9003h-2.0478l6.3906 3.7633-14.181 7.763v-11.526h-1.054v11.526l-14.18-7.763 6.3906-3.7633h-2.0477l-4.924 2.9003v-2.9003h-1.054v2.9003l-4.9289-2.9003h-2.0477l6.3905 3.7633-14.181 7.763v-11.526h-1.0529v11.526l-14.175-7.763 6.3901-3.7633h-2.0478l-4.9229 2.9003v-2.9003h-1.0539v2.9003l-4.9295-2.9003h-2.0477l6.3905 3.7633-14.18 7.763v-11.526h-1.0539v11.526l-14.176-7.763 6.3895-3.7633h-2.0478l-4.9229 2.9003v-2.9003h-1.0539v2.9003l-4.9284-2.9003h-2.0477l6.3905 3.7633-14.181 7.763v-11.526h-1.0539v11.526l-14.173-7.763 6.39-3.7633h-2.0477l-4.924 2.9003v-2.9003h-1.0529v2.9003l-4.925-2.9003h-2.0478l6.3906 3.7633-14.18 7.763v-11.526h-1.054v11.526l-14.18-7.763 6.3906-3.7633h-2.0478l-4.9228 2.9003v-2.9003h-1.054v2.9003l-4.9229-2.9003h-2.0477l6.3905 3.7633-14.181 7.763v-11.526h-1.0551v11.526l-14.173-7.763 6.3829-3.7633h-2.0467l-4.9239 2.9003v-2.9003h-1.054v2.9003l-4.9284-2.9003h-2.0477l6.3906 3.7633-14.18 7.763v-11.526h-1.055v11.526l-14.173-7.763 6.3895-3.7633h-2.0478l-4.9228 2.9003v-2.9003h-1.0551v2.9003l-4.9284-2.9003h-2.0477l6.3906 3.7633-14.18 7.763v-11.526h-1.055v11.526l-14.173-7.763 6.3884-3.7633h-2.0467l-4.9239 2.9003v-2.9003h-1.0551v2.9003l-4.9272-2.9003h-2.0478l6.3906 3.7633-14.18 7.763v-11.526h-1.0539zm356.77 0 3.7376 2.2015v-1.2066l-1.6964-0.99486h-2.0466zm-340.96 4.6378v15.425l-14.076-7.7116zm1.055 0 14.078 7.7132-14.078 7.7116zm30.575 0v15.425l-14.077-7.7116 14.077-7.7138zm1.0551 0 14.076 7.7138-14.076 7.7116zm30.575 0v15.425l-14.077-7.7116 14.077-7.7138zm1.054 0 14.078 7.7138-14.078 7.7116zm30.576 0v15.425l-14.079-7.7116 14.078-7.7138zm1.054 0 14.078 7.7132-14.078 7.7116v-15.425zm30.576 0v15.425l-14.079-7.7116 14.074-7.7132zm1.0529 0 14.078 7.7138-14.078 7.7116zm30.576 0v15.425l-14.076-7.7116 14.076-7.7138zm1.0539 0 14.078 7.7132-14.078 7.7116v-15.425zm30.576 0v15.425l-14.078-7.7116 14.073-7.7138zm1.054 0 14.076 7.7138-14.076 7.7116zm30.575 0v15.425l-14.077-7.7116 14.076-7.7138zm1.0539 0 14.078 7.7132-14.078 7.7116v-15.425zm30.576 0v15.425l-14.078-7.7116 14.078-7.7138zm1.054 0 14.076 7.7138-14.076 7.7116zm30.575 0v15.425l-14.077-7.7116 14.076-7.7138zm1.055 0 14.077 7.7132-14.078 7.7116v-15.425zm30.575 0v15.425l-14.078-7.7116 14.078-7.7138zm1.0551 0 14.076 7.7132-14.076 7.7116zm-332.12 8.5368 14.18 7.7641-14.18 8.3507v-16.116zm30.575 0v16.113l-14.173-8.3507 14.173-7.7636zm1.0551 0 14.18 7.7641-14.18 8.3507v-16.116zm30.575 0v16.113l-14.18-8.3507 14.18-7.7636zm1.0551 0 14.18 7.7641-14.18 8.3507v-16.116zm30.574 0v16.113l-14.173-8.3507 14.173-7.7636zm1.0551 0 14.181 7.7641-14.181 8.3507v-16.116zm30.576 0v16.113l-14.181-8.3507 14.176-7.7636zm1.054 0 14.18 7.7641-14.18 8.3507v-16.116zm30.575 0v16.113l-14.18-8.3507 14.18-7.7636zm1.0539 0 14.181 7.7641-14.181 8.3507v-16.116zm31.63 0 14.18 7.7641-14.18 8.3507v-16.116zm30.576 0v16.113l-14.181-8.3507 14.175-7.7636zm1.0529 0 14.181 7.7641-14.181 8.3507v-16.116zm30.576 0v16.113l-14.18-8.3507 14.18-7.7636zm1.0539 0 14.181 7.7641-14.181 8.3507v-16.116zm31.632 0 14.173 7.7641-14.173 8.3507v-16.116zm30.574 0v16.113l-14.18-8.3507 14.18-7.7636zm1.0551 0 14.18 7.7641-14.18 8.3507v-16.116zm30.575 0v16.113l-14.18-8.3507 14.18-7.7636zm-332.12 8.6271v16.886l-14.409-8.4804h0.1467l14.262-8.4zm1.055 0 14.265 8.4055h0.1455l-0.1455 0.0865-14.264 8.4v-16.892zm30.575 0v16.886l-14.41-8.4804h0.1478l14.262-8.4zm1.0551 0 14.263 8.4h0.1455l-0.1455 0.0865-14.263 8.4zm30.575 0v16.701l-0.1056 0.12313-14.305-8.4246h0.1467l14.263-8.4zm1.054 0 14.265 8.4055h0.1455l-0.1455 0.0865-14.264 8.4v-16.892zm30.576 0v16.886l-14.411-8.4804h0.1478l14.263-8.4zm1.054 0 14.263 8.4h0.1466l-14.41 8.4864zm30.576 0v16.886l-14.411-8.4804h0.1466l14.264-8.4zm1.0529 0 14.265 8.4055h0.1456l-0.1456 0.0865-14.264 8.4v-16.892zm30.576 0v16.886l-14.41-8.4804h0.1466l14.263-8.4zm31.63 0v16.886l-14.411-8.4804h0.1467l14.264-8.4zm1.0539 0 14.263 8.4h0.1456l-0.1456 0.0865-14.263 8.4zm30.575 0v16.886l-14.41-8.4804h0.1466l14.263-8.4zm1.054 0 14.265 8.4055h0.1467l-14.411 8.4864v-16.892zm30.576 0-0.066 16.855-14.337-8.4492h0.1466l14.252-8.4055zm31.63 0v16.886l-14.409-8.4864h0.1456l14.263-8.4zm1.055 0 14.263 8.4055h0.1467l-14.41 8.4864zm30.575 0v16.886l-14.411-8.4804h0.1467l14.263-8.4zm1.0551 0 14.262 8.4055h0.1478l-0.1478 0.0865-14.262 8.4v-16.892zm-332.12 9.4003 14.18 8.3507-14.18 7.7608zm30.575 0v16.112l-14.173-7.7619 14.173-8.3507zm1.055 0 14.18 8.3507-14.18 7.7608zm30.575 0v16.112l-14.18-7.7619 14.18-8.3507zm1.0551 0 14.18 8.3507-14.18 7.7619zm30.574 0v16.112l-14.136-7.7871 14.136-8.325zm1.0551 0 14.181 8.3507-14.181 7.7619zm30.576 0v16.112l-14.181-7.7619 14.181-8.3507zm1.054 0 14.18 8.3507-14.18 7.7619zm30.575 0v16.112l-14.18-7.7619 14.18-8.3507zm1.0539 0 14.181 8.3507-14.181 7.7619zm30.576 0v16.112l-14.181-7.7619 14.181-8.3507zm1.054 0 14.18 8.3507-14.18 7.7619zm30.576 0v16.112l-14.181-7.7619 14.181-8.3507zm1.0528 0 14.181 8.3507-14.181 7.7619zm30.576 0v16.112l-14.18-7.7619 14.18-8.3507zm1.054 0 14.181 8.3507-14.181 7.7619zm30.576 0v16.112l-14.181-7.7619 14.181-8.3507zm1.055 0 14.173 8.3507-14.173 7.7619zm30.574 0v16.112l-14.18-7.7619 14.18-8.3507zm1.055 0 14.18 8.3507-14.18 7.7619zm30.575 0v16.112l-14.18-7.7619 14.18-8.3507zm-332.12 9.2247v15.425l-14.076-7.7121 14.076-7.7127zm1.055 0 14.078 7.7132-14.078 7.7127v-15.432zm30.575 0v15.425l-14.077-7.7121 14.077-7.7127zm1.0551 0 14.076 7.7127-14.076 7.7127zm62.206 0v15.425l-14.079-7.7121 14.078-7.7127zm1.054 0 14.078 7.7132-14.078 7.7127v-15.426zm30.576 0v15.425l-14.079-7.7121 14.079-7.7127zm1.0529 0 14.078 7.7127-14.078 7.7127zm30.576 0v15.425l-14.076-7.7121 14.076-7.7127zm1.0539 0 14.078 7.7132-14.078 7.7127v-15.426zm30.576 0v15.425l-14.078-7.7121 14.078-7.7127zm1.054 0 14.076 7.7127-14.076 7.7127zm30.575 0v15.425l-14.077-7.7121 14.076-7.7127zm1.0539 0 14.078 7.7132-14.078 7.7127v-15.426zm30.576 0v15.425l-14.078-7.7121 14.078-7.7127zm1.054 0 14.076 7.7127-14.076 7.7127zm30.575 0v15.425l-14.077-7.7121 14.076-7.7127zm1.055 0 14.077 7.7132-14.078 7.7127v-15.432zm30.575 0v15.425l-14.078-7.7121 14.078-7.7127zm1.0551 0 14.076 7.7132-14.076 7.7127zm-254.11 8e-3 0.014 15.418-14.076-7.7127 14.062-7.705zm-78.007 8.5291 14.18 7.7641-14.18 8.3507zm30.575 0v16.114l-14.173-8.3507 14.173-7.7641zm1.055 0 14.18 7.7641-14.18 8.3507zm30.575 0v16.114l-14.18-8.3507 14.18-7.7641zm1.0551 0 14.18 7.7641-14.18 8.3507zm31.63 0 14.181 7.7641-14.181 8.3507zm30.576 0v16.114l-14.181-8.3507 14.176-7.7641zm1.054 0 14.18 7.7641-14.18 8.3507zm30.575 0v16.114l-14.18-8.3507 14.18-7.7641zm1.0539 0 14.181 7.7641-14.181 8.3507zm30.576 0v16.114l-14.181-8.3507 14.175-7.7641zm1.054 0 14.18 7.7641-14.18 8.3507zm30.576 0v16.114l-14.181-8.3507 14.181-7.7641zm1.0528 0 14.181 7.7641-14.181 8.3507zm30.576 0v16.114l-14.18-8.3507 14.174-7.7641zm1.054 0 14.181 7.7641-14.181 8.3507zm30.576 0v16.114l-14.181-8.3507 14.181-7.7641zm1.055 0 14.173 7.7641-14.173 8.3507zm30.574 0v16.114l-14.18-8.3507 14.18-7.7641zm1.055 0 14.18 7.7641-14.18 8.3507zm30.575 0v16.114l-14.18-8.3507 14.174-7.7641zm-332.12 8.6271v16.886l-14.409-8.4804h0.1467l14.262-8.4zm1.055 0 14.265 8.4054h0.1455l-0.1455 0.0854-14.264 8.4011v-16.892zm30.575 0v16.886l-14.41-8.4804h0.1478l14.262-8.4zm1.0551 0 14.263 8.4h0.1455l-0.1455 0.0854-14.263 8.4011zm30.575 0v16.886l-14.41-8.4804h0.1466l14.263-8.4zm1.054 0 13.992 8.6462-13.992 8.2413zm30.576 0v16.886l-14.411-8.4804h0.1478l14.263-8.4zm1.054 0 14.263 8.4h0.1466l-0.1466 0.0854-14.263 8.4011zm30.576 0v16.886l-14.411-8.4804h0.1466l14.264-8.4zm1.0529 0 14.265 8.4054h0.1456l-0.1456 0.0854-14.264 8.4011v-16.892zm30.576 0v16.886l-14.41-8.4804h0.1466l14.263-8.4zm1.0539 0 14.263 8.4h0.1467l-0.1467 0.0854-14.263 8.4011zm30.576 0v16.886l-14.411-8.4804h0.1467l14.264-8.4zm1.054 0 14.264 8.4054h0.1456l-0.1456 0.0854-14.263 8.4011v-16.892zm30.575 0v16.886l-14.41-8.4804h0.1466l14.263-8.4zm1.0539 0 14.264 8.4054h0.1467l-0.1467 0.0854-14.264 8.4011zm30.576 0v16.886l-14.41-8.4804h0.1467l14.263-8.4zm1.054 0 14.264 8.4054h0.1467l-0.1467 0.0854-14.263 8.4011v-16.892zm30.575 0v16.886l-14.409-8.4864h0.1456l14.263-8.4zm1.055 0 14.263 8.4054h0.056l-14.319 8.4864zm30.575 0v16.886l-14.411-8.4804h0.1467l14.263-8.4zm1.0551 0 14.262 8.4054h0.1478l-0.1478 0.0854-14.262 8.4011v-16.892zm-332.12 9.3992 14.18 8.3518-14.18 7.7619v-16.113zm30.575 0v16.113l-14.173-7.7619 14.173-8.3518zm1.055 0 14.18 8.3518-14.18 7.7619v-16.113zm30.575 0v16.113l-14.18-7.7619 14.18-8.3518zm1.0551 0 14.18 8.3518-14.18 7.7619v-16.113zm30.574 0v16.113l-14.173-7.7619 14.173-8.3518zm1.0551 0 14.181 8.3518-14.181 7.7619v-16.113zm30.576 0v16.113l-14.181-7.7619 14.181-8.3518zm1.054 0 14.18 8.3518-14.18 7.7619v-16.113zm30.575 0v16.113l-14.18-7.7619 14.18-8.3518zm1.0539 0 14.181 8.3518-14.181 7.7619v-16.113zm30.576 0v16.113l-14.181-7.7619 14.181-8.3518zm1.054 0 14.18 8.3518-14.18 7.7619v-16.113zm30.576 0v16.113l-14.181-7.7619 14.181-8.3518zm1.0528 0 14.181 8.3518-14.181 7.7619v-16.113zm30.576 0v16.113l-14.18-7.7619 14.18-8.3518zm1.054 0 14.181 8.3518-14.181 7.7619v-16.113zm30.576 0v16.113l-14.181-7.7619 14.181-8.3518zm1.055 0 14.173 8.3518-14.173 7.7619v-16.113zm31.63 0 14.18 8.3518-14.18 7.7619v-16.113zm30.575 0v16.113l-14.18-7.7619 14.174-8.3518zm-332.12 9.2247v15.432l-14.076-7.7176 14.076-7.7138zm1.055 0 14.078 7.7138-14.078 7.7127v-15.432zm30.575 0v15.432l-14.077-7.7176 14.077-7.7138zm1.0551 0 14.076 7.7138-14.076 7.7127v-15.432zm30.575 0v15.432l-14.077-7.7127 14.077-7.7138zm1.054 0 14.078 7.7138-14.078 7.7127v-15.432zm30.576 0v15.432l-14.079-7.7176 14.078-7.7138zm1.054 0 14.077 7.7138-14.077 7.7127v-15.432zm30.576 0v15.432l-14.079-7.7127 14.079-7.7138zm1.0529 0 14.078 7.7138-14.078 7.7127v-15.432zm30.576 0v15.432l-14.076-7.7127 14.076-7.7138zm1.0539 0 14.078 7.7138-14.078 7.7127v-15.432zm30.576 0v15.432l-14.078-7.7127 14.078-7.7138zm1.054 0 14.076 7.7138-14.076 7.7127v-15.432zm30.575 0v15.432l-14.076-7.7127 14.076-7.7138zm1.0539 0 14.078 7.7138-14.078 7.7127v-15.432zm30.576 0v15.432l-14.078-7.7127 14.078-7.7138zm1.054 0 14.076 7.7138-14.076 7.7127v-15.432zm30.575 0v15.432l-14.076-7.7127 14.076-7.7138zm31.63 0v15.432l-14.078-7.7127 14.078-7.7138zm1.055 0 14.076 7.7138-14.076 7.7127v-15.432zm-332.12 8.5379 14.18 7.763-14.18 8.3518v-16.114zm30.575 0v16.114l-14.173-8.3518 14.173-7.763zm1.055 0 14.18 7.763-14.18 8.3518v-16.114zm30.575 0v16.114l-14.18-8.3518 14.18-7.763zm1.0551 0 14.18 7.763-14.18 8.3518v-16.114zm30.574 0v16.114l-14.173-8.3518 14.173-7.763zm1.0551 0 14.181 7.763-14.181 8.3518v-16.114zm30.576 0v16.114l-14.181-8.3518 14.181-7.763zm1.054 0 14.18 7.763-14.18 8.3518v-16.114zm30.575 0v16.114l-14.18-8.3518 14.18-7.763zm1.0539 0 14.181 7.763-14.181 8.3518v-16.114zm30.576 0v16.114l-14.181-8.3518 14.181-7.763zm1.054 0 14.18 7.763-14.18 8.3518v-16.114zm30.576 0v16.114l-14.181-8.3518 14.181-7.763zm1.0528 0 14.181 7.763-14.181 8.3518v-16.114zm30.576 0v16.114l-14.18-8.3518 14.18-7.763zm1.054 0 14.181 7.763-14.181 8.3518v-16.114zm30.576 0v16.114l-14.181-8.3518 14.181-7.763zm1.055 0 14.173 7.763-14.173 8.3518v-16.114zm30.574 0v16.114l-13.842-8.1526c4.403-2.9955 9.1705-5.4039 13.842-7.9622zm1.055 0 14.18 7.763-14.18 8.3518v-16.114zm30.575 0v16.114l-14.18-8.3518 14.18-7.763zm-332.12 8.6271v16.886l-14.409-8.4804h0.1467l14.262-8.4zm1.055 0 14.265 8.4054h0.1455l-0.1455 0.0854-14.264 8.4011v-16.892zm30.575 0v16.886l-14.41-8.4804h0.1478l14.262-8.4zm1.0551 0 14.263 8.4054h0.1455l-0.1455 0.0854-14.263 8.4011zm30.575 0v16.886l-14.41-8.4804h0.1466l14.263-8.4zm1.054 0 14.265 8.4054h0.1455l-0.1455 0.0854-14.264 8.4011v-16.892zm30.576 0v16.886l-14.411-8.4804h0.1478l14.263-8.4zm1.054 0 14.263 8.4054h0.1466l-0.1466 0.0854-14.263 8.4011zm30.576 0v16.886l-14.411-8.4804h0.1466l14.264-8.4zm1.0529 0 14.265 8.4054h0.1456l-0.1456 0.0854-14.264 8.4011v-16.892zm30.576 0v16.886l-14.41-8.4804h0.1466l14.263-8.4zm1.0539 0 14.263 8.4054h0.1467l-0.1467 0.0854-14.263 8.4011zm30.576 0v16.886l-14.411-8.4804h0.1467l14.264-8.4zm1.054 0 14.262 8.4054h0.1456l-0.1456 0.0854-14.263 8.4011v-16.892zm30.575 0v16.886l-14.41-8.4804h0.1466l14.263-8.4zm1.0539 0 14.264 8.4054h0.1467l-0.1467 0.0854-14.264 8.4011zm30.576 0v16.886l-14.41-8.4804h0.1467l14.263-8.4zm1.054 0 14.262 8.4054h0.1467l-0.1467 0.0854-14.263 8.4011v-16.892zm30.575 0v16.886l-14.409-8.4804h0.1456l14.263-8.4zm1.055 0 14.263 8.4054h0.1467l-0.1467 0.0854-14.263 8.4011zm30.575 0v16.886l-14.411-8.4804h0.1467l14.263-8.4zm1.0551 0 14.261 8.4054h0.1477l-0.1477 0.0854-14.262 8.4011v-16.892zm-332.12 9.3992 14.18 8.3518-14.18 7.7619v-16.113zm30.575 0v16.113l-14.173-7.7619 14.173-8.3518zm1.055 0 14.18 8.3518-14.18 7.7619v-16.113zm30.575 0v16.113l-14.18-7.7619 14.18-8.3518zm1.0551 0 14.18 8.3518-14.18 7.7619v-16.113zm30.574 0v16.113l-14.173-7.7619 14.173-8.3518zm1.0551 0 14.181 8.3518-14.181 7.7619v-16.113zm30.576 0v16.113l-14.181-7.7619 14.181-8.3518zm1.054 0 14.18 8.3518-14.18 7.7619v-16.113zm30.575 0v16.113l-14.18-7.7619 14.18-8.3518zm1.0539 0 14.181 8.3518-14.181 7.7619v-16.113zm30.576 0v16.113l-14.181-7.7619 14.181-8.3518zm31.63 0v16.113l-14.181-7.7619 14.181-8.3518zm1.0529 0 14.181 8.3518-14.181 7.7619v-16.113zm30.576 0v16.113l-14.18-7.7619 14.18-8.3518zm1.0539 0 14.181 8.3518-14.181 7.7619v-16.113zm30.576 0v16.113l-14.181-7.7619 14.181-8.3518zm1.0551 0 14.173 8.3518-14.173 7.7619v-16.113zm30.574 0v16.113l-14.18-7.7619 14.18-8.3518zm1.0551 0 14.18 8.3518-14.18 7.7619v-16.113zm30.575 0v16.113l-14.18-7.7619 14.18-8.3518zm-332.12 9.2252v15.432l-14.076-7.7181 14.076-7.7138zm1.055 0 14.078 7.7138-14.078 7.7127v-15.432zm30.575 0v15.432l-14.077-7.7181 14.077-7.7138zm1.0551 0 14.076 7.7138-14.076 7.7127v-15.432zm30.575 0v15.432l-14.077-7.7127 14.077-7.7138zm1.054 0 14.078 7.7138-14.078 7.7127v-15.432zm30.576 0v15.432l-14.079-7.7181 14.078-7.7138zm1.054 0 14.077 7.7138-14.077 7.7127v-15.432zm30.576 0v15.432l-14.079-7.7127 14.079-7.7138zm1.0529 0 14.078 7.7138-14.078 7.7127v-15.432zm30.576 0v15.432l-14.076-7.7127 14.076-7.7138zm1.0539 0 14.078 7.7138-14.078 7.7127v-15.432zm31.63 0 14.076 7.7138-14.076 7.7127v-15.432zm30.575 0v15.432l-14.076-7.7127 14.076-7.7138zm1.054 0 14.078 7.7138-14.078 7.7127v-15.432zm30.576 0v15.432l-14.078-7.7127 14.078-7.7138zm1.0539 0 14.076 7.7138-14.076 7.7127v-15.432zm30.575 0v15.432l-14.076-7.7127 14.076-7.7138zm1.0551 0 14.078 7.7138-14.078 7.7127v-15.432zm30.575 0v15.432l-14.078-7.7127 14.078-7.7138zm1.055 0 14.076 7.7138-14.076 7.7127v-15.432zm-301.54 8.5379v16.114l-14.173-8.3518 14.173-7.763zm1.055 0 14.18 7.763-14.18 8.3518v-16.114zm31.63 0 14.18 7.763-14.18 8.3518v-16.114zm30.574 0v16.114l-14.173-8.3518 14.173-7.763zm1.055 0 14.181 7.763-14.181 8.3518v-16.114zm30.576 0v16.114l-14.181-8.3518 14.181-7.763zm1.054 0 14.18 7.763-14.18 8.3518v-16.114zm30.575 0v16.114l-14.18-8.3518 14.18-7.763zm1.054 0 14.181 7.763-14.181 8.3518v-16.114zm30.576 0v16.114l-14.181-8.3518 14.181-7.763zm1.0539 0 13.492 8.168-13.492 7.9458v-16.114zm30.576 0v16.114l-14.181-8.3518 14.181-7.763zm1.0529 0 14.181 7.763-14.181 8.3518v-16.114zm30.576 0v16.114l-14.18-8.3518 14.18-7.763zm1.0539 0 14.181 7.763-14.181 8.3518v-16.114zm30.576 0v16.114l-14.181-8.3518 14.181-7.763zm1.0551 0 14.173 7.763-14.173 8.3518v-16.114zm30.574 0v16.114l-14.18-8.3518 14.18-7.763zm31.63 0v16.114l-14.18-8.3518 14.18-7.763zm-331.06 8.6265 14.265 8.4055h0.1455l-0.1455 0.0854-14.264 8.4011v-16.892zm30.575 0v16.886l-14.41-8.4804h0.1478l14.262-8.4zm31.63 0v16.886l-14.41-8.4864h0.1467l14.263-8.4zm1.054 0 14.264 8.4h0.1455l-0.1455 0.0854-14.264 8.4011zm30.576 0v16.886l-14.411-8.4864h0.1477l14.263-8.4zm1.054 0 14.263 8.4h0.1467l-0.1467 0.0854-14.263 8.4011zm30.576 0v16.886l-14.411-8.4864h0.1467l14.264-8.4zm1.0529 0 14.264 8.4h0.1455l-0.1455 0.0854-14.264 8.4011zm30.576 0v16.886l-14.41-8.4864h0.1466l14.263-8.4zm1.054 0 14.263 8.4h0.1467l-0.1467 0.0854-14.263 8.4011zm31.63 0 14.263 8.4h0.1456l-0.1456 0.0854-14.263 8.4011zm30.575 0v16.886l-14.41-8.4864h0.1467l14.263-8.4zm1.0539 0 14.264 8.4h0.1467l-0.1467 0.0854-14.264 8.4011zm30.576 0v16.886l-14.41-8.4864h0.1466l14.263-8.4zm1.054 0 14.263 8.4h0.1466l-0.1466 0.0854-14.263 8.4011zm30.575 0v16.886l-14.409-8.4864h0.1456l14.263-8.4zm1.055 0 14.263 8.4h0.1467l-0.1467 0.0854-14.263 8.4011zm31.63 0 14.262 8.4h0.1477l-0.1477 0.0854-14.262 8.4011v-16.886zm-127.86 0.16417 0.2884 0.18606v16.526l-14.411-8.4864h0.1466l13.976-8.2303zm-204.25 9.2356 14.18 8.3507-14.18 7.763v-16.113zm30.575 0v16.113l-14.173-7.763 14.173-8.3507zm1.055 0 14.18 8.3507-14.18 7.763v-16.113zm30.575 0v16.113l-14.18-7.763 14.18-8.3507zm1.0551 0 14.18 8.3507-14.18 7.763v-16.113zm30.574 0v16.113l-14.173-7.763 14.173-8.3507zm1.0551 0 14.181 8.3507-14.181 7.763v-16.113zm30.576 0v16.113l-14.181-7.763 14.181-8.3507zm1.054 0 14.078 8.2894-1.865 1.1382-12.212 6.6855v-16.113zm30.575 0v16.113l-14.18-7.763 14.18-8.3507zm1.0539 0 14.181 8.3507-14.181 7.763v-16.113zm30.576 0v16.113l-14.181-7.763 14.181-8.3507zm1.054 0 14.18 8.3507-14.18 7.763v-16.113zm30.576 0v16.113l-14.181-7.763 14.181-8.3507zm1.0528 0 14.181 8.3507-14.181 7.763v-16.113zm30.576 0v16.113l-14.18-7.763 14.18-8.3507zm1.054 0 14.181 8.3507-14.181 7.763v-16.113zm30.576 0v16.113l-14.181-7.763 14.181-8.3507zm1.055 0 14.173 8.3507-14.173 7.763v-16.113zm30.574 0v16.113l-14.18-7.763 14.18-8.3507zm1.055 0 14.18 8.3507-14.18 7.763v-16.113zm30.575 0v16.113l-14.18-7.763 14.18-8.3507zm-332.12 9.2247v15.432l-14.076-7.7181 14.076-7.7138zm1.055 0 14.078 7.7138-14.078 7.7127v-15.432zm30.575 0v15.432l-14.077-7.7181 14.077-7.7138zm1.0551 0 14.076 7.7138-14.076 7.7127v-15.432zm30.575 0v15.432l-14.077-7.7127 14.077-7.7138zm1.054 0 14.078 7.7138-14.078 7.7127v-15.432zm30.576 0v15.432l-14.079-7.7181 14.078-7.7138zm1.054 0 14.077 7.7138-14.077 7.7127v-15.432zm31.63 0 14.078 7.7138-14.078 7.7127v-15.432zm30.576 0v15.432l-14.076-7.7127 14.076-7.7138zm1.054 0 14.078 7.7138-14.078 7.7127v-15.432zm30.576 0v15.432l-14.078-7.7127 14.078-7.7138zm1.0539 0 14.076 7.7138-14.076 7.7127v-15.432zm30.575 0v15.432l-14.076-7.7127 14.076-7.7138zm1.054 0 14.078 7.7138-14.078 7.7127v-15.432zm30.576 0v15.432l-14.078-7.7127 14.078-7.7138zm1.0539 0 14.076 7.7138-14.076 7.7127v-15.432zm30.575 0v15.432l-14.076-7.7127 14.076-7.7138zm1.0551 0 14.078 7.7138-14.078 7.7127v-15.432zm30.575 0v15.432l-14.077-7.7127 14.077-7.7138zm1.0551 0 14.076 7.7138-14.076 7.7127v-15.432zm-332.12 8.5379 14.18 7.763-14.18 8.3507v-16.113zm30.575 0v16.113l-14.173-8.3507 14.173-7.763zm1.055 0 14.18 7.763-14.18 8.3507v-16.113zm30.575 0v16.113l-14.18-8.3507 14.18-7.763zm1.0551 0 14.18 7.763-14.18 8.3507v-16.113zm30.574 0v16.113l-14.173-8.3507 14.173-7.763zm1.0551 0 14.181 7.763-14.181 8.3507v-16.113zm30.576 0v16.113l-14.181-8.3507 14.181-7.763zm31.63 0v16.113l-14.18-8.3507 14.18-7.763zm1.054 0 14.181 7.763-14.181 8.3507v-16.113zm30.576 0v16.113l-14.181-8.3507 14.181-7.763zm1.0539 0 14.18 7.763-14.18 8.3507v-16.113zm30.576 0v16.113l-14.181-8.3507 14.181-7.763zm1.0529 0 14.181 7.763-14.181 8.3507v-16.113zm30.576 0v16.113l-14.18-8.3507 14.18-7.763zm1.0539 0 14.181 7.763-14.181 8.3507v-16.113zm30.576 0v16.113l-14.181-8.3507 14.181-7.763zm1.0551 0 14.173 7.763-14.173 8.3507v-16.113zm30.574 0v16.113l-14.18-8.3507 14.18-7.763zm1.0551 0 14.18 7.763-14.18 8.3507v-16.113zm30.575 0v16.113l-14.18-8.3507 14.18-7.763zm-332.12 8.6265v16.888l-14.409-8.4821h0.1467l14.262-8.3989zm1.055 0 14.265 8.4054h0.1455l-0.1455 0.0865-14.265 8.3956zm30.575 0v16.888l-14.41-8.4821h0.1478l14.262-8.3989zm1.0551 0 14.263 8.3989h0.1455l-0.1455 0.0865-14.263 8.4011zm30.575 0v16.888l-14.41-8.4821h0.1466l14.263-8.3989zm1.054 0 14.265 8.4054h0.1455l-0.1455 0.0865-14.264 8.4011v-16.888zm30.576 0v16.888l-14.411-8.4821h0.1478l14.263-8.3989zm1.054 0 14.263 8.3989h0.1466l-14.41 8.4821zm30.576 0v16.888l-14.411-8.4821h0.6862l13.724-8.3989zm1.0529 0 14.265 8.4054h0.1456l-0.1456 0.0865-14.264 8.4011v-16.888zm30.576 0v16.888l-14.41-8.4821h0.1467l14.263-8.3989zm1.0539 0 14.263 8.3989h0.1467l-14.41 8.4821zm30.576 0v16.888l-14.411-8.4821h0.1466l14.264-8.3989zm1.054 0 14.263 8.3989h0.1456l-0.1456 0.0865-14.263 8.4011zm30.575 0v16.888l-14.41-8.4821h0.1467l14.263-8.3989zm1.0539 0 14.264 8.4054h0.1467l-14.411 8.4821zm30.576 0v16.888l-14.41-8.4821h0.1467l14.263-8.3989zm1.054 0 14.263 8.3989h0.1466l-14.41 8.4821zm30.575 0v16.888l-14.409-8.4821h0.1456l14.263-8.3989zm1.055 0 14.263 8.4054h0.1467l-14.41 8.4821zm30.575 0v16.888l-14.41-8.4821h0.1467l14.263-8.3989zm1.0551 0 14.262 8.3989h0.1478l-0.1478 0.0865-14.262 8.4011v-16.886zm-332.12 9.3998 14.18 8.3507-14.18 7.763v-16.113zm30.575 0v16.113l-14.173-7.763 14.173-8.3507zm1.055 0 14.18 8.3507-14.18 7.763v-16.113zm30.575 0v16.113l-14.18-7.763 14.18-8.3507zm1.0551 0 14.18 8.3507-14.18 7.763v-16.113zm30.574 0v16.113l-14.173-7.763 14.173-8.3507zm1.0551 0 14.181 8.3507-14.181 7.763v-16.113zm30.576 0v16.113l-14.181-7.763 14.181-8.3507zm1.054 0 14.18 8.3507-14.18 7.763v-16.113zm30.575 0v16.113l-14.18-7.763 14.18-8.3507zm1.0539 0 14.181 8.3507-14.181 7.763v-16.113zm30.576 0v16.113l-14.181-7.763 14.181-8.3507zm1.054 0 14.18 8.3507-14.18 7.763v-16.113zm30.576 0v16.113l-14.181-7.763 14.181-8.3507zm1.0528 0 14.181 8.3507-14.181 7.763v-16.113zm30.576 0v16.113l-14.18-7.763 14.18-8.3507zm1.054 0 14.181 8.3507-14.181 7.763v-16.113zm30.576 0v16.113l-14.181-7.763 14.181-8.3507zm1.055 0 14.173 8.3507-14.173 7.763v-16.113zm30.574 0v16.113l-14.18-7.763 14.18-8.3507zm1.055 0 14.18 8.3507-14.18 7.763v-16.113zm30.575 0v16.113l-14.18-7.763 14.18-8.3507zm-332.12 9.2252v15.425l-14.076-7.7121 14.076-7.7138zm1.055 0 14.078 7.7138-14.078 7.7116v-15.425zm30.575 0v15.425l-14.077-7.7121 14.077-7.7138zm1.0551 0 14.076 7.7138-14.076 7.7116v-15.425zm30.575 0v15.425l-14.077-7.7116zm1.054 0 14.078 7.7138-14.078 7.7116v-15.425zm30.576 0v15.425l-14.079-7.7121 14.078-7.7138zm1.054 0 14.077 7.7138-14.077 7.7116v-15.425zm30.576 0v15.425l-14.079-7.7116zm1.0529 0 14.078 7.7138-14.078 7.7116v-15.425zm30.576 0v15.425l-14.076-7.7116zm1.0539 0 14.078 7.7138-14.078 7.7116v-15.425zm30.576 0v15.425l-14.078-7.7116zm1.054 0 14.076 7.7138-14.076 7.7116v-15.425zm30.575 0v15.425l-14.076-7.7116zm1.0539 0 14.078 7.7138-14.078 7.7116v-15.425zm30.576 0v15.425l-14.078-7.7116zm1.054 0 14.076 7.7138-14.076 7.7116v-15.425zm30.575 0v15.425l-14.076-7.7116zm1.055 0 14.078 7.7138-14.078 7.7116v-15.425zm30.575 0v15.425l-14.078-7.7116zm1.0551 0 14.076 7.7138-14.076 7.7116v-15.425zm-332.12 8.5368 14.18 7.7641-14.18 8.3507v-16.114zm30.575 0v16.114l-14.173-8.3507zm1.0551 0 14.18 7.7641-14.18 8.3507v-16.114zm30.575 0v16.114l-14.18-8.3507zm1.0551 0 14.18 7.7641-14.18 8.3507v-16.114zm30.574 0v16.114l-14.173-8.3507zm1.0551 0 14.181 7.7641-14.181 8.3507v-16.114zm30.576 0v16.114l-14.181-8.3507zm1.054 0 14.18 7.7641-14.18 8.3507v-16.114zm30.575 0v16.114l-14.18-8.3507zm1.0539 0 14.181 7.7641-14.181 8.3507v-16.114zm31.63 0 14.18 7.7641-14.18 8.3507v-16.114zm30.576 0v16.114l-14.181-8.3507zm1.0529 0 14.181 7.7641-14.181 8.3507v-16.114zm30.576 0v16.114l-14.18-8.3507zm1.0539 0 14.181 7.7641-14.181 8.3507v-16.114zm31.632 0 14.173 7.7641-14.173 8.3507v-16.114zm30.574 0v16.114l-14.18-8.3507zm1.0551 0 14.18 7.7641-14.18 8.3507v-16.114zm30.575 0v16.114l-14.18-8.3507zm-332.12 8.6271v16.886l-14.409-8.4864h0.1467l14.262-8.4zm1.055 0 14.265 8.4054h0.1455l-0.1455 0.0865-14.264 8.4v-16.892zm30.575 0v16.886l-14.41-8.4804h0.1478l14.262-8.4zm1.0551 0 14.263 8.4h0.1455l-0.1455 0.0865-14.263 8.4zm30.575 0v16.701l-0.1056 0.12313-14.305-8.4246h0.1467l14.263-8.4zm1.054 0 14.265 8.4054h0.1455l-0.1455 0.0865-14.264 8.4v-16.892zm30.576 0v16.886l-14.411-8.4864h0.1478l14.263-8.4zm1.054 0 14.263 8.4h0.1466l-14.41 8.4864zm30.576 0v16.886l-14.411-8.4864h0.1466l14.264-8.4zm1.0529 0 14.265 8.4054h0.1456l-0.1456 0.0865-14.264 8.4v-16.892zm30.576 0v16.886l-14.41-8.4864h0.1467l14.263-8.4zm31.63 0v16.886l-14.411-8.4864h0.1467l14.264-8.4zm1.0539 0 14.263 8.4h0.1456l-0.1456 0.0865-14.263 8.4zm30.575 0v16.886l-14.41-8.4864h0.1466l14.263-8.4zm1.054 0 14.265 8.4054h0.1467l-14.411 8.4864v-16.892zm30.576 0-0.066 16.855-14.337-8.4492h0.1466l14.263-8.4zm31.63 0v16.886l-14.409-8.4864h0.1456l14.263-8.4zm1.055 0 14.263 8.4054h0.1467l-14.41 8.4864zm30.575 0v16.886l-14.41-8.4864h0.1467l14.263-8.4zm1.0551 0 14.262 8.4054h0.1478l-0.1478 0.0865-14.262 8.4v-16.892zm-332.12 9.4003 14.18 8.3507-14.18 7.7619v-16.112zm30.575 0v16.112l-14.173-7.7619 14.173-8.3507zm1.055 0 14.18 8.3507-14.18 7.7619v-16.112zm30.575 0v16.112l-14.18-7.7619 14.18-8.3507zm1.0551 0 14.18 8.3507-14.18 7.7619v-16.112zm30.574 0v16.112l-14.136-7.7871zm1.0551 0 14.181 8.3507-14.181 7.7619v-16.112zm30.576 0v16.112l-14.181-7.7619 14.181-8.3507zm1.054 0 14.18 8.3507-14.18 7.7619v-16.112zm30.575 0v16.112l-14.18-7.7619 14.18-8.3507zm1.0539 0 14.181 8.3507-14.181 7.7619v-16.112zm30.576 0v16.112l-14.181-7.7619 14.181-8.3507zm1.054 0 14.18 8.3507-14.18 7.7619v-16.112zm30.576 0v16.112l-14.181-7.7619 14.181-8.3507zm1.0528 0 14.181 8.3507-14.181 7.7619v-16.112zm30.576 0v16.112l-14.18-7.7619 14.18-8.3507zm1.054 0 14.181 8.3507-14.181 7.7619v-16.112zm30.576 0v16.112l-14.181-7.7619 14.181-8.3507zm1.055 0 14.173 8.3507-14.173 7.7619v-16.112zm30.574 0v16.112l-14.18-7.7619 14.18-8.3507zm1.055 0 14.18 8.3507-14.18 7.7619v-16.112zm30.575 0v16.112l-14.18-7.7619 14.18-8.3507zm-332.12 9.2246v15.425l-14.076-7.7121 14.076-7.7127zm1.055 0 14.078 7.7127-14.078 7.7127v-15.425zm30.575 0v15.425l-14.077-7.7121 14.077-7.7127zm1.0551 0 14.076 7.7127-14.076 7.7127v-15.425zm62.206 0v15.425l-14.079-7.7121 14.078-7.7127zm1.054 0 14.077 7.7127-14.077 7.7127v-15.425zm30.576 0v15.425l-14.079-7.7127zm1.0529 0 14.078 7.7127-14.078 7.7127v-15.425zm30.576 0v15.425l-14.076-7.7127zm1.0539 0 14.078 7.7127-14.078 7.7127v-15.425zm30.576 0v15.425l-14.078-7.7127zm1.054 0 14.076 7.7127-14.076 7.7127v-15.425zm30.575 0v15.425l-14.076-7.7127zm1.0539 0 14.078 7.7127-14.078 7.7127v-15.425zm30.576 0v15.425l-14.078-7.7127zm1.054 0 14.076 7.7127-14.076 7.7127v-15.425zm30.575 0v15.425l-14.076-7.7127zm1.055 0 14.078 7.7127-14.078 7.7127v-15.425zm30.575 0v15.425l-14.078-7.7127zm1.0551 0 14.076 7.7127-14.076 7.7127v-15.425zm-254.11 8e-3 0.014 15.418-14.076-7.7127 14.062-7.705zm-78.008 8.5291 14.18 7.7641-14.18 8.3507v-16.114zm30.575 0v16.114l-14.173-8.3507zm1.0551 0 14.18 7.7641-14.18 8.3507v-16.114zm30.575 0v16.114l-14.18-8.3507zm1.055 0 14.18 7.7641-14.18 8.3507v-16.114zm31.63 0 14.181 7.7641-14.181 8.3507v-16.114zm30.576 0v16.114l-14.181-8.3507zm1.0539 0 14.18 7.7641-14.18 8.3507v-16.114zm30.575 0v16.114l-14.18-8.3507zm1.054 0 14.181 7.7641-14.181 8.3507v-16.114zm30.576 0v16.114l-14.181-8.3507 14.176-7.7636zm1.0539 0 14.18 7.7641-14.18 8.3507v-16.114zm30.576 0v16.114l-14.181-8.3507zm1.0529 0 14.181 7.7641-14.181 8.3507v-16.114zm30.576 0v16.114l-14.18-8.3507zm1.0539 0 14.181 7.7641-14.181 8.3507v-16.114zm30.576 0v16.114l-14.181-8.3507zm1.0551 0 14.173 7.7641-14.173 8.3507v-16.114zm30.574 0v16.114l-14.18-8.3507zm1.0551 0 14.18 7.7641-14.18 8.3507v-16.114zm30.575 0v16.114l-14.18-8.3507 14.175-7.7636zm-332.12 8.6271v16.886l-14.409-8.4804h0.1467l14.262-8.4zm1.055 0 14.265 8.4055h0.1455l-0.1455 0.0854-14.264 8.4011v-16.892zm30.575 0v16.886l-14.41-8.4804h0.1478l14.262-8.4zm1.0551 0 14.263 8.4h0.1455l-0.1455 0.0854-14.263 8.4011zm30.575 0v16.886l-14.41-8.4804h0.1466l14.263-8.4zm1.054 0 13.992 8.6462-13.992 8.2413zm30.576 0v16.886l-14.411-8.4804h0.1478l14.263-8.4zm1.054 0 14.263 8.4h0.1466l-0.1466 0.0854-14.263 8.4011zm30.576 0v16.886l-14.411-8.4804h0.1466l14.264-8.4zm1.0529 0 14.265 8.4055h0.1456l-0.1456 0.0854-14.264 8.4011v-16.892zm30.576 0v16.886l-14.41-8.4804h0.1466l14.263-8.4zm1.0539 0 14.263 8.4h0.1467l-0.1467 0.0854-14.263 8.4011zm30.576 0v16.886l-14.411-8.4804h0.1467l14.264-8.4zm1.054 0 14.264 8.4055h0.1456l-0.1456 0.0854-14.263 8.4011v-16.892zm30.575 0v16.886l-14.41-8.4804h0.1466l14.263-8.4zm1.0539 0 14.264 8.4055h0.1467l-0.1467 0.0854-14.264 8.4011zm30.576 0v16.886l-14.41-8.4804h0.1467l14.263-8.4zm1.054 0 14.264 8.4055h0.1467l-0.1467 0.0854-14.263 8.4011v-16.892zm30.575 0v16.886l-14.409-8.4864h0.1456l14.263-8.4zm1.055 0 14.263 8.4055h0.056l-14.319 8.4864zm30.575 0v16.886l-14.411-8.4804h0.1467l14.263-8.4zm1.0551 0 14.262 8.4055h0.1478l-0.1478 0.0854-14.262 8.4011v-16.892zm-332.12 9.3992 14.18 8.3518-14.18 7.7619v-16.113zm30.575 0v16.113l-14.173-7.7619 14.173-8.3518zm1.055 0 14.18 8.3518-14.18 7.7619v-16.113zm30.575 0v16.113l-14.18-7.7619 14.18-8.3518zm1.0551 0 14.18 8.3518-14.18 7.7619v-16.113zm30.574 0v16.113l-14.173-7.7619 14.173-8.3518zm1.0551 0 14.181 8.3518-14.181 7.7619v-16.113zm30.576 0v16.113l-14.181-7.7619 14.181-8.3518zm1.054 0 14.18 8.3518-14.18 7.7619v-16.113zm30.575 0v16.113l-14.18-7.7619 14.18-8.3518zm1.0539 0 14.181 8.3518-14.181 7.7619v-16.113zm30.576 0v16.113l-14.181-7.7619 14.181-8.3518zm1.054 0 14.18 8.3518-14.18 7.7619v-16.113zm30.576 0v16.113l-14.181-7.7619 14.181-8.3518zm1.0528 0 14.181 8.3518-14.181 7.7619v-16.113zm30.576 0v16.113l-14.18-7.7619 14.18-8.3518zm1.054 0 14.181 8.3518-14.181 7.7619v-16.113zm30.576 0v16.113l-14.181-7.7619 14.181-8.3518zm1.055 0 14.173 8.3518-14.173 7.7619v-16.113zm31.63 0 14.18 8.3518-14.18 7.7619v-16.113zm30.575 0v16.113l-14.18-7.7619 14.174-8.3518zm-332.12 9.2246v15.432l-14.076-7.7176 14.076-7.7138zm1.055 0 14.078 7.7138-14.078 7.7127v-15.432zm30.575 0v15.432l-14.077-7.7176 14.077-7.7138zm1.0551 0 14.076 7.7138-14.076 7.7127v-15.432zm30.575 0v15.432l-14.077-7.7127 14.077-7.7138zm1.054 0 14.078 7.7138-14.078 7.7127v-15.432zm30.576 0v15.432l-14.079-7.7176 14.078-7.7138zm1.054 0 14.077 7.7138-14.077 7.7127v-15.432zm30.576 0v15.432l-14.079-7.7127 14.079-7.7138zm1.0529 0 14.078 7.7138-14.078 7.7127v-15.432zm30.576 0v15.432l-14.076-7.7127 14.076-7.7138zm1.0539 0 14.078 7.7138-14.078 7.7127v-15.432zm30.576 0v15.432l-14.078-7.7127 14.078-7.7138zm1.054 0 14.076 7.7138-14.076 7.7127v-15.432zm30.575 0v15.432l-14.076-7.7127 14.076-7.7138zm1.0539 0 14.078 7.7138-14.078 7.7127v-15.432zm30.576 0v15.432l-14.078-7.7127 14.078-7.7138zm1.054 0 14.076 7.7138-14.076 7.7127v-15.432zm30.575 0v15.432l-14.076-7.7127 14.076-7.7138zm31.63 0v15.432l-14.078-7.7127 14.078-7.7138zm1.055 0 14.076 7.7138-14.076 7.7127v-15.432zm-332.12 8.5379 14.18 7.763-14.18 8.3518v-16.114zm30.575 0v16.114l-14.173-8.3518 14.173-7.763zm1.055 0 14.18 7.763-14.18 8.3518v-16.114zm30.575 0v16.114l-14.18-8.3518 14.18-7.763zm1.0551 0 14.18 7.763-14.18 8.3518v-16.114zm30.574 0v16.114l-14.173-8.3518 14.173-7.763zm1.0551 0 14.181 7.763-14.181 8.3518v-16.114zm30.576 0v16.114l-14.181-8.3518 14.181-7.763zm1.054 0 14.18 7.763-14.18 8.3518v-16.114zm30.575 0v16.114l-14.18-8.3518 14.18-7.763zm1.0539 0 14.181 7.763-14.181 8.3518v-16.114zm30.576 0v16.114l-14.181-8.3518 14.181-7.763zm1.054 0 14.18 7.763-14.18 8.3518v-16.114zm30.576 0v16.114l-14.181-8.3518 14.181-7.763zm1.0528 0 14.181 7.763-14.181 8.3518v-16.114zm30.576 0v16.114l-14.18-8.3518 14.18-7.763zm1.054 0 14.181 7.763-14.181 8.3518v-16.114zm30.576 0v16.114l-14.181-8.3518 14.181-7.763zm1.055 0 14.173 7.763-14.173 8.3518v-16.114zm30.574 0v16.114l-13.842-8.1526c4.403-2.9955 9.1705-5.4039 13.842-7.9622zm1.055 0 14.18 7.763-14.18 8.3518v-16.114zm30.575 0v16.114l-14.18-8.3518 14.18-7.763zm-332.12 8.6271v16.886l-14.409-8.4804h0.1467l14.262-8.4zm1.055 0 14.265 8.4054h0.1455l-0.1455 0.0854-14.264 8.4011v-16.892zm30.575 0v16.886l-14.41-8.4804h0.1478l14.262-8.4zm1.0551 0 14.263 8.4054h0.1455l-0.1455 0.0854-14.263 8.4011zm30.575 0v16.886l-14.41-8.4804h0.1466l14.263-8.4zm1.054 0 14.265 8.4054h0.1455l-0.1455 0.0854-14.264 8.4011v-16.892zm30.576 0v16.886l-14.411-8.4804h0.1478l14.263-8.4zm1.054 0 14.263 8.4054h0.1466l-0.1466 0.0854-14.263 8.4011zm30.576 0v16.886l-14.411-8.4804h0.1466l14.264-8.4zm1.0529 0 14.265 8.4054h0.1456l-0.1456 0.0854-14.264 8.4011v-16.892zm30.576 0v16.886l-14.41-8.4804h0.1466l14.263-8.4zm1.0539 0 14.263 8.4054h0.1467l-0.1467 0.0854-14.263 8.4011zm30.576 0v16.886l-14.411-8.4804h0.1467l14.264-8.4zm1.054 0 14.262 8.4054h0.1456l-0.1456 0.0854-14.263 8.4011v-16.892zm30.575 0v16.886l-14.41-8.4804h0.1466l14.263-8.4zm1.0539 0 14.264 8.4054h0.1467l-0.1467 0.0854-14.264 8.4011zm30.576 0v16.886l-14.41-8.4804h0.1467l14.263-8.4zm1.054 0 14.262 8.4054h0.1467l-0.1467 0.0854-14.263 8.4011v-16.892zm30.575 0v16.886l-14.409-8.4804h0.1456l14.263-8.4zm1.055 0 14.263 8.4054h0.1467l-0.1467 0.0854-14.263 8.4011zm30.575 0v16.886l-14.411-8.4804h0.1467l14.263-8.4zm1.0551 0 14.261 8.4054h0.1477l-0.1477 0.0854-14.262 8.4011v-16.892zm-332.12 9.3992 14.18 8.3518-14.18 7.7619v-16.113zm30.575 0v16.113l-14.173-7.7619 14.173-8.3518zm1.055 0 14.18 8.3518-14.18 7.7619v-16.113zm30.575 0v16.113l-14.18-7.7619 14.18-8.3518zm1.0551 0 14.18 8.3518-14.18 7.7619v-16.113zm30.574 0v16.113l-14.173-7.7619 14.173-8.3518zm1.0551 0 14.181 8.3518-14.181 7.7619v-16.113zm30.576 0v16.113l-14.181-7.7619 14.181-8.3518zm1.054 0 14.18 8.3518-14.18 7.7619v-16.113zm30.575 0v16.113l-14.18-7.7619 14.18-8.3518zm1.0539 0 14.181 8.3518-14.181 7.7619v-16.113zm30.576 0v16.113l-14.181-7.7619 14.181-8.3518zm31.63 0v16.113l-14.181-7.7619 14.181-8.3518zm1.0529 0 14.181 8.3518-14.181 7.7619v-16.113zm30.576 0v16.113l-14.18-7.7619 14.18-8.3518zm1.0539 0 14.181 8.3518-14.181 7.7619v-16.113zm30.576 0v16.113l-14.181-7.7619 14.181-8.3518zm1.0551 0 14.173 8.3518-14.173 7.7619v-16.113zm30.574 0v16.113l-14.18-7.7619 14.18-8.3518zm1.0551 0 14.18 8.3518-14.18 7.7619v-16.113zm30.575 0v16.113l-14.18-7.7619 14.18-8.3518zm-332.12 9.2252v15.432l-14.076-7.7181 14.076-7.7138zm1.055 0 14.078 7.7138-14.078 7.7127v-15.432zm30.575 0v15.432l-14.077-7.7181 14.077-7.7138zm1.0551 0 14.076 7.7138-14.076 7.7127v-15.432zm30.575 0v15.432l-14.077-7.7127 14.077-7.7138zm1.054 0 14.078 7.7138-14.078 7.7127v-15.432zm30.576 0v15.432l-14.079-7.7181 14.078-7.7138zm1.054 0 14.077 7.7138-14.077 7.7127v-15.432zm30.576 0v15.432l-14.079-7.7127 14.079-7.7138zm1.0529 0 14.078 7.7138-14.078 7.7127v-15.432zm30.576 0v15.432l-14.076-7.7127 14.076-7.7138zm1.0539 0 14.078 7.7138-14.078 7.7127v-15.432zm31.63 0 14.076 7.7138-14.076 7.7127v-15.432zm30.575 0v15.432l-14.076-7.7127 14.076-7.7138zm1.054 0 14.078 7.7138-14.078 7.7127v-15.432zm30.576 0v15.432l-14.078-7.7127 14.078-7.7138zm1.0539 0 14.076 7.7138-14.076 7.7127v-15.432zm30.575 0v15.432l-14.076-7.7127 14.076-7.7138zm1.0551 0 14.078 7.7138-14.078 7.7127v-15.432zm30.575 0v15.432l-14.078-7.7127 14.078-7.7138zm1.055 0 14.076 7.7138-14.076 7.7127v-15.432zm-344.77 17.817v1.2056l6.0989 3.5926h2.0477zm372.12 0.0449-8.0683 4.7532h2.0466l6.0217-3.546v-1.2066z" clip-path="url(#clipPath6196)" dominant-baseline="auto" fill="#fff" opacity=".45242"/><path transform="translate(0 18.822)" d="m2929-857.42-47.062 27.362v52.534l15.322 9.8501 16.417-9.8501v-17.511l-16.417-8.7557v-17.511l31.739-18.606 31.739 18.606v17.511l-16.417 8.7557v17.511l16.417 9.8501 15.322-9.8501v-52.534z" clip-path="url(#clipPath6190)" fill="#09b960" style="mix-blend-mode:normal"/></g></g></svg>
