<?xml version="1.0" encoding="UTF-8" standalone="no"?>
<!-- Created with Inkscape (http://www.inkscape.org/) -->

<svg
   width="64"
   height="64"
   id="svg4034"
   version="1.1"
   enable-background="new"
   xmlns:xlink="http://www.w3.org/1999/xlink"
   xmlns="http://www.w3.org/2000/svg"
   xmlns:svg="http://www.w3.org/2000/svg"
   xmlns:rdf="http://www.w3.org/1999/02/22-rdf-syntax-ns#"
   xmlns:cc="http://creativecommons.org/ns#"
   xmlns:dc="http://purl.org/dc/elements/1.1/">
  <defs
     id="defs4036">
    <filter
       style="color-interpolation-filters:sRGB"
       id="filter4400"
       x="-0.03888"
       width="1.07776"
       y="-0.03888"
       height="1.07776">
      <feGaussianBlur
         stdDeviation="0.24299998"
         id="feGaussianBlur4402" />
    </filter>
    <linearGradient
       xlink:href="#a"
       id="linearGradient4432"
       gradientUnits="userSpaceOnUse"
       x1="9.8838835"
       y1="-9.8994951"
       x2="10.275496"
       y2="27.930717"
       gradientTransform="translate(0,32)" />
    <filter
       style="color-interpolation-filters:sRGB"
       id="filter1"
       x="-0.037584"
       y="-0.040268571"
       width="1.075168"
       height="1.0805371">
      <feGaussianBlur
         stdDeviation="0.4698"
         id="feGaussianBlur1" />
    </filter>
    <filter
       id="c"
       x="-0.029988572"
       y="-0.031488"
       width="1.0599771"
       height="1.062976"
       color-interpolation-filters="sRGB">
      <feGaussianBlur
         stdDeviation="0.5248"
         id="feGaussianBlur1-5" />
    </filter>
    <linearGradient
       id="a"
       x1="4"
       x2="60"
       y1="32"
       y2="32"
       gradientTransform="rotate(90,5.8961861,-1.8507535)"
       gradientUnits="userSpaceOnUse">
      <stop
         stop-color="#09b960"
         offset="0"
         id="stop2" />
      <stop
         stop-color="#009a4d"
         offset="1"
         id="stop3" />
    </linearGradient>
  </defs>
  <metadata
     id="metadata4039">
    <rdf:RDF>
      <cc:Work
         rdf:about="">
        <dc:format>image/svg+xml</dc:format>
        <dc:type
           rdf:resource="http://purl.org/dc/dcmitype/StillImage" />
      </cc:Work>
    </rdf:RDF>
  </metadata>
  <path
     id="path4273"
     d="M 10,2 C 8.892,2 8,2.892 8,4 v 56 c 0,1.108 0.892,2 2,2 h 44 c 1.108,0 2,-0.892 2,-2 V 17 c 0,-1 -1,-2 -1,-2 L 43,3 C 43,3 42,2 41,2 Z"
     style="display:inline;fill:#00d36d;fill-opacity:1;stroke:none;stroke-opacity:1" />
  <path
     id="path4275"
     d="M 10,3 C 9.446,3 9,3.446 9,4 v 56 c 0,0.554 0.446,1 1,1 h 44 c 0.554,0 1,-0.446 1,-1 V 17 L 42,16 41,3 Z"
     style="display:inline;fill:url(#linearGradient4432);fill-opacity:1;fill-rule:evenodd;stroke:none;stroke-width:1;stroke-miterlimit:4;stroke-dasharray:none;stroke-opacity:1" />
  <path
     id="path4339-5"
     d="m 40,3 v 11.999999 c 0,2 1,3 3,3 h 11.999999 v -1 L 41,3 Z"
     style="display:inline;opacity:1;fill:#000000;fill-opacity:0.12;fill-rule:evenodd;stroke:none;stroke-width:1px;stroke-linecap:butt;stroke-linejoin:miter;stroke-opacity:1;filter:url(#filter4400)" />
  <path
     id="path4339"
     d="m 41,3 v 12 c 0,1.03125 0.9375,2 2,2 H 55 V 16 L 42,3 Z"
     style="display:inline;fill:#00d36d;fill-opacity:1;fill-rule:evenodd;stroke:none;stroke-width:1px;stroke-linecap:butt;stroke-linejoin:miter;stroke-opacity:1" />
  <path
     style="color:#000000;font-style:normal;font-variant:normal;font-weight:normal;font-stretch:normal;font-size:medium;line-height:normal;font-family:sans-serif;text-indent:0;text-align:start;text-decoration:none;text-decoration-line:none;text-decoration-style:solid;text-decoration-color:#000000;letter-spacing:normal;word-spacing:normal;text-transform:none;writing-mode:lr-tb;direction:ltr;baseline-shift:baseline;text-anchor:start;white-space:normal;clip-rule:nonzero;display:inline;overflow:visible;visibility:visible;opacity:1;isolation:auto;mix-blend-mode:normal;color-interpolation:sRGB;color-interpolation-filters:linearRGB;solid-color:#000000;solid-opacity:1;fill:#000000;fill-opacity:0.14901961;fill-rule:nonzero;stroke:none;stroke-width:0.977975;stroke-linecap:butt;stroke-linejoin:miter;stroke-miterlimit:4;stroke-dasharray:none;stroke-dashoffset:0;stroke-opacity:1;filter:url(#filter1);color-rendering:auto;image-rendering:auto;shape-rendering:auto;text-rendering:auto;enable-background:accumulate"
     d="m 32,20.99952 -15,8 v 17.5 l 5,2.5 4.999999,-2.5 v -6 L 22,37.99952 v -6 l 10,-5.5 10,5.5 v 6 l -4.999999,2.5 v 6 l 4.999999,2.5 5,-2.5 v -17.5 z"
     id="path1" />
  <path
     style="color:#000000;font-style:normal;font-variant:normal;font-weight:normal;font-stretch:normal;font-size:medium;line-height:normal;font-family:sans-serif;text-indent:0;text-align:start;text-decoration:none;text-decoration-line:none;text-decoration-style:solid;text-decoration-color:#000000;letter-spacing:normal;word-spacing:normal;text-transform:none;writing-mode:lr-tb;direction:ltr;baseline-shift:baseline;text-anchor:start;white-space:normal;clip-rule:nonzero;display:inline;overflow:visible;visibility:visible;isolation:auto;mix-blend-mode:normal;color-interpolation:sRGB;color-interpolation-filters:linearRGB;solid-color:#000000;solid-opacity:1;fill:#ffffff;fill-opacity:1;fill-rule:nonzero;stroke:none;stroke-width:0.977975;stroke-linecap:butt;stroke-linejoin:miter;stroke-miterlimit:4;stroke-dasharray:none;stroke-dashoffset:0;stroke-opacity:1;filter:url(#filter5497);color-rendering:auto;image-rendering:auto;shape-rendering:auto;text-rendering:auto;enable-background:accumulate"
     d="m 32,20 -15,8 v 17.5 l 5,2.5 4.999999,-2.5 v -6 L 22,37 V 31 L 32,25.5 42,31 v 6 l -4.999999,2.5 v 6 L 42,48 47,45.5 V 28 Z"
     id="path4265" />
</svg>
