<svg xmlns="http://www.w3.org/2000/svg" height="573" width="680"><defs><filter height="1.025" y="-.012" width="1.023" x="-.012" id="A" color-interpolation-filters="sRGB"><feGaussianBlur stdDeviation=".42"/></filter><linearGradient y2="573" x2="339.5" y1="233" x1="339.5" id="B" gradientUnits="userSpaceOnUse"><stop offset="0" stop-color="#27ab5f"/><stop offset="1" stop-color="#249a56"/></linearGradient></defs><path d="M.001 573h680V0h-680z" fill="url(#B)"/><path dominant-baseline="auto" d="M3.23 0L0 1.902v2.203L6.973 0zm17.977 0v21.063L0 9.453v2.182L19.957 22.57 0 33.504v2.182l21.207-11.6V53.52L0 41.033v2.2L20.3 55.2h.266l-.266.158L0 67.303v2.203l21.207-12.488V86.46L0 74.854v2.18L19.957 87.97 0 98.904v2.182l21.207-11.6v29.447L0 106.434v2.2L20.3 120.6h.104L0 132.682v34.1c6.868-4.292 14.097-8.004 21.207-11.896v29.447L0 171.832v2.203L20.3 186h.266l-.266.156L0 198.102v2.205l21.207-12.5v29.445L0 205.654v2.18l19.957 10.936L0 229.705v2.18l21.207-11.6v29.447L0 237.232v2.203L20.3 251.4h.266l-.266.156L0 263.502v2.203l21.207-12.488v29.445L0 271.053v2.182l19.957 10.936L0 295.105v2.18l21.207-11.6v29.445L0 302.633v2.203l20.3 11.953h.266l-.266.158L0 328.902v2.203l21.207-12.488v29.445L0 336.453v2.182l19.957 10.936L0 360.504v2.182l21.207-11.6v29.447L0 368.033v2.2l20.3 11.955h.266l-.266.158L0 394.303v2.203l21.207-12.488v29.443L0 401.854v2.18l19.957 10.936L0 425.904v2.182l21.207-11.6v29.447L0 433.434v2.2L20.3 447.6h.104L0 459.682v34.1c6.868-4.292 14.097-8.004 21.207-11.896v29.447L0 498.832v2.203L20.3 513h.266l-.266.156L0 525.102v2.205l21.207-12.5v29.445L0 532.654v2.18l19.957 10.936L0 556.705v2.18l21.207-11.6V573h30.826v-9.96L68.945 573h3.74l-19.6-11.54 25.9-14.186V573h1.928v-25.725l25.912 14.186L87.254 573h3.742l16.9-9.96V573h30.828v-25.725l25.912 14.186-19.58 11.54h3.742l16.9-9.96V573h1.926v-9.96l16.912 9.96h3.74l-19.6-11.54 25.9-14.186V573h1.928v-25.725l25.914 14.186L202.854 573h3.744l16.9-9.96V573h1.926v-9.96l16.9 9.96h3.744l-19.594-11.54 25.914-14.186V573h1.926v-25.725l25.912 14.186L260.654 573h3.742l16.912-9.96V573h1.924v-9.96l16.912 9.96h3.742l-19.592-11.54 25.912-14.186V573h1.926v-25.725l25.914 14.186L318.453 573h3.744l16.9-9.96V573h1.926v-9.96l16.9 9.96h3.744l-19.594-11.54 25.914-14.186V573h1.926v-25.725l24.654 14.926-18.334 10.8h3.74l16.387-9.65.527.34V573h1.926v-9.96l16.9 9.96h3.744l-19.594-11.54 25.914-14.186V573h1.924v-25.725l25.914 14.186L434.053 573h3.744l16.9-9.96V573h1.926v-9.96l16.912 9.96h3.742l-19.592-11.54 25.912-14.186V573h1.926v-25.725l25.914 14.186L491.854 573h3.744l16.9-9.96V573h1.926v-9.96l16.9 9.96h3.744l-19.594-11.54 25.914-14.186V573h1.928v-25.725l25.9 14.186-19.6 11.54h3.74l16.9-9.96V573h1.928v-9.96l16.9 9.96h3.742l-19.592-11.54 25.912-14.186V573h30.828v-9.96l16.9 9.96h3.742l-19.592-11.54 25.912-14.186V573h1.928v-25.725L680 558.8v-2.182l-19.816-10.857L680 534.912v-2.182l-21.064 11.53v-29.445l21.064 12.4v-2.207L659.576 513h.266L680 501.12v-2.205l-21.064 12.408v-29.447L680 493.408v-2.182l-19.816-10.857L680 469.512v-2.182l-21.064 11.53v-29.445L680 461.824v-2.207L659.576 447.6h.266L680 435.72v-2.203l-21.064 12.406v-29.447L680 428.008v-2.182l-19.816-10.857L680 404.1v-2.182l-21.064 11.53v-29.443L680 396.424v-2.205l-20.424-12.03h.266L680 370.318v-2.203l-21.064 12.406v-29.447L680 362.607v-2.182l-19.816-10.855L680 338.713v-2.184l-21.064 11.533v-29.445L680 331.023v-2.205l-20.424-12.03h.266L680 304.92v-2.205l-21.064 12.406v-29.445L680 297.2v-2.182l-19.816-10.857L680 273.313v-2.184l-21.064 11.533v-29.445L680 265.623v-2.205l-20.424-12.027h.266L680 239.52v-2.205l-21.064 12.408v-29.447L680 231.8v-2.182l-19.816-10.857L680 207.912v-2.182l-21.064 11.53v-29.445l21.064 12.4v-2.207L659.576 186h.266L680 174.12v-2.205l-21.064 12.408v-29.447L680 166.408v-2.182l-19.816-10.857L680 142.512v-2.182l-21.064 11.53v-29.445L680 134.824v-2.207L659.576 120.6h.266L680 108.72v-2.203l-21.064 12.406V89.475L680 101.008v-2.182L660.184 87.97 680 77.1v-2.18l-21.064 11.53V57.018L680 69.424V67.22L659.576 55.2h.266L680 43.318v-2.203L658.936 53.52V24.074L680 35.607v-2.182L660.184 22.57 680 11.713V9.53l-21.064 11.533V0h-1.928v21.063L631.096 6.877 642.773 0h-3.742l-8.996 5.3V0h-1.928v5.3L619.1 0h-3.742l11.678 6.877-25.912 14.186V0h-1.928v21.063l-25.9-14.186L584.973 0h-3.742l-8.996 5.3V0h-1.928v5.3L561.3 0h-3.74l11.676 6.877-25.9 14.186V0h-1.928v21.063L515.494 6.877 527.172 0h-3.742l-8.996 5.3V0h-1.926v5.3L503.512 0h-3.742l11.678 6.877-25.914 14.186V0h-1.926v21.063L457.695 6.877 469.373 0h-3.742l-8.998 5.3V0h-1.926v5.3L445.7 0h-3.742l11.678 6.877-25.914 14.186V0h-1.924v21.063L399.895 6.877 411.572 0h-3.742l-8.996 5.3V0h-1.926v5.3L387.9 0h-3.742l11.678 6.877-25.912 14.186V0h-1.926v21.063L342.094 6.877 353.77 0h-3.742l-8.996 5.3V0h-1.926v5.3L330.1 0h-3.742l11.678 6.877-25.914 14.186V0h-1.926v21.063l-25.9-14.186L295.973 0h-3.742l-8.998 5.3V0h-1.924v5.3l-9-5.3h-3.742l11.678 6.877-25.912 14.186V0h-1.926v21.063L226.494 6.877 238.172 0h-3.742l-8.996 5.3V0h-1.926v5.3L214.512 0h-3.742l11.678 6.877-25.914 14.186V0h-1.928v21.063l-25.9-14.186L180.37 0h-3.74l-8.998 5.3V0h-1.926v5.3L156.7 0h-3.742l11.678 6.877-25.912 14.186V0h-1.928v21.063l-25.9-14.186L122.572 0h-3.742l-8.996 5.3V0h-1.928v5.3L98.9 0h-3.742l11.678 6.877-25.912 14.186V0h-1.928v21.063l-25.9-14.186L64.77 0h-3.74l-8.998 5.3V0h-1.928v5.3L41.1 0h-3.742l11.678 6.877-25.912 14.186V0h-1.926zM673.17 0L680 4.023V1.818L676.9 0h-3.74zM50.105 8.475v28.187L24.383 22.57zm1.928 0L77.758 22.57 52.033 36.662zm55.873 0v28.187L82.182 22.57l25.725-14.096zm1.928 0l25.723 14.096-25.723 14.092zm55.873 0v28.187L139.982 22.57l25.725-14.096zm1.926 0l25.725 14.096-25.725 14.092zm55.875 0v28.187L197.78 22.57l25.727-14.096zm1.926 0L251.16 22.57l-25.725 14.092V8.475zm55.875 0v28.187L255.582 22.57 281.3 8.475zm1.924 0l25.725 14.096-25.725 14.092zm55.875 0v28.187L313.385 22.57l25.723-14.096zm1.926 0L366.76 22.57l-25.725 14.092V8.475zm55.875 0v28.187L371.184 22.57 396.9 8.474zm1.926 0l25.723 14.096-25.723 14.092zm55.873 0v28.187L428.984 22.57l25.723-14.096zm1.926 0L482.36 22.57l-25.725 14.092V8.475zm55.875 0v28.187L486.783 22.57l25.725-14.096zm1.926 0l25.723 14.096-25.723 14.092zm55.873 0v28.187L544.584 22.57l25.723-14.096zm1.928 0L597.96 22.57l-25.725 14.092V8.475zm55.873 0v28.187L602.383 22.57l25.725-14.096zm1.928 0L655.76 22.57l-25.723 14.092zm-606.902 15.6l25.912 14.188-25.912 15.26v-29.45zm55.873 0V53.52l-25.9-15.26 25.9-14.187zm1.928 0l25.912 14.188-25.912 15.26v-29.45zm55.873 0V53.52l-25.912-15.26 25.912-14.187zm1.928 0l25.912 14.188-25.912 15.26v-29.45zm55.87 0V53.52l-25.9-15.26 25.9-14.187zm1.928 0l25.914 14.188-25.914 15.26v-29.45zm55.875 0V53.52l-25.914-15.26L252.4 24.073zm1.926 0l25.912 14.188-25.912 15.26v-29.45zm55.873 0V53.52l-25.912-15.26 25.912-14.187zm1.926 0l25.914 14.188-25.914 15.26v-29.45zm57.8 0l25.912 14.188-25.912 15.26v-29.45zm55.875 0V53.52l-25.914-15.26L425.8 24.073zm1.924 0l25.914 14.188-25.914 15.26v-29.45zm55.875 0V53.52l-25.912-15.26 25.912-14.187zm1.926 0l25.914 14.188-25.914 15.26v-29.45zm57.803 0l25.9 14.188-25.9 15.26v-29.45zm55.87 0V53.52l-25.912-15.26 25.912-14.187zm1.928 0l25.912 14.188-25.912 15.26v-29.45zm55.873 0V53.52l-25.912-15.26 25.912-14.187zM50.105 39.84v30.857L23.775 55.2h.268l26.063-15.35zm1.928 0L78.1 55.2h.266l-.266.158-26.066 15.35V39.84zm55.873 0v30.857L81.574 55.2h.27l26.063-15.35zm1.928 0l26.064 15.35h.266l-.266.158-26.064 15.35zm55.873 0v30.52l-.193.225-26.14-15.395h.268l26.064-15.35zm1.926 0L193.7 55.2h.266l-.266.158-26.066 15.35V39.84zm55.875 0v30.857L197.174 55.2h.27l26.064-15.35zm1.926 0l26.064 15.35h.268l-26.332 15.508zm55.875 0v30.857L254.975 55.2h.268l26.066-15.35zm1.924 0L309.3 55.2h.266l-.266.158-26.066 15.35V39.84zm55.875 0v30.857L312.775 55.2h.268l26.064-15.35zm57.8 0v30.857L370.574 55.2h.268l26.066-15.35zm1.926 0l26.064 15.35h.266l-.266.158-26.064 15.35zm55.873 0v30.857L428.375 55.2h.268l26.064-15.35zm1.926 0L482.7 55.2h.268l-26.334 15.508V39.84zm55.875 0l-.12 30.8-26.2-15.44h.268L512.5 39.84zm57.8 0v30.857l-26.33-15.508h.266l26.064-15.35zm1.928 0L598.3 55.2h.268l-26.332 15.508zm55.873 0v30.857L601.775 55.2h.268l26.064-15.35zm1.928 0L656.1 55.2h.27l-.27.158-26.062 15.35V39.84zM23.133 57.018l25.912 15.26L23.133 86.46zm55.873 0V86.46l-25.9-14.184 25.9-15.26zm1.928 0l25.912 15.26L80.934 86.46zm55.873 0V86.46l-25.912-14.184 25.912-15.26zm1.928 0l25.912 15.26-25.912 14.184zm55.87 0V86.46l-25.832-14.23 25.832-15.213zm1.928 0l25.914 15.26-25.914 14.184zm55.875 0V86.46l-25.914-14.184 25.914-15.26zm1.926 0l25.912 15.26-25.912 14.184zm55.873 0V86.46l-25.912-14.184 25.912-15.26zm1.926 0l25.914 15.26-25.914 14.184zm55.875 0V86.46l-25.914-14.184 25.914-15.26zm1.926 0l25.912 15.26-25.912 14.184zm55.875 0V86.46l-25.914-14.184 25.914-15.26zm1.924 0l25.914 15.26-25.914 14.184zm55.875 0V86.46l-25.912-14.184 25.912-15.26zm1.926 0l25.914 15.26-25.914 14.184zm55.875 0V86.46l-25.914-14.184 25.914-15.26zm1.928 0l25.9 15.26-25.9 14.184zm55.87 0V86.46l-25.912-14.184 25.912-15.26zm1.928 0l25.912 15.26-25.912 14.184zm55.873 0V86.46l-25.912-14.184 25.912-15.26zM50.105 73.875v28.188L24.383 87.97l25.723-14.094zm1.928 0L77.758 87.97l-25.725 14.094v-28.2zm55.873 0v28.188L82.182 87.97l25.725-14.094zm1.928 0l25.723 14.094-25.723 14.094zm113.674 0v28.188L197.78 87.97l25.727-14.094zm1.926 0L251.16 87.97l-25.725 14.094v-28.19zm55.875 0v28.188L255.582 87.97l25.727-14.094zm1.924 0l25.725 14.094-25.725 14.094zm55.875 0v28.188L313.385 87.97l25.723-14.094zm1.926 0L366.76 87.97l-25.725 14.094v-28.19zm55.875 0v28.188L371.184 87.97l25.725-14.094zm1.926 0l25.723 14.094-25.723 14.094zm55.873 0v28.188L428.984 87.97l25.723-14.094zm1.926 0L482.36 87.97l-25.725 14.094v-28.19zm55.875 0v28.188L486.783 87.97l25.725-14.094zm1.926 0l25.723 14.094-25.723 14.094zm55.873 0v28.188L544.584 87.97l25.723-14.094zm1.928 0L597.96 87.97l-25.725 14.094v-28.2zm55.873 0v28.188L602.383 87.97l25.725-14.094zm1.928 0L655.76 87.97l-25.723 14.094zm-464.355.014l.025 28.174-25.723-14.094 25.697-14.08zM23.133 89.475l25.912 14.188-25.912 15.26zm55.873 0v29.447l-25.9-15.26 25.9-14.188zm1.928 0l25.912 14.188-25.912 15.26zm55.873 0v29.447l-25.912-15.26 25.912-14.188zm1.928 0l25.912 14.188-25.912 15.26zm57.8 0l25.914 14.188-25.914 15.26zm55.875 0v29.447l-25.914-15.26L252.4 89.474zm1.926 0l25.912 14.188-25.912 15.26zm55.873 0v29.447l-25.912-15.26 25.912-14.188zm1.926 0l25.914 14.188-25.914 15.26zm55.875 0v29.447l-25.914-15.26L368 89.474zm1.926 0l25.912 14.188-25.912 15.26zm55.875 0v29.447l-25.914-15.26 25.914-14.188zm1.924 0l25.914 14.188-25.914 15.26zm55.875 0v29.447l-25.912-15.26L483.6 89.474zm1.926 0l25.914 14.188-25.914 15.26zm55.875 0v29.447l-25.914-15.26 25.914-14.188zm1.928 0l25.9 14.188-25.9 15.26zm55.87 0v29.447l-25.912-15.26 25.912-14.188zm1.928 0l25.912 14.188-25.912 15.26zm55.873 0v29.447l-25.912-15.26L657 89.474zM50.105 105.24v30.857L23.775 120.6h.268l26.063-15.35zm1.928 0L78.1 120.6h.266l-.266.156-26.066 15.352V105.24zm55.873 0v30.857L81.574 120.6h.27l26.063-15.35zm1.928 0l26.064 15.35h.266l-.266.156-26.064 15.352zm55.873 0v30.857L139.375 120.6h.268l26.064-15.35zm1.926 0l25.568 15.8-25.568 15.06zm55.875 0v30.857L197.174 120.6h.27l26.064-15.35zm1.926 0l26.064 15.35h.268l-.268.156-26.064 15.352zm55.875 0v30.857L254.975 120.6h.268l26.066-15.35zm1.924 0L309.3 120.6h.266l-.266.156-26.066 15.352V105.24zm55.875 0v30.857L312.775 120.6h.268l26.064-15.35zm1.926 0l26.064 15.35h.268l-.268.156-26.064 15.352zm55.875 0v30.857L370.574 120.6h.268l26.066-15.35zm1.926 0L424.9 120.6h.266l-.266.156-26.064 15.352V105.24zm55.873 0v30.857L428.375 120.6h.268l26.064-15.35zm1.926 0L482.7 120.6h.268l-.268.156-26.066 15.352zm55.875 0v30.857L486.176 120.6h.268l26.064-15.35zm1.926 0L540.5 120.6h.268l-.268.156-26.064 15.352V105.24zm55.873 0v30.857l-26.33-15.508h.266l26.064-15.35zm1.928 0L598.3 120.6h.102l-26.166 15.508zm55.873 0v30.857L601.775 120.6h.268l26.064-15.35zm1.928 0L656.1 120.6h.27l-.27.156-26.062 15.352V105.24zM23.133 122.416l25.912 15.262-25.912 14.184v-29.445zm55.873 0v29.445l-25.9-14.184 25.9-15.262zm1.928 0l25.912 15.262-25.912 14.184v-29.445zm55.873 0v29.445l-25.912-14.184 25.912-15.262zm1.928 0l25.912 15.262-25.912 14.184v-29.445zm55.87 0v29.445l-25.9-14.184 25.9-15.262zm1.928 0l25.914 15.262-25.914 14.184v-29.445zm55.875 0v29.445l-25.914-14.184 25.914-15.262zm1.926 0l25.912 15.262-25.912 14.184v-29.445zm55.873 0v29.445l-25.912-14.184 25.912-15.262zm1.926 0l25.914 15.262-25.914 14.184v-29.445zm55.875 0v29.445l-25.914-14.184 25.914-15.262zm1.926 0l25.912 15.262-25.912 14.184v-29.445zm55.875 0v29.445l-25.914-14.184 25.914-15.262zm1.924 0l25.914 15.262-25.914 14.184v-29.445zm55.875 0v29.445l-25.912-14.184 25.912-15.262zm1.926 0l25.914 15.262-25.914 14.184v-29.445zm55.875 0v29.445l-25.914-14.184 25.914-15.262zm1.928 0l25.9 15.262-25.9 14.184v-29.445zm57.8 0l25.912 15.262-25.912 14.184v-29.445zm55.873 0v29.445l-25.912-14.184L657 122.415zM50.105 139.273v28.2L24.383 153.37l25.723-14.096zm1.928 0l25.725 14.096-25.725 14.094v-28.2zm55.873 0v28.2L82.182 153.37l25.725-14.096zm1.928 0l25.723 14.096-25.723 14.094v-28.2zm55.873 0v28.2l-25.725-14.094 25.725-14.096zm1.926 0l25.725 14.096-25.725 14.094v-28.2zm55.875 0v28.2L197.78 153.37l25.727-14.096zm1.926 0l25.725 14.096-25.725 14.094v-28.2zm55.875 0v28.2l-25.727-14.094 25.727-14.096zm1.924 0l25.725 14.096-25.725 14.094v-28.2zm55.875 0v28.2l-25.723-14.094 25.723-14.096zm1.926 0l25.725 14.096-25.725 14.094v-28.2zm55.875 0v28.2l-25.725-14.094 25.725-14.096zm1.926 0l25.723 14.096-25.723 14.094v-28.2zm55.873 0v28.2l-25.723-14.094 25.723-14.096zm1.926 0l25.725 14.096-25.725 14.094v-28.2zm55.875 0v28.2l-25.725-14.094 25.725-14.096zm1.926 0l25.723 14.096-25.723 14.094v-28.2zm55.873 0v28.2l-25.723-14.094 25.723-14.096zm57.8 0v28.2l-25.725-14.094 25.725-14.096zm1.928 0l25.723 14.096-25.723 14.094v-28.2zM23.133 154.875l25.912 14.186-25.912 15.262v-29.447zm55.873 0v29.447l-25.9-15.262 25.9-14.186zm1.928 0l25.912 14.186-25.912 15.262v-29.447zm55.873 0v29.447l-25.912-15.262 25.912-14.186zm1.928 0l25.912 14.186-25.912 15.262v-29.447zm55.87 0v29.447l-25.9-15.262 25.9-14.186zm1.928 0l25.914 14.186-25.914 15.262v-29.447zm55.875 0v29.447l-25.914-15.262 25.914-14.186zm1.926 0l25.912 14.186-25.912 15.262v-29.447zm55.873 0v29.447l-25.912-15.262 25.912-14.186zm1.926 0l25.914 14.186-25.914 15.262v-29.447zm55.875 0v29.447l-25.914-15.262 25.914-14.186zm1.926 0l25.912 14.186-25.912 15.262v-29.447zm55.875 0v29.447l-25.914-15.262 25.914-14.186zm1.924 0l25.914 14.186-25.914 15.262v-29.447zm55.875 0v29.447l-25.912-15.262 25.912-14.186zm1.926 0l25.914 14.186-25.914 15.262v-29.447zm55.875 0v29.447l-25.914-15.262 25.914-14.186zm1.928 0l25.9 14.186-25.9 15.262v-29.447zm55.87 0v29.447l-25.295-14.898c8.046-5.474 16.758-9.875 25.295-14.55zm1.928 0l25.912 14.186-25.912 15.262v-29.447zm55.873 0v29.447l-25.912-15.262 25.912-14.186zM50.105 170.64v30.857L23.775 186h.268l26.063-15.35zm1.928 0L78.1 186h.266l-.266.156-26.066 15.352V170.64zm55.873 0v30.857L81.574 186h.27l26.063-15.35zm1.928 0L135.898 186h.266l-.266.156-26.064 15.352zm55.873 0v30.857L139.375 186h.268l26.064-15.35zm1.926 0L193.7 186h.266l-.266.156-26.066 15.352V170.64zm55.875 0v30.857L197.174 186h.27l26.064-15.35zm1.926 0L251.498 186h.268l-.268.156-26.064 15.352zm55.875 0v30.857L254.975 186h.268l26.066-15.35zm1.924 0L309.3 186h.266l-.266.156-26.066 15.352V170.64zm55.875 0v30.857L312.775 186h.268l26.064-15.35zm1.926 0L367.098 186h.268l-.268.156-26.064 15.352zm55.875 0v30.857L370.574 186h.268l26.066-15.35zm1.926 0L424.898 186h.266l-.266.156-26.064 15.352V170.64zm55.873 0v30.857L428.375 186h.268l26.064-15.35zm1.926 0L482.7 186h.268l-.268.156-26.066 15.352zm55.875 0v30.857L486.176 186h.268l26.064-15.35zm1.926 0L540.498 186h.268l-.268.156-26.064 15.352V170.64zm55.873 0v30.857L543.977 186h.266l26.064-15.35zm1.928 0L598.3 186h.268l-.268.156-26.064 15.352zm55.873 0v30.857L601.775 186h.268l26.064-15.35zm1.928 0l26.06 15.36h.27l-.27.156-26.062 15.352V170.64zM23.133 187.816l25.912 15.262-25.912 14.184v-29.445zm55.873 0v29.445l-25.9-14.184 25.9-15.262zm1.928 0l25.912 15.262-25.912 14.184v-29.445zm55.873 0v29.445l-25.912-14.184 25.912-15.262zm1.928 0l25.912 15.262-25.912 14.184v-29.445zm55.87 0v29.445l-25.9-14.184 25.9-15.262zm1.928 0l25.914 15.262-25.914 14.184v-29.445zm55.875 0v29.445l-25.914-14.184 25.914-15.262zm1.926 0l25.912 15.262-25.912 14.184v-29.445zm55.873 0v29.445l-25.912-14.184 25.912-15.262zm1.926 0l25.914 15.262-25.914 14.184v-29.445zm55.875 0v29.445l-25.914-14.184 25.914-15.262zm57.8 0v29.445l-25.914-14.184 25.914-15.262zm1.924 0l25.914 15.262-25.914 14.184v-29.445zm55.875 0v29.445l-25.912-14.184 25.912-15.262zm1.926 0l25.914 15.262-25.914 14.184v-29.445zm55.875 0v29.445l-25.914-14.184 25.914-15.262zm1.928 0l25.9 15.262-25.9 14.184v-29.445zm55.87 0v29.445l-25.912-14.184 25.912-15.262zm1.928 0l25.912 15.262-25.912 14.184v-29.445zm55.873 0v29.445l-25.912-14.184 25.912-15.262zM50.105 204.674v28.2L24.383 218.77l25.723-14.096zm1.928 0l25.725 14.096-25.725 14.094v-28.2zm55.873 0v28.2L82.182 218.77l25.725-14.096zm1.928 0l25.723 14.096-25.723 14.094v-28.2zm55.873 0v28.2l-25.725-14.094 25.725-14.096zm1.926 0l25.725 14.096-25.725 14.094v-28.2zm55.875 0v28.2L197.78 218.77l25.727-14.096zm1.926 0l25.725 14.096-25.725 14.094v-28.2zm55.875 0v28.2l-25.727-14.094 25.727-14.096zm1.924 0l25.725 14.096-25.725 14.094v-28.2zm55.875 0v28.2l-25.723-14.094 25.723-14.096zm1.926 0l25.725 14.096-25.725 14.094v-28.2zm57.8 0l25.723 14.096-25.723 14.094v-28.2zm55.873 0v28.2l-25.723-14.094 25.723-14.096zm1.926 0l25.725 14.096-25.725 14.094v-28.2zm55.875 0v28.2l-25.725-14.094 25.725-14.096zm1.926 0l25.723 14.096-25.723 14.094v-28.2zm55.873 0v28.2l-25.723-14.094 25.723-14.096zm1.928 0l25.725 14.096-25.725 14.094v-28.2zm55.873 0v28.2l-25.725-14.094 25.725-14.096zm1.928 0l25.723 14.096-25.723 14.094v-28.2zm-551.03 15.602v29.447l-25.9-15.262 25.9-14.186zm1.928 0l25.912 14.186-25.912 15.262v-29.447zm57.8 0l25.912 14.186-25.912 15.262v-29.447zm55.87 0v29.447l-25.9-15.262 25.9-14.186zm1.928 0l25.914 14.186-25.914 15.262v-29.447zm55.875 0v29.447l-25.914-15.262 25.914-14.186zm1.926 0l25.912 14.186-25.912 15.262v-29.447zm55.873 0v29.447l-25.912-15.262 25.912-14.186zm1.926 0l25.914 14.186-25.914 15.262v-29.447zm55.875 0v29.447l-25.914-15.262 25.914-14.186zm1.926 0l24.654 14.926-24.654 14.52v-29.447zm55.875 0v29.447l-25.914-15.262 25.914-14.186zm1.924 0l25.914 14.186-25.914 15.262v-29.447zm55.875 0v29.447l-25.912-15.262 25.912-14.186zm1.926 0l25.914 14.186-25.914 15.262v-29.447zm55.875 0v29.447l-25.914-15.262 25.914-14.186zm1.928 0l25.9 14.186-25.9 15.262v-29.447zm55.87 0v29.447l-25.912-15.262 25.912-14.186zm57.8 0v29.447l-25.912-15.262 25.912-14.186zM52.033 236.04L78.1 251.4h.266l-.266.156-26.066 15.352V236.04zm55.873 0v30.857L81.574 251.4h.27l26.063-15.35zm57.8 0v30.857l-26.332-15.508h.268l26.064-15.35zm1.926 0l26.066 15.35h.266l-.266.156-26.066 15.352zm55.875 0v30.857l-26.334-15.508h.27l26.064-15.35zm1.926 0l26.064 15.35h.268l-.268.156-26.064 15.352zm55.875 0v30.857l-26.334-15.508h.268l26.066-15.35zm1.924 0l26.066 15.35h.266l-.266.156-26.066 15.352zm55.875 0v30.857l-26.332-15.508h.268l26.064-15.35zm1.926 0l26.064 15.35h.268l-.268.156-26.064 15.352zm57.8 0l26.064 15.35h.266l-.266.156-26.064 15.352zm55.873 0v30.857l-26.332-15.508h.268l26.064-15.35zm1.926 0l26.066 15.35h.268l-.268.156-26.066 15.352zm55.875 0v30.857l-26.332-15.508h.268l26.064-15.35zm1.926 0l26.064 15.35h.268l-.268.156-26.064 15.352zm55.873 0v30.857l-26.33-15.508h.266l26.064-15.35zm1.928 0l26.064 15.35h.268l-.268.156-26.064 15.352zm57.8 0l26.063 15.35h.27l-.27.156-26.062 15.352V236.04zm-233.654.3l.527.34v30.2l-26.334-15.508h.268l25.54-15.04zM23.133 253.217l25.912 15.26-25.912 14.186v-29.445zm55.873 0v29.445l-25.9-14.186 25.9-15.26zm1.928 0l25.912 15.26-25.912 14.186v-29.445zm55.873 0v29.445l-25.912-14.186 25.912-15.26zm1.928 0l25.912 15.26-25.912 14.186v-29.445zm55.87 0v29.445l-25.9-14.186 25.9-15.26zm1.928 0l25.914 15.26-25.914 14.186v-29.445zm55.875 0v29.445l-25.914-14.186 25.914-15.26zm1.926 0l25.725 15.148-3.408 2.08-22.316 12.217v-29.445zm55.873 0v29.445l-25.912-14.186 25.912-15.26zm1.926 0l25.914 15.26-25.914 14.186v-29.445zm55.875 0v29.445l-25.914-14.186 25.914-15.26zm1.926 0l25.912 15.26-25.912 14.186v-29.445zm55.875 0v29.445l-25.914-14.186 25.914-15.26zm1.924 0l25.914 15.26-25.914 14.186v-29.445zm55.875 0v29.445l-25.912-14.186 25.912-15.26zm1.926 0l25.914 15.26-25.914 14.186v-29.445zm55.875 0v29.445l-25.914-14.186 25.914-15.26zm1.928 0l25.9 15.26-25.9 14.186v-29.445zm55.87 0v29.445l-25.912-14.186 25.912-15.26zm1.928 0l25.912 15.26-25.912 14.186v-29.445zm55.873 0v29.445l-25.912-14.186 25.912-15.26zM50.105 270.074v28.2L24.383 284.17l25.723-14.096zm1.928 0l25.725 14.096-25.725 14.094v-28.2zm55.873 0v28.2L82.182 284.17l25.725-14.096zm1.928 0l25.723 14.096-25.723 14.094v-28.2zm55.873 0v28.2l-25.725-14.094 25.725-14.096zm1.926 0l25.725 14.096-25.725 14.094v-28.2zm55.875 0v28.2L197.78 284.17l25.727-14.096zm1.926 0l25.725 14.096-25.725 14.094v-28.2zm57.8 0l25.725 14.096-25.725 14.094v-28.2zm55.875 0v28.2l-25.723-14.094 25.723-14.096zm1.926 0l25.725 14.096-25.725 14.094v-28.2zm55.875 0v28.2l-25.725-14.094 25.725-14.096zm1.926 0l25.723 14.096-25.723 14.094v-28.2zm55.873 0v28.2l-25.723-14.094 25.723-14.096zm1.926 0l25.725 14.096-25.725 14.094v-28.2zm55.875 0v28.2l-25.725-14.094 25.725-14.096zm1.926 0l25.723 14.096-25.723 14.094v-28.2zm55.873 0v28.2l-25.723-14.094 25.723-14.096zm1.928 0l25.725 14.096-25.725 14.094v-28.2zm55.873 0v28.2l-25.725-14.094 25.725-14.096zm1.928 0l25.723 14.096-25.723 14.094v-28.2zM23.133 285.676l25.912 14.186-25.912 15.26v-29.445zm55.873 0v29.445l-25.9-15.26 25.9-14.186zm1.928 0l25.912 14.186-25.912 15.26v-29.445zm55.873 0v29.445l-25.912-15.26 25.912-14.186zm1.928 0l25.912 14.186-25.912 15.26v-29.445zm55.87 0v29.445l-25.9-15.26 25.9-14.186zm1.928 0l25.914 14.186-25.914 15.26v-29.445zm55.875 0v29.445l-25.914-15.26 25.914-14.186zm57.8 0v29.445l-25.912-15.26 25.912-14.186zm1.926 0l25.914 14.186-25.914 15.26v-29.445zm55.875 0v29.445l-25.914-15.26 25.914-14.186zm1.926 0l25.912 14.186-25.912 15.26v-29.445zm55.875 0v29.445l-25.914-15.26 25.914-14.186zm1.924 0l25.914 14.186-25.914 15.26v-29.445zm55.875 0v29.445l-25.912-15.26 25.912-14.186zm1.926 0l25.914 14.186-25.914 15.26v-29.445zm55.875 0v29.445l-25.914-15.26 25.914-14.186zm1.928 0l25.9 14.186-25.9 15.26v-29.445zm55.87 0v29.445l-25.912-15.26 25.912-14.186zm1.928 0l25.912 14.186-25.912 15.26v-29.445zm55.873 0v29.445l-25.912-15.26 25.912-14.186zM50.105 301.44v30.86l-26.33-15.5h.268l26.063-15.348zm1.928 0L78.1 316.8h.266l-.266.158L52.033 332.3zm55.873 0v30.86l-26.332-15.5h.27l26.063-15.348zm1.928 0l26.064 15.348h.266l-.266.158-26.064 15.352zm55.873 0v30.86l-26.332-15.5h.268l26.064-15.348zm1.926 0L193.7 316.8h.266l-.266.158-26.066 15.352v-30.86zm55.875 0v30.86l-26.334-15.5h.27l26.064-15.348zm1.926 0l26.064 15.348h.268l-26.332 15.5zm55.875 0v30.86l-26.334-15.5h1.254l25.08-15.348zm1.924 0L309.3 316.8h.266l-.266.158-26.066 15.352v-30.86zm55.875 0v30.86l-26.332-15.5h.268l26.064-15.348zm1.926 0l26.064 15.348h.268l-26.332 15.5zm55.875 0v30.86l-26.334-15.5h.268l26.066-15.348zm1.926 0l26.064 15.348h.266l-.266.158-26.064 15.352zm55.873 0v30.86l-26.332-15.5h.268l26.064-15.348zm1.926 0L482.7 316.8h.268l-26.334 15.5zm55.875 0v30.86l-26.332-15.5h.268l26.064-15.348zm1.926 0l26.064 15.348h.268l-26.332 15.5zm55.873 0v30.86l-26.33-15.5h.266l26.064-15.348zm1.928 0L598.3 316.8h.268l-26.332 15.5zm55.873 0v30.86l-26.332-15.5h.268l26.064-15.348zm1.928 0l26.063 15.348h.27l-.27.158-26.062 15.352V301.44zM23.133 318.617l25.912 15.26-25.912 14.186v-29.445zm55.873 0v29.445l-25.9-14.186 25.9-15.26zm1.928 0l25.912 15.26-25.912 14.186v-29.445zm55.873 0v29.445l-25.912-14.186 25.912-15.26zm1.928 0l25.912 15.26-25.912 14.186v-29.445zm55.87 0v29.445l-25.9-14.186 25.9-15.26zm1.928 0l25.914 15.26-25.914 14.186v-29.445zm55.875 0v29.445l-25.914-14.186 25.914-15.26zm1.926 0l25.912 15.26-25.912 14.186v-29.445zm55.873 0v29.445l-25.912-14.186 25.912-15.26zm1.926 0l25.914 15.26-25.914 14.186v-29.445zm55.875 0v29.445l-25.914-14.186 25.914-15.26zm1.926 0l25.912 15.26-25.912 14.186v-29.445zm55.875 0v29.445l-25.914-14.186 25.914-15.26zm1.924 0l25.914 15.26-25.914 14.186v-29.445zm55.875 0v29.445l-25.912-14.186 25.912-15.26zm1.926 0l25.914 15.26-25.914 14.186v-29.445zm55.875 0v29.445l-25.914-14.186 25.914-15.26zm1.928 0l25.9 15.26-25.9 14.186v-29.445zm55.87 0v29.445l-25.912-14.186 25.912-15.26zm1.928 0l25.912 15.26-25.912 14.186v-29.445zm55.873 0v29.445l-25.912-14.186 25.912-15.26zM50.105 335.475v28.188L24.383 349.57l25.723-14.096zm1.928 0l25.725 14.096-25.725 14.092v-28.187zm55.873 0v28.188L82.182 349.57l25.725-14.096zm1.928 0l25.723 14.096-25.723 14.092v-28.187zm55.873 0v28.188l-25.725-14.092zm1.926 0l25.725 14.096-25.725 14.092v-28.187zm55.875 0v28.188L197.78 349.57l25.727-14.096zm1.926 0l25.725 14.096-25.725 14.092v-28.187zm55.875 0v28.188l-25.727-14.092zm1.924 0l25.725 14.096-25.725 14.092v-28.187zm55.875 0v28.188l-25.723-14.092zm1.926 0l25.725 14.096-25.725 14.092v-28.187zm55.875 0v28.188l-25.725-14.092zm1.926 0l25.723 14.096-25.723 14.092v-28.187zm55.873 0v28.188l-25.723-14.092zm1.926 0l25.725 14.096-25.725 14.092v-28.187zm55.875 0v28.188l-25.725-14.092zm1.926 0l25.723 14.096-25.723 14.092v-28.187zm55.873 0v28.188l-25.723-14.092zm1.928 0l25.725 14.096-25.725 14.092v-28.187zm55.873 0v28.188l-25.725-14.092zm1.928 0l25.723 14.096-25.723 14.092v-28.187zm-606.902 15.6l25.912 14.188-25.912 15.26v-29.447zm55.873 0v29.447l-25.9-15.26zm1.928 0l25.912 14.188-25.912 15.26v-29.447zm55.873 0v29.447l-25.912-15.26zm1.928 0l25.912 14.188-25.912 15.26v-29.447zm55.87 0v29.447l-25.9-15.26zm1.928 0l25.914 14.188-25.914 15.26v-29.447zm55.875 0v29.447l-25.914-15.26zm1.926 0l25.912 14.188-25.912 15.26v-29.447zm55.873 0v29.447l-25.912-15.26zm1.926 0l25.914 14.188-25.914 15.26v-29.447zm57.8 0l25.912 14.188-25.912 15.26v-29.447zm55.875 0v29.447l-25.914-15.26zm1.924 0l25.914 14.188-25.914 15.26v-29.447zm55.875 0v29.447l-25.912-15.26zm1.926 0l25.914 14.188-25.914 15.26v-29.447zm57.803 0l25.9 14.188-25.9 15.26v-29.447zm55.87 0v29.447l-25.912-15.26zm1.928 0l25.912 14.188-25.912 15.26v-29.447zm55.873 0v29.447l-25.912-15.26zM50.105 366.84v30.857l-26.33-15.508h.268l26.063-15.35zm1.928 0L78.1 382.2h.266l-.266.158-26.066 15.35V366.84zm55.873 0v30.857L81.574 382.2h.27l26.063-15.35zm1.928 0l26.064 15.35h.266l-.266.158-26.064 15.35zm55.873 0v30.52l-.193.225-26.14-15.395h.268l26.064-15.35zm1.926 0L193.7 382.2h.266l-.266.158-26.066 15.35V366.84zm55.875 0v30.857l-26.334-15.508h.27l26.064-15.35zm1.926 0l26.064 15.35h.268l-26.332 15.508zm55.875 0v30.857l-26.334-15.508h.268l26.066-15.35zm1.924 0L309.3 382.2h.266l-.266.158-26.066 15.35V366.84zm55.875 0v30.857l-26.332-15.508h.268l26.064-15.35zm57.8 0v30.857l-26.334-15.508h.268l26.066-15.35zm1.926 0l26.064 15.35h.266l-.266.158-26.064 15.35zm55.873 0v30.857l-26.332-15.508h.268l26.064-15.35zm1.926 0L482.7 382.2h.268l-26.334 15.508V366.84zm55.875 0l-.12 30.8-26.2-15.44h.268l26.064-15.35zm57.8 0v30.857l-26.33-15.508h.266l26.064-15.35zm1.928 0L598.3 382.2h.268l-26.332 15.508zm55.873 0v30.857l-26.332-15.508h.268l26.064-15.35zm1.928 0L656.1 382.2h.27l-.27.158-26.062 15.35V366.84zM23.133 384.018l25.912 15.26-25.912 14.184V384.02zm55.873 0v29.443l-25.9-14.184 25.9-15.26zm1.928 0l25.912 15.26-25.912 14.184V384.02zm55.873 0v29.443l-25.912-14.184 25.912-15.26zm1.928 0l25.912 15.26-25.912 14.184V384.02zm55.87 0v29.443l-25.832-14.23zm1.928 0l25.914 15.26-25.914 14.184V384.02zm55.875 0v29.443l-25.914-14.184 25.914-15.26zm1.926 0l25.912 15.26-25.912 14.184V384.02zm55.873 0v29.443l-25.912-14.184 25.912-15.26zm1.926 0l25.914 15.26-25.914 14.184V384.02zm55.875 0v29.443l-25.914-14.184 25.914-15.26zm1.926 0l25.912 15.26-25.912 14.184V384.02zm55.875 0v29.443l-25.914-14.184 25.914-15.26zm1.924 0l25.914 15.26-25.914 14.184V384.02zm55.875 0v29.443l-25.912-14.184 25.912-15.26zm1.926 0l25.914 15.26-25.914 14.184V384.02zm55.875 0v29.443l-25.914-14.184 25.914-15.26zm1.928 0l25.9 15.26-25.9 14.184V384.02zm55.87 0v29.443l-25.912-14.184 25.912-15.26zm1.928 0l25.912 15.26-25.912 14.184V384.02zm55.873 0v29.443l-25.912-14.184 25.912-15.26zM50.105 400.875v28.188L24.383 414.97l25.723-14.094zm1.928 0l25.725 14.094-25.725 14.094v-28.187zm55.873 0v28.188L82.182 414.97l25.725-14.094zm1.928 0l25.723 14.094-25.723 14.094v-28.187zm113.674 0v28.188L197.78 414.97l25.727-14.094zm1.926 0l25.725 14.094-25.725 14.094v-28.187zm55.875 0v28.188l-25.727-14.094zm1.924 0l25.725 14.094-25.725 14.094v-28.187zm55.875 0v28.188l-25.723-14.094zm1.926 0l25.725 14.094-25.725 14.094v-28.187zm55.875 0v28.188l-25.725-14.094zm1.926 0l25.723 14.094-25.723 14.094v-28.187zm55.873 0v28.188l-25.723-14.094zm1.926 0l25.725 14.094-25.725 14.094v-28.187zm55.875 0v28.188l-25.725-14.094zm1.926 0l25.723 14.094-25.723 14.094v-28.187zm55.873 0v28.188l-25.723-14.094zm1.928 0l25.725 14.094-25.725 14.094v-28.187zm55.873 0v28.188l-25.725-14.094zm1.928 0l25.723 14.094-25.723 14.094v-28.187zm-464.355.014l.025 28.174-25.723-14.094 25.697-14.08zm-142.55 15.586l25.912 14.188-25.912 15.26v-29.447zm55.873 0v29.447l-25.9-15.26zm1.928 0l25.912 14.188-25.912 15.26v-29.447zm55.873 0v29.447l-25.912-15.26zm1.928 0l25.912 14.188-25.912 15.26v-29.447zm57.8 0l25.914 14.188-25.914 15.26v-29.447zm55.875 0v29.447l-25.914-15.26zm1.926 0l25.912 14.188-25.912 15.26v-29.447zm55.873 0v29.447l-25.912-15.26zm1.926 0l25.914 14.188-25.914 15.26v-29.447zm55.875 0v29.447l-25.914-15.26L368 416.475zm1.926 0l25.912 14.188-25.912 15.26v-29.447zm55.875 0v29.447l-25.914-15.26zm1.924 0l25.914 14.188-25.914 15.26v-29.447zm55.875 0v29.447l-25.912-15.26zm1.926 0l25.914 14.188-25.914 15.26v-29.447zm55.875 0v29.447l-25.914-15.26zm1.928 0l25.9 14.188-25.9 15.26v-29.447zm55.87 0v29.447l-25.912-15.26zm1.928 0l25.912 14.188-25.912 15.26v-29.447zm55.873 0v29.447l-25.912-15.26L657 416.475zM50.105 432.24v30.857L23.775 447.6h.268l26.063-15.35zm1.928 0L78.1 447.6h.266l-.266.156-26.066 15.352V432.24zm55.873 0v30.857L81.574 447.6h.27l26.063-15.35zm1.928 0l26.064 15.35h.266l-.266.156-26.064 15.352zm55.873 0v30.857L139.375 447.6h.268l26.064-15.35zm1.926 0l25.568 15.8-25.568 15.06zm55.875 0v30.857L197.174 447.6h.27l26.064-15.35zm1.926 0l26.064 15.35h.268l-.268.156-26.064 15.352zm55.875 0v30.857L254.975 447.6h.268l26.066-15.35zm1.924 0L309.3 447.6h.266l-.266.156-26.066 15.352V432.24zm55.875 0v30.857L312.775 447.6h.268l26.064-15.35zm1.926 0l26.064 15.35h.268l-.268.156-26.064 15.352zm55.875 0v30.857L370.574 447.6h.268l26.066-15.35zm1.926 0L424.9 447.6h.266l-.266.156-26.064 15.352V432.24zm55.873 0v30.857L428.375 447.6h.268l26.064-15.35zm1.926 0L482.7 447.6h.268l-.268.156-26.066 15.352zm55.875 0v30.857L486.176 447.6h.268l26.064-15.35zm1.926 0L540.5 447.6h.268l-.268.156-26.064 15.352V432.24zm55.873 0v30.857l-26.33-15.508h.266l26.064-15.35zm1.928 0L598.3 447.6h.102l-26.166 15.508zm55.873 0v30.857L601.775 447.6h.268l26.064-15.35zm1.928 0L656.1 447.6h.27l-.27.156-26.062 15.352V432.24zM23.133 449.416l25.912 15.262-25.912 14.184v-29.445zm55.873 0v29.445l-25.9-14.184 25.9-15.262zm1.928 0l25.912 15.262-25.912 14.184v-29.445zm55.873 0v29.445l-25.912-14.184 25.912-15.262zm1.928 0l25.912 15.262-25.912 14.184v-29.445zm55.87 0v29.445l-25.9-14.184 25.9-15.262zm1.928 0l25.914 15.262-25.914 14.184v-29.445zm55.875 0v29.445l-25.914-14.184 25.914-15.262zm1.926 0l25.912 15.262-25.912 14.184v-29.445zm55.873 0v29.445l-25.912-14.184 25.912-15.262zm1.926 0l25.914 15.262-25.914 14.184v-29.445zm55.875 0v29.445l-25.914-14.184 25.914-15.262zm1.926 0l25.912 15.262-25.912 14.184v-29.445zm55.875 0v29.445l-25.914-14.184 25.914-15.262zm1.924 0l25.914 15.262-25.914 14.184v-29.445zm55.875 0v29.445l-25.912-14.184 25.912-15.262zm1.926 0l25.914 15.262-25.914 14.184v-29.445zm55.875 0v29.445l-25.914-14.184 25.914-15.262zm1.928 0l25.9 15.262-25.9 14.184v-29.445zm57.8 0l25.912 15.262-25.912 14.184v-29.445zm55.873 0v29.445l-25.912-14.184L657 449.415zM50.105 466.273v28.2L24.383 480.37l25.723-14.096zm1.928 0l25.725 14.096-25.725 14.094v-28.2zm55.873 0v28.2L82.182 480.37l25.725-14.096zm1.928 0l25.723 14.096-25.723 14.094v-28.2zm55.873 0v28.2l-25.725-14.094 25.725-14.096zm1.926 0l25.725 14.096-25.725 14.094v-28.2zm55.875 0v28.2L197.78 480.37l25.727-14.096zm1.926 0l25.725 14.096-25.725 14.094v-28.2zm55.875 0v28.2l-25.727-14.094 25.727-14.096zm1.924 0l25.725 14.096-25.725 14.094v-28.2zm55.875 0v28.2l-25.723-14.094 25.723-14.096zm1.926 0l25.725 14.096-25.725 14.094v-28.2zm55.875 0v28.2l-25.725-14.094 25.725-14.096zm1.926 0l25.723 14.096-25.723 14.094v-28.2zm55.873 0v28.2l-25.723-14.094 25.723-14.096zm1.926 0l25.725 14.096-25.725 14.094v-28.2zm55.875 0v28.2l-25.725-14.094 25.725-14.096zm1.926 0l25.723 14.096-25.723 14.094v-28.2zm55.873 0v28.2l-25.723-14.094 25.723-14.096zm57.8 0v28.2l-25.725-14.094 25.725-14.096zm1.928 0l25.723 14.096-25.723 14.094v-28.2zM23.133 481.875l25.912 14.186-25.912 15.262v-29.447zm55.873 0v29.447l-25.9-15.262 25.9-14.186zm1.928 0l25.912 14.186-25.912 15.262v-29.447zm55.873 0v29.447l-25.912-15.262 25.912-14.186zm1.928 0l25.912 14.186-25.912 15.262v-29.447zm55.87 0v29.447l-25.9-15.262 25.9-14.186zm1.928 0l25.914 14.186-25.914 15.262v-29.447zm55.875 0v29.447l-25.914-15.262 25.914-14.186zm1.926 0l25.912 14.186-25.912 15.262v-29.447zm55.873 0v29.447l-25.912-15.262 25.912-14.186zm1.926 0l25.914 14.186-25.914 15.262v-29.447zm55.875 0v29.447l-25.914-15.262 25.914-14.186zm1.926 0l25.912 14.186-25.912 15.262v-29.447zm55.875 0v29.447l-25.914-15.262 25.914-14.186zm1.924 0l25.914 14.186-25.914 15.262v-29.447zm55.875 0v29.447l-25.912-15.262 25.912-14.186zm1.926 0l25.914 14.186-25.914 15.262v-29.447zm55.875 0v29.447l-25.914-15.262 25.914-14.186zm1.928 0l25.9 14.186-25.9 15.262v-29.447zm55.87 0v29.447l-25.295-14.898c8.046-5.474 16.758-9.875 25.295-14.55zm1.928 0l25.912 14.186-25.912 15.262v-29.447zm55.873 0v29.447l-25.912-15.262 25.912-14.186zM50.105 497.64v30.857L23.775 513h.268l26.063-15.35zm1.928 0L78.1 513h.266l-.266.156-26.066 15.352V497.64zm55.873 0v30.857L81.574 513h.27l26.063-15.35zm1.928 0L135.898 513h.266l-.266.156-26.064 15.352zm55.873 0v30.857L139.375 513h.268l26.064-15.35zm1.926 0L193.7 513h.266l-.266.156-26.066 15.352V497.64zm55.875 0v30.857L197.174 513h.27l26.064-15.35zm1.926 0L251.498 513h.268l-.268.156-26.064 15.352zm55.875 0v30.857L254.975 513h.268l26.066-15.35zm1.924 0L309.3 513h.266l-.266.156-26.066 15.352V497.64zm55.875 0v30.857L312.775 513h.268l26.064-15.35zm1.926 0L367.098 513h.268l-.268.156-26.064 15.352zm55.875 0v30.857L370.574 513h.268l26.066-15.35zm1.926 0L424.898 513h.266l-.266.156-26.064 15.352V497.64zm55.873 0v30.857L428.375 513h.268l26.064-15.35zm1.926 0L482.7 513h.268l-.268.156-26.066 15.352zm55.875 0v30.857L486.176 513h.268l26.064-15.35zm1.926 0L540.498 513h.268l-.268.156-26.064 15.352V497.64zm55.873 0v30.857L543.977 513h.266l26.064-15.35zm1.928 0L598.3 513h.268l-.268.156-26.064 15.352zm55.873 0v30.857L601.775 513h.268l26.064-15.35zm1.928 0l26.06 15.36h.27l-.27.156-26.062 15.352V497.64zM23.133 514.816l25.912 15.262-25.912 14.184v-29.445zm55.873 0v29.445l-25.9-14.184 25.9-15.262zm1.928 0l25.912 15.262-25.912 14.184v-29.445zm55.873 0v29.445l-25.912-14.184 25.912-15.262zm1.928 0l25.912 15.262-25.912 14.184v-29.445zm55.87 0v29.445l-25.9-14.184 25.9-15.262zm1.928 0l25.914 15.262-25.914 14.184v-29.445zm55.875 0v29.445l-25.914-14.184 25.914-15.262zm1.926 0l25.912 15.262-25.912 14.184v-29.445zm55.873 0v29.445l-25.912-14.184 25.912-15.262zm1.926 0l25.914 15.262-25.914 14.184v-29.445zm55.875 0v29.445l-25.914-14.184 25.914-15.262zm57.8 0v29.445l-25.914-14.184 25.914-15.262zm1.924 0l25.914 15.262-25.914 14.184v-29.445zm55.875 0v29.445l-25.912-14.184 25.912-15.262zm1.926 0l25.914 15.262-25.914 14.184v-29.445zm55.875 0v29.445l-25.914-14.184 25.914-15.262zm1.928 0l25.9 15.262-25.9 14.184v-29.445zm55.87 0v29.445l-25.912-14.184 25.912-15.262zm1.928 0l25.912 15.262-25.912 14.184v-29.445zm55.873 0v29.445l-25.912-14.184 25.912-15.262zM50.105 531.674v28.2L24.383 545.77l25.723-14.096zm1.928 0l25.725 14.096-25.725 14.094v-28.2zm55.873 0v28.2L82.182 545.77l25.725-14.096zm1.928 0l25.723 14.096-25.723 14.094v-28.2zm55.873 0v28.2l-25.725-14.094 25.725-14.096zm1.926 0l25.725 14.096-25.725 14.094v-28.2zm55.875 0v28.2L197.78 545.77l25.727-14.096zm1.926 0l25.725 14.096-25.725 14.094v-28.2zm55.875 0v28.2l-25.727-14.094 25.727-14.096zm1.924 0l25.725 14.096-25.725 14.094v-28.2zm55.875 0v28.2l-25.723-14.094 25.723-14.096zm1.926 0l25.725 14.096-25.725 14.094v-28.2zm57.8 0l25.723 14.096-25.723 14.094v-28.2zm55.873 0v28.2l-25.723-14.094 25.723-14.096zm1.926 0l25.725 14.096-25.725 14.094v-28.2zm55.875 0v28.2l-25.725-14.094 25.725-14.096zm1.926 0l25.723 14.096-25.723 14.094v-28.2zm55.873 0v28.2l-25.723-14.094 25.723-14.096zm1.928 0l25.725 14.096-25.725 14.094v-28.2zm55.873 0v28.2l-25.725-14.094 25.725-14.096zm1.928 0l25.723 14.096-25.723 14.094v-28.2zM0 564.232v2.203L11.145 573h3.742zm680 .082L665.256 573h3.74L680 566.52v-2.205z" opacity=".1" fill="#fff"/><path d="M2020.24 333.073l-43 25v48l14 9 15-9v-16l-15-8v-16l29-17 29 17v16l-15 8v16l15 9 14-9v-48z" transform="matrix(2 0 0 2 -3700.4793 -489.90523)" opacity=".15" filter="url(#A)"/><path d="M340 170l-86 50v96l28 18 30-18v-32l-30-16v-32l58-34 58 34v32l-30 16v32l30 18 28-18v-96zm-85.9 227h36.937v-6.772H260.87V360h-6.77zm60.758-20.932l-13.44-16.006h-7.387v36.937h6.772v-27.087l14.057 16.673 14.005-16.673v27.087h6.823v-36.937h-7.44zm47.594 0l-13.44-16.006h-7.387v36.937h6.772v-27.087l14.057 16.673 14.006-16.673v27.087h6.823v-36.937h-7.44zm63.448-8.875a7.15 7.15 0 0 0-7.13-7.13h-22.675c-3.95 0-7.13 3.18-7.13 7.13v7.593c0 3.95 3.18 7.13 7.13 7.13h22.676c.154 0 .308.154.308.36v7.593c0 .205-.154.36-.308.36h-22.675a.35.35 0 0 1-.359-.359v-2.822h-6.772v2.822c0 3.95 3.18 7.13 7.13 7.13h22.676a7.15 7.15 0 0 0 7.13-7.13v-7.593a7.15 7.15 0 0 0-7.13-7.13h-22.675a.35.35 0 0 1-.359-.359v-7.593a.35.35 0 0 1 .359-.359h22.676c.154 0 .308.154.308.36v2.822h6.823z" fill="#fff"/></svg>