<?xml version="1.0"?>
<!DOCTYPE multimedia-project>
<multimediaproject creator="Linux MultiMedia Studio (LMMS)" creatorversion="0.1.0" type="song" version="1.0" >
  <head>
    <bpm value="120" />
    <mastervol value="49" />
    <masterpitch value="0" />
  </head>
  <song>
    <trackcontainer type="songeditor" >
      <track muted="0" type="0" >
        <channeltrack surpos="126092838" fxch="0" baseoct="6" vol="100" name="church_organ02.ogg" basetone="9" tab="2" >
          <audiofileprocessor reversed="0" looped="0" eframe="0.999998" sframe="0" amp="100" src="/usr/local/share/lmms/samples/instruments/church_organ02.ogg" />
          <eldata fres="1" ftype="0" fcut="6028" fwet="0" >
            <elvol lpdel="0" amt="1" rel="0.215" ctlenvamt="0" latt="0" sus="0" lspd="0.1" att="0.019" pdel="0" lamt="0" dec="0.374" x100="0" lshp="0" hold="0" />
            <elcut lpdel="0" amt="0" rel="0.1" ctlenvamt="0" latt="0" sus="0.5" lspd="0.1" att="0" pdel="0" lamt="0" dec="0.5" x100="0" lshp="0" hold="0.5" />
            <elres lpdel="0" amt="0" rel="0" ctlenvamt="0" latt="0" sus="0.5" lspd="0.1" att="0" pdel="0" lamt="0" dec="0.5" x100="0" lshp="0" hold="0.5" />
          </eldata>
          <arpandchords chordrange="3" arprange="1" chord="0" arpgate="100" arp="0" arptime="100" arpdir="0" />
        </channeltrack>
        <pattern type="1" name="church_organ02.ogg" pos="0" frozen="0" len="5120" >
          <note tone="9" pan="0" oct="5" vol="20" pos="6" len="6" />
          <note tone="0" pan="0" oct="6" vol="33" pos="12" len="6" />
          <note tone="9" pan="0" oct="5" vol="36" pos="18" len="6" />
          <note tone="4" pan="0" oct="6" vol="35" pos="24" len="18" />
          <note tone="9" pan="0" oct="5" vol="35" pos="30" len="6" />
          <note tone="0" pan="0" oct="6" vol="31" pos="36" len="6" />
          <note tone="9" pan="0" oct="5" vol="27" pos="42" len="6" />
          <note tone="5" pan="0" oct="6" vol="42" pos="48" len="18" />
          <note tone="8" pan="0" oct="5" vol="28" pos="54" len="6" />
          <note tone="11" pan="0" oct="5" vol="32" pos="60" len="6" />
          <note tone="8" pan="0" oct="5" vol="21" pos="66" len="6" />
          <note tone="4" pan="0" oct="6" vol="32" pos="72" len="18" />
          <note tone="7" pan="0" oct="5" vol="28" pos="78" len="6" />
          <note tone="11" pan="0" oct="5" vol="34" pos="84" len="6" />
          <note tone="7" pan="0" oct="5" vol="28" pos="90" len="6" />
          <note tone="4" pan="0" oct="6" vol="50" pos="96" len="18" />
          <note tone="6" pan="0" oct="5" vol="28" pos="102" len="6" />
          <note tone="9" pan="0" oct="5" vol="38" pos="108" len="6" />
          <note tone="6" pan="0" oct="5" vol="22" pos="114" len="6" />
          <note tone="2" pan="0" oct="6" vol="35" pos="120" len="18" />
          <note tone="5" pan="0" oct="5" vol="26" pos="126" len="6" />
          <note tone="9" pan="0" oct="5" vol="30" pos="132" len="6" />
          <note tone="5" pan="0" oct="5" vol="25" pos="138" len="6" />
          <note tone="2" pan="0" oct="6" vol="35" pos="144" len="18" />
          <note tone="4" pan="0" oct="5" vol="19" pos="150" len="6" />
          <note tone="8" pan="0" oct="5" vol="25" pos="156" len="6" />
          <note tone="4" pan="0" oct="5" vol="25" pos="162" len="6" />
          <note tone="0" pan="0" oct="6" vol="35" pos="168" len="18" />
          <note tone="4" pan="0" oct="5" vol="21" pos="174" len="6" />
          <note tone="7" pan="0" oct="5" vol="32" pos="180" len="6" />
          <note tone="4" pan="0" oct="5" vol="17" pos="186" len="6" />
          <note tone="0" pan="0" oct="6" vol="35" pos="192" len="18" />
          <note tone="3" pan="0" oct="5" vol="26" pos="198" len="6" />
          <note tone="6" pan="0" oct="5" vol="27" pos="204" len="6" />
          <note tone="3" pan="0" oct="5" vol="26" pos="210" len="6" />
          <note tone="11" pan="0" oct="5" vol="35" pos="216" len="18" />
          <note tone="2" pan="0" oct="5" vol="23" pos="222" len="6" />
          <note tone="5" pan="0" oct="5" vol="32" pos="228" len="6" />
          <note tone="2" pan="0" oct="5" vol="16" pos="234" len="6" />
          <note tone="11" pan="0" oct="5" vol="38" pos="240" len="18" />
          <note tone="1" pan="0" oct="5" vol="30" pos="246" len="6" />
          <note tone="4" pan="0" oct="5" vol="19" pos="252" len="6" />
          <note tone="1" pan="0" oct="5" vol="34" pos="258" len="6" />
          <note tone="9" pan="0" oct="5" vol="42" pos="264" len="18" />
          <note tone="0" pan="0" oct="5" vol="22" pos="270" len="6" />
          <note tone="4" pan="0" oct="5" vol="31" pos="276" len="6" />
          <note tone="0" pan="0" oct="5" vol="28" pos="282" len="6" />
          <note tone="9" pan="0" oct="5" vol="42" pos="288" len="18" />
          <note tone="11" pan="0" oct="4" vol="30" pos="294" len="6" />
          <note tone="2" pan="0" oct="5" vol="35" pos="300" len="6" />
          <note tone="11" pan="0" oct="4" vol="17" pos="306" len="6" />
          <note tone="8" pan="0" oct="5" vol="35" pos="312" len="18" />
          <note tone="11" pan="0" oct="4" vol="25" pos="318" len="6" />
          <note tone="2" pan="0" oct="5" vol="30" pos="324" len="6" />
          <note tone="11" pan="0" oct="4" vol="37" pos="330" len="6" />
          <note tone="7" pan="0" oct="5" vol="42" pos="336" len="4" />
          <note tone="1" pan="0" oct="5" vol="24" pos="340" len="4" />
          <note tone="2" pan="0" oct="5" vol="28" pos="344" len="4" />
          <note tone="4" pan="0" oct="5" vol="21" pos="348" len="4" />
          <note tone="5" pan="0" oct="5" vol="27" pos="352" len="4" />
          <note tone="7" pan="0" oct="5" vol="23" pos="356" len="4" />
          <note tone="5" pan="0" oct="5" vol="34" pos="360" len="4" />
          <note tone="4" pan="0" oct="5" vol="30" pos="364" len="4" />
          <note tone="2" pan="0" oct="5" vol="32" pos="368" len="4" />
          <note tone="1" pan="0" oct="5" vol="35" pos="372" len="4" />
          <note tone="11" pan="0" oct="4" vol="32" pos="376" len="4" />
          <note tone="9" pan="0" oct="4" vol="39" pos="380" len="4" />
          <note tone="2" pan="0" oct="5" vol="32" pos="384" len="4" />
          <note tone="4" pan="0" oct="5" vol="31" pos="388" len="4" />
          <note tone="5" pan="0" oct="5" vol="34" pos="392" len="4" />
          <note tone="4" pan="0" oct="5" vol="30" pos="396" len="4" />
          <note tone="2" pan="0" oct="5" vol="26" pos="400" len="4" />
          <note tone="0" pan="0" oct="5" vol="42" pos="404" len="4" />
          <note tone="11" pan="0" oct="4" vol="23" pos="408" len="4" />
          <note tone="0" pan="0" oct="5" vol="28" pos="412" len="4" />
          <note tone="2" pan="0" oct="5" vol="34" pos="416" len="4" />
          <note tone="0" pan="0" oct="5" vol="32" pos="420" len="4" />
          <note tone="11" pan="0" oct="4" vol="25" pos="424" len="4" />
          <note tone="9" pan="0" oct="4" vol="21" pos="428" len="4" />
          <note tone="8" pan="0" oct="4" vol="25" pos="432" len="4" />
          <note tone="9" pan="0" oct="4" vol="28" pos="436" len="4" />
          <note tone="11" pan="0" oct="4" vol="51" pos="440" len="4" />
          <note tone="4" pan="0" oct="4" vol="25" pos="444" len="4" />
          <note tone="8" pan="0" oct="4" vol="21" pos="448" len="4" />
          <note tone="11" pan="0" oct="4" vol="42" pos="452" len="4" />
          <note tone="2" pan="0" oct="5" vol="32" pos="456" len="4" />
          <note tone="0" pan="0" oct="5" vol="21" pos="460" len="4" />
          <note tone="11" pan="0" oct="4" vol="31" pos="464" len="4" />
          <note tone="5" pan="0" oct="5" vol="42" pos="468" len="4" />
          <note tone="4" pan="0" oct="5" vol="35" pos="472" len="4" />
          <note tone="2" pan="0" oct="5" vol="31" pos="476" len="4" />
          <note tone="0" pan="0" oct="5" vol="45" pos="480" len="4" />
          <note tone="9" pan="0" oct="4" vol="29" pos="484" len="4" />
          <note tone="11" pan="0" oct="4" vol="34" pos="488" len="4" />
          <note tone="0" pan="0" oct="5" vol="30" pos="492" len="4" />
          <note tone="2" pan="0" oct="5" vol="26" pos="496" len="4" />
          <note tone="4" pan="0" oct="5" vol="34" pos="500" len="4" />
          <note tone="5" pan="0" oct="5" vol="36" pos="504" len="4" />
          <note tone="4" pan="0" oct="5" vol="34" pos="508" len="4" />
          <note tone="2" pan="0" oct="5" vol="28" pos="512" len="4" />
          <note tone="0" pan="0" oct="5" vol="39" pos="516" len="4" />
          <note tone="11" pan="0" oct="4" vol="23" pos="520" len="4" />
          <note tone="9" pan="0" oct="4" vol="36" pos="524" len="4" />
          <note tone="8" pan="0" oct="4" vol="39" pos="528" len="12" />
          <note tone="5" pan="0" oct="5" vol="46" pos="534" len="6" />
          <note tone="11" pan="0" oct="4" vol="35" pos="540" len="6" />
          <note tone="5" pan="0" oct="5" vol="44" pos="546" len="6" />
          <note tone="7" pan="0" oct="4" vol="47" pos="552" len="12" />
          <note tone="4" pan="0" oct="5" vol="38" pos="558" len="6" />
          <note tone="11" pan="0" oct="4" vol="37" pos="564" len="6" />
          <note tone="4" pan="0" oct="5" vol="42" pos="570" len="6" />
          <note tone="6" pan="0" oct="4" vol="26" pos="576" len="12" />
          <note tone="4" pan="0" oct="5" vol="32" pos="582" len="6" />
          <note tone="9" pan="0" oct="4" vol="32" pos="588" len="6" />
          <note tone="4" pan="0" oct="5" vol="33" pos="594" len="6" />
          <note tone="5" pan="0" oct="4" vol="51" pos="600" len="12" />
          <note tone="2" pan="0" oct="5" vol="42" pos="606" len="6" />
          <note tone="9" pan="0" oct="4" vol="9" pos="612" len="6" />
          <note tone="2" pan="0" oct="5" vol="49" pos="618" len="6" />
          <note tone="4" pan="0" oct="4" vol="45" pos="624" len="12" />
          <note tone="2" pan="0" oct="5" vol="25" pos="630" len="6" />
          <note tone="8" pan="0" oct="4" vol="28" pos="636" len="6" />
          <note tone="2" pan="0" oct="5" vol="40" pos="642" len="6" />
          <note tone="4" pan="0" oct="4" vol="40" pos="648" len="12" />
          <note tone="0" pan="0" oct="5" vol="41" pos="654" len="6" />
          <note tone="7" pan="0" oct="4" vol="30" pos="660" len="6" />
          <note tone="0" pan="0" oct="5" vol="44" pos="666" len="6" />
          <note tone="3" pan="0" oct="4" vol="25" pos="672" len="12" />
          <note tone="0" pan="0" oct="5" vol="44" pos="678" len="6" />
          <note tone="6" pan="0" oct="4" vol="23" pos="684" len="6" />
          <note tone="0" pan="0" oct="5" vol="45" pos="690" len="6" />
          <note tone="2" pan="0" oct="4" vol="34" pos="696" len="12" />
          <note tone="11" pan="0" oct="4" vol="28" pos="702" len="6" />
          <note tone="5" pan="0" oct="4" vol="32" pos="708" len="6" />
          <note tone="11" pan="0" oct="4" vol="39" pos="714" len="6" />
          <note tone="1" pan="0" oct="4" vol="35" pos="720" len="12" />
          <note tone="11" pan="0" oct="4" vol="37" pos="726" len="6" />
          <note tone="4" pan="0" oct="4" vol="27" pos="732" len="6" />
          <note tone="11" pan="0" oct="4" vol="34" pos="738" len="6" />
          <note tone="0" pan="0" oct="4" vol="44" pos="744" len="12" />
          <note tone="9" pan="0" oct="4" vol="18" pos="750" len="6" />
          <note tone="4" pan="0" oct="4" vol="30" pos="756" len="6" />
          <note tone="9" pan="0" oct="4" vol="39" pos="762" len="6" />
          <note tone="11" pan="0" oct="3" vol="42" pos="768" len="12" />
          <note tone="9" pan="0" oct="4" vol="25" pos="774" len="6" />
          <note tone="2" pan="0" oct="4" vol="29" pos="780" len="6" />
          <note tone="9" pan="0" oct="4" vol="46" pos="786" len="6" />
          <note tone="11" pan="0" oct="3" vol="42" pos="792" len="12" />
          <note tone="8" pan="0" oct="4" vol="26" pos="798" len="6" />
          <note tone="2" pan="0" oct="4" vol="27" pos="804" len="6" />
          <note tone="8" pan="0" oct="4" vol="34" pos="810" len="6" />
          <note tone="9" pan="0" oct="3" vol="21" pos="816" len="4" />
          <note tone="0" pan="0" oct="4" vol="11" pos="820" len="4" />
          <note tone="4" pan="0" oct="4" vol="38" pos="824" len="4" />
          <note tone="11" pan="0" oct="4" vol="27" pos="828" len="4" />
          <note tone="8" pan="0" oct="4" vol="25" pos="832" len="4" />
          <note tone="9" pan="0" oct="4" vol="25" pos="836" len="4" />
          <note tone="11" pan="0" oct="3" vol="30" pos="840" len="4" />
          <note tone="2" pan="0" oct="4" vol="17" pos="844" len="4" />
          <note tone="4" pan="0" oct="4" vol="37" pos="848" len="4" />
          <note tone="11" pan="0" oct="4" vol="35" pos="852" len="4" />
          <note tone="8" pan="0" oct="4" vol="27" pos="856" len="4" />
          <note tone="9" pan="0" oct="4" vol="35" pos="860" len="4" />
          <note tone="0" pan="0" oct="4" vol="31" pos="864" len="4" />
          <note tone="4" pan="0" oct="4" vol="33" pos="868" len="4" />
          <note tone="9" pan="0" oct="4" vol="32" pos="872" len="4" />
          <note tone="11" pan="0" oct="4" vol="28" pos="876" len="4" />
          <note tone="8" pan="0" oct="4" vol="29" pos="880" len="4" />
          <note tone="9" pan="0" oct="4" vol="27" pos="884" len="4" />
          <note tone="2" pan="0" oct="4" vol="25" pos="888" len="4" />
          <note tone="5" pan="0" oct="4" vol="22" pos="892" len="4" />
          <note tone="9" pan="0" oct="4" vol="32" pos="896" len="4" />
          <note tone="11" pan="0" oct="4" vol="28" pos="900" len="4" />
          <note tone="8" pan="0" oct="4" vol="31" pos="904" len="4" />
          <note tone="9" pan="0" oct="4" vol="32" pos="908" len="4" />
          <note tone="4" pan="0" oct="4" vol="39" pos="912" len="4" />
          <note tone="9" pan="0" oct="4" vol="32" pos="916" len="4" />
          <note tone="0" pan="0" oct="5" vol="36" pos="920" len="4" />
          <note tone="11" pan="0" oct="4" vol="32" pos="924" len="4" />
          <note tone="8" pan="0" oct="4" vol="28" pos="928" len="4" />
          <note tone="9" pan="0" oct="4" vol="34" pos="932" len="4" />
          <note tone="5" pan="0" oct="4" vol="10" pos="936" len="4" />
          <note tone="9" pan="0" oct="4" vol="32" pos="940" len="4" />
          <note tone="2" pan="0" oct="5" vol="33" pos="944" len="4" />
          <note tone="11" pan="0" oct="4" vol="41" pos="948" len="4" />
          <note tone="8" pan="0" oct="4" vol="31" pos="952" len="4" />
          <note tone="9" pan="0" oct="4" vol="37" pos="956" len="4" />
          <note tone="4" pan="0" oct="4" vol="30" pos="960" len="4" />
          <note tone="9" pan="0" oct="4" vol="18" pos="964" len="4" />
          <note tone="0" pan="0" oct="5" vol="38" pos="968" len="4" />
          <note tone="4" pan="0" oct="5" vol="24" pos="972" len="4" />
          <note tone="8" pan="0" oct="5" vol="28" pos="976" len="4" />
          <note tone="9" pan="0" oct="5" vol="28" pos="980" len="4" />
          <note tone="5" pan="0" oct="4" vol="22" pos="984" len="4" />
          <note tone="9" pan="0" oct="4" vol="25" pos="988" len="4" />
          <note tone="2" pan="0" oct="5" vol="30" pos="992" len="4" />
          <note tone="5" pan="0" oct="5" vol="33" pos="996" len="4" />
          <note tone="8" pan="0" oct="5" vol="21" pos="1000" len="4" />
          <note tone="9" pan="0" oct="5" vol="34" pos="1004" len="4" />
          <note tone="4" pan="0" oct="4" vol="39" pos="1008" len="4" />
          <note tone="9" pan="0" oct="4" vol="26" pos="1012" len="4" />
          <note tone="0" pan="0" oct="5" vol="28" pos="1016" len="4" />
          <note tone="4" pan="0" oct="5" vol="24" pos="1020" len="4" />
          <note tone="8" pan="0" oct="5" vol="25" pos="1024" len="4" />
          <note tone="9" pan="0" oct="5" vol="31" pos="1028" len="4" />
          <note tone="2" pan="0" oct="4" vol="39" pos="1032" len="4" />
          <note tone="8" pan="0" oct="4" vol="28" pos="1036" len="4" />
          <note tone="11" pan="0" oct="4" vol="31" pos="1040" len="4" />
          <note tone="5" pan="0" oct="5" vol="28" pos="1044" len="4" />
          <note tone="4" pan="0" oct="5" vol="14" pos="1048" len="4" />
          <note tone="2" pan="0" oct="5" vol="34" pos="1052" len="4" />
          <note tone="4" pan="0" oct="4" vol="35" pos="1056" len="4" />
          <note tone="9" pan="0" oct="4" vol="39" pos="1060" len="4" />
          <note tone="0" pan="0" oct="5" vol="35" pos="1064" len="4" />
          <note tone="4" pan="0" oct="5" vol="39" pos="1068" len="4" />
          <note tone="8" pan="0" oct="4" vol="28" pos="1072" len="4" />
          <note tone="9" pan="0" oct="4" vol="35" pos="1076" len="4" />
          <note tone="5" pan="0" oct="4" vol="35" pos="1080" len="4" />
          <note tone="9" pan="0" oct="4" vol="33" pos="1084" len="4" />
          <note tone="2" pan="0" oct="5" vol="35" pos="1088" len="4" />
          <note tone="4" pan="0" oct="5" vol="34" pos="1092" len="4" />
          <note tone="8" pan="0" oct="4" vol="29" pos="1096" len="4" />
          <note tone="9" pan="0" oct="4" vol="14" pos="1100" len="4" />
          <note tone="4" pan="0" oct="4" vol="41" pos="1104" len="4" />
          <note tone="9" pan="0" oct="4" vol="26" pos="1108" len="4" />
          <note tone="0" pan="0" oct="5" vol="38" pos="1112" len="4" />
          <note tone="4" pan="0" oct="5" vol="28" pos="1116" len="4" />
          <note tone="8" pan="0" oct="4" vol="30" pos="1120" len="4" />
          <note tone="9" pan="0" oct="4" vol="32" pos="1124" len="4" />
          <note tone="2" pan="0" oct="4" vol="36" pos="1128" len="4" />
          <note tone="8" pan="0" oct="4" vol="16" pos="1132" len="4" />
          <note tone="11" pan="0" oct="4" vol="25" pos="1136" len="4" />
          <note tone="4" pan="0" oct="5" vol="25" pos="1140" len="4" />
          <note tone="8" pan="0" oct="4" vol="34" pos="1144" len="4" />
          <note tone="9" pan="0" oct="4" vol="25" pos="1148" len="4" />
          <note tone="0" pan="0" oct="4" vol="35" pos="1152" len="4" />
          <note tone="4" pan="0" oct="4" vol="23" pos="1156" len="4" />
          <note tone="9" pan="0" oct="4" vol="32" pos="1160" len="4" />
          <note tone="0" pan="0" oct="5" vol="41" pos="1164" len="4" />
          <note tone="2" pan="0" oct="5" vol="33" pos="1168" len="4" />
          <note tone="4" pan="0" oct="5" vol="27" pos="1172" len="4" />
          <note tone="2" pan="0" oct="4" vol="37" pos="1176" len="4" />
          <note tone="5" pan="0" oct="4" vol="43" pos="1180" len="4" />
          <note tone="9" pan="0" oct="4" vol="34" pos="1184" len="4" />
          <note tone="2" pan="0" oct="5" vol="45" pos="1188" len="4" />
          <note tone="4" pan="0" oct="5" vol="26" pos="1192" len="4" />
          <note tone="5" pan="0" oct="5" vol="34" pos="1196" len="4" />
          <note tone="0" pan="0" oct="4" vol="38" pos="1200" len="4" />
          <note tone="4" pan="0" oct="4" vol="42" pos="1204" len="4" />
          <note tone="9" pan="0" oct="4" vol="33" pos="1208" len="4" />
          <note tone="0" pan="0" oct="5" vol="36" pos="1212" len="4" />
          <note tone="2" pan="0" oct="5" vol="32" pos="1216" len="4" />
          <note tone="4" pan="0" oct="5" vol="37" pos="1220" len="4" />
          <note tone="11" pan="0" oct="3" vol="46" pos="1224" len="4" />
          <note tone="2" pan="0" oct="4" vol="35" pos="1228" len="4" />
          <note tone="8" pan="0" oct="4" vol="35" pos="1232" len="4" />
          <note tone="11" pan="0" oct="4" vol="31" pos="1236" len="4" />
          <note tone="0" pan="0" oct="5" vol="39" pos="1240" len="4" />
          <note tone="2" pan="0" oct="5" vol="35" pos="1244" len="4" />
          <note tone="9" pan="0" oct="3" vol="37" pos="1248" len="4" />
          <note tone="4" pan="0" oct="4" vol="31" pos="1252" len="4" />
          <note tone="9" pan="0" oct="4" vol="33" pos="1256" len="4" />
          <note tone="0" pan="0" oct="5" vol="45" pos="1260" len="4" />
          <note tone="8" pan="0" oct="4" vol="27" pos="1264" len="4" />
          <note tone="9" pan="0" oct="4" vol="30" pos="1268" len="4" />
          <note tone="11" pan="0" oct="3" vol="38" pos="1272" len="4" />
          <note tone="4" pan="0" oct="4" vol="27" pos="1276" len="4" />
          <note tone="9" pan="0" oct="4" vol="28" pos="1280" len="4" />
          <note tone="2" pan="0" oct="5" vol="45" pos="1284" len="4" />
          <note tone="8" pan="0" oct="4" vol="28" pos="1288" len="4" />
          <note tone="9" pan="0" oct="4" vol="30" pos="1292" len="4" />
          <note tone="0" pan="0" oct="4" vol="32" pos="1296" len="4" />
          <note tone="4" pan="0" oct="4" vol="30" pos="1300" len="4" />
          <note tone="9" pan="0" oct="4" vol="34" pos="1304" len="4" />
          <note tone="4" pan="0" oct="5" vol="40" pos="1308" len="4" />
          <note tone="8" pan="0" oct="4" vol="31" pos="1312" len="4" />
          <note tone="9" pan="0" oct="4" vol="32" pos="1316" len="4" />
          <note tone="1" pan="0" oct="4" vol="25" pos="1320" len="4" />
          <note tone="4" pan="0" oct="4" vol="38" pos="1324" len="4" />
          <note tone="7" pan="0" oct="4" vol="33" pos="1328" len="4" />
          <note tone="4" pan="0" oct="5" vol="30" pos="1332" len="4" />
          <note tone="8" pan="0" oct="4" vol="33" pos="1336" len="4" />
          <note tone="9" pan="0" oct="4" vol="26" pos="1340" len="4" />
          <note tone="2" pan="0" oct="4" vol="37" pos="1344" len="4" />
          <note tone="5" pan="0" oct="4" vol="35" pos="1348" len="4" />
          <note tone="9" pan="0" oct="4" vol="33" pos="1352" len="4" />
          <note tone="2" pan="0" oct="5" vol="37" pos="1356" len="4" />
          <note tone="4" pan="0" oct="5" vol="30" pos="1360" len="4" />
          <note tone="5" pan="0" oct="5" vol="26" pos="1364" len="4" />
          <note tone="1" pan="0" oct="4" vol="28" pos="1368" len="4" />
          <note tone="4" pan="0" oct="4" vol="28" pos="1372" len="4" />
          <note tone="9" pan="0" oct="4" vol="32" pos="1376" len="4" />
          <note tone="4" pan="0" oct="5" vol="41" pos="1380" len="4" />
          <note tone="5" pan="0" oct="5" vol="35" pos="1384" len="4" />
          <note tone="7" pan="0" oct="5" vol="37" pos="1388" len="4" />
          <note tone="2" pan="0" oct="4" vol="39" pos="1392" len="4" />
          <note tone="5" pan="0" oct="4" vol="32" pos="1396" len="4" />
          <note tone="9" pan="0" oct="4" vol="36" pos="1400" len="4" />
          <note tone="2" pan="0" oct="5" vol="28" pos="1404" len="4" />
          <note tone="4" pan="0" oct="5" vol="29" pos="1408" len="4" />
          <note tone="5" pan="0" oct="5" vol="31" pos="1412" len="4" />
          <note tone="4" pan="0" oct="4" vol="32" pos="1416" len="4" />
          <note tone="7" pan="0" oct="4" vol="39" pos="1420" len="4" />
          <note tone="9" pan="0" oct="4" vol="35" pos="1424" len="4" />
          <note tone="1" pan="0" oct="5" vol="26" pos="1428" len="4" />
          <note tone="2" pan="0" oct="5" vol="38" pos="1432" len="4" />
          <note tone="4" pan="0" oct="5" vol="34" pos="1436" len="4" />
          <note tone="5" pan="0" oct="4" vol="31" pos="1440" len="4" />
          <note tone="9" pan="0" oct="4" vol="41" pos="1444" len="4" />
          <note tone="2" pan="0" oct="5" vol="35" pos="1448" len="4" />
          <note tone="4" pan="0" oct="5" vol="28" pos="1452" len="4" />
          <note tone="1" pan="0" oct="5" vol="34" pos="1456" len="4" />
          <note tone="2" pan="0" oct="5" vol="36" pos="1460" len="4" />
          <note tone="7" pan="0" oct="4" vol="35" pos="1464" len="4" />
          <note tone="10" pan="0" oct="4" vol="34" pos="1468" len="4" />
          <note tone="2" pan="0" oct="5" vol="33" pos="1472" len="4" />
          <note tone="4" pan="0" oct="5" vol="41" pos="1476" len="4" />
          <note tone="1" pan="0" oct="5" vol="37" pos="1480" len="4" />
          <note tone="2" pan="0" oct="5" vol="35" pos="1484" len="4" />
          <note tone="9" pan="0" oct="4" vol="32" pos="1488" len="4" />
          <note tone="2" pan="0" oct="5" vol="25" pos="1492" len="4" />
          <note tone="5" pan="0" oct="5" vol="39" pos="1496" len="4" />
          <note tone="4" pan="0" oct="5" vol="26" pos="1500" len="4" />
          <note tone="1" pan="0" oct="5" vol="41" pos="1504" len="4" />
          <note tone="2" pan="0" oct="5" vol="34" pos="1508" len="4" />
          <note tone="10" pan="0" oct="4" vol="34" pos="1512" len="4" />
          <note tone="2" pan="0" oct="5" vol="35" pos="1516" len="4" />
          <note tone="7" pan="0" oct="5" vol="42" pos="1520" len="4" />
          <note tone="4" pan="0" oct="5" vol="44" pos="1524" len="4" />
          <note tone="1" pan="0" oct="5" vol="38" pos="1528" len="4" />
          <note tone="2" pan="0" oct="5" vol="47" pos="1532" len="4" />
          <note tone="9" pan="0" oct="4" vol="39" pos="1536" len="4" />
          <note tone="2" pan="0" oct="5" vol="19" pos="1540" len="4" />
          <note tone="5" pan="0" oct="5" vol="30" pos="1544" len="4" />
          <note tone="9" pan="0" oct="5" vol="28" pos="1548" len="4" />
          <note tone="1" pan="0" oct="6" vol="28" pos="1552" len="4" />
          <note tone="2" pan="0" oct="6" vol="34" pos="1556" len="4" />
          <note tone="10" pan="0" oct="4" vol="21" pos="1560" len="4" />
          <note tone="2" pan="0" oct="5" vol="21" pos="1564" len="4" />
          <note tone="7" pan="0" oct="5" vol="29" pos="1568" len="4" />
          <note tone="10" pan="0" oct="5" vol="33" pos="1572" len="4" />
          <note tone="1" pan="0" oct="6" vol="32" pos="1576" len="4" />
          <note tone="2" pan="0" oct="6" vol="30" pos="1580" len="4" />
          <note tone="9" pan="0" oct="4" vol="30" pos="1584" len="4" />
          <note tone="2" pan="0" oct="5" vol="15" pos="1588" len="4" />
          <note tone="5" pan="0" oct="5" vol="28" pos="1592" len="4" />
          <note tone="9" pan="0" oct="5" vol="31" pos="1596" len="4" />
          <note tone="1" pan="0" oct="6" vol="27" pos="1600" len="4" />
          <note tone="2" pan="0" oct="6" vol="35" pos="1604" len="4" />
          <note tone="7" pan="0" oct="4" vol="38" pos="1608" len="4" />
          <note tone="1" pan="0" oct="5" vol="25" pos="1612" len="4" />
          <note tone="4" pan="0" oct="5" vol="26" pos="1616" len="4" />
          <note tone="10" pan="0" oct="5" vol="28" pos="1620" len="4" />
          <note tone="9" pan="0" oct="5" vol="37" pos="1624" len="4" />
          <note tone="7" pan="0" oct="5" vol="38" pos="1628" len="4" />
          <note tone="9" pan="0" oct="4" vol="42" pos="1632" len="4" />
          <note tone="2" pan="0" oct="5" vol="31" pos="1636" len="4" />
          <note tone="5" pan="0" oct="5" vol="37" pos="1640" len="4" />
          <note tone="9" pan="0" oct="5" vol="51" pos="1644" len="4" />
          <note tone="1" pan="0" oct="5" vol="31" pos="1648" len="4" />
          <note tone="2" pan="0" oct="5" vol="41" pos="1652" len="4" />
          <note tone="10" pan="0" oct="4" vol="35" pos="1656" len="4" />
          <note tone="1" pan="0" oct="5" vol="31" pos="1660" len="4" />
          <note tone="2" pan="0" oct="5" vol="42" pos="1664" len="4" />
          <note tone="7" pan="0" oct="5" vol="42" pos="1668" len="4" />
          <note tone="1" pan="0" oct="5" vol="28" pos="1672" len="4" />
          <note tone="2" pan="0" oct="5" vol="37" pos="1676" len="4" />
          <note tone="9" pan="0" oct="4" vol="40" pos="1680" len="4" />
          <note tone="2" pan="0" oct="5" vol="40" pos="1684" len="4" />
          <note tone="5" pan="0" oct="5" vol="35" pos="1688" len="4" />
          <note tone="9" pan="0" oct="5" vol="39" pos="1692" len="4" />
          <note tone="1" pan="0" oct="5" vol="35" pos="1696" len="4" />
          <note tone="2" pan="0" oct="5" vol="40" pos="1700" len="4" />
          <note tone="7" pan="0" oct="4" vol="31" pos="1704" len="4" />
          <note tone="1" pan="0" oct="5" vol="33" pos="1708" len="4" />
          <note tone="4" pan="0" oct="5" vol="36" pos="1712" len="4" />
          <note tone="9" pan="0" oct="5" vol="27" pos="1716" len="4" />
          <note tone="1" pan="0" oct="5" vol="35" pos="1720" len="4" />
          <note tone="2" pan="0" oct="5" vol="51" pos="1724" len="4" />
          <note tone="5" pan="0" oct="4" vol="40" pos="1728" len="4" />
          <note tone="9" pan="0" oct="4" vol="39" pos="1732" len="4" />
          <note tone="2" pan="0" oct="5" vol="38" pos="1736" len="4" />
          <note tone="5" pan="0" oct="5" vol="42" pos="1740" len="4" />
          <note tone="7" pan="0" oct="5" vol="36" pos="1744" len="4" />
          <note tone="9" pan="0" oct="5" vol="40" pos="1748" len="4" />
          <note tone="7" pan="0" oct="4" vol="39" pos="1752" len="4" />
          <note tone="1" pan="0" oct="5" vol="30" pos="1756" len="4" />
          <note tone="4" pan="0" oct="5" vol="37" pos="1760" len="4" />
          <note tone="7" pan="0" oct="5" vol="39" pos="1764" len="4" />
          <note tone="9" pan="0" oct="5" vol="35" pos="1768" len="4" />
          <note tone="10" pan="0" oct="5" vol="31" pos="1772" len="4" />
          <note tone="5" pan="0" oct="4" vol="43" pos="1776" len="4" />
          <note tone="9" pan="0" oct="4" vol="39" pos="1780" len="4" />
          <note tone="2" pan="0" oct="5" vol="38" pos="1784" len="4" />
          <note tone="5" pan="0" oct="5" vol="29" pos="1788" len="4" />
          <note tone="7" pan="0" oct="5" vol="31" pos="1792" len="4" />
          <note tone="9" pan="0" oct="5" vol="39" pos="1796" len="4" />
          <note tone="4" pan="0" oct="4" vol="31" pos="1800" len="4" />
          <note tone="7" pan="0" oct="4" vol="39" pos="1804" len="4" />
          <note tone="1" pan="0" oct="5" vol="36" pos="1808" len="4" />
          <note tone="4" pan="0" oct="5" vol="31" pos="1812" len="4" />
          <note tone="5" pan="0" oct="5" vol="35" pos="1816" len="4" />
          <note tone="7" pan="0" oct="5" vol="40" pos="1820" len="4" />
          <note tone="2" pan="0" oct="4" vol="35" pos="1824" len="4" />
          <note tone="9" pan="0" oct="4" vol="32" pos="1828" len="4" />
          <note tone="2" pan="0" oct="5" vol="34" pos="1832" len="4" />
          <note tone="5" pan="0" oct="5" vol="38" pos="1836" len="4" />
          <note tone="1" pan="0" oct="5" vol="32" pos="1840" len="4" />
          <note tone="2" pan="0" oct="5" vol="39" pos="1844" len="4" />
          <note tone="4" pan="0" oct="4" vol="29" pos="1848" len="4" />
          <note tone="7" pan="0" oct="4" vol="42" pos="1852" len="4" />
          <note tone="10" pan="0" oct="4" vol="38" pos="1856" len="4" />
          <note tone="7" pan="0" oct="5" vol="35" pos="1860" len="4" />
          <note tone="1" pan="0" oct="5" vol="33" pos="1864" len="4" />
          <note tone="2" pan="0" oct="5" vol="35" pos="1868" len="4" />
          <note tone="6" pan="0" oct="4" vol="33" pos="1872" len="4" />
          <note tone="9" pan="0" oct="4" vol="44" pos="1876" len="4" />
          <note tone="1" pan="0" oct="5" vol="32" pos="1880" len="4" />
          <note tone="9" pan="0" oct="5" vol="48" pos="1884" len="4" />
          <note tone="1" pan="0" oct="5" vol="35" pos="1888" len="4" />
          <note tone="2" pan="0" oct="5" vol="37" pos="1892" len="4" />
          <note tone="8" pan="0" oct="4" vol="33" pos="1896" len="4" />
          <note tone="11" pan="0" oct="4" vol="30" pos="1900" len="4" />
          <note tone="2" pan="0" oct="5" vol="35" pos="1904" len="4" />
          <note tone="11" pan="0" oct="5" vol="30" pos="1908" len="4" />
          <note tone="1" pan="0" oct="5" vol="38" pos="1912" len="4" />
          <note tone="2" pan="0" oct="5" vol="40" pos="1916" len="4" />
          <note tone="9" pan="0" oct="4" vol="11" pos="1920" len="4" />
          <note tone="0" pan="0" oct="5" vol="37" pos="1924" len="4" />
          <note tone="4" pan="0" oct="5" vol="28" pos="1928" len="4" />
          <note tone="9" pan="0" oct="5" vol="36" pos="1932" len="4" />
          <note tone="11" pan="0" oct="5" vol="39" pos="1936" len="4" />
          <note tone="0" pan="0" oct="6" vol="38" pos="1940" len="4" />
          <note tone="8" pan="0" oct="4" vol="37" pos="1944" len="4" />
          <note tone="11" pan="0" oct="4" vol="44" pos="1948" len="4" />
          <note tone="4" pan="0" oct="5" vol="42" pos="1952" len="4" />
          <note tone="11" pan="0" oct="5" vol="46" pos="1956" len="4" />
          <note tone="0" pan="0" oct="6" vol="40" pos="1960" len="4" />
          <note tone="2" pan="0" oct="6" vol="39" pos="1964" len="4" />
          <note tone="9" pan="0" oct="4" vol="37" pos="1968" len="4" />
          <note tone="0" pan="0" oct="5" vol="38" pos="1972" len="4" />
          <note tone="4" pan="0" oct="5" vol="36" pos="1976" len="4" />
          <note tone="9" pan="0" oct="5" vol="31" pos="1980" len="4" />
          <note tone="11" pan="0" oct="5" vol="39" pos="1984" len="4" />
          <note tone="0" pan="0" oct="6" vol="39" pos="1988" len="4" />
          <note tone="11" pan="0" oct="4" vol="38" pos="1992" len="4" />
          <note tone="2" pan="0" oct="5" vol="21" pos="1996" len="4" />
          <note tone="5" pan="0" oct="5" vol="37" pos="2000" len="4" />
          <note tone="8" pan="0" oct="5" vol="25" pos="2004" len="4" />
          <note tone="9" pan="0" oct="5" vol="28" pos="2008" len="4" />
          <note tone="11" pan="0" oct="5" vol="39" pos="2012" len="4" />
          <note tone="0" pan="0" oct="5" vol="42" pos="2016" len="3" />
          <note tone="4" pan="0" oct="5" vol="38" pos="2019" len="3" />
          <note tone="6" pan="0" oct="5" vol="27" pos="2022" len="3" />
          <note tone="8" pan="0" oct="5" vol="35" pos="2025" len="3" />
          <note tone="9" pan="0" oct="5" vol="41" pos="2028" len="3" />
          <note tone="11" pan="0" oct="5" vol="41" pos="2031" len="3" />
          <note tone="0" pan="0" oct="6" vol="36" pos="2034" len="3" />
          <note tone="2" pan="0" oct="6" vol="46" pos="2037" len="3" />
          <note tone="4" pan="0" oct="6" vol="39" pos="2040" len="3" />
          <note tone="5" pan="0" oct="6" vol="43" pos="2043" len="3" />
          <note tone="4" pan="0" oct="6" vol="32" pos="2046" len="3" />
          <note tone="2" pan="0" oct="6" vol="39" pos="2049" len="3" />
          <note tone="0" pan="0" oct="6" vol="45" pos="2052" len="3" />
          <note tone="11" pan="0" oct="5" vol="39" pos="2055" len="3" />
          <note tone="9" pan="0" oct="5" vol="37" pos="2058" len="3" />
          <note tone="8" pan="0" oct="5" vol="40" pos="2061" len="3" />
          <note tone="9" pan="0" oct="5" vol="45" pos="2064" len="3" />
          <note tone="11" pan="0" oct="5" vol="37" pos="2067" len="3" />
          <note tone="0" pan="0" oct="6" vol="36" pos="2070" len="3" />
          <note tone="2" pan="0" oct="6" vol="45" pos="2073" len="3" />
          <note tone="4" pan="0" oct="6" vol="51" pos="2076" len="3" />
          <note tone="6" pan="0" oct="6" vol="37" pos="2079" len="3" />
          <note tone="8" pan="0" oct="6" vol="77" pos="2082" len="3" />
          <note tone="9" pan="0" oct="6" vol="44" pos="2085" len="3" />
          <note tone="11" pan="0" oct="6" vol="46" pos="2088" len="3" />
          <note tone="5" pan="0" oct="6" vol="38" pos="2091" len="3" />
          <note tone="4" pan="0" oct="6" vol="42" pos="2094" len="3" />
          <note tone="2" pan="0" oct="6" vol="42" pos="2097" len="3" />
          <note tone="8" pan="0" oct="5" vol="46" pos="2100" len="3" />
          <note tone="11" pan="0" oct="5" vol="45" pos="2103" len="3" />
          <note tone="0" pan="0" oct="6" vol="34" pos="2106" len="3" />
          <note tone="2" pan="0" oct="6" vol="42" pos="2109" len="3" />
          <note tone="4" pan="0" oct="5" vol="40" pos="2112" len="3" />
          <note tone="2" pan="0" oct="5" vol="42" pos="2115" len="3" />
          <note tone="4" pan="0" oct="5" vol="40" pos="2118" len="3" />
          <note tone="6" pan="0" oct="5" vol="28" pos="2121" len="3" />
          <note tone="8" pan="0" oct="5" vol="44" pos="2124" len="3" />
          <note tone="9" pan="0" oct="5" vol="44" pos="2127" len="3" />
          <note tone="11" pan="0" oct="5" vol="35" pos="2130" len="3" />
          <note tone="0" pan="0" oct="6" vol="34" pos="2133" len="3" />
          <note tone="2" pan="0" oct="6" vol="33" pos="2136" len="3" />
          <note tone="11" pan="0" oct="5" vol="28" pos="2139" len="3" />
          <note tone="9" pan="0" oct="5" vol="39" pos="2142" len="3" />
          <note tone="7" pan="0" oct="5" vol="44" pos="2145" len="3" />
          <note tone="11" pan="0" oct="4" vol="39" pos="2148" len="3" />
          <note tone="2" pan="0" oct="5" vol="32" pos="2151" len="3" />
          <note tone="4" pan="0" oct="5" vol="28" pos="2154" len="3" />
          <note tone="5" pan="0" oct="5" vol="44" pos="2157" len="3" />
          <note tone="11" pan="0" oct="5" vol="41" pos="2160" len="3" />
          <note tone="2" pan="0" oct="6" vol="35" pos="2160" len="3" />
          <note tone="5" pan="0" oct="5" vol="37" pos="2160" len="3" />
          <note tone="4" pan="0" oct="6" vol="44" pos="2163" len="3" />
          <note tone="8" pan="0" oct="4" vol="32" pos="2163" len="3" />
          <note tone="11" pan="0" oct="5" vol="42" pos="2166" len="3" />
          <note tone="2" pan="0" oct="6" vol="42" pos="2166" len="3" />
          <note tone="5" pan="0" oct="5" vol="28" pos="2166" len="3" />
          <note tone="4" pan="0" oct="6" vol="42" pos="2169" len="3" />
          <note tone="8" pan="0" oct="4" vol="34" pos="2169" len="3" />
          <note tone="11" pan="0" oct="5" vol="42" pos="2172" len="3" />
          <note tone="2" pan="0" oct="6" vol="42" pos="2172" len="3" />
          <note tone="5" pan="0" oct="5" vol="35" pos="2172" len="3" />
          <note tone="4" pan="0" oct="6" vol="42" pos="2175" len="3" />
          <note tone="8" pan="0" oct="4" vol="31" pos="2175" len="3" />
          <note tone="11" pan="0" oct="5" vol="42" pos="2178" len="3" />
          <note tone="2" pan="0" oct="6" vol="41" pos="2178" len="3" />
          <note tone="5" pan="0" oct="5" vol="39" pos="2178" len="3" />
          <note tone="4" pan="0" oct="6" vol="45" pos="2181" len="3" />
          <note tone="8" pan="0" oct="4" vol="35" pos="2181" len="3" />
          <note tone="11" pan="0" oct="5" vol="33" pos="2184" len="3" />
          <note tone="2" pan="0" oct="6" vol="40" pos="2184" len="3" />
          <note tone="5" pan="0" oct="5" vol="41" pos="2184" len="3" />
          <note tone="4" pan="0" oct="6" vol="39" pos="2187" len="3" />
          <note tone="8" pan="0" oct="4" vol="35" pos="2187" len="3" />
          <note tone="11" pan="0" oct="5" vol="35" pos="2190" len="3" />
          <note tone="2" pan="0" oct="6" vol="42" pos="2190" len="3" />
          <note tone="5" pan="0" oct="5" vol="39" pos="2190" len="3" />
          <note tone="4" pan="0" oct="6" vol="43" pos="2193" len="3" />
          <note tone="8" pan="0" oct="4" vol="37" pos="2193" len="3" />
          <note tone="11" pan="0" oct="5" vol="40" pos="2196" len="3" />
          <note tone="2" pan="0" oct="6" vol="42" pos="2196" len="3" />
          <note tone="5" pan="0" oct="5" vol="31" pos="2196" len="3" />
          <note tone="4" pan="0" oct="6" vol="44" pos="2199" len="3" />
          <note tone="8" pan="0" oct="4" vol="31" pos="2199" len="3" />
          <note tone="11" pan="0" oct="5" vol="36" pos="2202" len="3" />
          <note tone="2" pan="0" oct="6" vol="40" pos="2202" len="3" />
          <note tone="5" pan="0" oct="5" vol="39" pos="2202" len="3" />
          <note tone="4" pan="0" oct="6" vol="45" pos="2205" len="3" />
          <note tone="8" pan="0" oct="4" vol="38" pos="2205" len="3" />
          <note tone="4" pan="0" oct="5" vol="48" pos="2208" len="144" />
          <note tone="9" pan="0" oct="5" vol="53" pos="2208" len="96" />
          <note tone="0" pan="0" oct="6" vol="39" pos="2208" len="90" />
          <note tone="2" pan="0" oct="6" vol="44" pos="2298" len="6" />
          <note tone="11" pan="0" oct="5" vol="24" pos="2304" len="30" />
          <note tone="9" pan="0" oct="5" vol="42" pos="2304" len="6" />
          <note tone="9" pan="0" oct="5" vol="49" pos="2310" len="6" />
          <note tone="8" pan="0" oct="5" vol="32" pos="2316" len="6" />
          <note tone="6" pan="0" oct="5" vol="29" pos="2322" len="6" />
          <note tone="8" pan="0" oct="5" vol="31" pos="2328" len="6" />
          <note tone="3" pan="0" oct="6" vol="23" pos="2334" len="6" />
          <note tone="6" pan="0" oct="5" vol="31" pos="2334" len="6" />
          <note tone="4" pan="0" oct="6" vol="39" pos="2340" len="12" />
          <note tone="8" pan="0" oct="5" vol="33" pos="2340" len="6" />
          <note tone="3" pan="0" oct="5" vol="29" pos="2346" len="6" />
          <note tone="4" pan="0" oct="5" vol="38" pos="2352" len="12" />
          <note tone="4" pan="0" oct="6" vol="36" pos="2670" len="6" />
          <note tone="5" pan="0" oct="6" vol="48" pos="2676" len="6" />
          <note tone="1" pan="0" oct="6" vol="40" pos="2682" len="6" />
          <note tone="2" pan="0" oct="6" vol="47" pos="2688" len="96" />
          <note tone="11" pan="0" oct="4" vol="35" pos="2790" len="6" />
          <note tone="4" pan="0" oct="5" vol="42" pos="2796" len="6" />
          <note tone="11" pan="0" oct="4" vol="35" pos="2802" len="6" />
          <note tone="8" pan="0" oct="5" vol="23" pos="2808" len="6" />
          <note tone="4" pan="0" oct="5" vol="35" pos="2814" len="6" />
          <note tone="11" pan="0" oct="5" vol="26" pos="2820" len="6" />
          <note tone="8" pan="0" oct="5" vol="31" pos="2826" len="6" />
          <note tone="2" pan="0" oct="6" vol="28" pos="2832" len="6" />
          <note tone="11" pan="0" oct="5" vol="37" pos="2838" len="6" />
          <note tone="5" pan="0" oct="6" vol="30" pos="2844" len="6" />
          <note tone="2" pan="0" oct="6" vol="32" pos="2850" len="6" />
          <note tone="11" pan="0" oct="5" vol="35" pos="2856" len="6" />
          <note tone="2" pan="0" oct="6" vol="48" pos="2862" len="6" />
          <note tone="8" pan="0" oct="5" vol="32" pos="2868" len="6" />
          <note tone="11" pan="0" oct="5" vol="49" pos="2874" len="6" />
          <note tone="2" pan="0" oct="5" vol="30" pos="2880" len="6" />
          <note tone="8" pan="0" oct="5" vol="33" pos="2886" len="6" />
          <note tone="11" pan="0" oct="4" vol="29" pos="2892" len="6" />
          <note tone="2" pan="0" oct="5" vol="42" pos="2898" len="6" />
          <note tone="8" pan="0" oct="4" vol="28" pos="2904" len="6" />
          <note tone="11" pan="0" oct="4" vol="42" pos="2910" len="6" />
          <note tone="4" pan="0" oct="4" vol="32" pos="2916" len="6" />
          <note tone="2" pan="0" oct="5" vol="34" pos="2922" len="6" />
          <note tone="0" pan="0" oct="5" vol="41" pos="2928" len="6" />
          <note tone="2" pan="0" oct="5" vol="36" pos="2934" len="6" />
          <note tone="0" pan="0" oct="5" vol="38" pos="2940" len="6" />
          <note tone="11" pan="0" oct="4" vol="34" pos="2946" len="6" />
          <note tone="0" pan="0" oct="5" vol="44" pos="2952" len="6" />
          <note tone="4" pan="0" oct="5" vol="39" pos="2958" len="6" />
          <note tone="9" pan="0" oct="5" vol="32" pos="2964" len="6" />
          <note tone="7" pan="0" oct="5" vol="32" pos="2970" len="6" />
          <note tone="9" pan="0" oct="5" vol="43" pos="2976" len="6" />
          <note tone="2" pan="0" oct="6" vol="37" pos="2982" len="6" />
          <note tone="0" pan="0" oct="6" vol="36" pos="2988" len="6" />
          <note tone="11" pan="0" oct="5" vol="37" pos="2994" len="6" />
          <note tone="0" pan="0" oct="6" vol="33" pos="3000" len="6" />
          <note tone="4" pan="0" oct="6" vol="41" pos="3006" len="6" />
          <note tone="9" pan="0" oct="6" vol="30" pos="3012" len="6" />
          <note tone="8" pan="0" oct="6" vol="31" pos="3018" len="6" />
          <note tone="9" pan="0" oct="6" vol="39" pos="3024" len="48" />
          <note tone="9" pan="0" oct="6" vol="34" pos="3072" len="12" />
          <note tone="9" pan="0" oct="6" vol="45" pos="3084" len="12" />
          <note tone="2" pan="0" oct="4" vol="37" pos="3267" len="3" />
          <note tone="4" pan="0" oct="4" vol="32" pos="3270" len="3" />
          <note tone="6" pan="0" oct="4" vol="23" pos="3273" len="3" />
          <note tone="7" pan="0" oct="4" vol="42" pos="3276" len="3" />
          <note tone="9" pan="0" oct="4" vol="33" pos="3279" len="3" />
          <note tone="11" pan="0" oct="4" vol="39" pos="3282" len="3" />
          <note tone="0" pan="0" oct="5" vol="45" pos="3285" len="3" />
          <note tone="11" pan="0" oct="4" vol="32" pos="3288" len="3" />
          <note tone="7" pan="0" oct="4" vol="35" pos="3291" len="3" />
          <note tone="9" pan="0" oct="4" vol="39" pos="3294" len="3" />
          <note tone="11" pan="0" oct="4" vol="37" pos="3297" len="3" />
          <note tone="0" pan="0" oct="5" vol="48" pos="3300" len="3" />
          <note tone="2" pan="0" oct="5" vol="43" pos="3303" len="3" />
          <note tone="4" pan="0" oct="5" vol="42" pos="3306" len="3" />
          <note tone="6" pan="0" oct="5" vol="32" pos="3309" len="3" />
          <note tone="7" pan="0" oct="5" vol="54" pos="3312" len="3" />
          <note tone="7" pan="0" oct="4" vol="32" pos="3315" len="3" />
          <note tone="11" pan="0" oct="4" vol="35" pos="3318" len="3" />
          <note tone="2" pan="0" oct="5" vol="47" pos="3321" len="3" />
          <note tone="7" pan="0" oct="5" vol="46" pos="3324" len="3" />
          <note tone="11" pan="0" oct="5" vol="30" pos="3327" len="3" />
          <note tone="2" pan="0" oct="6" vol="30" pos="3330" len="3" />
          <note tone="11" pan="0" oct="5" vol="42" pos="3333" len="3" />
          <note tone="7" pan="0" oct="6" vol="48" pos="3336" len="12" />
          <note tone="0" pan="0" oct="6" vol="30" pos="3366" len="6" />
          <note tone="4" pan="0" oct="6" vol="33" pos="3372" len="6" />
          <note tone="0" pan="0" oct="6" vol="22" pos="3378" len="6" />
          <note tone="7" pan="0" oct="6" vol="39" pos="3384" len="6" />
          <note tone="7" pan="0" oct="5" vol="34" pos="3390" len="6" />
          <note tone="0" pan="0" oct="6" vol="32" pos="3396" len="6" />
          <note tone="7" pan="0" oct="5" vol="26" pos="3402" len="6" />
          <note tone="9" pan="0" oct="5" vol="37" pos="3408" len="6" />
          <note tone="2" pan="0" oct="6" vol="28" pos="3414" len="6" />
          <note tone="5" pan="0" oct="6" vol="25" pos="3420" len="6" />
          <note tone="2" pan="0" oct="6" vol="20" pos="3426" len="6" />
          <note tone="9" pan="0" oct="6" vol="49" pos="3432" len="6" />
          <note tone="9" pan="0" oct="5" vol="36" pos="3438" len="6" />
          <note tone="2" pan="0" oct="6" vol="34" pos="3444" len="6" />
          <note tone="9" pan="0" oct="5" vol="32" pos="3450" len="6" />
          <note tone="11" pan="0" oct="5" vol="41" pos="3456" len="12" />
          <note tone="2" pan="0" oct="6" vol="24" pos="3468" len="12" />
          <note tone="7" pan="0" oct="6" vol="45" pos="3468" len="12" />
          <note tone="7" pan="0" oct="6" vol="46" pos="3480" len="12" />
          <note tone="4" pan="0" oct="6" vol="39" pos="3480" len="12" />
          <note tone="7" pan="0" oct="6" vol="31" pos="3492" len="12" />
          <note tone="4" pan="0" oct="6" vol="34" pos="3492" len="12" />
          <note tone="5" pan="0" oct="6" vol="28" pos="3504" len="12" />
          <note tone="4" pan="0" oct="6" vol="32" pos="3504" len="12" />
          <note tone="9" pan="0" oct="5" vol="35" pos="3504" len="12" />
          <note tone="9" pan="0" oct="5" vol="29" pos="3516" len="12" />
          <note tone="5" pan="0" oct="6" vol="32" pos="3516" len="12" />
          <note tone="2" pan="0" oct="6" vol="33" pos="3516" len="12" />
          <note tone="5" pan="0" oct="6" vol="25" pos="3528" len="12" />
          <note tone="7" pan="0" oct="5" vol="24" pos="3528" len="12" />
          <note tone="2" pan="0" oct="6" vol="26" pos="3528" len="12" />
          <note tone="5" pan="0" oct="6" vol="35" pos="3540" len="12" />
          <note tone="7" pan="0" oct="5" vol="30" pos="3540" len="12" />
          <note tone="2" pan="0" oct="6" vol="39" pos="3540" len="12" />
          <note tone="7" pan="0" oct="5" vol="30" pos="3552" len="6" />
          <note tone="4" pan="0" oct="6" vol="37" pos="3552" len="6" />
          <note tone="0" pan="0" oct="6" vol="32" pos="3552" len="6" />
          <note tone="0" pan="0" oct="6" vol="39" pos="3558" len="6" />
          <note tone="4" pan="0" oct="6" vol="42" pos="3564" len="6" />
          <note tone="0" pan="0" oct="6" vol="40" pos="3570" len="6" />
          <note tone="7" pan="0" oct="6" vol="42" pos="3576" len="6" />
          <note tone="0" pan="0" oct="6" vol="36" pos="3582" len="6" />
          <note tone="4" pan="0" oct="6" vol="30" pos="3588" len="6" />
          <note tone="0" pan="0" oct="6" vol="13" pos="3594" len="6" />
          <note tone="5" pan="0" oct="6" vol="39" pos="3600" len="6" />
          <note tone="11" pan="0" oct="5" vol="32" pos="3606" len="6" />
          <note tone="2" pan="0" oct="6" vol="34" pos="3612" len="6" />
          <note tone="11" pan="0" oct="5" vol="14" pos="3618" len="6" />
          <note tone="4" pan="0" oct="6" vol="35" pos="3624" len="6" />
          <note tone="9" pan="0" oct="5" vol="30" pos="3630" len="6" />
          <note tone="0" pan="0" oct="6" vol="29" pos="3636" len="6" />
          <note tone="9" pan="0" oct="5" vol="29" pos="3642" len="6" />
          <note tone="2" pan="0" oct="6" vol="18" pos="3648" len="48" />
          <note tone="2" pan="0" oct="6" vol="32" pos="3696" len="48" />
          <note tone="2" pan="0" oct="6" vol="46" pos="3744" len="6" />
          <note tone="2" pan="0" oct="6" vol="40" pos="3750" len="6" />
          <note tone="0" pan="0" oct="6" vol="39" pos="3756" len="6" />
          <note tone="11" pan="0" oct="5" vol="47" pos="3762" len="6" />
          <note tone="0" pan="0" oct="6" vol="40" pos="3768" len="48" />
          <note tone="0" pan="0" oct="6" vol="32" pos="3846" len="6" />
          <note tone="11" pan="0" oct="5" vol="37" pos="3852" len="6" />
          <note tone="0" pan="0" oct="6" vol="26" pos="3858" len="6" />
          <note tone="9" pan="0" oct="5" vol="15" pos="3864" len="6" />
          <note tone="9" pan="0" oct="6" vol="29" pos="3870" len="6" />
          <note tone="9" pan="0" oct="5" vol="32" pos="3876" len="6" />
          <note tone="0" pan="0" oct="6" vol="35" pos="3882" len="6" />
          <note tone="11" pan="0" oct="5" vol="42" pos="3888" len="12" />
          <note tone="11" pan="0" oct="5" vol="38" pos="3900" len="12" />
          <note tone="10" pan="0" oct="5" vol="33" pos="3942" len="6" />
          <note tone="9" pan="0" oct="5" vol="32" pos="3948" len="6" />
          <note tone="10" pan="0" oct="5" vol="35" pos="3954" len="6" />
          <note tone="7" pan="0" oct="5" vol="45" pos="3960" len="6" />
          <note tone="7" pan="0" oct="6" vol="28" pos="3966" len="6" />
          <note tone="7" pan="0" oct="5" vol="42" pos="3972" len="6" />
          <note tone="10" pan="0" oct="5" vol="32" pos="3978" len="6" />
          <note tone="9" pan="0" oct="5" vol="35" pos="3984" len="12" />
          <note tone="9" pan="0" oct="5" vol="39" pos="3996" len="12" />
          <note tone="10" pan="0" oct="5" vol="35" pos="4038" len="6" />
          <note tone="9" pan="0" oct="5" vol="45" pos="4044" len="6" />
          <note tone="10" pan="0" oct="5" vol="32" pos="4050" len="6" />
          <note tone="5" pan="0" oct="5" vol="50" pos="4056" len="6" />
          <note tone="5" pan="0" oct="6" vol="32" pos="4062" len="6" />
          <note tone="10" pan="0" oct="5" vol="34" pos="4068" len="6" />
          <note tone="2" pan="0" oct="6" vol="35" pos="4074" len="6" />
          <note tone="8" pan="0" oct="5" vol="35" pos="4080" len="12" />
          <note tone="8" pan="0" oct="5" vol="42" pos="4092" len="12" />
          <note tone="9" pan="0" oct="5" vol="39" pos="4134" len="6" />
          <note tone="8" pan="0" oct="5" vol="28" pos="4140" len="6" />
          <note tone="9" pan="0" oct="5" vol="42" pos="4146" len="6" />
          <note tone="4" pan="0" oct="5" vol="32" pos="4152" len="6" />
          <note tone="4" pan="0" oct="6" vol="33" pos="4158" len="6" />
          <note tone="9" pan="0" oct="5" vol="42" pos="4164" len="6" />
          <note tone="0" pan="0" oct="6" vol="40" pos="4170" len="6" />
          <note tone="2" pan="0" oct="6" vol="25" pos="4176" len="48" />
          <note tone="0" pan="0" oct="6" vol="35" pos="4224" len="48" />
          <note tone="11" pan="0" oct="5" vol="46" pos="4278" len="6" />
          <note tone="9" pan="0" oct="5" vol="38" pos="4284" len="6" />
          <note tone="11" pan="0" oct="5" vol="35" pos="4290" len="6" />
          <note tone="4" pan="0" oct="5" vol="30" pos="4296" len="6" />
          <note tone="4" pan="0" oct="6" vol="28" pos="4302" len="6" />
          <note tone="11" pan="0" oct="5" vol="43" pos="4308" len="6" />
          <note tone="2" pan="0" oct="6" vol="39" pos="4314" len="6" />
          <note tone="0" pan="0" oct="6" vol="38" pos="4320" len="24" />
          <note tone="4" pan="0" oct="6" vol="26" pos="4494" len="6" />
          <note tone="2" pan="0" oct="6" vol="33" pos="4500" len="6" />
          <note tone="4" pan="0" oct="6" vol="25" pos="4506" len="6" />
          <note tone="0" pan="0" oct="6" vol="40" pos="4512" len="6" />
          <note tone="0" pan="0" oct="6" vol="36" pos="4518" len="6" />
          <note tone="11" pan="0" oct="5" vol="34" pos="4524" len="6" />
          <note tone="0" pan="0" oct="6" vol="28" pos="4530" len="6" />
          <note tone="11" pan="0" oct="5" vol="37" pos="4536" len="30" />
          <note tone="6" pan="0" oct="5" vol="39" pos="4566" len="3" />
          <note tone="8" pan="0" oct="5" vol="28" pos="4569" len="3" />
          <note tone="9" pan="0" oct="5" vol="35" pos="4572" len="18" />
          <note tone="11" pan="0" oct="5" vol="38" pos="4590" len="6" />
          <note tone="8" pan="0" oct="5" vol="35" pos="4596" len="12" />
          <note tone="9" pan="0" oct="5" vol="56" pos="4608" len="6" />
          <note tone="9" pan="0" oct="6" vol="35" pos="4614" len="6" />
          <note tone="7" pan="0" oct="6" vol="39" pos="4620" len="6" />
          <note tone="9" pan="0" oct="6" vol="36" pos="4626" len="6" />
          <note tone="5" pan="0" oct="6" vol="39" pos="4632" len="6" />
          <note tone="5" pan="0" oct="6" vol="38" pos="4638" len="6" />
          <note tone="4" pan="0" oct="6" vol="35" pos="4644" len="6" />
          <note tone="5" pan="0" oct="6" vol="42" pos="4650" len="6" />
          <note tone="4" pan="0" oct="6" vol="32" pos="4656" len="30" />
          <note tone="11" pan="0" oct="5" vol="46" pos="4686" len="3" />
          <note tone="1" pan="0" oct="6" vol="35" pos="4689" len="3" />
          <note tone="2" pan="0" oct="6" vol="40" pos="4692" len="18" />
          <note tone="4" pan="0" oct="6" vol="32" pos="4710" len="6" />
          <note tone="1" pan="0" oct="6" vol="45" pos="4716" len="12" />
          <note tone="2" pan="0" oct="6" vol="57" pos="4728" len="30" />
          <note tone="1" pan="0" oct="6" vol="40" pos="4758" len="6" />
          <note tone="2" pan="0" oct="6" vol="42" pos="4764" len="6" />
          <note tone="1" pan="0" oct="6" vol="39" pos="4770" len="6" />
          <note tone="2" pan="0" oct="6" vol="39" pos="4776" len="24" />
          <note tone="1" pan="0" oct="6" vol="32" pos="4806" len="6" />
          <note tone="2" pan="0" oct="6" vol="41" pos="4812" len="6" />
          <note tone="1" pan="0" oct="6" vol="32" pos="4818" len="6" />
          <note tone="2" pan="0" oct="6" vol="39" pos="4824" len="30" />
          <note tone="1" pan="0" oct="6" vol="40" pos="4854" len="6" />
          <note tone="2" pan="0" oct="6" vol="34" pos="4860" len="6" />
          <note tone="4" pan="0" oct="6" vol="31" pos="4866" len="6" />
          <note tone="5" pan="0" oct="6" vol="42" pos="4872" len="30" />
          <note tone="4" pan="0" oct="6" vol="40" pos="4902" len="6" />
          <note tone="5" pan="0" oct="6" vol="39" pos="4908" len="6" />
          <note tone="7" pan="0" oct="6" vol="39" pos="4914" len="6" />
          <note tone="9" pan="0" oct="6" vol="39" pos="4920" len="30" />
          <note tone="11" pan="0" oct="6" vol="32" pos="4950" len="6" />
          <note tone="8" pan="0" oct="6" vol="36" pos="4956" len="6" />
          <note tone="9" pan="0" oct="6" vol="48" pos="4962" len="6" />
          <note tone="5" pan="0" oct="6" vol="43" pos="4968" len="24" />
          <note tone="5" pan="0" oct="6" vol="39" pos="4998" len="6" />
          <note tone="4" pan="0" oct="6" vol="31" pos="5004" len="6" />
          <note tone="2" pan="0" oct="6" vol="43" pos="5010" len="6" />
          <note tone="8" pan="0" oct="6" vol="30" pos="5016" len="24" />
          <note tone="5" pan="0" oct="6" vol="33" pos="5022" len="6" />
          <note tone="4" pan="0" oct="6" vol="29" pos="5028" len="6" />
          <note tone="2" pan="0" oct="6" vol="51" pos="5034" len="6" />
          <note tone="9" pan="0" oct="6" vol="42" pos="5040" len="36" />
          <note tone="4" pan="0" oct="6" vol="38" pos="5040" len="36" />
          <note tone="1" pan="0" oct="6" vol="43" pos="5040" len="36" />
          <note tone="9" pan="0" oct="5" vol="49" pos="5040" len="36" />
        </pattern>
      </track>
      <track muted="0" type="0" >
        <channeltrack surpos="134219776" fxch="0" baseoct="3" vol="60" name="church_organ04.ogg" basetone="9" tab="2" >
          <audiofileprocessor reversed="0" looped="0" eframe="0.999997" sframe="0" amp="100" src="/usr/local/share/lmms/samples/instruments/church_organ04.ogg" />
          <eldata fres="0.5" ftype="0" fcut="16000" fwet="0" >
            <elvol lpdel="0" amt="1" rel="0.178" ctlenvamt="0" latt="0" sus="0" lspd="0.1" att="0" pdel="0" lamt="0" dec="0.394" x100="0" lshp="0" hold="0" />
            <elcut lpdel="0" amt="0" rel="0.1" ctlenvamt="0" latt="0" sus="0.5" lspd="0.1" att="0" pdel="0" lamt="0" dec="0.5" x100="0" lshp="0" hold="0.5" />
            <elres lpdel="0" amt="0" rel="0.1" ctlenvamt="0" latt="0" sus="0.5" lspd="0.1" att="0" pdel="0" lamt="0" dec="0.5" x100="0" lshp="0" hold="0.5" />
          </eldata>
          <arpandchords chordrange="1" arprange="3" chord="0" arpgate="100" arp="8" arptime="150" arpdir="0" />
        </channeltrack>
        <pattern type="1" name="church_organ04.ogg" pos="0" frozen="0" len="5120" >
          <note tone="9" pan="0" oct="2" vol="50" pos="864" len="192" />
          <note tone="9" pan="0" oct="2" vol="50" pos="1056" len="192" />
          <note tone="9" pan="0" oct="2" vol="50" pos="1632" len="192" />
          <note tone="9" pan="0" oct="2" vol="50" pos="1824" len="192" />
          <note tone="9" pan="0" oct="3" vol="50" pos="2016" len="192" />
          <note tone="9" pan="0" oct="2" vol="50" pos="2016" len="192" />
          <note tone="9" pan="0" oct="2" vol="40" pos="2214" len="6" />
          <note tone="9" pan="0" oct="3" vol="44" pos="2214" len="6" />
          <note tone="0" pan="0" oct="4" vol="45" pos="2220" len="6" />
          <note tone="0" pan="0" oct="3" vol="37" pos="2220" len="6" />
          <note tone="9" pan="0" oct="2" vol="53" pos="2226" len="6" />
          <note tone="9" pan="0" oct="3" vol="45" pos="2226" len="6" />
          <note tone="4" pan="0" oct="4" vol="38" pos="2232" len="6" />
          <note tone="4" pan="0" oct="3" vol="40" pos="2232" len="6" />
          <note tone="0" pan="0" oct="4" vol="34" pos="2238" len="6" />
          <note tone="0" pan="0" oct="3" vol="42" pos="2238" len="6" />
          <note tone="4" pan="0" oct="3" vol="49" pos="2244" len="6" />
          <note tone="4" pan="0" oct="4" vol="48" pos="2244" len="6" />
          <note tone="0" pan="0" oct="3" vol="50" pos="2250" len="6" />
          <note tone="0" pan="0" oct="4" vol="52" pos="2250" len="6" />
          <note tone="9" pan="0" oct="3" vol="40" pos="2256" len="6" />
          <note tone="9" pan="0" oct="4" vol="23" pos="2256" len="6" />
          <note tone="4" pan="0" oct="3" vol="35" pos="2262" len="6" />
          <note tone="4" pan="0" oct="4" vol="25" pos="2262" len="6" />
          <note tone="9" pan="0" oct="3" vol="39" pos="2268" len="6" />
          <note tone="9" pan="0" oct="4" vol="32" pos="2268" len="6" />
          <note tone="4" pan="0" oct="3" vol="50" pos="2274" len="6" />
          <note tone="4" pan="0" oct="4" vol="50" pos="2274" len="6" />
          <note tone="0" pan="0" oct="4" vol="44" pos="2280" len="6" />
          <note tone="0" pan="0" oct="5" vol="46" pos="2280" len="6" />
          <note tone="3" pan="0" oct="3" vol="33" pos="2286" len="6" />
          <note tone="3" pan="0" oct="4" vol="28" pos="2286" len="6" />
          <note tone="4" pan="0" oct="3" vol="39" pos="2292" len="12" />
          <note tone="4" pan="0" oct="4" vol="28" pos="2292" len="12" />
          <note tone="4" pan="0" oct="3" vol="33" pos="2304" len="48" />
          <note tone="4" pan="0" oct="2" vol="51" pos="2304" len="48" />
          <note tone="4" pan="0" oct="4" vol="32" pos="2358" len="6" />
          <note tone="4" pan="0" oct="3" vol="30" pos="2358" len="6" />
          <note tone="8" pan="0" oct="3" vol="32" pos="2364" len="6" />
          <note tone="8" pan="0" oct="4" vol="33" pos="2364" len="6" />
          <note tone="4" pan="0" oct="3" vol="48" pos="2370" len="6" />
          <note tone="4" pan="0" oct="4" vol="46" pos="2370" len="6" />
          <note tone="11" pan="0" oct="3" vol="45" pos="2376" len="6" />
          <note tone="11" pan="0" oct="4" vol="42" pos="2376" len="6" />
          <note tone="4" pan="0" oct="3" vol="49" pos="2382" len="6" />
          <note tone="4" pan="0" oct="4" vol="42" pos="2382" len="6" />
          <note tone="8" pan="0" oct="3" vol="31" pos="2388" len="6" />
          <note tone="8" pan="0" oct="4" vol="35" pos="2388" len="6" />
          <note tone="4" pan="0" oct="3" vol="44" pos="2394" len="6" />
          <note tone="4" pan="0" oct="4" vol="37" pos="2394" len="6" />
          <note tone="0" pan="0" oct="4" vol="46" pos="2400" len="6" />
          <note tone="0" pan="0" oct="5" vol="46" pos="2400" len="6" />
          <note tone="3" pan="0" oct="3" vol="44" pos="2406" len="6" />
          <note tone="3" pan="0" oct="4" vol="37" pos="2406" len="6" />
          <note tone="6" pan="0" oct="3" vol="42" pos="2412" len="6" />
          <note tone="6" pan="0" oct="4" vol="42" pos="2412" len="6" />
          <note tone="3" pan="0" oct="3" vol="40" pos="2418" len="6" />
          <note tone="3" pan="0" oct="4" vol="38" pos="2418" len="6" />
          <note tone="11" pan="0" oct="3" vol="46" pos="2424" len="6" />
          <note tone="11" pan="0" oct="4" vol="53" pos="2424" len="6" />
          <note tone="2" pan="0" oct="3" vol="38" pos="2430" len="6" />
          <note tone="2" pan="0" oct="4" vol="40" pos="2430" len="6" />
          <note tone="5" pan="0" oct="4" vol="45" pos="2436" len="6" />
          <note tone="5" pan="0" oct="3" vol="42" pos="2436" len="6" />
          <note tone="2" pan="0" oct="3" vol="47" pos="2442" len="6" />
          <note tone="2" pan="0" oct="4" vol="48" pos="2442" len="6" />
          <note tone="11" pan="0" oct="3" vol="53" pos="2448" len="6" />
          <note tone="11" pan="0" oct="4" vol="50" pos="2448" len="6" />
          <note tone="1" pan="0" oct="4" vol="35" pos="2454" len="6" />
          <note tone="1" pan="0" oct="3" vol="35" pos="2454" len="6" />
          <note tone="4" pan="0" oct="4" vol="47" pos="2460" len="6" />
          <note tone="4" pan="0" oct="3" vol="46" pos="2460" len="6" />
          <note tone="1" pan="0" oct="3" vol="44" pos="2466" len="6" />
          <note tone="1" pan="0" oct="4" vol="39" pos="2466" len="6" />
          <note tone="9" pan="0" oct="3" vol="50" pos="2472" len="6" />
          <note tone="9" pan="0" oct="4" vol="49" pos="2472" len="6" />
          <note tone="0" pan="0" oct="3" vol="50" pos="2478" len="6" />
          <note tone="0" pan="0" oct="4" vol="53" pos="2478" len="6" />
          <note tone="4" pan="0" oct="3" vol="50" pos="2484" len="6" />
          <note tone="4" pan="0" oct="4" vol="51" pos="2484" len="6" />
          <note tone="0" pan="0" oct="3" vol="49" pos="2490" len="6" />
          <note tone="0" pan="0" oct="4" vol="54" pos="2490" len="6" />
          <note tone="9" pan="0" oct="3" vol="50" pos="2496" len="6" />
          <note tone="9" pan="0" oct="4" vol="50" pos="2496" len="6" />
          <note tone="11" pan="0" oct="2" vol="46" pos="2502" len="6" />
          <note tone="11" pan="0" oct="3" vol="49" pos="2502" len="6" />
          <note tone="3" pan="0" oct="4" vol="33" pos="2508" len="6" />
          <note tone="3" pan="0" oct="3" vol="30" pos="2508" len="6" />
          <note tone="11" pan="0" oct="2" vol="48" pos="2514" len="6" />
          <note tone="11" pan="0" oct="3" vol="28" pos="2514" len="6" />
          <note tone="8" pan="0" oct="3" vol="36" pos="2520" len="6" />
          <note tone="8" pan="0" oct="4" vol="46" pos="2520" len="6" />
          <note tone="11" pan="0" oct="2" vol="51" pos="2526" len="6" />
          <note tone="11" pan="0" oct="3" vol="42" pos="2526" len="6" />
          <note tone="2" pan="0" oct="4" vol="51" pos="2532" len="6" />
          <note tone="2" pan="0" oct="3" vol="40" pos="2532" len="6" />
          <note tone="11" pan="0" oct="2" vol="46" pos="2538" len="6" />
          <note tone="11" pan="0" oct="3" vol="41" pos="2538" len="6" />
          <note tone="7" pan="0" oct="3" vol="47" pos="2544" len="6" />
          <note tone="7" pan="0" oct="4" vol="46" pos="2544" len="6" />
          <note tone="1" pan="0" oct="3" vol="39" pos="2550" len="6" />
          <note tone="1" pan="0" oct="4" vol="32" pos="2550" len="6" />
          <note tone="4" pan="0" oct="3" vol="53" pos="2556" len="6" />
          <note tone="4" pan="0" oct="4" vol="45" pos="2556" len="6" />
          <note tone="9" pan="0" oct="2" vol="49" pos="2562" len="6" />
          <note tone="9" pan="0" oct="3" vol="42" pos="2562" len="6" />
          <note tone="5" pan="0" oct="4" vol="41" pos="2568" len="6" />
          <note tone="5" pan="0" oct="3" vol="35" pos="2568" len="6" />
          <note tone="1" pan="0" oct="3" vol="38" pos="2574" len="6" />
          <note tone="1" pan="0" oct="4" vol="25" pos="2574" len="6" />
          <note tone="2" pan="0" oct="3" vol="42" pos="2580" len="6" />
          <note tone="2" pan="0" oct="4" vol="46" pos="2580" len="6" />
          <note tone="8" pan="0" oct="3" vol="34" pos="2586" len="6" />
          <note tone="8" pan="0" oct="2" vol="37" pos="2586" len="6" />
          <note tone="1" pan="0" oct="3" vol="31" pos="2592" len="6" />
          <note tone="1" pan="0" oct="4" vol="34" pos="2592" len="6" />
          <note tone="9" pan="0" oct="2" vol="55" pos="2598" len="6" />
          <note tone="9" pan="0" oct="3" vol="49" pos="2598" len="6" />
          <note tone="4" pan="0" oct="3" vol="50" pos="2604" len="6" />
          <note tone="4" pan="0" oct="4" vol="46" pos="2604" len="6" />
          <note tone="1" pan="0" oct="3" vol="48" pos="2610" len="6" />
          <note tone="1" pan="0" oct="4" vol="37" pos="2610" len="6" />
          <note tone="7" pan="0" oct="4" vol="50" pos="2616" len="6" />
          <note tone="7" pan="0" oct="3" vol="48" pos="2616" len="6" />
          <note tone="4" pan="0" oct="3" vol="48" pos="2622" len="6" />
          <note tone="4" pan="0" oct="4" vol="45" pos="2622" len="6" />
          <note tone="10" pan="0" oct="3" vol="37" pos="2628" len="6" />
          <note tone="10" pan="0" oct="4" vol="35" pos="2628" len="6" />
          <note tone="7" pan="0" oct="3" vol="46" pos="2634" len="6" />
          <note tone="7" pan="0" oct="4" vol="48" pos="2634" len="6" />
          <note tone="1" pan="0" oct="5" vol="40" pos="2640" len="6" />
          <note tone="1" pan="0" oct="4" vol="40" pos="2640" len="6" />
          <note tone="7" pan="0" oct="3" vol="43" pos="2646" len="6" />
          <note tone="7" pan="0" oct="4" vol="35" pos="2646" len="6" />
          <note tone="9" pan="0" oct="3" vol="44" pos="2652" len="6" />
          <note tone="9" pan="0" oct="4" vol="45" pos="2652" len="6" />
          <note tone="4" pan="0" oct="3" vol="41" pos="2658" len="6" />
          <note tone="4" pan="0" oct="4" vol="30" pos="2658" len="6" />
          <note tone="5" pan="0" oct="4" vol="41" pos="2664" len="102" />
          <note tone="5" pan="0" oct="3" vol="37" pos="2664" len="102" />
          <note tone="4" pan="0" oct="3" vol="33" pos="2766" len="6" />
          <note tone="4" pan="0" oct="4" vol="34" pos="2766" len="6" />
          <note tone="5" pan="0" oct="3" vol="42" pos="2772" len="6" />
          <note tone="5" pan="0" oct="4" vol="42" pos="2772" len="6" />
          <note tone="2" pan="0" oct="3" vol="42" pos="2778" len="6" />
          <note tone="2" pan="0" oct="4" vol="38" pos="2778" len="6" />
          <note tone="8" pan="0" oct="4" vol="24" pos="2784" len="144" />
          <note tone="8" pan="0" oct="3" vol="41" pos="2784" len="144" />
          <note tone="9" pan="0" oct="3" vol="47" pos="2928" len="12" />
          <note tone="4" pan="0" oct="4" vol="28" pos="2940" len="12" />
          <note tone="9" pan="0" oct="4" vol="28" pos="2952" len="12" />
          <note tone="11" pan="0" oct="4" vol="41" pos="2964" len="12" />
          <note tone="0" pan="0" oct="5" vol="28" pos="2976" len="12" />
          <note tone="2" pan="0" oct="5" vol="28" pos="2988" len="12" />
          <note tone="4" pan="0" oct="5" vol="39" pos="3000" len="12" />
          <note tone="5" pan="0" oct="5" vol="34" pos="3012" len="12" />
          <note tone="4" pan="0" oct="5" vol="35" pos="3024" len="48" />
          <note tone="7" pan="0" oct="3" vol="43" pos="3054" len="6" />
          <note tone="7" pan="0" oct="4" vol="32" pos="3054" len="6" />
          <note tone="9" pan="0" oct="3" vol="42" pos="3060" len="6" />
          <note tone="9" pan="0" oct="4" vol="42" pos="3060" len="6" />
          <note tone="4" pan="0" oct="4" vol="35" pos="3066" len="6" />
          <note tone="4" pan="0" oct="3" vol="13" pos="3066" len="6" />
          <note tone="6" pan="0" oct="3" vol="36" pos="3072" len="192" />
          <note tone="6" pan="0" oct="4" vol="29" pos="3072" len="192" />
          <note tone="7" pan="0" oct="3" vol="33" pos="3264" len="78" />
          <note tone="7" pan="0" oct="4" vol="44" pos="3342" len="6" />
          <note tone="7" pan="0" oct="3" vol="49" pos="3342" len="6" />
          <note tone="2" pan="0" oct="4" vol="43" pos="3348" len="6" />
          <note tone="2" pan="0" oct="3" vol="42" pos="3348" len="6" />
          <note tone="7" pan="0" oct="4" vol="27" pos="3354" len="6" />
          <note tone="7" pan="0" oct="3" vol="35" pos="3354" len="6" />
          <note tone="4" pan="0" oct="4" vol="38" pos="3360" len="12" />
          <note tone="4" pan="0" oct="3" vol="43" pos="3360" len="12" />
          <note tone="4" pan="0" oct="3" vol="39" pos="3372" len="9" />
          <note tone="4" pan="0" oct="4" vol="33" pos="3372" len="9" />
          <note tone="4" pan="0" oct="4" vol="26" pos="3384" len="9" />
          <note tone="4" pan="0" oct="3" vol="39" pos="3384" len="9" />
          <note tone="4" pan="0" oct="4" vol="39" pos="3396" len="9" />
          <note tone="4" pan="0" oct="3" vol="45" pos="3396" len="9" />
          <note tone="5" pan="0" oct="4" vol="39" pos="3408" len="9" />
          <note tone="5" pan="0" oct="3" vol="44" pos="3408" len="9" />
          <note tone="5" pan="0" oct="4" vol="37" pos="3420" len="9" />
          <note tone="5" pan="0" oct="3" vol="48" pos="3420" len="9" />
          <note tone="5" pan="0" oct="4" vol="25" pos="3432" len="9" />
          <note tone="5" pan="0" oct="3" vol="34" pos="3432" len="9" />
          <note tone="5" pan="0" oct="4" vol="30" pos="3444" len="9" />
          <note tone="5" pan="0" oct="3" vol="38" pos="3444" len="9" />
          <note tone="5" pan="0" oct="4" vol="16" pos="3456" len="9" />
          <note tone="5" pan="0" oct="3" vol="45" pos="3456" len="9" />
          <note tone="5" pan="0" oct="4" vol="34" pos="3468" len="9" />
          <note tone="5" pan="0" oct="3" vol="24" pos="3468" len="9" />
          <note tone="4" pan="0" oct="4" vol="36" pos="3480" len="9" />
          <note tone="4" pan="0" oct="3" vol="42" pos="3480" len="9" />
          <note tone="4" pan="0" oct="4" vol="50" pos="3492" len="9" />
          <note tone="2" pan="0" oct="4" vol="28" pos="3510" len="6" />
          <note tone="5" pan="0" oct="4" vol="32" pos="3510" len="6" />
          <note tone="5" pan="0" oct="4" vol="29" pos="3516" len="6" />
          <note tone="9" pan="0" oct="4" vol="41" pos="3516" len="6" />
          <note tone="5" pan="0" oct="4" vol="37" pos="3522" len="6" />
          <note tone="2" pan="0" oct="4" vol="35" pos="3522" len="6" />
          <note tone="7" pan="0" oct="4" vol="46" pos="3528" len="6" />
          <note tone="11" pan="0" oct="4" vol="39" pos="3528" len="6" />
          <note tone="2" pan="0" oct="4" vol="36" pos="3534" len="6" />
          <note tone="11" pan="0" oct="3" vol="42" pos="3534" len="6" />
          <note tone="2" pan="0" oct="4" vol="32" pos="3540" len="6" />
          <note tone="5" pan="0" oct="4" vol="35" pos="3540" len="6" />
          <note tone="2" pan="0" oct="4" vol="34" pos="3546" len="6" />
          <note tone="11" pan="0" oct="3" vol="40" pos="3546" len="6" />
          <note tone="0" pan="0" oct="4" vol="32" pos="3552" len="18" />
          <note tone="0" pan="0" oct="3" vol="48" pos="3552" len="18" />
          <note tone="11" pan="0" oct="3" vol="34" pos="3702" len="6" />
          <note tone="2" pan="0" oct="4" vol="38" pos="3702" len="6" />
          <note tone="2" pan="0" oct="4" vol="30" pos="3708" len="6" />
          <note tone="5" pan="0" oct="4" vol="35" pos="3708" len="6" />
          <note tone="2" pan="0" oct="4" vol="32" pos="3714" len="6" />
          <note tone="11" pan="0" oct="3" vol="40" pos="3714" len="6" />
          <note tone="8" pan="0" oct="4" vol="33" pos="3720" len="6" />
          <note tone="4" pan="0" oct="4" vol="46" pos="3720" len="6" />
          <note tone="4" pan="0" oct="3" vol="39" pos="3726" len="6" />
          <note tone="8" pan="0" oct="3" vol="36" pos="3726" len="6" />
          <note tone="11" pan="0" oct="3" vol="28" pos="3732" len="6" />
          <note tone="8" pan="0" oct="3" vol="34" pos="3732" len="6" />
          <note tone="8" pan="0" oct="3" vol="33" pos="3738" len="6" />
          <note tone="4" pan="0" oct="3" vol="32" pos="3738" len="6" />
          <note tone="9" pan="0" oct="3" vol="32" pos="3744" len="54" />
          <note tone="9" pan="0" oct="4" vol="37" pos="3798" len="6" />
          <note tone="9" pan="0" oct="3" vol="39" pos="3798" len="6" />
          <note tone="8" pan="0" oct="4" vol="22" pos="3804" len="6" />
          <note tone="8" pan="0" oct="3" vol="38" pos="3804" len="6" />
          <note tone="9" pan="0" oct="4" vol="45" pos="3810" len="6" />
          <note tone="9" pan="0" oct="3" vol="51" pos="3810" len="6" />
          <note tone="4" pan="0" oct="3" vol="41" pos="3816" len="6" />
          <note tone="4" pan="0" oct="4" vol="40" pos="3816" len="6" />
          <note tone="0" pan="0" oct="5" vol="40" pos="3822" len="6" />
          <note tone="0" pan="0" oct="4" vol="37" pos="3822" len="6" />
          <note tone="4" pan="0" oct="4" vol="42" pos="3828" len="6" />
          <note tone="4" pan="0" oct="3" vol="40" pos="3828" len="6" />
          <note tone="7" pan="0" oct="3" vol="24" pos="3834" len="6" />
          <note tone="7" pan="0" oct="4" vol="34" pos="3834" len="6" />
          <note tone="6" pan="0" oct="4" vol="32" pos="3840" len="12" />
          <note tone="6" pan="0" oct="3" vol="37" pos="3840" len="12" />
          <note tone="6" pan="0" oct="4" vol="29" pos="3852" len="12" />
          <note tone="6" pan="0" oct="3" vol="38" pos="3852" len="12" />
          <note tone="7" pan="0" oct="4" vol="39" pos="3894" len="6" />
          <note tone="7" pan="0" oct="3" vol="36" pos="3894" len="6" />
          <note tone="6" pan="0" oct="3" vol="34" pos="3900" len="6" />
          <note tone="6" pan="0" oct="4" vol="25" pos="3900" len="6" />
          <note tone="7" pan="0" oct="3" vol="42" pos="3906" len="6" />
          <note tone="7" pan="0" oct="4" vol="50" pos="3906" len="6" />
          <note tone="2" pan="0" oct="4" vol="25" pos="3912" len="6" />
          <note tone="2" pan="0" oct="3" vol="44" pos="3912" len="6" />
          <note tone="11" pan="0" oct="4" vol="47" pos="3918" len="6" />
          <note tone="11" pan="0" oct="3" vol="37" pos="3918" len="6" />
          <note tone="2" pan="0" oct="4" vol="35" pos="3924" len="6" />
          <note tone="2" pan="0" oct="3" vol="49" pos="3924" len="6" />
          <note tone="5" pan="0" oct="4" vol="29" pos="3930" len="6" />
          <note tone="5" pan="0" oct="3" vol="39" pos="3930" len="6" />
          <note tone="4" pan="0" oct="3" vol="37" pos="3936" len="12" />
          <note tone="4" pan="0" oct="4" vol="32" pos="3936" len="12" />
          <note tone="4" pan="0" oct="4" vol="35" pos="3948" len="12" />
          <note tone="4" pan="0" oct="3" vol="40" pos="3948" len="12" />
          <note tone="5" pan="0" oct="4" vol="42" pos="3990" len="6" />
          <note tone="5" pan="0" oct="3" vol="39" pos="3990" len="6" />
          <note tone="4" pan="0" oct="4" vol="39" pos="3996" len="6" />
          <note tone="4" pan="0" oct="3" vol="42" pos="3996" len="6" />
          <note tone="5" pan="0" oct="3" vol="49" pos="4002" len="6" />
          <note tone="5" pan="0" oct="4" vol="48" pos="4002" len="6" />
          <note tone="0" pan="0" oct="4" vol="34" pos="4008" len="6" />
          <note tone="0" pan="0" oct="3" vol="49" pos="4008" len="6" />
          <note tone="9" pan="0" oct="4" vol="51" pos="4014" len="6" />
          <note tone="9" pan="0" oct="3" vol="39" pos="4014" len="6" />
          <note tone="0" pan="0" oct="4" vol="44" pos="4020" len="6" />
          <note tone="0" pan="0" oct="3" vol="50" pos="4020" len="6" />
          <note tone="4" pan="0" oct="4" vol="35" pos="4026" len="6" />
          <note tone="4" pan="0" oct="3" vol="33" pos="4026" len="6" />
          <note tone="2" pan="0" oct="3" vol="31" pos="4032" len="12" />
          <note tone="2" pan="0" oct="4" vol="28" pos="4032" len="12" />
          <note tone="2" pan="0" oct="4" vol="31" pos="4044" len="12" />
          <note tone="2" pan="0" oct="3" vol="28" pos="4044" len="12" />
          <note tone="4" pan="0" oct="4" vol="36" pos="4086" len="6" />
          <note tone="4" pan="0" oct="3" vol="42" pos="4086" len="6" />
          <note tone="2" pan="0" oct="4" vol="42" pos="4092" len="6" />
          <note tone="2" pan="0" oct="3" vol="41" pos="4092" len="6" />
          <note tone="4" pan="0" oct="4" vol="39" pos="4098" len="6" />
          <note tone="4" pan="0" oct="3" vol="43" pos="4098" len="6" />
          <note tone="11" pan="0" oct="2" vol="29" pos="4103" len="6" />
          <note tone="11" pan="0" oct="3" vol="29" pos="4104" len="6" />
          <note tone="8" pan="0" oct="3" vol="22" pos="4110" len="6" />
          <note tone="8" pan="0" oct="4" vol="28" pos="4110" len="6" />
          <note tone="11" pan="0" oct="2" vol="46" pos="4115" len="6" />
          <note tone="11" pan="0" oct="3" vol="46" pos="4116" len="6" />
          <note tone="2" pan="0" oct="4" vol="27" pos="4122" len="6" />
          <note tone="2" pan="0" oct="3" vol="22" pos="4122" len="6" />
          <note tone="0" pan="0" oct="4" vol="38" pos="4128" len="9" />
          <note tone="0" pan="0" oct="3" vol="37" pos="4128" len="9" />
          <note tone="0" pan="0" oct="4" vol="25" pos="4140" len="9" />
          <note tone="0" pan="0" oct="4" vol="35" pos="4152" len="9" />
          <note tone="0" pan="0" oct="4" vol="39" pos="4164" len="9" />
          <note tone="0" pan="0" oct="4" vol="42" pos="4176" len="9" />
          <note tone="0" pan="0" oct="4" vol="38" pos="4188" len="9" />
          <note tone="11" pan="0" oct="3" vol="35" pos="4200" len="9" />
          <note tone="11" pan="0" oct="3" vol="37" pos="4212" len="9" />
          <note tone="11" pan="0" oct="3" vol="36" pos="4224" len="9" />
          <note tone="11" pan="0" oct="3" vol="38" pos="4236" len="9" />
          <note tone="9" pan="0" oct="3" vol="38" pos="4248" len="9" />
          <note tone="9" pan="0" oct="3" vol="37" pos="4260" len="9" />
          <note tone="9" pan="0" oct="3" vol="22" pos="4272" len="9" />
          <note tone="9" pan="0" oct="3" vol="39" pos="4284" len="9" />
          <note tone="8" pan="0" oct="3" vol="30" pos="4296" len="9" />
          <note tone="8" pan="0" oct="3" vol="21" pos="4308" len="9" />
          <note tone="9" pan="0" oct="3" vol="42" pos="4320" len="6" />
          <note tone="9" pan="0" oct="4" vol="43" pos="4326" len="6" />
          <note tone="9" pan="0" oct="3" vol="48" pos="4326" len="6" />
          <note tone="8" pan="0" oct="4" vol="32" pos="4332" len="6" />
          <note tone="8" pan="0" oct="3" vol="29" pos="4332" len="6" />
          <note tone="9" pan="0" oct="4" vol="30" pos="4338" len="6" />
          <note tone="9" pan="0" oct="3" vol="27" pos="4338" len="6" />
          <note tone="4" pan="0" oct="4" vol="41" pos="4344" len="6" />
          <note tone="4" pan="0" oct="3" vol="43" pos="4344" len="6" />
          <note tone="0" pan="0" oct="4" vol="45" pos="4350" len="6" />
          <note tone="0" pan="0" oct="5" vol="46" pos="4350" len="6" />
          <note tone="4" pan="0" oct="4" vol="46" pos="4356" len="6" />
          <note tone="4" pan="0" oct="3" vol="49" pos="4356" len="6" />
          <note tone="9" pan="0" oct="4" vol="32" pos="4362" len="6" />
          <note tone="9" pan="0" oct="3" vol="32" pos="4362" len="6" />
          <note tone="0" pan="0" oct="4" vol="46" pos="4368" len="6" />
          <note tone="0" pan="0" oct="3" vol="47" pos="4368" len="6" />
          <note tone="4" pan="0" oct="4" vol="42" pos="4374" len="6" />
          <note tone="4" pan="0" oct="3" vol="39" pos="4374" len="6" />
          <note tone="3" pan="0" oct="4" vol="28" pos="4380" len="6" />
          <note tone="3" pan="0" oct="3" vol="33" pos="4380" len="6" />
          <note tone="4" pan="0" oct="3" vol="39" pos="4386" len="6" />
          <note tone="4" pan="0" oct="4" vol="39" pos="4386" len="6" />
          <note tone="0" pan="0" oct="4" vol="47" pos="4392" len="6" />
          <note tone="0" pan="0" oct="3" vol="50" pos="4392" len="6" />
          <note tone="9" pan="0" oct="4" vol="49" pos="4398" len="6" />
          <note tone="9" pan="0" oct="3" vol="32" pos="4398" len="6" />
          <note tone="0" pan="0" oct="4" vol="39" pos="4404" len="6" />
          <note tone="0" pan="0" oct="3" vol="50" pos="4404" len="6" />
          <note tone="4" pan="0" oct="3" vol="32" pos="4410" len="6" />
          <note tone="4" pan="0" oct="4" vol="37" pos="4410" len="6" />
          <note tone="9" pan="0" oct="3" vol="42" pos="4416" len="6" />
          <note tone="9" pan="0" oct="2" vol="42" pos="4416" len="6" />
          <note tone="0" pan="0" oct="4" vol="50" pos="4422" len="6" />
          <note tone="0" pan="0" oct="3" vol="50" pos="4422" len="6" />
          <note tone="11" pan="0" oct="3" vol="42" pos="4428" len="6" />
          <note tone="11" pan="0" oct="2" vol="42" pos="4428" len="6" />
          <note tone="0" pan="0" oct="4" vol="38" pos="4434" len="6" />
          <note tone="0" pan="0" oct="3" vol="38" pos="4434" len="6" />
          <note tone="9" pan="0" oct="3" vol="60" pos="4440" len="6" />
          <note tone="9" pan="0" oct="2" vol="60" pos="4440" len="6" />
          <note tone="4" pan="0" oct="4" vol="36" pos="4446" len="6" />
          <note tone="4" pan="0" oct="3" vol="46" pos="4446" len="6" />
          <note tone="9" pan="0" oct="3" vol="25" pos="4452" len="6" />
          <note tone="9" pan="0" oct="2" vol="60" pos="4452" len="6" />
          <note tone="0" pan="0" oct="4" vol="39" pos="4458" len="6" />
          <note tone="4" pan="0" oct="2" vol="50" pos="4464" len="144" />
          <note tone="4" pan="0" oct="3" vol="34" pos="4464" len="144" />
          <note tone="9" pan="0" oct="2" vol="50" pos="4608" len="120" />
          <note tone="9" pan="0" oct="3" vol="50" pos="4608" len="120" />
          <note tone="2" pan="0" oct="4" vol="42" pos="4734" len="6" />
          <note tone="2" pan="0" oct="3" vol="35" pos="4734" len="6" />
          <note tone="1" pan="0" oct="3" vol="32" pos="4740" len="6" />
          <note tone="1" pan="0" oct="4" vol="31" pos="4740" len="6" />
          <note tone="2" pan="0" oct="4" vol="22" pos="4746" len="6" />
          <note tone="2" pan="0" oct="3" vol="25" pos="4746" len="6" />
          <note tone="9" pan="0" oct="3" vol="39" pos="4752" len="12" />
          <note tone="9" pan="0" oct="2" vol="35" pos="4752" len="12" />
          <note tone="9" pan="0" oct="4" vol="35" pos="4764" len="12" />
          <note tone="9" pan="0" oct="3" vol="39" pos="4764" len="12" />
          <note tone="2" pan="0" oct="4" vol="36" pos="4782" len="6" />
          <note tone="2" pan="0" oct="3" vol="30" pos="4782" len="6" />
          <note tone="1" pan="0" oct="3" vol="25" pos="4788" len="6" />
          <note tone="1" pan="0" oct="4" vol="24" pos="4788" len="6" />
          <note tone="2" pan="0" oct="4" vol="45" pos="4794" len="6" />
          <note tone="2" pan="0" oct="3" vol="47" pos="4794" len="6" />
          <note tone="9" pan="0" oct="2" vol="35" pos="4799" len="12" />
          <note tone="9" pan="0" oct="3" vol="27" pos="4800" len="12" />
          <note tone="9" pan="0" oct="4" vol="39" pos="4812" len="12" />
          <note tone="9" pan="0" oct="3" vol="36" pos="4812" len="12" />
          <note tone="5" pan="0" oct="4" vol="37" pos="4830" len="6" />
          <note tone="5" pan="0" oct="3" vol="37" pos="4830" len="6" />
          <note tone="4" pan="0" oct="4" vol="39" pos="4836" len="6" />
          <note tone="4" pan="0" oct="3" vol="39" pos="4836" len="6" />
          <note tone="5" pan="0" oct="4" vol="32" pos="4842" len="6" />
          <note tone="5" pan="0" oct="3" vol="22" pos="4842" len="6" />
          <note tone="2" pan="0" oct="4" vol="42" pos="4848" len="12" />
          <note tone="2" pan="0" oct="3" vol="43" pos="4848" len="12" />
          <note tone="9" pan="0" oct="4" vol="36" pos="4860" len="12" />
          <note tone="9" pan="0" oct="3" vol="22" pos="4860" len="12" />
          <note tone="5" pan="0" oct="4" vol="41" pos="4878" len="6" />
          <note tone="5" pan="0" oct="3" vol="20" pos="4878" len="6" />
          <note tone="4" pan="0" oct="4" vol="35" pos="4884" len="6" />
          <note tone="4" pan="0" oct="3" vol="41" pos="4884" len="6" />
          <note tone="5" pan="0" oct="4" vol="45" pos="4890" len="6" />
          <note tone="5" pan="0" oct="3" vol="39" pos="4890" len="6" />
          <note tone="2" pan="0" oct="4" vol="48" pos="4896" len="12" />
          <note tone="2" pan="0" oct="3" vol="53" pos="4896" len="12" />
          <note tone="9" pan="0" oct="4" vol="36" pos="4908" len="12" />
          <note tone="9" pan="0" oct="3" vol="31" pos="4908" len="12" />
          <note tone="9" pan="0" oct="4" vol="41" pos="4926" len="6" />
          <note tone="9" pan="0" oct="3" vol="42" pos="4926" len="6" />
          <note tone="7" pan="0" oct="4" vol="39" pos="4932" len="6" />
          <note tone="7" pan="0" oct="3" vol="39" pos="4932" len="6" />
          <note tone="9" pan="0" oct="4" vol="34" pos="4938" len="6" />
          <note tone="9" pan="0" oct="3" vol="42" pos="4938" len="6" />
          <note tone="5" pan="0" oct="4" vol="47" pos="4944" len="12" />
          <note tone="5" pan="0" oct="3" vol="40" pos="4944" len="12" />
          <note tone="2" pan="0" oct="5" vol="31" pos="4956" len="12" />
          <note tone="2" pan="0" oct="4" vol="28" pos="4956" len="12" />
          <note tone="11" pan="0" oct="3" vol="41" pos="4974" len="6" />
          <note tone="11" pan="0" oct="4" vol="37" pos="4974" len="6" />
          <note tone="8" pan="0" oct="4" vol="26" pos="4980" len="6" />
          <note tone="8" pan="0" oct="3" vol="29" pos="4980" len="6" />
          <note tone="11" pan="0" oct="4" vol="32" pos="4986" len="6" />
          <note tone="11" pan="0" oct="3" vol="30" pos="4986" len="6" />
          <note tone="9" pan="0" oct="2" vol="36" pos="4992" len="84" />
          <note tone="9" pan="0" oct="1" vol="38" pos="4992" len="84" />
        </pattern>
      </track>
      <track muted="0" type="0" >
        <channeltrack surpos="122816836" fxch="0" baseoct="5" vol="130" name="church_organ01.ogg" basetone="9" tab="2" >
          <audiofileprocessor reversed="0" looped="0" eframe="0.999998" sframe="0" amp="100" src="/usr/local/share/lmms/samples/instruments/church_organ01.ogg" />
          <eldata fres="0.5" ftype="0" fcut="16000" fwet="0" >
            <elvol lpdel="0" amt="1" rel="0.261" ctlenvamt="0" latt="0" sus="0" lspd="0.1" att="0" pdel="0" lamt="0" dec="0.394" x100="0" lshp="0" hold="0" />
            <elcut lpdel="0" amt="0" rel="0.1" ctlenvamt="0" latt="0" sus="0.5" lspd="0.1" att="0" pdel="0" lamt="0" dec="0.5" x100="0" lshp="0" hold="0.5" />
            <elres lpdel="0" amt="0" rel="0.1" ctlenvamt="0" latt="0" sus="0.5" lspd="0.1" att="0" pdel="0" lamt="0" dec="0.5" x100="0" lshp="0" hold="0.5" />
          </eldata>
          <arpandchords chordrange="1" arprange="3" chord="0" arpgate="100" arp="8" arptime="150" arpdir="0" />
        </channeltrack>
        <pattern type="1" name="church_organ01.ogg" pos="0" frozen="0" len="16000" >
          <note tone="9" pan="0" oct="5" vol="29" pos="2694" len="6" />
          <note tone="10" pan="0" oct="5" vol="28" pos="2700" len="6" />
          <note tone="7" pan="0" oct="5" vol="34" pos="2706" len="6" />
          <note tone="9" pan="0" oct="5" vol="39" pos="2712" len="72" />
          <note tone="2" pan="0" oct="6" vol="31" pos="3030" len="6" />
          <note tone="4" pan="0" oct="6" vol="45" pos="3036" len="6" />
          <note tone="11" pan="0" oct="5" vol="42" pos="3042" len="6" />
          <note tone="0" pan="0" oct="6" vol="42" pos="3048" len="27" />
          <note tone="0" pan="0" oct="6" vol="35" pos="3075" len="3" />
          <note tone="11" pan="0" oct="5" vol="35" pos="3078" len="3" />
          <note tone="0" pan="0" oct="6" vol="47" pos="3081" len="3" />
          <note tone="0" pan="0" oct="6" vol="34" pos="3087" len="3" />
          <note tone="11" pan="0" oct="5" vol="35" pos="3090" len="3" />
          <note tone="0" pan="0" oct="6" vol="28" pos="3093" len="3" />
          <note tone="9" pan="0" oct="5" vol="43" pos="3096" len="3" />
          <note tone="0" pan="0" oct="6" vol="32" pos="3099" len="3" />
          <note tone="11" pan="0" oct="5" vol="32" pos="3102" len="3" />
          <note tone="0" pan="0" oct="6" vol="49" pos="3105" len="3" />
          <note tone="6" pan="0" oct="5" vol="41" pos="3108" len="3" />
          <note tone="9" pan="0" oct="5" vol="37" pos="3111" len="3" />
          <note tone="7" pan="0" oct="5" vol="33" pos="3114" len="3" />
          <note tone="9" pan="0" oct="5" vol="47" pos="3117" len="3" />
          <note tone="2" pan="0" oct="5" vol="39" pos="3120" len="3" />
          <note tone="9" pan="0" oct="5" vol="35" pos="3123" len="3" />
          <note tone="7" pan="0" oct="5" vol="34" pos="3126" len="3" />
          <note tone="9" pan="0" oct="5" vol="34" pos="3129" len="3" />
          <note tone="0" pan="0" oct="6" vol="35" pos="3132" len="3" />
          <note tone="9" pan="0" oct="5" vol="31" pos="3135" len="3" />
          <note tone="7" pan="0" oct="5" vol="34" pos="3138" len="3" />
          <note tone="9" pan="0" oct="5" vol="41" pos="3141" len="3" />
          <note tone="6" pan="0" oct="5" vol="40" pos="3144" len="3" />
          <note tone="9" pan="0" oct="5" vol="35" pos="3147" len="3" />
          <note tone="7" pan="0" oct="5" vol="29" pos="3150" len="3" />
          <note tone="9" pan="0" oct="5" vol="47" pos="3153" len="3" />
          <note tone="2" pan="0" oct="5" vol="25" pos="3156" len="3" />
          <note tone="6" pan="0" oct="5" vol="35" pos="3159" len="3" />
          <note tone="4" pan="0" oct="5" vol="32" pos="3162" len="3" />
          <note tone="6" pan="0" oct="5" vol="34" pos="3165" len="3" />
          <note tone="9" pan="0" oct="4" vol="42" pos="3168" len="3" />
          <note tone="0" pan="0" oct="5" vol="35" pos="3171" len="3" />
          <note tone="11" pan="0" oct="4" vol="18" pos="3174" len="3" />
          <note tone="0" pan="0" oct="5" vol="45" pos="3177" len="3" />
          <note tone="3" pan="0" oct="5" vol="31" pos="3180" len="3" />
          <note tone="0" pan="0" oct="5" vol="39" pos="3183" len="3" />
          <note tone="11" pan="0" oct="4" vol="32" pos="3186" len="3" />
          <note tone="0" pan="0" oct="5" vol="39" pos="3189" len="3" />
          <note tone="9" pan="0" oct="4" vol="37" pos="3192" len="3" />
          <note tone="0" pan="0" oct="5" vol="38" pos="3195" len="3" />
          <note tone="11" pan="0" oct="4" vol="30" pos="3198" len="3" />
          <note tone="0" pan="0" oct="5" vol="51" pos="3201" len="3" />
          <note tone="6" pan="0" oct="4" vol="26" pos="3204" len="3" />
          <note tone="9" pan="0" oct="4" vol="21" pos="3207" len="3" />
          <note tone="7" pan="0" oct="4" vol="33" pos="3210" len="3" />
          <note tone="9" pan="0" oct="4" vol="51" pos="3213" len="3" />
          <note tone="2" pan="0" oct="4" vol="24" pos="3216" len="3" />
          <note tone="6" pan="0" oct="4" vol="32" pos="3219" len="3" />
          <note tone="9" pan="0" oct="4" vol="43" pos="3222" len="3" />
          <note tone="0" pan="0" oct="5" vol="37" pos="3225" len="3" />
          <note tone="3" pan="0" oct="5" vol="32" pos="3228" len="3" />
          <note tone="2" pan="0" oct="5" vol="38" pos="3231" len="3" />
          <note tone="0" pan="0" oct="5" vol="35" pos="3234" len="3" />
          <note tone="11" pan="0" oct="4" vol="29" pos="3237" len="3" />
          <note tone="9" pan="0" oct="4" vol="25" pos="3240" len="3" />
          <note tone="7" pan="0" oct="4" vol="38" pos="3243" len="3" />
          <note tone="6" pan="0" oct="4" vol="30" pos="3246" len="3" />
          <note tone="4" pan="0" oct="4" vol="34" pos="3249" len="3" />
          <note tone="2" pan="0" oct="4" vol="37" pos="3252" len="3" />
          <note tone="0" pan="0" oct="4" vol="28" pos="3255" len="3" />
          <note tone="11" pan="0" oct="3" vol="33" pos="3258" len="3" />
          <note tone="9" pan="0" oct="3" vol="48" pos="3261" len="3" />
          <note tone="5" pan="0" oct="5" vol="27" pos="3414" len="6" />
          <note tone="9" pan="0" oct="5" vol="29" pos="3420" len="6" />
          <note tone="5" pan="0" oct="5" vol="26" pos="3426" len="6" />
          <note tone="2" pan="0" oct="6" vol="32" pos="3432" len="6" />
          <note tone="5" pan="0" oct="5" vol="36" pos="3438" len="6" />
          <note tone="9" pan="0" oct="5" vol="28" pos="3444" len="6" />
          <note tone="5" pan="0" oct="5" vol="26" pos="3450" len="6" />
          <note tone="2" pan="0" oct="5" vol="32" pos="3456" len="6" />
          <note tone="7" pan="0" oct="5" vol="30" pos="3462" len="6" />
          <note tone="11" pan="0" oct="5" vol="45" pos="3468" len="6" />
          <note tone="7" pan="0" oct="5" vol="37" pos="3474" len="6" />
          <note tone="0" pan="0" oct="6" vol="42" pos="3480" len="6" />
          <note tone="0" pan="0" oct="5" vol="33" pos="3486" len="6" />
          <note tone="4" pan="0" oct="5" vol="30" pos="3492" len="6" />
          <note tone="0" pan="0" oct="5" vol="35" pos="3498" len="6" />
          <note tone="4" pan="0" oct="5" vol="31" pos="3558" len="6" />
          <note tone="7" pan="0" oct="5" vol="29" pos="3564" len="6" />
          <note tone="4" pan="0" oct="5" vol="28" pos="3570" len="6" />
          <note tone="10" pan="0" oct="5" vol="32" pos="3576" len="6" />
          <note tone="4" pan="0" oct="5" vol="31" pos="3582" len="6" />
          <note tone="7" pan="0" oct="5" vol="35" pos="3588" len="6" />
          <note tone="4" pan="0" oct="5" vol="35" pos="3594" len="6" />
          <note tone="9" pan="0" oct="5" vol="45" pos="3600" len="6" />
          <note tone="2" pan="0" oct="5" vol="38" pos="3606" len="6" />
          <note tone="5" pan="0" oct="5" vol="39" pos="3612" len="6" />
          <note tone="2" pan="0" oct="5" vol="31" pos="3618" len="6" />
          <note tone="7" pan="0" oct="5" vol="45" pos="3624" len="6" />
          <note tone="0" pan="0" oct="5" vol="39" pos="3630" len="6" />
          <note tone="4" pan="0" oct="5" vol="29" pos="3636" len="6" />
          <note tone="0" pan="0" oct="5" vol="39" pos="3642" len="6" />
          <note tone="6" pan="0" oct="5" vol="34" pos="3648" len="30" />
          <note tone="9" pan="0" oct="5" vol="31" pos="3654" len="6" />
          <note tone="11" pan="0" oct="5" vol="42" pos="3660" len="6" />
          <note tone="7" pan="0" oct="5" vol="35" pos="3666" len="6" />
          <note tone="9" pan="0" oct="5" vol="38" pos="3672" len="24" />
          <note tone="6" pan="0" oct="5" vol="28" pos="3678" len="6" />
          <note tone="7" pan="0" oct="5" vol="36" pos="3684" len="6" />
          <note tone="4" pan="0" oct="5" vol="41" pos="3690" len="6" />
          <note tone="5" pan="0" oct="5" vol="46" pos="3696" len="24" />
          <note tone="8" pan="0" oct="5" vol="31" pos="3696" len="12" />
          <note tone="9" pan="0" oct="5" vol="37" pos="3708" len="12" />
          <note tone="4" pan="0" oct="5" vol="35" pos="3720" len="96" />
          <note tone="11" pan="0" oct="5" vol="43" pos="3720" len="54" />
          <note tone="11" pan="0" oct="5" vol="39" pos="3774" len="6" />
          <note tone="9" pan="0" oct="5" vol="47" pos="3780" len="6" />
          <note tone="8" pan="0" oct="5" vol="31" pos="3786" len="6" />
          <note tone="9" pan="0" oct="5" vol="36" pos="3792" len="24" />
          <note tone="9" pan="0" oct="5" vol="38" pos="3846" len="6" />
          <note tone="8" pan="0" oct="5" vol="30" pos="3852" len="6" />
          <note tone="9" pan="0" oct="5" vol="36" pos="3858" len="6" />
          <note tone="2" pan="0" oct="5" vol="43" pos="3864" len="6" />
          <note tone="6" pan="0" oct="5" vol="32" pos="3870" len="6" />
          <note tone="6" pan="0" oct="5" vol="36" pos="3876" len="6" />
          <note tone="9" pan="0" oct="5" vol="23" pos="3882" len="6" />
          <note tone="7" pan="0" oct="5" vol="36" pos="3888" len="12" />
          <note tone="2" pan="0" oct="5" vol="35" pos="3888" len="12" />
          <note tone="7" pan="0" oct="5" vol="36" pos="3900" len="12" />
          <note tone="2" pan="0" oct="5" vol="33" pos="3900" len="12" />
          <note tone="7" pan="0" oct="5" vol="39" pos="3942" len="6" />
          <note tone="5" pan="0" oct="5" vol="35" pos="3948" len="6" />
          <note tone="7" pan="0" oct="5" vol="39" pos="3954" len="6" />
          <note tone="0" pan="0" oct="5" vol="37" pos="3960" len="6" />
          <note tone="4" pan="0" oct="5" vol="36" pos="3966" len="6" />
          <note tone="4" pan="0" oct="5" vol="40" pos="3972" len="6" />
          <note tone="7" pan="0" oct="5" vol="30" pos="3978" len="6" />
          <note tone="5" pan="0" oct="5" vol="32" pos="3984" len="12" />
          <note tone="0" pan="0" oct="5" vol="39" pos="3984" len="12" />
          <note tone="5" pan="0" oct="5" vol="31" pos="3996" len="12" />
          <note tone="0" pan="0" oct="5" vol="39" pos="3996" len="12" />
          <note tone="2" pan="0" oct="5" vol="32" pos="4038" len="6" />
          <note tone="0" pan="0" oct="5" vol="32" pos="4044" len="6" />
          <note tone="2" pan="0" oct="5" vol="43" pos="4050" len="6" />
          <note tone="10" pan="0" oct="4" vol="28" pos="4056" len="6" />
          <note tone="2" pan="0" oct="5" vol="35" pos="4062" len="6" />
          <note tone="2" pan="0" oct="5" vol="32" pos="4068" len="6" />
          <note tone="5" pan="0" oct="5" vol="37" pos="4074" len="6" />
          <note tone="11" pan="0" oct="4" vol="42" pos="4080" len="12" />
          <note tone="4" pan="0" oct="5" vol="34" pos="4080" len="12" />
          <note tone="11" pan="0" oct="4" vol="42" pos="4092" len="12" />
          <note tone="4" pan="0" oct="5" vol="34" pos="4092" len="12" />
          <note tone="0" pan="0" oct="5" vol="32" pos="4134" len="6" />
          <note tone="11" pan="0" oct="4" vol="35" pos="4140" len="6" />
          <note tone="0" pan="0" oct="5" vol="34" pos="4146" len="6" />
          <note tone="9" pan="0" oct="4" vol="50" pos="4152" len="6" />
          <note tone="0" pan="0" oct="5" vol="51" pos="4158" len="6" />
          <note tone="0" pan="0" oct="5" vol="44" pos="4164" len="6" />
          <note tone="4" pan="0" oct="5" vol="38" pos="4170" len="6" />
          <note tone="6" pan="0" oct="5" vol="26" pos="4182" len="6" />
          <note tone="9" pan="0" oct="4" vol="48" pos="4182" len="6" />
          <note tone="4" pan="0" oct="5" vol="35" pos="4188" len="6" />
          <note tone="7" pan="0" oct="4" vol="37" pos="4188" len="6" />
          <note tone="9" pan="0" oct="4" vol="46" pos="4194" len="6" />
          <note tone="6" pan="0" oct="5" vol="32" pos="4194" len="6" />
          <note tone="7" pan="0" oct="5" vol="32" pos="4200" len="12" />
          <note tone="2" pan="0" oct="4" vol="28" pos="4200" len="6" />
          <note tone="2" pan="0" oct="5" vol="28" pos="4206" len="6" />
          <note tone="5" pan="0" oct="5" vol="38" pos="4212" len="12" />
          <note tone="7" pan="0" oct="4" vol="21" pos="4212" len="6" />
          <note tone="11" pan="0" oct="4" vol="37" pos="4218" len="6" />
          <note tone="11" pan="0" oct="3" vol="38" pos="4224" len="12" />
          <note tone="4" pan="0" oct="5" vol="43" pos="4224" len="6" />
          <note tone="0" pan="0" oct="5" vol="40" pos="4224" len="6" />
          <note tone="7" pan="0" oct="5" vol="32" pos="4230" len="6" />
          <note tone="4" pan="0" oct="4" vol="32" pos="4230" len="6" />
          <note tone="11" pan="0" oct="3" vol="33" pos="4236" len="12" />
          <note tone="2" pan="0" oct="4" vol="26" pos="4236" len="6" />
          <note tone="5" pan="0" oct="5" vol="26" pos="4236" len="6" />
          <note tone="4" pan="0" oct="4" vol="28" pos="4242" len="6" />
          <note tone="7" pan="0" oct="5" vol="21" pos="4242" len="6" />
          <note tone="9" pan="0" oct="3" vol="29" pos="4248" len="12" />
          <note tone="5" pan="0" oct="4" vol="27" pos="4248" len="12" />
          <note tone="0" pan="0" oct="5" vol="47" pos="4248" len="6" />
          <note tone="9" pan="0" oct="5" vol="34" pos="4254" len="6" />
          <note tone="9" pan="0" oct="3" vol="25" pos="4260" len="12" />
          <note tone="5" pan="0" oct="4" vol="28" pos="4260" len="12" />
          <note tone="7" pan="0" oct="5" vol="29" pos="4260" len="6" />
          <note tone="9" pan="0" oct="5" vol="32" pos="4266" len="6" />
          <note tone="2" pan="0" oct="5" vol="27" pos="4272" len="12" />
          <note tone="5" pan="0" oct="4" vol="37" pos="4272" len="12" />
          <note tone="9" pan="0" oct="3" vol="32" pos="4272" len="12" />
          <note tone="2" pan="0" oct="5" vol="46" pos="4284" len="12" />
          <note tone="5" pan="0" oct="4" vol="35" pos="4284" len="12" />
          <note tone="9" pan="0" oct="3" vol="28" pos="4284" len="12" />
          <note tone="11" pan="0" oct="4" vol="36" pos="4284" len="12" />
          <note tone="4" pan="0" oct="5" vol="42" pos="4296" len="12" />
          <note tone="8" pan="0" oct="3" vol="26" pos="4296" len="12" />
          <note tone="4" pan="0" oct="4" vol="26" pos="4296" len="12" />
          <note tone="11" pan="0" oct="4" vol="33" pos="4296" len="12" />
          <note tone="4" pan="0" oct="5" vol="47" pos="4308" len="12" />
          <note tone="11" pan="0" oct="4" vol="26" pos="4308" len="12" />
          <note tone="8" pan="0" oct="3" vol="33" pos="4308" len="12" />
          <note tone="4" pan="0" oct="4" vol="33" pos="4308" len="12" />
          <note tone="9" pan="0" oct="4" vol="44" pos="4320" len="6" />
          <note tone="4" pan="0" oct="4" vol="26" pos="4320" len="6" />
          <note tone="9" pan="0" oct="3" vol="42" pos="4320" len="6" />
          <note tone="9" pan="0" oct="5" vol="33" pos="4320" len="24" />
          <note tone="4" pan="0" oct="5" vol="51" pos="4320" len="24" />
          <note tone="9" pan="0" oct="5" vol="29" pos="4518" len="6" />
          <note tone="8" pan="0" oct="5" vol="23" pos="4524" len="6" />
          <note tone="9" pan="0" oct="5" vol="28" pos="4530" len="6" />
          <note tone="8" pan="0" oct="5" vol="26" pos="4536" len="6" />
          <note tone="4" pan="0" oct="5" vol="46" pos="4542" len="6" />
          <note tone="8" pan="0" oct="5" vol="38" pos="4542" len="6" />
          <note tone="2" pan="0" oct="5" vol="18" pos="4548" len="6" />
          <note tone="6" pan="0" oct="5" vol="16" pos="4548" len="6" />
          <note tone="4" pan="0" oct="5" vol="46" pos="4554" len="6" />
          <note tone="8" pan="0" oct="5" vol="26" pos="4554" len="6" />
          <note tone="4" pan="0" oct="5" vol="41" pos="4560" len="48" />
          <note tone="0" pan="0" oct="5" vol="42" pos="4560" len="18" />
          <note tone="11" pan="0" oct="4" vol="34" pos="4578" len="3" />
          <note tone="9" pan="0" oct="4" vol="39" pos="4581" len="3" />
          <note tone="11" pan="0" oct="4" vol="27" pos="4584" len="18" />
          <note tone="2" pan="0" oct="5" vol="28" pos="4602" len="6" />
          <note tone="4" pan="0" oct="5" vol="34" pos="4608" len="6" />
          <note tone="0" pan="0" oct="5" vol="40" pos="4608" len="12" />
          <note tone="1" pan="0" oct="5" vol="34" pos="4620" len="12" />
          <note tone="2" pan="0" oct="5" vol="44" pos="4632" len="12" />
          <note tone="2" pan="0" oct="6" vol="38" pos="4638" len="6" />
          <note tone="1" pan="0" oct="6" vol="28" pos="4644" len="6" />
          <note tone="2" pan="0" oct="6" vol="36" pos="4650" len="6" />
          <note tone="1" pan="0" oct="6" vol="32" pos="4656" len="6" />
          <note tone="9" pan="0" oct="5" vol="28" pos="4662" len="6" />
          <note tone="1" pan="0" oct="6" vol="32" pos="4662" len="6" />
          <note tone="11" pan="0" oct="5" vol="29" pos="4668" len="6" />
          <note tone="7" pan="0" oct="5" vol="39" pos="4668" len="6" />
          <note tone="9" pan="0" oct="5" vol="34" pos="4674" len="6" />
          <note tone="1" pan="0" oct="6" vol="17" pos="4674" len="6" />
          <note tone="9" pan="0" oct="5" vol="40" pos="4680" len="48" />
          <note tone="5" pan="0" oct="5" vol="28" pos="4680" len="18" />
          <note tone="4" pan="0" oct="5" vol="33" pos="4698" len="3" />
          <note tone="2" pan="0" oct="5" vol="25" pos="4701" len="3" />
          <note tone="4" pan="0" oct="5" vol="47" pos="4704" len="18" />
          <note tone="7" pan="0" oct="5" vol="39" pos="4722" len="6" />
          <note tone="9" pan="0" oct="5" vol="44" pos="4728" len="36" />
          <note tone="5" pan="0" oct="5" vol="28" pos="4728" len="30" />
          <note tone="4" pan="0" oct="5" vol="35" pos="4758" len="6" />
          <note tone="9" pan="0" oct="5" vol="40" pos="4764" len="12" />
          <note tone="5" pan="0" oct="5" vol="39" pos="4764" len="6" />
          <note tone="4" pan="0" oct="5" vol="29" pos="4770" len="6" />
          <note tone="9" pan="0" oct="5" vol="40" pos="4776" len="36" />
          <note tone="5" pan="0" oct="5" vol="30" pos="4776" len="30" />
          <note tone="4" pan="0" oct="5" vol="35" pos="4806" len="6" />
          <note tone="9" pan="0" oct="5" vol="49" pos="4812" len="12" />
          <note tone="5" pan="0" oct="5" vol="37" pos="4812" len="6" />
          <note tone="4" pan="0" oct="5" vol="34" pos="4818" len="6" />
          <note tone="9" pan="0" oct="5" vol="42" pos="4824" len="36" />
          <note tone="5" pan="0" oct="5" vol="49" pos="4824" len="30" />
          <note tone="4" pan="0" oct="5" vol="37" pos="4854" len="6" />
          <note tone="9" pan="0" oct="5" vol="35" pos="4860" len="12" />
          <note tone="5" pan="0" oct="5" vol="25" pos="4860" len="6" />
          <note tone="7" pan="0" oct="5" vol="50" pos="4866" len="6" />
          <note tone="9" pan="0" oct="5" vol="45" pos="4872" len="48" />
          <note tone="2" pan="0" oct="6" vol="35" pos="4872" len="30" />
          <note tone="1" pan="0" oct="6" vol="35" pos="4902" len="6" />
          <note tone="2" pan="0" oct="6" vol="35" pos="4908" len="6" />
          <note tone="4" pan="0" oct="6" vol="39" pos="4914" len="6" />
          <note tone="5" pan="0" oct="6" vol="32" pos="4920" len="12" />
          <note tone="2" pan="0" oct="6" vol="39" pos="4920" len="12" />
          <note tone="4" pan="0" oct="6" vol="37" pos="4932" len="12" />
          <note tone="1" pan="0" oct="6" vol="32" pos="4932" len="12" />
          <note tone="2" pan="0" oct="6" vol="32" pos="4944" len="6" />
          <note tone="0" pan="0" oct="6" vol="35" pos="4950" len="6" />
          <note tone="11" pan="0" oct="5" vol="18" pos="4956" len="6" />
          <note tone="9" pan="0" oct="5" vol="33" pos="4962" len="6" />
          <note tone="8" pan="0" oct="5" vol="33" pos="4968" len="24" />
          <note tone="5" pan="0" oct="5" vol="39" pos="4974" len="6" />
          <note tone="4" pan="0" oct="5" vol="44" pos="4980" len="6" />
          <note tone="2" pan="0" oct="5" vol="42" pos="4986" len="6" />
          <note tone="9" pan="0" oct="5" vol="47" pos="4992" len="24" />
          <note tone="1" pan="0" oct="5" vol="28" pos="4992" len="12" />
          <note tone="2" pan="0" oct="5" vol="36" pos="5004" len="6" />
          <note tone="4" pan="0" oct="5" vol="36" pos="5010" len="6" />
          <note tone="5" pan="0" oct="5" vol="31" pos="5016" len="6" />
          <note tone="2" pan="0" oct="5" vol="40" pos="5022" len="6" />
          <note tone="1" pan="0" oct="5" vol="29" pos="5028" len="6" />
          <note tone="11" pan="0" oct="4" vol="54" pos="5034" len="6" />
          <note tone="9" pan="0" oct="4" vol="39" pos="5040" len="36" />
          <note tone="1" pan="0" oct="5" vol="45" pos="5040" len="36" />
          <note tone="4" pan="0" oct="5" vol="35" pos="5040" len="36" />
          <note tone="9" pan="0" oct="5" vol="26" pos="5088" len="12" />
          <note tone="0" pan="0" oct="6" vol="28" pos="5100" len="6" />
          <note tone="11" pan="0" oct="5" vol="27" pos="5106" len="6" />
          <note tone="0" pan="0" oct="6" vol="32" pos="5112" len="6" />
          <note tone="9" pan="0" oct="5" vol="25" pos="5118" len="6" />
          <note tone="11" pan="0" oct="5" vol="32" pos="5124" len="12" />
          <note tone="4" pan="0" oct="5" vol="40" pos="5136" len="6" />
          <note tone="11" pan="0" oct="5" vol="32" pos="5142" len="6" />
          <note tone="4" pan="0" oct="6" vol="24" pos="5148" len="6" />
          <note tone="11" pan="0" oct="5" vol="42" pos="5154" len="6" />
          <note tone="0" pan="0" oct="6" vol="29" pos="5160" len="12" />
          <note tone="9" pan="0" oct="5" vol="44" pos="5172" len="12" />
          <note tone="4" pan="0" oct="6" vol="28" pos="5184" len="12" />
          <note tone="5" pan="0" oct="6" vol="33" pos="5196" len="6" />
          <note tone="4" pan="0" oct="6" vol="28" pos="5202" len="6" />
          <note tone="5" pan="0" oct="6" vol="28" pos="5208" len="6" />
          <note tone="2" pan="0" oct="6" vol="37" pos="5214" len="6" />
          <note tone="5" pan="0" oct="6" vol="31" pos="5220" len="6" />
          <note tone="0" pan="0" oct="6" vol="44" pos="5226" len="6" />
          <note tone="5" pan="0" oct="6" vol="33" pos="5232" len="6" />
          <note tone="2" pan="0" oct="6" vol="37" pos="5238" len="6" />
          <note tone="5" pan="0" oct="6" vol="39" pos="5244" len="6" />
          <note tone="11" pan="0" oct="5" vol="53" pos="5250" len="6" />
          <note tone="5" pan="0" oct="6" vol="41" pos="5256" len="6" />
          <note tone="7" pan="0" oct="5" vol="25" pos="5262" len="6" />
          <note tone="4" pan="0" oct="6" vol="35" pos="5268" len="6" />
          <note tone="2" pan="0" oct="6" vol="32" pos="5274" len="6" />
          <note tone="4" pan="0" oct="6" vol="33" pos="5280" len="6" />
          <note tone="0" pan="0" oct="6" vol="45" pos="5286" len="6" />
          <note tone="4" pan="0" oct="6" vol="34" pos="5292" len="6" />
          <note tone="11" pan="0" oct="5" vol="39" pos="5298" len="6" />
          <note tone="4" pan="0" oct="6" vol="32" pos="5304" len="6" />
          <note tone="0" pan="0" oct="6" vol="37" pos="5310" len="6" />
          <note tone="4" pan="0" oct="6" vol="26" pos="5316" len="6" />
          <note tone="9" pan="0" oct="5" vol="38" pos="5322" len="6" />
          <note tone="4" pan="0" oct="6" vol="26" pos="5328" len="6" />
          <note tone="5" pan="0" oct="5" vol="45" pos="5334" len="6" />
          <note tone="2" pan="0" oct="6" vol="34" pos="5340" len="6" />
          <note tone="0" pan="0" oct="6" vol="33" pos="5346" len="6" />
          <note tone="2" pan="0" oct="6" vol="15" pos="5352" len="6" />
          <note tone="11" pan="0" oct="5" vol="27" pos="5358" len="6" />
          <note tone="2" pan="0" oct="6" vol="16" pos="5364" len="6" />
          <note tone="9" pan="0" oct="5" vol="39" pos="5370" len="6" />
          <note tone="2" pan="0" oct="6" vol="20" pos="5376" len="6" />
          <note tone="11" pan="0" oct="5" vol="38" pos="5382" len="6" />
          <note tone="2" pan="0" oct="6" vol="21" pos="5388" len="6" />
          <note tone="8" pan="0" oct="5" vol="32" pos="5394" len="6" />
          <note tone="2" pan="0" oct="6" vol="41" pos="5400" len="6" />
          <note tone="4" pan="0" oct="5" vol="34" pos="5406" len="6" />
          <note tone="0" pan="0" oct="6" vol="35" pos="5412" len="6" />
          <note tone="9" pan="0" oct="5" vol="21" pos="5418" len="6" />
          <note tone="0" pan="0" oct="6" vol="39" pos="5424" len="6" />
          <note tone="4" pan="0" oct="6" vol="42" pos="5430" len="6" />
          <note tone="9" pan="0" oct="6" vol="35" pos="5436" len="6" />
          <note tone="6" pan="0" oct="6" vol="31" pos="5442" len="6" />
          <note tone="7" pan="0" oct="6" vol="28" pos="5448" len="12" />
          <note tone="4" pan="0" oct="6" vol="33" pos="5460" len="30" />
          <note tone="3" pan="0" oct="6" vol="21" pos="5490" len="6" />
          <note tone="4" pan="0" oct="6" vol="27" pos="5496" len="6" />
          <note tone="1" pan="0" oct="6" vol="25" pos="5502" len="6" />
          <note tone="3" pan="0" oct="6" vol="26" pos="5508" len="6" />
          <note tone="6" pan="0" oct="6" vol="29" pos="5514" len="6" />
          <note tone="11" pan="0" oct="6" vol="30" pos="5520" len="48" />
          <note tone="9" pan="0" oct="6" vol="32" pos="5568" len="6" />
          <note tone="7" pan="0" oct="6" vol="53" pos="5574" len="6" />
          <note tone="6" pan="0" oct="6" vol="35" pos="5580" len="6" />
          <note tone="4" pan="0" oct="6" vol="45" pos="5586" len="6" />
          <note tone="9" pan="0" oct="6" vol="22" pos="5592" len="48" />
          <note tone="7" pan="0" oct="6" vol="38" pos="5640" len="6" />
          <note tone="6" pan="0" oct="6" vol="29" pos="5646" len="6" />
          <note tone="4" pan="0" oct="6" vol="28" pos="5652" len="6" />
          <note tone="2" pan="0" oct="6" vol="44" pos="5658" len="6" />
          <note tone="7" pan="0" oct="6" vol="33" pos="5664" len="48" />
          <note tone="6" pan="0" oct="6" vol="33" pos="5712" len="6" />
          <note tone="4" pan="0" oct="6" vol="41" pos="5718" len="6" />
          <note tone="3" pan="0" oct="6" vol="33" pos="5724" len="6" />
          <note tone="4" pan="0" oct="6" vol="38" pos="5730" len="6" />
          <note tone="6" pan="0" oct="6" vol="37" pos="5736" len="48" />
          <note tone="4" pan="0" oct="6" vol="39" pos="5784" len="6" />
          <note tone="6" pan="0" oct="6" vol="24" pos="5790" len="6" />
          <note tone="7" pan="0" oct="6" vol="29" pos="5796" len="18" />
          <note tone="7" pan="0" oct="6" vol="28" pos="5814" len="6" />
          <note tone="6" pan="0" oct="6" vol="29" pos="5820" len="6" />
          <note tone="4" pan="0" oct="6" vol="30" pos="5826" len="6" />
          <note tone="6" pan="0" oct="6" vol="28" pos="5832" len="6" />
          <note tone="2" pan="0" oct="6" vol="23" pos="5838" len="6" />
          <note tone="4" pan="0" oct="6" vol="32" pos="5844" len="12" />
          <note tone="9" pan="0" oct="6" vol="35" pos="5856" len="30" />
          <note tone="9" pan="0" oct="6" vol="36" pos="5886" len="6" />
          <note tone="8" pan="0" oct="6" vol="31" pos="5892" len="6" />
          <note tone="6" pan="0" oct="6" vol="13" pos="5898" len="6" />
          <note tone="8" pan="0" oct="6" vol="32" pos="5904" len="6" />
          <note tone="4" pan="0" oct="6" vol="43" pos="5910" len="6" />
          <note tone="0" pan="0" oct="7" vol="28" pos="5916" len="42" />
          <note tone="0" pan="0" oct="7" vol="28" pos="5958" len="6" />
          <note tone="11" pan="0" oct="6" vol="31" pos="5964" len="6" />
          <note tone="9" pan="0" oct="6" vol="31" pos="5970" len="6" />
          <note tone="7" pan="0" oct="6" vol="43" pos="5976" len="6" />
          <note tone="6" pan="0" oct="6" vol="30" pos="5982" len="6" />
          <note tone="4" pan="0" oct="6" vol="44" pos="5988" len="42" />
          <note tone="4" pan="0" oct="6" vol="33" pos="6030" len="6" />
          <note tone="2" pan="0" oct="6" vol="42" pos="6036" len="6" />
          <note tone="0" pan="0" oct="6" vol="38" pos="6042" len="6" />
          <note tone="11" pan="0" oct="5" vol="43" pos="6048" len="6" />
          <note tone="9" pan="0" oct="5" vol="45" pos="6054" len="6" />
          <note tone="8" pan="0" oct="5" vol="33" pos="6060" len="6" />
          <note tone="9" pan="0" oct="5" vol="36" pos="6066" len="6" />
          <note tone="11" pan="0" oct="5" vol="29" pos="6072" len="6" />
          <note tone="0" pan="0" oct="6" vol="40" pos="6078" len="6" />
          <note tone="2" pan="0" oct="6" vol="31" pos="6084" len="6" />
          <note tone="11" pan="0" oct="5" vol="34" pos="6090" len="6" />
          <note tone="0" pan="0" oct="6" vol="31" pos="6096" len="6" />
          <note tone="2" pan="0" oct="6" vol="21" pos="6102" len="6" />
          <note tone="4" pan="0" oct="6" vol="35" pos="6108" len="6" />
          <note tone="2" pan="0" oct="6" vol="25" pos="6114" len="6" />
          <note tone="4" pan="0" oct="6" vol="34" pos="6120" len="6" />
          <note tone="5" pan="0" oct="6" vol="32" pos="6126" len="6" />
          <note tone="2" pan="0" oct="6" vol="39" pos="6132" len="42" />
          <note tone="2" pan="0" oct="6" vol="35" pos="6174" len="6" />
          <note tone="4" pan="0" oct="6" vol="25" pos="6180" len="36" />
          <note tone="2" pan="0" oct="6" vol="33" pos="6216" len="6" />
          <note tone="0" pan="0" oct="6" vol="32" pos="6222" len="6" />
          <note tone="11" pan="0" oct="5" vol="41" pos="6228" len="6" />
          <note tone="9" pan="0" oct="5" vol="35" pos="6234" len="6" />
          <note tone="9" pan="0" oct="6" vol="22" pos="6240" len="12" />
          <note tone="7" pan="0" oct="6" vol="37" pos="6252" len="6" />
          <note tone="5" pan="0" oct="6" vol="34" pos="6258" len="6" />
          <note tone="4" pan="0" oct="6" vol="32" pos="6264" len="6" />
          <note tone="2" pan="0" oct="6" vol="28" pos="6270" len="6" />
          <note tone="7" pan="0" oct="6" vol="37" pos="6276" len="48" />
          <note tone="5" pan="0" oct="6" vol="37" pos="6324" len="6" />
          <note tone="4" pan="0" oct="6" vol="26" pos="6330" len="6" />
          <note tone="2" pan="0" oct="6" vol="28" pos="6336" len="6" />
          <note tone="0" pan="0" oct="6" vol="39" pos="6342" len="6" />
          <note tone="5" pan="0" oct="6" vol="38" pos="6348" len="48" />
          <note tone="4" pan="0" oct="6" vol="32" pos="6396" len="6" />
          <note tone="2" pan="0" oct="6" vol="28" pos="6402" len="6" />
          <note tone="0" pan="0" oct="6" vol="35" pos="6408" len="6" />
          <note tone="2" pan="0" oct="6" vol="21" pos="6414" len="6" />
          <note tone="4" pan="0" oct="6" vol="35" pos="6420" len="36" />
          <note tone="4" pan="0" oct="6" vol="39" pos="6462" len="6" />
          <note tone="9" pan="0" oct="6" vol="30" pos="6468" len="6" />
          <note tone="7" pan="0" oct="6" vol="37" pos="6474" len="6" />
          <note tone="6" pan="0" oct="6" vol="33" pos="6480" len="6" />
          <note tone="4" pan="0" oct="6" vol="35" pos="6486" len="6" />
          <note tone="2" pan="0" oct="6" vol="35" pos="6492" len="36" />
          <note tone="4" pan="0" oct="6" vol="53" pos="6540" len="6" />
          <note tone="6" pan="0" oct="6" vol="32" pos="6546" len="6" />
          <note tone="7" pan="0" oct="6" vol="46" pos="6552" len="54" />
          <note tone="1" pan="0" oct="6" vol="32" pos="6606" len="6" />
          <note tone="2" pan="0" oct="6" vol="30" pos="6612" len="12" />
          <note tone="4" pan="0" oct="6" vol="19" pos="6624" len="12" />
          <note tone="5" pan="0" oct="6" vol="32" pos="6636" len="36" />
          <note tone="4" pan="0" oct="6" vol="45" pos="6672" len="36" />
          <note tone="2" pan="0" oct="6" vol="47" pos="6708" len="36" />
          <note tone="0" pan="0" oct="6" vol="40" pos="6744" len="42" />
          <note tone="0" pan="0" oct="6" vol="30" pos="6786" len="6" />
          <note tone="11" pan="0" oct="5" vol="28" pos="6792" len="6" />
          <note tone="9" pan="0" oct="5" vol="27" pos="6798" len="6" />
          <note tone="11" pan="0" oct="5" vol="31" pos="6804" len="6" />
          <note tone="2" pan="0" oct="6" vol="28" pos="6810" len="6" />
          <note tone="8" pan="0" oct="5" vol="30" pos="6816" len="12" />
          <note tone="9" pan="0" oct="5" vol="39" pos="6828" len="30" />
          <note tone="9" pan="0" oct="5" vol="32" pos="6858" len="6" />
          <note tone="7" pan="0" oct="5" vol="29" pos="6864" len="6" />
          <note tone="6" pan="0" oct="5" vol="23" pos="6870" len="6" />
          <note tone="7" pan="0" oct="5" vol="35" pos="6876" len="6" />
          <note tone="4" pan="0" oct="5" vol="50" pos="6882" len="6" />
          <note tone="0" pan="0" oct="6" vol="37" pos="6888" len="18" />
          <note tone="0" pan="0" oct="6" vol="35" pos="6906" len="6" />
          <note tone="11" pan="0" oct="5" vol="28" pos="6912" len="6" />
          <note tone="9" pan="0" oct="5" vol="27" pos="6918" len="6" />
          <note tone="7" pan="0" oct="5" vol="40" pos="6924" len="24" />
          <note tone="6" pan="0" oct="6" vol="36" pos="6984" len="12" />
          <note tone="11" pan="0" oct="6" vol="27" pos="6996" len="48" />
          <note tone="9" pan="0" oct="6" vol="34" pos="7044" len="6" />
          <note tone="7" pan="0" oct="6" vol="35" pos="7050" len="6" />
          <note tone="6" pan="0" oct="6" vol="28" pos="7056" len="6" />
          <note tone="4" pan="0" oct="6" vol="42" pos="7062" len="6" />
          <note tone="9" pan="0" oct="6" vol="37" pos="7068" len="48" />
          <note tone="7" pan="0" oct="6" vol="42" pos="7116" len="6" />
          <note tone="6" pan="0" oct="6" vol="32" pos="7122" len="6" />
          <note tone="4" pan="0" oct="6" vol="34" pos="7128" len="6" />
          <note tone="2" pan="0" oct="6" vol="39" pos="7134" len="6" />
          <note tone="7" pan="0" oct="6" vol="39" pos="7140" len="48" />
          <note tone="6" pan="0" oct="6" vol="38" pos="7188" len="6" />
          <note tone="4" pan="0" oct="6" vol="25" pos="7194" len="6" />
          <note tone="2" pan="0" oct="6" vol="39" pos="7200" len="6" />
          <note tone="0" pan="0" oct="6" vol="47" pos="7206" len="6" />
          <note tone="6" pan="0" oct="6" vol="30" pos="7212" len="48" />
          <note tone="4" pan="0" oct="6" vol="39" pos="7260" len="6" />
          <note tone="6" pan="0" oct="6" vol="34" pos="7266" len="6" />
          <note tone="7" pan="0" oct="6" vol="28" pos="7272" len="18" />
          <note tone="9" pan="0" oct="5" vol="42" pos="7296" len="6" />
          <note tone="1" pan="0" oct="6" vol="34" pos="7308" len="6" />
          <note tone="2" pan="0" oct="6" vol="32" pos="7320" len="6" />
          <note tone="1" pan="0" oct="6" vol="30" pos="7326" len="6" />
          <note tone="2" pan="0" oct="6" vol="31" pos="7332" len="6" />
          <note tone="4" pan="0" oct="6" vol="29" pos="7338" len="6" />
          <note tone="5" pan="0" oct="6" vol="33" pos="7344" len="18" />
          <note tone="7" pan="0" oct="5" vol="41" pos="7368" len="6" />
          <note tone="11" pan="0" oct="5" vol="40" pos="7380" len="6" />
          <note tone="0" pan="0" oct="6" vol="33" pos="7392" len="6" />
          <note tone="11" pan="0" oct="5" vol="29" pos="7398" len="6" />
          <note tone="0" pan="0" oct="6" vol="38" pos="7404" len="6" />
          <note tone="2" pan="0" oct="6" vol="31" pos="7410" len="6" />
          <note tone="4" pan="0" oct="6" vol="30" pos="7416" len="18" />
          <note tone="11" pan="0" oct="5" vol="42" pos="7434" len="6" />
          <note tone="0" pan="0" oct="6" vol="31" pos="7440" len="6" />
          <note tone="2" pan="0" oct="6" vol="39" pos="7446" len="6" />
          <note tone="4" pan="0" oct="6" vol="26" pos="7452" len="6" />
          <note tone="0" pan="0" oct="6" vol="29" pos="7458" len="6" />
          <note tone="5" pan="0" oct="6" vol="37" pos="7464" len="6" />
          <note tone="7" pan="0" oct="6" vol="39" pos="7470" len="6" />
          <note tone="5" pan="0" oct="6" vol="32" pos="7476" len="6" />
          <note tone="4" pan="0" oct="6" vol="32" pos="7482" len="6" />
          <note tone="2" pan="0" oct="6" vol="32" pos="7488" len="6" />
          <note tone="0" pan="0" oct="6" vol="45" pos="7494" len="6" />
          <note tone="11" pan="0" oct="5" vol="38" pos="7500" len="6" />
          <note tone="9" pan="0" oct="5" vol="25" pos="7506" len="6" />
          <note tone="11" pan="0" oct="5" vol="39" pos="7512" len="6" />
          <note tone="0" pan="0" oct="6" vol="26" pos="7518" len="6" />
          <note tone="2" pan="0" oct="6" vol="34" pos="7524" len="6" />
          <note tone="11" pan="0" oct="5" vol="37" pos="7530" len="6" />
          <note tone="0" pan="0" oct="6" vol="32" pos="7536" len="6" />
          <note tone="11" pan="0" oct="5" vol="19" pos="7542" len="6" />
          <note tone="9" pan="0" oct="5" vol="40" pos="7548" len="6" />
          <note tone="0" pan="0" oct="6" vol="38" pos="7554" len="6" />
          <note tone="11" pan="0" oct="5" vol="39" pos="7560" len="6" />
          <note tone="0" pan="0" oct="6" vol="29" pos="7566" len="6" />
          <note tone="2" pan="0" oct="6" vol="38" pos="7572" len="6" />
          <note tone="0" pan="0" oct="6" vol="20" pos="7578" len="6" />
          <note tone="2" pan="0" oct="6" vol="32" pos="7584" len="6" />
          <note tone="4" pan="0" oct="6" vol="37" pos="7590" len="6" />
          <note tone="0" pan="0" oct="6" vol="39" pos="7596" len="6" />
          <note tone="2" pan="0" oct="6" vol="38" pos="7602" len="6" />
          <note tone="11" pan="0" oct="5" vol="42" pos="7608" len="6" />
          <note tone="9" pan="0" oct="5" vol="37" pos="7614" len="6" />
          <note tone="7" pan="0" oct="5" vol="35" pos="7620" len="6" />
          <note tone="11" pan="0" oct="5" vol="38" pos="7626" len="6" />
          <note tone="9" pan="0" oct="5" vol="42" pos="7632" len="6" />
          <note tone="11" pan="0" oct="5" vol="35" pos="7638" len="6" />
          <note tone="0" pan="0" oct="6" vol="33" pos="7644" len="6" />
          <note tone="11" pan="0" oct="5" vol="28" pos="7650" len="6" />
          <note tone="0" pan="0" oct="6" vol="42" pos="7656" len="6" />
          <note tone="2" pan="0" oct="6" vol="32" pos="7662" len="6" />
          <note tone="11" pan="0" oct="5" vol="33" pos="7668" len="6" />
          <note tone="0" pan="0" oct="6" vol="40" pos="7674" len="6" />
          <note tone="9" pan="0" oct="5" vol="39" pos="7680" len="6" />
          <note tone="8" pan="0" oct="5" vol="29" pos="7686" len="6" />
          <note tone="9" pan="0" oct="5" vol="32" pos="7692" len="6" />
          <note tone="11" pan="0" oct="5" vol="28" pos="7698" len="6" />
          <note tone="8" pan="0" oct="5" vol="37" pos="7704" len="6" />
          <note tone="9" pan="0" oct="5" vol="29" pos="7710" len="6" />
          <note tone="11" pan="0" oct="5" vol="39" pos="7716" len="6" />
          <note tone="9" pan="0" oct="5" vol="31" pos="7722" len="6" />
          <note tone="11" pan="0" oct="5" vol="38" pos="7728" len="6" />
          <note tone="0" pan="0" oct="6" vol="33" pos="7734" len="6" />
          <note tone="9" pan="0" oct="5" vol="23" pos="7740" len="6" />
          <note tone="11" pan="0" oct="5" vol="42" pos="7746" len="6" />
          <note tone="8" pan="0" oct="5" vol="38" pos="7752" len="6" />
          <note tone="9" pan="0" oct="5" vol="25" pos="7758" len="6" />
          <note tone="11" pan="0" oct="5" vol="34" pos="7764" len="6" />
          <note tone="0" pan="0" oct="6" vol="23" pos="7770" len="6" />
          <note tone="2" pan="0" oct="6" vol="39" pos="7776" len="6" />
          <note tone="11" pan="0" oct="5" vol="39" pos="7782" len="6" />
          <note tone="4" pan="0" oct="6" vol="27" pos="7788" len="48" />
          <note tone="2" pan="0" oct="6" vol="36" pos="7836" len="36" />
          <note tone="0" pan="0" oct="6" vol="36" pos="7872" len="36" />
          <note tone="11" pan="0" oct="5" vol="43" pos="7908" len="36" />
          <note tone="9" pan="0" oct="5" vol="32" pos="7944" len="30" />
          <note tone="8" pan="0" oct="5" vol="30" pos="7974" len="6" />
          <note tone="9" pan="0" oct="5" vol="39" pos="7980" len="30" />
          <note tone="8" pan="0" oct="5" vol="30" pos="8010" len="6" />
          <note tone="9" pan="0" oct="5" vol="40" pos="8016" len="30" />
          <note tone="8" pan="0" oct="5" vol="32" pos="8046" len="6" />
          <note tone="9" pan="0" oct="5" vol="29" pos="8052" len="30" />
          <note tone="8" pan="0" oct="5" vol="33" pos="8082" len="6" />
          <note tone="9" pan="0" oct="5" vol="38" pos="8088" len="30" />
          <note tone="8" pan="0" oct="5" vol="31" pos="8118" len="6" />
          <note tone="9" pan="0" oct="5" vol="37" pos="8124" len="12" />
          <note tone="11" pan="0" oct="5" vol="35" pos="8136" len="12" />
          <note tone="4" pan="0" oct="5" vol="34" pos="8148" len="6" />
          <note tone="9" pan="0" oct="5" vol="29" pos="8154" len="6" />
          <note tone="9" pan="0" oct="5" vol="39" pos="8160" len="3" />
          <note tone="8" pan="0" oct="5" vol="36" pos="8163" len="3" />
          <note tone="9" pan="0" oct="5" vol="40" pos="8166" len="3" />
          <note tone="8" pan="0" oct="5" vol="31" pos="8169" len="9" />
          <note tone="9" pan="0" oct="5" vol="32" pos="8178" len="6" />
          <note tone="9" pan="0" oct="5" vol="25" pos="8184" len="12" />
          <note tone="0" pan="0" oct="6" vol="25" pos="8196" len="6" />
          <note tone="11" pan="0" oct="5" vol="32" pos="8202" len="6" />
          <note tone="0" pan="0" oct="6" vol="25" pos="8208" len="6" />
          <note tone="9" pan="0" oct="5" vol="24" pos="8214" len="6" />
          <note tone="11" pan="0" oct="5" vol="42" pos="8220" len="12" />
          <note tone="4" pan="0" oct="5" vol="25" pos="8232" len="6" />
          <note tone="11" pan="0" oct="5" vol="39" pos="8238" len="6" />
          <note tone="4" pan="0" oct="6" vol="35" pos="8244" len="6" />
          <note tone="11" pan="0" oct="5" vol="19" pos="8250" len="6" />
          <note tone="0" pan="0" oct="6" vol="26" pos="8256" len="12" />
          <note tone="9" pan="0" oct="5" vol="47" pos="8268" len="12" />
          <note tone="4" pan="0" oct="6" vol="37" pos="8280" len="12" />
          <note tone="5" pan="0" oct="6" vol="30" pos="8292" len="6" />
          <note tone="4" pan="0" oct="6" vol="30" pos="8298" len="6" />
          <note tone="5" pan="0" oct="6" vol="34" pos="8304" len="6" />
          <note tone="2" pan="0" oct="6" vol="28" pos="8310" len="6" />
          <note tone="5" pan="0" oct="6" vol="32" pos="8316" len="6" />
          <note tone="0" pan="0" oct="6" vol="28" pos="8322" len="6" />
          <note tone="5" pan="0" oct="6" vol="36" pos="8328" len="6" />
          <note tone="2" pan="0" oct="6" vol="33" pos="8334" len="6" />
          <note tone="5" pan="0" oct="6" vol="28" pos="8340" len="6" />
          <note tone="11" pan="0" oct="5" vol="48" pos="8346" len="6" />
          <note tone="5" pan="0" oct="6" vol="34" pos="8352" len="6" />
          <note tone="7" pan="0" oct="5" vol="32" pos="8358" len="6" />
          <note tone="4" pan="0" oct="6" vol="42" pos="8364" len="6" />
          <note tone="2" pan="0" oct="6" vol="33" pos="8370" len="6" />
          <note tone="4" pan="0" oct="6" vol="36" pos="8376" len="6" />
          <note tone="0" pan="0" oct="6" vol="39" pos="8382" len="6" />
          <note tone="4" pan="0" oct="6" vol="36" pos="8388" len="6" />
          <note tone="11" pan="0" oct="5" vol="39" pos="8394" len="6" />
          <note tone="4" pan="0" oct="6" vol="39" pos="8400" len="6" />
          <note tone="0" pan="0" oct="6" vol="35" pos="8406" len="6" />
          <note tone="4" pan="0" oct="6" vol="32" pos="8412" len="6" />
          <note tone="9" pan="0" oct="5" vol="48" pos="8418" len="6" />
          <note tone="4" pan="0" oct="6" vol="28" pos="8424" len="6" />
          <note tone="5" pan="0" oct="5" vol="44" pos="8430" len="6" />
          <note tone="2" pan="0" oct="6" vol="35" pos="8436" len="6" />
          <note tone="0" pan="0" oct="6" vol="27" pos="8442" len="6" />
          <note tone="2" pan="0" oct="6" vol="26" pos="8448" len="6" />
          <note tone="11" pan="0" oct="5" vol="34" pos="8454" len="6" />
          <note tone="2" pan="0" oct="6" vol="30" pos="8460" len="6" />
          <note tone="9" pan="0" oct="5" vol="32" pos="8466" len="6" />
          <note tone="2" pan="0" oct="6" vol="29" pos="8472" len="6" />
          <note tone="11" pan="0" oct="5" vol="29" pos="8478" len="6" />
          <note tone="2" pan="0" oct="6" vol="18" pos="8484" len="6" />
          <note tone="8" pan="0" oct="5" vol="32" pos="8490" len="6" />
          <note tone="2" pan="0" oct="6" vol="17" pos="8496" len="6" />
          <note tone="4" pan="0" oct="5" vol="38" pos="8502" len="6" />
          <note tone="0" pan="0" oct="6" vol="39" pos="8508" len="6" />
          <note tone="9" pan="0" oct="5" vol="35" pos="8514" len="6" />
          <note tone="0" pan="0" oct="6" vol="31" pos="8520" len="6" />
          <note tone="4" pan="0" oct="6" vol="39" pos="8526" len="6" />
          <note tone="9" pan="0" oct="6" vol="39" pos="8532" len="6" />
          <note tone="6" pan="0" oct="6" vol="25" pos="8538" len="6" />
          <note tone="7" pan="0" oct="6" vol="39" pos="8544" len="6" />
          <note tone="6" pan="0" oct="6" vol="25" pos="8550" len="6" />
          <note tone="7" pan="0" oct="6" vol="33" pos="8556" len="6" />
          <note tone="11" pan="0" oct="6" vol="32" pos="8562" len="6" />
          <note tone="0" pan="0" oct="7" vol="42" pos="8568" len="6" />
          <note tone="9" pan="0" oct="6" vol="31" pos="8574" len="6" />
          <note tone="11" pan="0" oct="6" vol="29" pos="8580" len="18" />
          <note tone="6" pan="0" oct="6" vol="26" pos="8598" len="6" />
          <note tone="7" pan="0" oct="6" vol="39" pos="8604" len="6" />
          <note tone="3" pan="0" oct="6" vol="29" pos="8610" len="6" />
          <note tone="4" pan="0" oct="6" vol="23" pos="8616" len="6" />
          <note tone="6" pan="0" oct="6" vol="28" pos="8622" len="6" />
          <note tone="4" pan="0" oct="6" vol="25" pos="8628" len="3" />
          <note tone="3" pan="0" oct="6" vol="25" pos="8631" len="3" />
          <note tone="4" pan="0" oct="6" vol="29" pos="8634" len="3" />
          <note tone="3" pan="0" oct="6" vol="21" pos="8637" len="9" />
          <note tone="4" pan="0" oct="6" vol="33" pos="8646" len="6" />
          <note tone="4" pan="0" oct="6" vol="28" pos="8652" len="6" />
          <note tone="11" pan="0" oct="5" vol="21" pos="8658" len="6" />
          <note tone="0" pan="0" oct="6" vol="37" pos="8664" len="6" />
          <note tone="9" pan="0" oct="5" vol="24" pos="8670" len="6" />
          <note tone="11" pan="0" oct="5" vol="47" pos="8676" len="6" />
          <note tone="6" pan="0" oct="5" vol="23" pos="8682" len="6" />
          <note tone="7" pan="0" oct="5" vol="35" pos="8688" len="24" />
          <note tone="7" pan="0" oct="5" vol="32" pos="8724" len="12" />
          <note tone="11" pan="0" oct="5" vol="42" pos="8736" len="12" />
          <note tone="4" pan="0" oct="6" vol="31" pos="8748" len="24" />
          <note tone="3" pan="0" oct="6" vol="25" pos="8772" len="6" />
          <note tone="4" pan="0" oct="6" vol="33" pos="8778" len="6" />
          <note tone="6" pan="0" oct="6" vol="32" pos="8784" len="18" />
          <note tone="3" pan="0" oct="6" vol="39" pos="8802" len="6" />
          <note tone="4" pan="0" oct="6" vol="28" pos="8808" len="6" />
          <note tone="6" pan="0" oct="6" vol="26" pos="8814" len="6" />
          <note tone="7" pan="0" oct="6" vol="32" pos="8820" len="18" />
          <note tone="7" pan="0" oct="6" vol="37" pos="8838" len="6" />
          <note tone="9" pan="0" oct="6" vol="35" pos="8844" len="12" />
          <note tone="9" pan="0" oct="6" vol="42" pos="8856" len="12" />
          <note tone="9" pan="0" oct="6" vol="39" pos="8868" len="12" />
          <note tone="9" pan="0" oct="6" vol="40" pos="8880" len="12" />
          <note tone="9" pan="0" oct="6" vol="38" pos="8892" len="18" />
          <note tone="6" pan="0" oct="6" vol="30" pos="8910" len="6" />
          <note tone="7" pan="0" oct="6" vol="35" pos="8916" len="12" />
          <note tone="7" pan="0" oct="6" vol="38" pos="8928" len="12" />
          <note tone="7" pan="0" oct="6" vol="33" pos="8940" len="12" />
          <note tone="7" pan="0" oct="6" vol="31" pos="8952" len="12" />
          <note tone="7" pan="0" oct="6" vol="28" pos="8964" len="18" />
          <note tone="4" pan="0" oct="6" vol="35" pos="8982" len="6" />
          <note tone="6" pan="0" oct="6" vol="35" pos="8988" len="12" />
          <note tone="6" pan="0" oct="6" vol="26" pos="9000" len="12" />
          <note tone="6" pan="0" oct="6" vol="30" pos="9012" len="12" />
          <note tone="6" pan="0" oct="6" vol="26" pos="9024" len="12" />
          <note tone="6" pan="0" oct="6" vol="40" pos="9036" len="24" />
          <note tone="4" pan="0" oct="6" vol="32" pos="9060" len="12" />
          <note tone="2" pan="0" oct="6" vol="30" pos="9072" len="12" />
          <note tone="0" pan="0" oct="6" vol="42" pos="9084" len="48" />
          <note tone="9" pan="0" oct="5" vol="23" pos="9132" len="12" />
          <note tone="2" pan="0" oct="6" vol="30" pos="9144" len="12" />
          <note tone="11" pan="0" oct="5" vol="46" pos="9156" len="48" />
          <note tone="4" pan="0" oct="6" vol="35" pos="9204" len="6" />
          <note tone="2" pan="0" oct="6" vol="31" pos="9210" len="6" />
          <note tone="0" pan="0" oct="6" vol="39" pos="9216" len="6" />
          <note tone="11" pan="0" oct="5" vol="24" pos="9222" len="6" />
          <note tone="9" pan="0" oct="5" vol="40" pos="9228" len="42" />
          <note tone="0" pan="0" oct="6" vol="28" pos="9270" len="6" />
          <note tone="11" pan="0" oct="5" vol="28" pos="9276" len="6" />
          <note tone="9" pan="0" oct="5" vol="28" pos="9282" len="6" />
          <note tone="7" pan="0" oct="5" vol="46" pos="9288" len="6" />
          <note tone="6" pan="0" oct="5" vol="20" pos="9294" len="6" />
          <note tone="7" pan="0" oct="5" vol="36" pos="9300" len="6" />
          <note tone="6" pan="0" oct="5" vol="28" pos="9306" len="6" />
          <note tone="7" pan="0" oct="5" vol="32" pos="9312" len="6" />
          <note tone="9" pan="0" oct="5" vol="16" pos="9318" len="6" />
          <note tone="11" pan="0" oct="5" vol="34" pos="9324" len="6" />
          <note tone="7" pan="0" oct="5" vol="42" pos="9330" len="6" />
          <note tone="0" pan="0" oct="6" vol="35" pos="9336" len="6" />
          <note tone="11" pan="0" oct="5" vol="34" pos="9342" len="6" />
          <note tone="0" pan="0" oct="6" vol="28" pos="9348" len="6" />
          <note tone="2" pan="0" oct="6" vol="27" pos="9354" len="6" />
          <note tone="4" pan="0" oct="6" vol="25" pos="9360" len="6" />
          <note tone="0" pan="0" oct="6" vol="39" pos="9366" len="6" />
          <note tone="5" pan="0" oct="6" vol="30" pos="9372" len="72" />
          <note tone="4" pan="0" oct="6" vol="32" pos="9444" len="6" />
          <note tone="2" pan="0" oct="6" vol="28" pos="9450" len="6" />
          <note tone="0" pan="0" oct="6" vol="36" pos="9456" len="6" />
          <note tone="11" pan="0" oct="5" vol="35" pos="9462" len="6" />
          <note tone="0" pan="0" oct="6" vol="36" pos="9468" len="24" />
          <note tone="0" pan="0" oct="6" vol="30" pos="9492" len="3" />
          <note tone="11" pan="0" oct="5" vol="25" pos="9495" len="3" />
          <note tone="0" pan="0" oct="6" vol="28" pos="9498" len="3" />
          <note tone="11" pan="0" oct="5" vol="35" pos="9501" len="3" />
          <note tone="0" pan="0" oct="6" vol="27" pos="9504" len="3" />
          <note tone="11" pan="0" oct="5" vol="29" pos="9507" len="3" />
          <note tone="9" pan="0" oct="5" vol="39" pos="9510" len="3" />
          <note tone="11" pan="0" oct="5" vol="32" pos="9513" len="3" />
          <note tone="0" pan="0" oct="6" vol="35" pos="9516" len="6" />
          <note tone="11" pan="0" oct="5" vol="31" pos="9522" len="6" />
          <note tone="0" pan="0" oct="6" vol="36" pos="9528" len="6" />
          <note tone="2" pan="0" oct="6" vol="28" pos="9534" len="6" />
          <note tone="4" pan="0" oct="6" vol="33" pos="9540" len="48" />
          <note tone="2" pan="0" oct="6" vol="35" pos="9588" len="72" />
          <note tone="0" pan="0" oct="6" vol="42" pos="9660" len="72" />
          <note tone="11" pan="0" oct="5" vol="39" pos="9732" len="54" />
          <note tone="7" pan="0" oct="5" vol="24" pos="9786" len="6" />
          <note tone="0" pan="0" oct="6" vol="32" pos="9792" len="6" />
          <note tone="11" pan="0" oct="5" vol="35" pos="9798" len="6" />
          <note tone="0" pan="0" oct="6" vol="32" pos="9804" len="54" />
          <note tone="9" pan="0" oct="5" vol="38" pos="9858" len="6" />
          <note tone="2" pan="0" oct="6" vol="22" pos="9864" len="6" />
          <note tone="0" pan="0" oct="6" vol="40" pos="9870" len="6" />
          <note tone="2" pan="0" oct="6" vol="40" pos="9876" len="54" />
          <note tone="11" pan="0" oct="5" vol="47" pos="9930" len="6" />
          <note tone="4" pan="0" oct="6" vol="21" pos="9936" len="6" />
          <note tone="2" pan="0" oct="6" vol="29" pos="9942" len="6" />
          <note tone="4" pan="0" oct="6" vol="40" pos="9948" len="54" />
          <note tone="4" pan="0" oct="6" vol="24" pos="10002" len="6" />
          <note tone="2" pan="0" oct="6" vol="28" pos="10008" len="6" />
          <note tone="0" pan="0" oct="6" vol="34" pos="10014" len="6" />
          <note tone="11" pan="0" oct="5" vol="35" pos="10020" len="6" />
          <note tone="9" pan="0" oct="5" vol="41" pos="10026" len="6" />
          <note tone="11" pan="0" oct="5" vol="39" pos="10032" len="42" />
          <note tone="11" pan="0" oct="5" vol="37" pos="10074" len="6" />
          <note tone="9" pan="0" oct="5" vol="37" pos="10080" len="6" />
          <note tone="7" pan="0" oct="5" vol="43" pos="10086" len="6" />
          <note tone="6" pan="0" oct="5" vol="26" pos="10092" len="6" />
          <note tone="4" pan="0" oct="5" vol="43" pos="10098" len="6" />
          <note tone="6" pan="0" oct="5" vol="32" pos="10104" len="24" />
          <note tone="7" pan="0" oct="5" vol="32" pos="10128" len="6" />
          <note tone="9" pan="0" oct="5" vol="25" pos="10134" len="6" />
          <note tone="11" pan="0" oct="5" vol="37" pos="10140" len="6" />
          <note tone="9" pan="0" oct="5" vol="45" pos="10146" len="6" />
          <note tone="11" pan="0" oct="5" vol="36" pos="10152" len="6" />
          <note tone="7" pan="0" oct="5" vol="30" pos="10158" len="6" />
          <note tone="9" pan="0" oct="5" vol="33" pos="10164" len="6" />
          <note tone="2" pan="0" oct="5" vol="18" pos="10170" len="6" />
          <note tone="6" pan="0" oct="5" vol="21" pos="10176" len="6" />
          <note tone="9" pan="0" oct="5" vol="42" pos="10182" len="6" />
          <note tone="2" pan="0" oct="6" vol="39" pos="10188" len="6" />
          <note tone="0" pan="0" oct="6" vol="36" pos="10194" len="6" />
          <note tone="11" pan="0" oct="5" vol="39" pos="10200" len="6" />
          <note tone="7" pan="0" oct="5" vol="28" pos="10206" len="6" />
          <note tone="11" pan="0" oct="5" vol="42" pos="10212" len="6" />
          <note tone="2" pan="0" oct="6" vol="48" pos="10218" len="6" />
          <note tone="7" pan="0" oct="6" vol="39" pos="10224" len="6" />
          <note tone="5" pan="0" oct="6" vol="36" pos="10230" len="6" />
          <note tone="4" pan="0" oct="6" vol="43" pos="10236" len="6" />
          <note tone="2" pan="0" oct="6" vol="28" pos="10242" len="6" />
          <note tone="4" pan="0" oct="6" vol="44" pos="10248" len="6" />
          <note tone="0" pan="0" oct="6" vol="42" pos="10254" len="6" />
          <note tone="4" pan="0" oct="6" vol="37" pos="10260" len="6" />
          <note tone="11" pan="0" oct="5" vol="33" pos="10266" len="6" />
          <note tone="4" pan="0" oct="6" vol="30" pos="10272" len="6" />
          <note tone="0" pan="0" oct="6" vol="41" pos="10278" len="6" />
          <note tone="4" pan="0" oct="6" vol="42" pos="10284" len="6" />
          <note tone="9" pan="0" oct="5" vol="44" pos="10290" len="6" />
          <note tone="4" pan="0" oct="6" vol="40" pos="10296" len="6" />
          <note tone="6" pan="0" oct="5" vol="28" pos="10302" len="6" />
          <note tone="2" pan="0" oct="6" vol="34" pos="10308" len="6" />
          <note tone="0" pan="0" oct="6" vol="25" pos="10314" len="6" />
          <note tone="2" pan="0" oct="6" vol="33" pos="10320" len="6" />
          <note tone="11" pan="0" oct="5" vol="36" pos="10326" len="6" />
          <note tone="2" pan="0" oct="6" vol="38" pos="10332" len="6" />
          <note tone="9" pan="0" oct="5" vol="37" pos="10338" len="6" />
          <note tone="2" pan="0" oct="6" vol="28" pos="10344" len="6" />
          <note tone="11" pan="0" oct="5" vol="25" pos="10350" len="6" />
          <note tone="2" pan="0" oct="6" vol="36" pos="10356" len="6" />
          <note tone="7" pan="0" oct="5" vol="31" pos="10362" len="6" />
          <note tone="2" pan="0" oct="6" vol="33" pos="10368" len="6" />
          <note tone="4" pan="0" oct="5" vol="39" pos="10374" len="6" />
          <note tone="0" pan="0" oct="6" vol="34" pos="10380" len="6" />
          <note tone="11" pan="0" oct="5" vol="36" pos="10386" len="6" />
          <note tone="0" pan="0" oct="6" vol="36" pos="10392" len="6" />
          <note tone="9" pan="0" oct="5" vol="32" pos="10398" len="6" />
          <note tone="0" pan="0" oct="6" vol="25" pos="10404" len="6" />
          <note tone="7" pan="0" oct="5" vol="39" pos="10410" len="6" />
          <note tone="0" pan="0" oct="6" vol="28" pos="10416" len="6" />
          <note tone="9" pan="0" oct="5" vol="30" pos="10422" len="6" />
          <note tone="0" pan="0" oct="6" vol="36" pos="10428" len="6" />
          <note tone="6" pan="0" oct="5" vol="30" pos="10434" len="6" />
          <note tone="0" pan="0" oct="6" vol="29" pos="10440" len="6" />
          <note tone="2" pan="0" oct="5" vol="43" pos="10446" len="6" />
          <note tone="11" pan="0" oct="5" vol="23" pos="10452" len="6" />
          <note tone="9" pan="0" oct="5" vol="27" pos="10458" len="6" />
          <note tone="11" pan="0" oct="5" vol="38" pos="10464" len="6" />
          <note tone="7" pan="0" oct="5" vol="32" pos="10470" len="6" />
          <note tone="11" pan="0" oct="5" vol="34" pos="10476" len="6" />
          <note tone="2" pan="0" oct="5" vol="45" pos="10482" len="6" />
          <note tone="9" pan="0" oct="5" vol="32" pos="10488" len="6" />
          <note tone="7" pan="0" oct="5" vol="28" pos="10494" len="6" />
          <note tone="9" pan="0" oct="5" vol="37" pos="10500" len="6" />
          <note tone="6" pan="0" oct="5" vol="30" pos="10506" len="6" />
          <note tone="9" pan="0" oct="5" vol="32" pos="10512" len="6" />
          <note tone="2" pan="0" oct="5" vol="34" pos="10518" len="6" />
          <note tone="11" pan="0" oct="5" vol="39" pos="10524" len="6" />
          <note tone="9" pan="0" oct="5" vol="31" pos="10530" len="6" />
          <note tone="11" pan="0" oct="5" vol="39" pos="10536" len="6" />
          <note tone="9" pan="0" oct="5" vol="32" pos="10542" len="6" />
          <note tone="11" pan="0" oct="5" vol="32" pos="10548" len="6" />
          <note tone="2" pan="0" oct="5" vol="46" pos="10554" len="6" />
          <note tone="0" pan="0" oct="6" vol="35" pos="10560" len="6" />
          <note tone="9" pan="0" oct="5" vol="30" pos="10566" len="6" />
          <note tone="0" pan="0" oct="6" vol="20" pos="10572" len="6" />
          <note tone="6" pan="0" oct="5" vol="34" pos="10578" len="6" />
          <note tone="0" pan="0" oct="6" vol="34" pos="10584" len="6" />
          <note tone="2" pan="0" oct="5" vol="51" pos="10590" len="6" />
          <note tone="2" pan="0" oct="6" vol="32" pos="10596" len="6" />
          <note tone="11" pan="0" oct="5" vol="28" pos="10602" len="6" />
          <note tone="2" pan="0" oct="6" vol="33" pos="10608" len="6" />
          <note tone="7" pan="0" oct="5" vol="41" pos="10614" len="6" />
          <note tone="2" pan="0" oct="6" vol="35" pos="10620" len="6" />
          <note tone="2" pan="0" oct="5" vol="48" pos="10626" len="6" />
          <note tone="4" pan="0" oct="6" vol="37" pos="10632" len="6" />
          <note tone="1" pan="0" oct="6" vol="29" pos="10638" len="6" />
          <note tone="4" pan="0" oct="6" vol="31" pos="10644" len="6" />
          <note tone="11" pan="0" oct="5" vol="44" pos="10650" len="6" />
          <note tone="4" pan="0" oct="6" vol="30" pos="10656" len="6" />
          <note tone="9" pan="0" oct="5" vol="47" pos="10662" len="6" />
          <note tone="5" pan="0" oct="6" vol="39" pos="10668" len="6" />
          <note tone="4" pan="0" oct="6" vol="33" pos="10674" len="6" />
          <note tone="2" pan="0" oct="6" vol="37" pos="10680" len="6" />
          <note tone="0" pan="0" oct="6" vol="42" pos="10686" len="6" />
          <note tone="2" pan="0" oct="6" vol="39" pos="10692" len="6" />
          <note tone="5" pan="0" oct="6" vol="35" pos="10698" len="6" />
          <note tone="7" pan="0" oct="6" vol="37" pos="10704" len="6" />
          <note tone="5" pan="0" oct="6" vol="32" pos="10710" len="6" />
          <note tone="4" pan="0" oct="6" vol="36" pos="10716" len="6" />
          <note tone="2" pan="0" oct="6" vol="29" pos="10722" len="6" />
          <note tone="4" pan="0" oct="6" vol="42" pos="10728" len="6" />
          <note tone="7" pan="0" oct="6" vol="41" pos="10734" len="6" />
          <note tone="9" pan="0" oct="6" vol="41" pos="10740" len="6" />
          <note tone="7" pan="0" oct="6" vol="28" pos="10746" len="6" />
          <note tone="5" pan="0" oct="6" vol="27" pos="10752" len="6" />
          <note tone="4" pan="0" oct="6" vol="34" pos="10758" len="6" />
          <note tone="5" pan="0" oct="6" vol="40" pos="10764" len="6" />
          <note tone="9" pan="0" oct="6" vol="32" pos="10770" len="6" />
          <note tone="2" pan="0" oct="6" vol="34" pos="10776" len="12" />
          <note tone="4" pan="0" oct="6" vol="28" pos="10788" len="12" />
          <note tone="7" pan="0" oct="6" vol="32" pos="10800" len="3" />
          <note tone="5" pan="0" oct="6" vol="30" pos="10803" len="3" />
          <note tone="7" pan="0" oct="6" vol="31" pos="10806" len="3" />
          <note tone="5" pan="0" oct="6" vol="33" pos="10809" len="3" />
          <note tone="7" pan="0" oct="6" vol="39" pos="10812" len="36" />
          <note tone="1" pan="0" oct="6" vol="28" pos="10848" len="12" />
          <note tone="2" pan="0" oct="6" vol="37" pos="10860" len="12" />
          <note tone="5" pan="0" oct="6" vol="25" pos="10872" len="3" />
          <note tone="4" pan="0" oct="6" vol="31" pos="10875" len="3" />
          <note tone="5" pan="0" oct="6" vol="39" pos="10878" len="3" />
          <note tone="4" pan="0" oct="6" vol="24" pos="10881" len="3" />
          <note tone="5" pan="0" oct="6" vol="44" pos="10884" len="48" />
          <note tone="4" pan="0" oct="6" vol="36" pos="10932" len="6" />
          <note tone="2" pan="0" oct="6" vol="26" pos="10938" len="6" />
          <note tone="1" pan="0" oct="6" vol="28" pos="10944" len="6" />
          <note tone="2" pan="0" oct="6" vol="28" pos="10950" len="6" />
          <note tone="4" pan="0" oct="6" vol="42" pos="10956" len="6" />
          <note tone="7" pan="0" oct="6" vol="37" pos="10962" len="6" />
          <note tone="10" pan="0" oct="6" vol="26" pos="10968" len="6" />
          <note tone="7" pan="0" oct="6" vol="34" pos="10974" len="6" />
          <note tone="4" pan="0" oct="6" vol="42" pos="10980" len="6" />
          <note tone="0" pan="0" oct="6" vol="19" pos="10986" len="6" />
          <note tone="2" pan="0" oct="6" vol="37" pos="10992" len="6" />
          <note tone="5" pan="0" oct="6" vol="45" pos="10998" len="6" />
          <note tone="9" pan="0" oct="6" vol="35" pos="11004" len="6" />
          <note tone="5" pan="0" oct="6" vol="36" pos="11010" len="6" />
          <note tone="2" pan="0" oct="6" vol="33" pos="11016" len="6" />
          <note tone="0" pan="0" oct="6" vol="43" pos="11022" len="6" />
          <note tone="10" pan="0" oct="5" vol="26" pos="11028" len="6" />
          <note tone="2" pan="0" oct="6" vol="38" pos="11034" len="6" />
          <note tone="7" pan="0" oct="6" vol="28" pos="11040" len="6" />
          <note tone="2" pan="0" oct="6" vol="35" pos="11046" len="6" />
          <note tone="10" pan="0" oct="5" vol="28" pos="11052" len="6" />
          <note tone="7" pan="0" oct="5" vol="39" pos="11058" len="6" />
          <note tone="0" pan="0" oct="6" vol="26" pos="11064" len="6" />
          <note tone="4" pan="0" oct="6" vol="46" pos="11070" len="6" />
          <note tone="7" pan="0" oct="6" vol="25" pos="11076" len="6" />
          <note tone="4" pan="0" oct="6" vol="35" pos="11082" len="6" />
          <note tone="0" pan="0" oct="6" vol="39" pos="11088" len="6" />
          <note tone="10" pan="0" oct="5" vol="26" pos="11094" len="6" />
          <note tone="9" pan="0" oct="5" vol="39" pos="11100" len="6" />
          <note tone="0" pan="0" oct="6" vol="41" pos="11106" len="6" />
          <note tone="5" pan="0" oct="6" vol="22" pos="11112" len="6" />
          <note tone="0" pan="0" oct="6" vol="30" pos="11118" len="6" />
          <note tone="9" pan="0" oct="5" vol="51" pos="11124" len="6" />
          <note tone="5" pan="0" oct="5" vol="42" pos="11130" len="6" />
          <note tone="10" pan="0" oct="5" vol="32" pos="11136" len="6" />
          <note tone="2" pan="0" oct="6" vol="36" pos="11142" len="6" />
          <note tone="5" pan="0" oct="6" vol="32" pos="11148" len="6" />
          <note tone="2" pan="0" oct="6" vol="28" pos="11154" len="6" />
          <note tone="10" pan="0" oct="5" vol="28" pos="11160" len="6" />
          <note tone="9" pan="0" oct="5" vol="49" pos="11166" len="6" />
          <note tone="8" pan="0" oct="5" vol="26" pos="11172" len="6" />
          <note tone="11" pan="0" oct="5" vol="33" pos="11178" len="6" />
          <note tone="4" pan="0" oct="6" vol="22" pos="11184" len="6" />
          <note tone="0" pan="0" oct="6" vol="22" pos="11190" len="6" />
          <note tone="9" pan="0" oct="5" vol="37" pos="11196" len="6" />
          <note tone="7" pan="0" oct="5" vol="48" pos="11202" len="6" />
          <note tone="6" pan="0" oct="5" vol="32" pos="11208" len="6" />
          <note tone="9" pan="0" oct="5" vol="30" pos="11214" len="6" />
          <note tone="2" pan="0" oct="6" vol="21" pos="11220" len="6" />
          <note tone="11" pan="0" oct="5" vol="31" pos="11226" len="6" />
          <note tone="7" pan="0" oct="5" vol="50" pos="11232" len="6" />
          <note tone="5" pan="0" oct="5" vol="48" pos="11238" len="6" />
          <note tone="4" pan="0" oct="5" vol="36" pos="11244" len="6" />
          <note tone="7" pan="0" oct="5" vol="39" pos="11250" len="6" />
          <note tone="0" pan="0" oct="6" vol="30" pos="11256" len="6" />
          <note tone="9" pan="0" oct="5" vol="35" pos="11262" len="6" />
          <note tone="5" pan="0" oct="5" vol="38" pos="11268" len="6" />
          <note tone="4" pan="0" oct="5" vol="46" pos="11274" len="6" />
          <note tone="2" pan="0" oct="5" vol="37" pos="11280" len="6" />
          <note tone="11" pan="0" oct="5" vol="30" pos="11286" len="6" />
          <note tone="2" pan="0" oct="5" vol="38" pos="11292" len="6" />
          <note tone="11" pan="0" oct="5" vol="35" pos="11298" len="6" />
          <note tone="2" pan="0" oct="5" vol="39" pos="11304" len="6" />
          <note tone="11" pan="0" oct="5" vol="34" pos="11310" len="6" />
          <note tone="0" pan="0" oct="5" vol="43" pos="11316" len="6" />
          <note tone="9" pan="0" oct="5" vol="31" pos="11322" len="6" />
          <note tone="2" pan="0" oct="5" vol="41" pos="11328" len="6" />
          <note tone="9" pan="0" oct="5" vol="35" pos="11334" len="6" />
          <note tone="4" pan="0" oct="5" vol="39" pos="11340" len="6" />
          <note tone="9" pan="0" oct="5" vol="28" pos="11346" len="6" />
          <note tone="5" pan="0" oct="5" vol="41" pos="11352" len="6" />
          <note tone="9" pan="0" oct="5" vol="31" pos="11358" len="6" />
          <note tone="5" pan="0" oct="5" vol="28" pos="11364" len="6" />
          <note tone="11" pan="0" oct="5" vol="32" pos="11370" len="6" />
          <note tone="5" pan="0" oct="5" vol="45" pos="11376" len="6" />
          <note tone="0" pan="0" oct="6" vol="39" pos="11382" len="6" />
          <note tone="2" pan="0" oct="5" vol="32" pos="11388" len="6" />
          <note tone="2" pan="0" oct="6" vol="24" pos="11394" len="6" />
          <note tone="4" pan="0" oct="5" vol="39" pos="11400" len="6" />
          <note tone="2" pan="0" oct="6" vol="29" pos="11406" len="6" />
          <note tone="5" pan="0" oct="5" vol="45" pos="11412" len="6" />
          <note tone="2" pan="0" oct="6" vol="29" pos="11418" len="6" />
          <note tone="7" pan="0" oct="5" vol="42" pos="11424" len="6" />
          <note tone="11" pan="0" oct="5" vol="33" pos="11430" len="6" />
          <note tone="7" pan="0" oct="5" vol="38" pos="11436" len="6" />
          <note tone="0" pan="0" oct="6" vol="37" pos="11442" len="6" />
          <note tone="7" pan="0" oct="5" vol="40" pos="11448" len="6" />
          <note tone="2" pan="0" oct="6" vol="28" pos="11454" len="6" />
          <note tone="4" pan="0" oct="5" vol="29" pos="11460" len="6" />
          <note tone="4" pan="0" oct="6" vol="26" pos="11466" len="6" />
          <note tone="5" pan="0" oct="5" vol="53" pos="11472" len="6" />
          <note tone="4" pan="0" oct="6" vol="38" pos="11478" len="6" />
          <note tone="7" pan="0" oct="5" vol="35" pos="11484" len="6" />
          <note tone="4" pan="0" oct="6" vol="36" pos="11490" len="6" />
          <note tone="9" pan="0" oct="5" vol="42" pos="11496" len="6" />
          <note tone="0" pan="0" oct="6" vol="34" pos="11502" len="6" />
          <note tone="9" pan="0" oct="5" vol="27" pos="11508" len="6" />
          <note tone="2" pan="0" oct="6" vol="39" pos="11514" len="6" />
          <note tone="9" pan="0" oct="5" vol="37" pos="11520" len="6" />
          <note tone="4" pan="0" oct="6" vol="18" pos="11526" len="6" />
          <note tone="5" pan="0" oct="6" vol="39" pos="11532" len="24" />
          <note tone="11" pan="0" oct="5" vol="35" pos="11568" len="12" />
          <note tone="0" pan="0" oct="6" vol="25" pos="11580" len="12" />
          <note tone="2" pan="0" oct="6" vol="30" pos="11592" len="12" />
          <note tone="4" pan="0" oct="6" vol="33" pos="11604" len="24" />
          <note tone="9" pan="0" oct="5" vol="48" pos="11640" len="12" />
          <note tone="11" pan="0" oct="5" vol="49" pos="11652" len="12" />
          <note tone="1" pan="0" oct="6" vol="27" pos="11664" len="12" />
          <note tone="2" pan="0" oct="6" vol="32" pos="11676" len="12" />
          <note tone="1" pan="0" oct="6" vol="28" pos="11688" len="12" />
          <note tone="2" pan="0" oct="6" vol="32" pos="11700" len="24" />
          <note tone="0" pan="0" oct="6" vol="38" pos="11724" len="6" />
          <note tone="11" pan="0" oct="5" vol="30" pos="11730" len="6" />
          <note tone="9" pan="0" oct="5" vol="42" pos="11736" len="6" />
          <note tone="8" pan="0" oct="5" vol="42" pos="11742" len="6" />
          <note tone="4" pan="0" oct="6" vol="27" pos="11748" len="12" />
          <note tone="9" pan="0" oct="5" vol="24" pos="11760" len="12" />
          <note tone="11" pan="0" oct="5" vol="35" pos="11772" len="12" />
          <note tone="0" pan="0" oct="6" vol="28" pos="11784" len="6" />
          <note tone="2" pan="0" oct="6" vol="28" pos="11790" len="6" />
          <note tone="2" pan="0" oct="6" vol="25" pos="11796" len="3" />
          <note tone="4" pan="0" oct="6" vol="28" pos="11799" len="3" />
          <note tone="2" pan="0" oct="6" vol="21" pos="11802" len="3" />
          <note tone="0" pan="0" oct="6" vol="29" pos="11805" len="3" />
          <note tone="2" pan="0" oct="6" vol="37" pos="11808" len="6" />
          <note tone="0" pan="0" oct="6" vol="29" pos="11814" len="3" />
          <note tone="2" pan="0" oct="6" vol="36" pos="11817" len="3" />
          <note tone="4" pan="0" oct="6" vol="39" pos="11820" len="72" />
          <note tone="4" pan="0" oct="6" vol="44" pos="11892" len="72" />
          <note tone="4" pan="0" oct="6" vol="42" pos="11964" len="36" />
          <note tone="4" pan="0" oct="6" vol="41" pos="12000" len="36" />
          <note tone="4" pan="0" oct="6" vol="44" pos="12036" len="24" />
          <note tone="4" pan="0" oct="6" vol="40" pos="12060" len="12" />
          <note tone="4" pan="0" oct="6" vol="39" pos="12072" len="36" />
          <note tone="2" pan="0" oct="6" vol="36" pos="12108" len="36" />
          <note tone="2" pan="0" oct="6" vol="25" pos="12144" len="36" />
          <note tone="0" pan="0" oct="6" vol="42" pos="12180" len="36" />
          <note tone="0" pan="0" oct="6" vol="39" pos="12216" len="36" />
          <note tone="11" pan="0" oct="5" vol="39" pos="12252" len="36" />
          <note tone="11" pan="0" oct="5" vol="29" pos="12288" len="12" />
          <note tone="9" pan="0" oct="5" vol="37" pos="12300" len="12" />
          <note tone="8" pan="0" oct="5" vol="40" pos="12312" len="12" />
          <note tone="9" pan="0" oct="5" vol="41" pos="12324" len="6" />
          <note tone="8" pan="0" oct="5" vol="28" pos="12330" len="6" />
          <note tone="9" pan="0" oct="5" vol="40" pos="12336" len="6" />
          <note tone="0" pan="0" oct="6" vol="30" pos="12342" len="6" />
          <note tone="11" pan="0" oct="5" vol="23" pos="12348" len="6" />
          <note tone="2" pan="0" oct="6" vol="37" pos="12354" len="6" />
          <note tone="0" pan="0" oct="6" vol="33" pos="12360" len="6" />
          <note tone="11" pan="0" oct="5" vol="28" pos="12366" len="6" />
          <note tone="0" pan="0" oct="6" vol="32" pos="12372" len="6" />
          <note tone="9" pan="0" oct="5" vol="37" pos="12378" len="6" />
          <note tone="2" pan="0" oct="6" vol="32" pos="12384" len="6" />
          <note tone="11" pan="0" oct="5" vol="17" pos="12390" len="6" />
          <note tone="0" pan="0" oct="6" vol="36" pos="12396" len="6" />
          <note tone="11" pan="0" oct="5" vol="28" pos="12402" len="6" />
          <note tone="0" pan="0" oct="6" vol="35" pos="12408" len="6" />
          <note tone="9" pan="0" oct="5" vol="21" pos="12414" len="6" />
          <note tone="2" pan="0" oct="6" vol="32" pos="12420" len="6" />
          <note tone="8" pan="0" oct="5" vol="33" pos="12426" len="6" />
          <note tone="9" pan="0" oct="5" vol="39" pos="12432" len="6" />
          <note tone="8" pan="0" oct="5" vol="28" pos="12438" len="6" />
          <note tone="9" pan="0" oct="5" vol="33" pos="12444" len="6" />
          <note tone="4" pan="0" oct="5" vol="31" pos="12450" len="6" />
          <note tone="11" pan="0" oct="5" vol="34" pos="12456" len="6" />
          <note tone="4" pan="0" oct="5" vol="27" pos="12462" len="6" />
          <note tone="0" pan="0" oct="6" vol="31" pos="12468" len="6" />
          <note tone="11" pan="0" oct="5" vol="32" pos="12474" len="6" />
          <note tone="0" pan="0" oct="6" vol="26" pos="12480" len="6" />
          <note tone="4" pan="0" oct="5" vol="23" pos="12486" len="6" />
          <note tone="2" pan="0" oct="6" vol="35" pos="12492" len="6" />
          <note tone="4" pan="0" oct="5" vol="55" pos="12498" len="6" />
          <note tone="4" pan="0" oct="6" vol="41" pos="12504" len="6" />
          <note tone="5" pan="0" oct="6" vol="39" pos="12510" len="6" />
          <note tone="4" pan="0" oct="6" vol="34" pos="12516" len="6" />
          <note tone="2" pan="0" oct="6" vol="33" pos="12522" len="6" />
          <note tone="0" pan="0" oct="6" vol="10" pos="12528" len="6" />
          <note tone="11" pan="0" oct="5" vol="23" pos="12534" len="6" />
          <note tone="0" pan="0" oct="6" vol="25" pos="12540" len="6" />
          <note tone="2" pan="0" oct="6" vol="42" pos="12546" len="6" />
          <note tone="0" pan="0" oct="6" vol="28" pos="12552" len="6" />
          <note tone="11" pan="0" oct="5" vol="26" pos="12558" len="6" />
          <note tone="0" pan="0" oct="6" vol="32" pos="12564" len="6" />
          <note tone="9" pan="0" oct="5" vol="44" pos="12570" len="6" />
          <note tone="5" pan="0" oct="6" vol="42" pos="12576" len="6" />
          <note tone="7" pan="0" oct="6" vol="39" pos="12582" len="6" />
          <note tone="5" pan="0" oct="6" vol="39" pos="12588" len="6" />
          <note tone="4" pan="0" oct="6" vol="29" pos="12594" len="6" />
          <note tone="2" pan="0" oct="6" vol="33" pos="12600" len="6" />
          <note tone="0" pan="0" oct="6" vol="44" pos="12606" len="6" />
          <note tone="11" pan="0" oct="5" vol="32" pos="12612" len="6" />
          <note tone="0" pan="0" oct="6" vol="27" pos="12618" len="6" />
          <note tone="11" pan="0" oct="5" vol="28" pos="12624" len="6" />
          <note tone="9" pan="0" oct="5" vol="29" pos="12630" len="6" />
          <note tone="11" pan="0" oct="5" vol="34" pos="12636" len="6" />
          <note tone="7" pan="0" oct="5" vol="46" pos="12642" len="6" />
          <note tone="7" pan="0" oct="6" vol="28" pos="12648" len="6" />
          <note tone="9" pan="0" oct="6" vol="33" pos="12654" len="6" />
          <note tone="7" pan="0" oct="6" vol="37" pos="12660" len="6" />
          <note tone="5" pan="0" oct="6" vol="25" pos="12666" len="6" />
          <note tone="4" pan="0" oct="6" vol="20" pos="12672" len="6" />
          <note tone="2" pan="0" oct="6" vol="17" pos="12678" len="6" />
          <note tone="4" pan="0" oct="6" vol="42" pos="12684" len="6" />
          <note tone="5" pan="0" oct="6" vol="37" pos="12690" len="6" />
          <note tone="4" pan="0" oct="6" vol="52" pos="12696" len="6" />
          <note tone="2" pan="0" oct="6" vol="46" pos="12702" len="6" />
          <note tone="0" pan="0" oct="6" vol="46" pos="12708" len="6" />
          <note tone="11" pan="0" oct="5" vol="27" pos="12714" len="6" />
          <note tone="0" pan="0" oct="6" vol="39" pos="12720" len="6" />
          <note tone="2" pan="0" oct="6" vol="38" pos="12726" len="6" />
          <note tone="0" pan="0" oct="6" vol="41" pos="12732" len="6" />
          <note tone="11" pan="0" oct="5" vol="35" pos="12738" len="6" />
          <note tone="9" pan="0" oct="5" vol="48" pos="12744" len="6" />
          <note tone="8" pan="0" oct="5" vol="39" pos="12750" len="6" />
          <note tone="9" pan="0" oct="5" vol="37" pos="12756" len="6" />
          <note tone="11" pan="0" oct="5" vol="39" pos="12762" len="6" />
          <note tone="9" pan="0" oct="5" vol="32" pos="12768" len="6" />
          <note tone="7" pan="0" oct="5" vol="46" pos="12774" len="6" />
          <note tone="6" pan="0" oct="5" vol="33" pos="12780" len="6" />
          <note tone="4" pan="0" oct="5" vol="39" pos="12786" len="6" />
          <note tone="3" pan="0" oct="5" vol="32" pos="12792" len="6" />
          <note tone="6" pan="0" oct="5" vol="34" pos="12798" len="6" />
          <note tone="11" pan="0" oct="5" vol="35" pos="12804" len="30" />
          <note tone="4" pan="0" oct="5" vol="35" pos="12834" len="6" />
          <note tone="4" pan="0" oct="6" vol="31" pos="12840" len="30" />
          <note tone="9" pan="0" oct="5" vol="48" pos="12870" len="6" />
          <note tone="9" pan="0" oct="6" vol="34" pos="12876" len="6" />
          <note tone="7" pan="0" oct="6" vol="36" pos="12882" len="6" />
          <note tone="6" pan="0" oct="6" vol="33" pos="12888" len="6" />
          <note tone="4" pan="0" oct="6" vol="42" pos="12894" len="6" />
          <note tone="3" pan="0" oct="6" vol="33" pos="12900" len="48" />
          <note tone="4" pan="0" oct="6" vol="38" pos="12948" len="12" />
          <note tone="2" pan="0" oct="6" vol="39" pos="12960" len="24" />
          <note tone="0" pan="0" oct="6" vol="35" pos="12984" len="12" />
          <note tone="11" pan="0" oct="5" vol="35" pos="12996" len="24" />
          <note tone="9" pan="0" oct="5" vol="37" pos="13020" len="12" />
          <note tone="7" pan="0" oct="5" vol="35" pos="13032" len="24" />
          <note tone="5" pan="0" oct="5" vol="28" pos="13056" len="12" />
          <note tone="4" pan="0" oct="5" vol="39" pos="13068" len="12" />
          <note tone="3" pan="0" oct="5" vol="28" pos="13080" len="6" />
          <note tone="6" pan="0" oct="5" vol="23" pos="13086" len="6" />
          <note tone="9" pan="0" oct="5" vol="43" pos="13092" len="6" />
          <note tone="0" pan="0" oct="6" vol="37" pos="13098" len="6" />
          <note tone="11" pan="0" oct="5" vol="39" pos="13104" len="18" />
          <note tone="9" pan="0" oct="5" vol="38" pos="13122" len="6" />
          <note tone="7" pan="0" oct="5" vol="37" pos="13128" len="12" />
          <note tone="6" pan="0" oct="5" vol="31" pos="13140" len="12" />
          <note tone="4" pan="0" oct="5" vol="45" pos="13152" len="12" />
          <note tone="11" pan="0" oct="5" vol="38" pos="13164" len="12" />
          <note tone="4" pan="0" oct="6" vol="32" pos="13176" len="24" />
          <note tone="3" pan="0" oct="6" vol="32" pos="13200" len="6" />
          <note tone="1" pan="0" oct="6" vol="29" pos="13206" len="6" />
          <note tone="3" pan="0" oct="6" vol="30" pos="13212" len="12" />
          <note tone="4" pan="0" oct="6" vol="52" pos="13224" len="6" />
          <note tone="6" pan="0" oct="6" vol="40" pos="13230" len="6" />
          <note tone="7" pan="0" oct="6" vol="40" pos="13236" len="6" />
          <note tone="6" pan="0" oct="6" vol="32" pos="13242" len="6" />
          <note tone="7" pan="0" oct="6" vol="34" pos="13248" len="6" />
          <note tone="4" pan="0" oct="6" vol="26" pos="13254" len="6" />
          <note tone="6" pan="0" oct="6" vol="32" pos="13260" len="6" />
          <note tone="11" pan="0" oct="5" vol="34" pos="13266" len="6" />
          <note tone="3" pan="0" oct="6" vol="32" pos="13272" len="6" />
          <note tone="6" pan="0" oct="6" vol="34" pos="13278" len="6" />
          <note tone="9" pan="0" oct="6" vol="40" pos="13284" len="6" />
          <note tone="6" pan="0" oct="6" vol="28" pos="13290" len="6" />
          <note tone="7" pan="0" oct="6" vol="35" pos="13296" len="24" />
          <note tone="11" pan="0" oct="6" vol="36" pos="13320" len="12" />
          <note tone="9" pan="0" oct="6" vol="46" pos="13332" len="12" />
          <note tone="6" pan="0" oct="6" vol="33" pos="13344" len="24" />
          <note tone="4" pan="0" oct="6" vol="34" pos="13368" len="36" />
          <note tone="4" pan="0" oct="6" vol="17" pos="13404" len="36" />
          <note tone="2" pan="0" oct="6" vol="39" pos="13440" len="72" />
          <note tone="0" pan="0" oct="6" vol="34" pos="13512" len="72" />
          <note tone="11" pan="0" oct="5" vol="29" pos="13584" len="36" />
          <note tone="7" pan="0" oct="5" vol="35" pos="13620" len="7" />
          <note tone="4" pan="0" oct="5" vol="38" pos="13620" len="7" />
          <note tone="11" pan="0" oct="5" vol="45" pos="13620" len="7" />
          <note tone="11" pan="0" oct="4" vol="39" pos="13632" len="7" />
          <note tone="4" pan="0" oct="5" vol="45" pos="13632" len="7" />
          <note tone="7" pan="0" oct="5" vol="39" pos="13632" len="7" />
          <note tone="7" pan="0" oct="5" vol="35" pos="13644" len="7" />
          <note tone="11" pan="0" oct="5" vol="33" pos="13644" len="7" />
          <note tone="4" pan="0" oct="6" vol="46" pos="13644" len="7" />
          <note tone="4" pan="0" oct="5" vol="32" pos="13656" len="7" />
          <note tone="1" pan="0" oct="6" vol="40" pos="13656" len="7" />
          <note tone="9" pan="0" oct="5" vol="41" pos="13656" len="7" />
          <note tone="9" pan="0" oct="5" vol="36" pos="13668" len="7" />
          <note tone="1" pan="0" oct="5" vol="35" pos="13668" len="7" />
          <note tone="4" pan="0" oct="5" vol="39" pos="13668" len="7" />
          <note tone="1" pan="0" oct="6" vol="31" pos="13680" len="7" />
          <note tone="4" pan="0" oct="5" vol="33" pos="13680" len="7" />
          <note tone="9" pan="0" oct="5" vol="37" pos="13680" len="7" />
          <note tone="9" pan="0" oct="5" vol="40" pos="13692" len="7" />
          <note tone="5" pan="0" oct="5" vol="33" pos="13692" len="7" />
          <note tone="2" pan="0" oct="6" vol="48" pos="13692" len="7" />
          <note tone="5" pan="0" oct="5" vol="32" pos="13704" len="7" />
          <note tone="2" pan="0" oct="5" vol="32" pos="13704" len="7" />
          <note tone="9" pan="0" oct="5" vol="41" pos="13704" len="7" />
          <note tone="5" pan="0" oct="5" vol="27" pos="13716" len="7" />
          <note tone="9" pan="0" oct="5" vol="27" pos="13716" len="7" />
          <note tone="2" pan="0" oct="6" vol="42" pos="13716" len="7" />
          <note tone="2" pan="0" oct="5" vol="29" pos="13728" len="7" />
          <note tone="11" pan="0" oct="5" vol="43" pos="13728" len="7" />
          <note tone="7" pan="0" oct="5" vol="46" pos="13728" len="7" />
          <note tone="11" pan="0" oct="4" vol="43" pos="13740" len="7" />
          <note tone="7" pan="0" oct="5" vol="42" pos="13740" len="7" />
          <note tone="2" pan="0" oct="5" vol="46" pos="13740" len="7" />
          <note tone="11" pan="0" oct="5" vol="19" pos="13752" len="7" />
          <note tone="7" pan="0" oct="5" vol="47" pos="13752" len="7" />
          <note tone="2" pan="0" oct="5" vol="27" pos="13752" len="7" />
          <note tone="7" pan="0" oct="5" vol="42" pos="13764" len="7" />
          <note tone="0" pan="0" oct="6" vol="44" pos="13764" len="7" />
          <note tone="4" pan="0" oct="5" vol="37" pos="13764" len="7" />
          <note tone="4" pan="0" oct="6" vol="44" pos="13776" len="7" />
          <note tone="0" pan="0" oct="6" vol="44" pos="13776" len="7" />
          <note tone="7" pan="0" oct="5" vol="35" pos="13776" len="7" />
          <note tone="4" pan="0" oct="5" vol="34" pos="13788" len="7" />
          <note tone="7" pan="0" oct="5" vol="34" pos="13788" len="7" />
          <note tone="0" pan="0" oct="6" vol="49" pos="13788" len="7" />
          <note tone="0" pan="0" oct="5" vol="37" pos="13800" len="7" />
          <note tone="5" pan="0" oct="5" vol="27" pos="13800" len="7" />
          <note tone="9" pan="0" oct="5" vol="47" pos="13800" len="7" />
          <note tone="5" pan="0" oct="5" vol="45" pos="13812" len="7" />
          <note tone="9" pan="0" oct="4" vol="40" pos="13812" len="7" />
          <note tone="0" pan="0" oct="5" vol="42" pos="13812" len="7" />
          <note tone="5" pan="0" oct="5" vol="31" pos="13824" len="7" />
          <note tone="9" pan="0" oct="5" vol="42" pos="13824" len="7" />
          <note tone="0" pan="0" oct="5" vol="32" pos="13824" len="7" />
          <note tone="5" pan="0" oct="5" vol="39" pos="13836" len="7" />
          <note tone="2" pan="0" oct="5" vol="44" pos="13836" len="7" />
          <note tone="11" pan="0" oct="5" vol="39" pos="13836" len="7" />
          <note tone="5" pan="0" oct="5" vol="32" pos="13848" len="7" />
          <note tone="2" pan="0" oct="6" vol="35" pos="13848" len="7" />
          <note tone="11" pan="0" oct="5" vol="37" pos="13848" len="7" />
          <note tone="5" pan="0" oct="5" vol="34" pos="13860" len="7" />
          <note tone="11" pan="0" oct="5" vol="46" pos="13860" len="7" />
          <note tone="2" pan="0" oct="5" vol="28" pos="13860" len="7" />
          <note tone="11" pan="0" oct="4" vol="28" pos="13872" len="7" />
          <note tone="8" pan="0" oct="5" vol="35" pos="13872" len="7" />
          <note tone="4" pan="0" oct="5" vol="41" pos="13872" len="7" />
          <note tone="4" pan="0" oct="5" vol="35" pos="13884" len="7" />
          <note tone="8" pan="0" oct="4" vol="33" pos="13884" len="7" />
          <note tone="11" pan="0" oct="4" vol="41" pos="13884" len="7" />
          <note tone="11" pan="0" oct="4" vol="39" pos="13896" len="7" />
          <note tone="8" pan="0" oct="5" vol="32" pos="13896" len="7" />
          <note tone="4" pan="0" oct="5" vol="39" pos="13896" len="7" />
          <note tone="0" pan="0" oct="5" vol="44" pos="13908" len="12" />
          <note tone="9" pan="0" oct="5" vol="39" pos="13908" len="12" />
          <note tone="4" pan="0" oct="5" vol="32" pos="13908" len="6" />
          <note tone="6" pan="0" oct="5" vol="22" pos="13914" len="6" />
          <note tone="7" pan="0" oct="5" vol="30" pos="13920" len="6" />
          <note tone="9" pan="0" oct="5" vol="25" pos="13926" len="6" />
          <note tone="11" pan="0" oct="5" vol="28" pos="13932" len="6" />
          <note tone="4" pan="0" oct="5" vol="36" pos="13938" len="6" />
          <note tone="9" pan="0" oct="5" vol="26" pos="13944" len="6" />
          <note tone="11" pan="0" oct="5" vol="25" pos="13950" len="6" />
          <note tone="0" pan="0" oct="6" vol="37" pos="13956" len="6" />
          <note tone="2" pan="0" oct="6" vol="30" pos="13962" len="6" />
          <note tone="4" pan="0" oct="6" vol="47" pos="13968" len="6" />
          <note tone="5" pan="0" oct="6" vol="37" pos="13974" len="6" />
          <note tone="8" pan="0" oct="5" vol="22" pos="13980" len="6" />
          <note tone="9" pan="0" oct="5" vol="26" pos="13986" len="6" />
          <note tone="11" pan="0" oct="5" vol="22" pos="13992" len="6" />
          <note tone="0" pan="0" oct="6" vol="28" pos="13998" len="6" />
          <note tone="2" pan="0" oct="6" vol="42" pos="14004" len="6" />
          <note tone="4" pan="0" oct="6" vol="27" pos="14010" len="6" />
          <note tone="5" pan="0" oct="6" vol="32" pos="14016" len="6" />
          <note tone="4" pan="0" oct="6" vol="30" pos="14022" len="6" />
          <note tone="2" pan="0" oct="6" vol="36" pos="14028" len="6" />
          <note tone="5" pan="0" oct="6" vol="37" pos="14034" len="6" />
          <note tone="4" pan="0" oct="6" vol="28" pos="14040" len="6" />
          <note tone="2" pan="0" oct="6" vol="25" pos="14046" len="6" />
          <note tone="0" pan="0" oct="6" vol="37" pos="14052" len="6" />
          <note tone="4" pan="0" oct="6" vol="28" pos="14058" len="6" />
          <note tone="2" pan="0" oct="6" vol="26" pos="14064" len="6" />
          <note tone="0" pan="0" oct="6" vol="35" pos="14070" len="6" />
          <note tone="11" pan="0" oct="5" vol="28" pos="14076" len="6" />
          <note tone="9" pan="0" oct="5" vol="30" pos="14082" len="6" />
          <note tone="8" pan="0" oct="5" vol="25" pos="14088" len="36" />
          <note tone="9" pan="0" oct="5" vol="35" pos="14124" len="36" />
          <note tone="11" pan="0" oct="5" vol="25" pos="14160" len="36" />
          <note tone="0" pan="0" oct="6" vol="21" pos="14196" len="36" />
          <note tone="2" pan="0" oct="6" vol="39" pos="14232" len="72" />
          <note tone="0" pan="0" oct="6" vol="36" pos="14304" len="72" />
          <note tone="11" pan="0" oct="5" vol="29" pos="14376" len="36" />
          <note tone="11" pan="0" oct="5" vol="35" pos="14412" len="12" />
          <note tone="0" pan="0" oct="6" vol="22" pos="14424" len="12" />
          <note tone="2" pan="0" oct="6" vol="33" pos="14436" len="12" />
          <note tone="0" pan="0" oct="6" vol="34" pos="14448" len="12" />
          <note tone="2" pan="0" oct="6" vol="23" pos="14460" len="12" />
          <note tone="4" pan="0" oct="6" vol="22" pos="14472" len="12" />
          <note tone="5" pan="0" oct="6" vol="42" pos="14484" len="12" />
          <note tone="4" pan="0" oct="6" vol="31" pos="14496" len="12" />
          <note tone="2" pan="0" oct="6" vol="31" pos="14508" len="12" />
          <note tone="0" pan="0" oct="6" vol="30" pos="14520" len="36" />
          <note tone="0" pan="0" oct="6" vol="26" pos="14556" len="12" />
          <note tone="9" pan="0" oct="6" vol="44" pos="14568" len="12" />
          <note tone="0" pan="0" oct="6" vol="32" pos="14580" len="12" />
          <note tone="11" pan="0" oct="5" vol="30" pos="14592" len="36" />
          <note tone="10" pan="0" oct="5" vol="28" pos="14628" len="12" />
          <note tone="7" pan="0" oct="6" vol="51" pos="14640" len="12" />
          <note tone="10" pan="0" oct="5" vol="18" pos="14652" len="12" />
          <note tone="9" pan="0" oct="5" vol="32" pos="14664" len="36" />
          <note tone="9" pan="0" oct="5" vol="15" pos="14700" len="7" />
          <note tone="5" pan="0" oct="6" vol="46" pos="14712" len="7" />
          <note tone="9" pan="0" oct="5" vol="32" pos="14724" len="7" />
          <note tone="8" pan="0" oct="5" vol="21" pos="14736" len="7" />
          <note tone="4" pan="0" oct="6" vol="46" pos="14748" len="7" />
          <note tone="8" pan="0" oct="5" vol="29" pos="14760" len="7" />
          <note tone="9" pan="0" oct="5" vol="37" pos="14772" len="7" />
          <note tone="4" pan="0" oct="6" vol="42" pos="14784" len="7" />
          <note tone="9" pan="0" oct="5" vol="38" pos="14796" len="7" />
          <note tone="11" pan="0" oct="5" vol="36" pos="14808" len="7" />
          <note tone="4" pan="0" oct="6" vol="46" pos="14820" len="7" />
          <note tone="11" pan="0" oct="5" vol="39" pos="14832" len="7" />
          <note tone="0" pan="0" oct="6" vol="39" pos="14844" len="7" />
          <note tone="6" pan="0" oct="6" vol="29" pos="14856" len="7" />
          <note tone="0" pan="0" oct="6" vol="27" pos="14868" len="7" />
          <note tone="2" pan="0" oct="6" vol="36" pos="14880" len="7" />
          <note tone="5" pan="0" oct="6" vol="35" pos="14892" len="7" />
          <note tone="2" pan="0" oct="6" vol="27" pos="14904" len="7" />
          <note tone="0" pan="0" oct="6" vol="30" pos="14916" len="7" />
          <note tone="4" pan="0" oct="6" vol="33" pos="14928" len="7" />
          <note tone="0" pan="0" oct="6" vol="38" pos="14940" len="7" />
          <note tone="11" pan="0" oct="5" vol="32" pos="14952" len="7" />
          <note tone="2" pan="0" oct="6" vol="32" pos="14964" len="7" />
          <note tone="11" pan="0" oct="5" vol="29" pos="14976" len="7" />
          <note tone="9" pan="0" oct="5" vol="30" pos="14988" len="7" />
          <note tone="0" pan="0" oct="6" vol="32" pos="15000" len="7" />
          <note tone="9" pan="0" oct="5" vol="26" pos="15012" len="7" />
          <note tone="8" pan="0" oct="5" vol="21" pos="15024" len="24" />
          <note tone="11" pan="0" oct="5" vol="36" pos="15060" len="24" />
          <note tone="2" pan="0" oct="6" vol="17" pos="15096" len="24" />
          <note tone="5" pan="0" oct="6" vol="40" pos="15132" len="24" />
          <note tone="4" pan="0" oct="6" vol="27" pos="15168" len="24" />
          <note tone="9" pan="0" oct="6" vol="21" pos="15531" len="3" />
          <note tone="11" pan="0" oct="6" vol="21" pos="15534" len="3" />
          <note tone="0" pan="0" oct="7" vol="28" pos="15537" len="3" />
          <note tone="11" pan="0" oct="6" vol="25" pos="15540" len="3" />
          <note tone="9" pan="0" oct="6" vol="40" pos="15543" len="3" />
          <note tone="8" pan="0" oct="6" vol="31" pos="15546" len="3" />
          <note tone="9" pan="0" oct="6" vol="30" pos="15549" len="3" />
          <note tone="6" pan="0" oct="6" vol="26" pos="15552" len="3" />
          <note tone="9" pan="0" oct="6" vol="17" pos="15555" len="3" />
          <note tone="11" pan="0" oct="6" vol="25" pos="15558" len="3" />
          <note tone="0" pan="0" oct="7" vol="32" pos="15561" len="3" />
          <note tone="3" pan="0" oct="6" vol="24" pos="15564" len="3" />
          <note tone="9" pan="0" oct="6" vol="15" pos="15567" len="3" />
          <note tone="11" pan="0" oct="6" vol="17" pos="15570" len="3" />
          <note tone="0" pan="0" oct="7" vol="36" pos="15573" len="3" />
          <note tone="11" pan="0" oct="6" vol="29" pos="15576" len="3" />
          <note tone="9" pan="0" oct="6" vol="25" pos="15579" len="3" />
          <note tone="8" pan="0" oct="6" vol="21" pos="15582" len="3" />
          <note tone="9" pan="0" oct="6" vol="34" pos="15585" len="3" />
          <note tone="3" pan="0" oct="6" vol="17" pos="15588" len="3" />
          <note tone="6" pan="0" oct="6" vol="32" pos="15591" len="3" />
          <note tone="8" pan="0" oct="6" vol="32" pos="15594" len="3" />
          <note tone="9" pan="0" oct="6" vol="38" pos="15597" len="3" />
          <note tone="0" pan="0" oct="6" vol="27" pos="15600" len="3" />
          <note tone="9" pan="0" oct="6" vol="19" pos="15603" len="3" />
          <note tone="11" pan="0" oct="6" vol="21" pos="15606" len="3" />
          <note tone="0" pan="0" oct="7" vol="23" pos="15609" len="3" />
          <note tone="11" pan="0" oct="6" vol="34" pos="15612" len="3" />
          <note tone="9" pan="0" oct="6" vol="36" pos="15615" len="3" />
          <note tone="8" pan="0" oct="6" vol="23" pos="15618" len="3" />
          <note tone="9" pan="0" oct="6" vol="32" pos="15621" len="3" />
          <note tone="0" pan="0" oct="6" vol="21" pos="15624" len="3" />
          <note tone="3" pan="0" oct="6" vol="21" pos="15627" len="3" />
          <note tone="4" pan="0" oct="6" vol="25" pos="15630" len="3" />
          <note tone="6" pan="0" oct="6" vol="23" pos="15633" len="3" />
          <note tone="9" pan="0" oct="5" vol="39" pos="15636" len="3" />
          <note tone="9" pan="0" oct="6" vol="21" pos="15639" len="3" />
          <note tone="11" pan="0" oct="6" vol="24" pos="15642" len="3" />
          <note tone="0" pan="0" oct="7" vol="37" pos="15645" len="3" />
          <note tone="11" pan="0" oct="6" vol="33" pos="15648" len="3" />
          <note tone="9" pan="0" oct="6" vol="36" pos="15651" len="3" />
          <note tone="8" pan="0" oct="6" vol="25" pos="15654" len="3" />
          <note tone="9" pan="0" oct="6" vol="35" pos="15657" len="3" />
          <note tone="6" pan="0" oct="6" vol="22" pos="15660" len="3" />
          <note tone="9" pan="0" oct="6" vol="24" pos="15663" len="3" />
          <note tone="11" pan="0" oct="6" vol="27" pos="15666" len="3" />
          <note tone="0" pan="0" oct="7" vol="32" pos="15669" len="3" />
          <note tone="3" pan="0" oct="6" vol="17" pos="15672" len="3" />
          <note tone="6" pan="0" oct="6" vol="31" pos="15675" len="3" />
          <note tone="7" pan="0" oct="6" vol="18" pos="15678" len="3" />
          <note tone="9" pan="0" oct="6" vol="27" pos="15681" len="3" />
          <note tone="0" pan="0" oct="6" vol="21" pos="15684" len="3" />
          <note tone="3" pan="0" oct="6" vol="25" pos="15687" len="3" />
          <note tone="4" pan="0" oct="6" vol="30" pos="15690" len="3" />
          <note tone="6" pan="0" oct="6" vol="27" pos="15693" len="3" />
          <note tone="9" pan="0" oct="5" vol="22" pos="15696" len="3" />
          <note tone="0" pan="0" oct="6" vol="32" pos="15699" len="3" />
          <note tone="11" pan="0" oct="5" vol="23" pos="15702" len="3" />
          <note tone="9" pan="0" oct="5" vol="44" pos="15705" len="3" />
          <note tone="8" pan="0" oct="5" vol="25" pos="15708" len="3" />
          <note tone="11" pan="0" oct="5" vol="32" pos="15711" len="3" />
          <note tone="0" pan="0" oct="6" vol="30" pos="15714" len="3" />
          <note tone="2" pan="0" oct="6" vol="22" pos="15717" len="3" />
          <note tone="0" pan="0" oct="6" vol="33" pos="15720" len="3" />
          <note tone="11" pan="0" oct="5" vol="32" pos="15723" len="3" />
          <note tone="9" pan="0" oct="5" vol="26" pos="15726" len="3" />
          <note tone="11" pan="0" oct="5" vol="32" pos="15729" len="3" />
          <note tone="8" pan="0" oct="5" vol="25" pos="15732" len="3" />
          <note tone="11" pan="0" oct="5" vol="38" pos="15735" len="3" />
          <note tone="0" pan="0" oct="6" vol="26" pos="15738" len="3" />
          <note tone="2" pan="0" oct="6" vol="27" pos="15741" len="3" />
          <note tone="5" pan="0" oct="5" vol="37" pos="15744" len="3" />
          <note tone="11" pan="0" oct="5" vol="23" pos="15747" len="3" />
          <note tone="0" pan="0" oct="6" vol="21" pos="15750" len="3" />
          <note tone="2" pan="0" oct="6" vol="29" pos="15753" len="3" />
          <note tone="0" pan="0" oct="6" vol="25" pos="15756" len="3" />
          <note tone="11" pan="0" oct="5" vol="23" pos="15759" len="3" />
          <note tone="9" pan="0" oct="5" vol="27" pos="15762" len="3" />
          <note tone="11" pan="0" oct="5" vol="21" pos="15765" len="3" />
          <note tone="11" pan="0" oct="5" vol="31" pos="15771" len="3" />
          <note tone="0" pan="0" oct="6" vol="24" pos="15774" len="3" />
          <note tone="2" pan="0" oct="6" vol="23" pos="15777" len="3" />
          <note tone="11" pan="0" oct="5" vol="32" pos="15783" len="3" />
          <note tone="0" pan="0" oct="6" vol="32" pos="15786" len="3" />
          <note tone="2" pan="0" oct="6" vol="39" pos="15789" len="3" />
          <note tone="0" pan="0" oct="6" vol="29" pos="15792" len="3" />
          <note tone="11" pan="0" oct="5" vol="32" pos="15795" len="3" />
          <note tone="9" pan="0" oct="5" vol="25" pos="15798" len="3" />
          <note tone="11" pan="0" oct="5" vol="38" pos="15801" len="3" />
          <note tone="11" pan="0" oct="5" vol="26" pos="15807" len="3" />
          <note tone="0" pan="0" oct="6" vol="37" pos="15810" len="3" />
          <note tone="2" pan="0" oct="6" vol="32" pos="15813" len="3" />
          <note tone="11" pan="0" oct="5" vol="36" pos="15819" len="3" />
          <note tone="0" pan="0" oct="6" vol="25" pos="15822" len="3" />
          <note tone="2" pan="0" oct="6" vol="17" pos="15825" len="3" />
          <note tone="0" pan="0" oct="6" vol="25" pos="15828" len="3" />
          <note tone="11" pan="0" oct="5" vol="28" pos="15831" len="3" />
          <note tone="9" pan="0" oct="5" vol="34" pos="15834" len="3" />
          <note tone="11" pan="0" oct="5" vol="35" pos="15837" len="3" />
          <note tone="11" pan="0" oct="5" vol="34" pos="15843" len="3" />
          <note tone="0" pan="0" oct="6" vol="26" pos="15846" len="3" />
          <note tone="2" pan="0" oct="6" vol="34" pos="15849" len="3" />
          <note tone="8" pan="0" oct="4" vol="25" pos="15852" len="2" />
          <note tone="11" pan="0" oct="4" vol="39" pos="15854" len="2" />
          <note tone="4" pan="0" oct="5" vol="21" pos="15856" len="2" />
          <note tone="3" pan="0" oct="5" vol="14" pos="15858" len="2" />
          <note tone="11" pan="0" oct="5" vol="41" pos="15860" len="2" />
          <note tone="5" pan="0" oct="5" vol="19" pos="15862" len="2" />
          <note tone="8" pan="0" oct="4" vol="28" pos="15864" len="2" />
          <note tone="11" pan="0" oct="4" vol="35" pos="15866" len="2" />
          <note tone="4" pan="0" oct="5" vol="45" pos="15868" len="2" />
          <note tone="3" pan="0" oct="5" vol="9" pos="15870" len="2" />
          <note tone="11" pan="0" oct="5" vol="19" pos="15872" len="2" />
          <note tone="5" pan="0" oct="5" vol="32" pos="15874" len="2" />
          <note tone="8" pan="0" oct="4" vol="28" pos="15876" len="2" />
          <note tone="11" pan="0" oct="4" vol="27" pos="15878" len="2" />
          <note tone="4" pan="0" oct="5" vol="35" pos="15880" len="2" />
          <note tone="3" pan="0" oct="5" vol="14" pos="15882" len="2" />
          <note tone="11" pan="0" oct="5" vol="20" pos="15884" len="2" />
          <note tone="5" pan="0" oct="5" vol="35" pos="15886" len="2" />
          <note tone="0" pan="0" oct="5" vol="37" pos="15900" len="12" />
          <note tone="4" pan="0" oct="5" vol="47" pos="15900" len="12" />
          <note tone="9" pan="0" oct="5" vol="46" pos="15900" len="12" />
          <note tone="4" pan="0" oct="5" vol="28" pos="15912" len="12" />
          <note tone="11" pan="0" oct="4" vol="23" pos="15912" len="12" />
          <note tone="2" pan="0" oct="5" vol="15" pos="15912" len="12" />
          <note tone="8" pan="0" oct="5" vol="29" pos="15912" len="12" />
          <note tone="0" pan="0" oct="5" vol="46" pos="15924" len="24" />
          <note tone="4" pan="0" oct="5" vol="51" pos="15924" len="24" />
          <note tone="9" pan="0" oct="5" vol="50" pos="15924" len="24" />
        </pattern>
      </track>
      <track muted="0" type="0" >
        <channeltrack surpos="142345966" fxch="0" baseoct="6" vol="53" name="E-Organ" basetone="9" tab="0" >
          <tripleoscillator userwavefile1="samples/empty.wav" wavetype1="0" coarse1="0" userwavefile2="samples/empty.wav" wavetype2="0" coarse2="0" vol0="100" vol1="100" finel0="0" vol2="100" finel1="0" finel2="-18" modalgo1="2" stphdetun0="0" pan0="0" modalgo2="2" stphdetun1="125" pan1="0" stphdetun2="59" pan2="0" phoffset0="0" phoffset1="265" phoffset2="146" finer0="0" finer1="0" finer2="11" userwavefile0="samples/empty.wav" wavetype0="0" coarse0="0" />
          <eldata fres="0.5" ftype="0" fcut="16000" fwet="0" >
            <elvol lpdel="0" amt="1" rel="0.132" ctlenvamt="0" latt="0" sus="0" lspd="0.1" att="0.079" pdel="0" lamt="0" dec="0.394" x100="0" lshp="0" hold="0" />
            <elcut lpdel="0" amt="0" rel="0.1" ctlenvamt="0" latt="0" sus="0.5" lspd="0.1" att="0" pdel="0" lamt="0" dec="0.5" x100="0" lshp="0" hold="0.5" />
            <elres lpdel="0" amt="0" rel="0.1" ctlenvamt="0" latt="0" sus="0.5" lspd="0.1" att="0" pdel="0" lamt="0" dec="0.5" x100="0" lshp="0" hold="0.5" />
          </eldata>
          <arpandchords chordrange="3" arprange="3" chord="0" arpgate="100" arp="8" arptime="150" arpdir="0" />
        </channeltrack>
        <pattern type="1" name="E-Organ" pos="0" frozen="0" len="16000" >
          <note tone="4" pan="0" oct="5" vol="29" pos="2718" len="6" />
          <note tone="5" pan="0" oct="5" vol="37" pos="2724" len="6" />
          <note tone="1" pan="0" oct="5" vol="32" pos="2730" len="6" />
          <note tone="2" pan="0" oct="5" vol="30" pos="2736" len="48" />
          <note tone="4" pan="0" oct="5" vol="34" pos="5448" len="12" />
          <note tone="7" pan="0" oct="5" vol="28" pos="5460" len="6" />
          <note tone="6" pan="0" oct="5" vol="22" pos="5466" len="6" />
          <note tone="7" pan="0" oct="5" vol="27" pos="5472" len="6" />
          <note tone="4" pan="0" oct="5" vol="32" pos="5478" len="6" />
          <note tone="6" pan="0" oct="5" vol="25" pos="5484" len="12" />
          <note tone="11" pan="0" oct="4" vol="23" pos="5496" len="6" />
          <note tone="6" pan="0" oct="5" vol="17" pos="5502" len="6" />
          <note tone="11" pan="0" oct="5" vol="21" pos="5508" len="6" />
          <note tone="6" pan="0" oct="5" vol="15" pos="5514" len="6" />
          <note tone="7" pan="0" oct="5" vol="28" pos="5520" len="12" />
          <note tone="4" pan="0" oct="5" vol="46" pos="5532" len="12" />
          <note tone="11" pan="0" oct="5" vol="30" pos="5544" len="12" />
          <note tone="0" pan="0" oct="6" vol="35" pos="5556" len="6" />
          <note tone="11" pan="0" oct="5" vol="29" pos="5562" len="6" />
          <note tone="0" pan="0" oct="6" vol="37" pos="5568" len="6" />
          <note tone="9" pan="0" oct="5" vol="32" pos="5574" len="6" />
          <note tone="0" pan="0" oct="6" vol="39" pos="5580" len="6" />
          <note tone="7" pan="0" oct="5" vol="35" pos="5586" len="6" />
          <note tone="0" pan="0" oct="6" vol="31" pos="5592" len="6" />
          <note tone="9" pan="0" oct="5" vol="35" pos="5598" len="6" />
          <note tone="0" pan="0" oct="6" vol="28" pos="5604" len="6" />
          <note tone="6" pan="0" oct="5" vol="36" pos="5610" len="6" />
          <note tone="0" pan="0" oct="6" vol="21" pos="5616" len="6" />
          <note tone="2" pan="0" oct="5" vol="34" pos="5622" len="6" />
          <note tone="11" pan="0" oct="5" vol="33" pos="5628" len="6" />
          <note tone="9" pan="0" oct="5" vol="31" pos="5634" len="6" />
          <note tone="11" pan="0" oct="5" vol="35" pos="5640" len="6" />
          <note tone="7" pan="0" oct="5" vol="33" pos="5646" len="6" />
          <note tone="11" pan="0" oct="5" vol="29" pos="5652" len="6" />
          <note tone="6" pan="0" oct="5" vol="28" pos="5658" len="6" />
          <note tone="11" pan="0" oct="5" vol="35" pos="5664" len="6" />
          <note tone="7" pan="0" oct="5" vol="32" pos="5670" len="6" />
          <note tone="11" pan="0" oct="5" vol="30" pos="5676" len="6" />
          <note tone="4" pan="0" oct="5" vol="32" pos="5682" len="6" />
          <note tone="11" pan="0" oct="5" vol="25" pos="5688" len="6" />
          <note tone="0" pan="0" oct="5" vol="37" pos="5694" len="6" />
          <note tone="9" pan="0" oct="5" vol="34" pos="5700" len="6" />
          <note tone="7" pan="0" oct="5" vol="24" pos="5706" len="6" />
          <note tone="9" pan="0" oct="5" vol="29" pos="5712" len="6" />
          <note tone="6" pan="0" oct="5" vol="21" pos="5718" len="6" />
          <note tone="9" pan="0" oct="5" vol="29" pos="5724" len="6" />
          <note tone="4" pan="0" oct="5" vol="32" pos="5730" len="6" />
          <note tone="9" pan="0" oct="5" vol="32" pos="5736" len="6" />
          <note tone="6" pan="0" oct="5" vol="24" pos="5742" len="6" />
          <note tone="9" pan="0" oct="5" vol="25" pos="5748" len="6" />
          <note tone="3" pan="0" oct="5" vol="25" pos="5754" len="6" />
          <note tone="9" pan="0" oct="5" vol="18" pos="5760" len="6" />
          <note tone="11" pan="0" oct="4" vol="38" pos="5766" len="6" />
          <note tone="7" pan="0" oct="5" vol="27" pos="5772" len="6" />
          <note tone="6" pan="0" oct="5" vol="21" pos="5778" len="6" />
          <note tone="7" pan="0" oct="5" vol="42" pos="5784" len="6" />
          <note tone="11" pan="0" oct="5" vol="31" pos="5790" len="6" />
          <note tone="4" pan="0" oct="6" vol="38" pos="5796" len="6" />
          <note tone="1" pan="0" oct="6" vol="30" pos="5802" len="6" />
          <note tone="2" pan="0" oct="6" vol="34" pos="5808" len="42" />
          <note tone="8" pan="0" oct="5" vol="34" pos="5850" len="6" />
          <note tone="9" pan="0" oct="5" vol="33" pos="5856" len="6" />
          <note tone="0" pan="0" oct="6" vol="33" pos="5862" len="6" />
          <note tone="6" pan="0" oct="6" vol="27" pos="5868" len="6" />
          <note tone="3" pan="0" oct="6" vol="19" pos="5874" len="6" />
          <note tone="4" pan="0" oct="6" vol="35" pos="5880" len="42" />
          <note tone="2" pan="0" oct="6" vol="32" pos="5922" len="6" />
          <note tone="0" pan="0" oct="6" vol="15" pos="5928" len="6" />
          <note tone="11" pan="0" oct="5" vol="30" pos="5934" len="6" />
          <note tone="0" pan="0" oct="6" vol="28" pos="5940" len="6" />
          <note tone="9" pan="0" oct="5" vol="31" pos="5946" len="6" />
          <note tone="2" pan="0" oct="6" vol="39" pos="5952" len="42" />
          <note tone="2" pan="0" oct="6" vol="34" pos="5994" len="6" />
          <note tone="0" pan="0" oct="6" vol="29" pos="6000" len="6" />
          <note tone="11" pan="0" oct="5" vol="29" pos="6006" len="6" />
          <note tone="9" pan="0" oct="5" vol="31" pos="6012" len="6" />
          <note tone="7" pan="0" oct="5" vol="42" pos="6018" len="6" />
          <note tone="5" pan="0" oct="5" vol="39" pos="6024" len="42" />
          <note tone="4" pan="0" oct="5" vol="33" pos="6066" len="6" />
          <note tone="2" pan="0" oct="5" vol="31" pos="6072" len="6" />
          <note tone="4" pan="0" oct="5" vol="41" pos="6078" len="6" />
          <note tone="6" pan="0" oct="5" vol="26" pos="6084" len="6" />
          <note tone="8" pan="0" oct="5" vol="24" pos="6090" len="6" />
          <note tone="9" pan="0" oct="5" vol="39" pos="6096" len="42" />
          <note tone="8" pan="0" oct="5" vol="30" pos="6138" len="6" />
          <note tone="9" pan="0" oct="5" vol="25" pos="6144" len="6" />
          <note tone="6" pan="0" oct="5" vol="25" pos="6150" len="6" />
          <note tone="8" pan="0" oct="5" vol="22" pos="6156" len="6" />
          <note tone="11" pan="0" oct="5" vol="37" pos="6162" len="6" />
          <note tone="4" pan="0" oct="5" vol="36" pos="6168" len="12" />
          <note tone="0" pan="0" oct="6" vol="30" pos="6180" len="6" />
          <note tone="11" pan="0" oct="5" vol="36" pos="6186" len="6" />
          <note tone="9" pan="0" oct="5" vol="45" pos="6192" len="6" />
          <note tone="8" pan="0" oct="5" vol="24" pos="6198" len="6" />
          <note tone="9" pan="0" oct="5" vol="32" pos="6204" len="36" />
          <note tone="2" pan="0" oct="6" vol="35" pos="6240" len="48" />
          <note tone="0" pan="0" oct="6" vol="35" pos="6288" len="6" />
          <note tone="11" pan="0" oct="5" vol="17" pos="6294" len="6" />
          <note tone="9" pan="0" oct="5" vol="26" pos="6300" len="6" />
          <note tone="7" pan="0" oct="5" vol="35" pos="6306" len="6" />
          <note tone="0" pan="0" oct="6" vol="28" pos="6312" len="48" />
          <note tone="11" pan="0" oct="5" vol="35" pos="6360" len="6" />
          <note tone="9" pan="0" oct="5" vol="42" pos="6366" len="6" />
          <note tone="8" pan="0" oct="5" vol="28" pos="6372" len="6" />
          <note tone="9" pan="0" oct="5" vol="35" pos="6378" len="6" />
          <note tone="11" pan="0" oct="5" vol="31" pos="6384" len="48" />
          <note tone="9" pan="0" oct="5" vol="40" pos="6432" len="6" />
          <note tone="11" pan="0" oct="5" vol="31" pos="6438" len="6" />
          <note tone="0" pan="0" oct="6" vol="36" pos="6444" len="6" />
          <note tone="9" pan="0" oct="5" vol="33" pos="6450" len="6" />
          <note tone="0" pan="0" oct="6" vol="40" pos="6456" len="42" />
          <note tone="0" pan="0" oct="6" vol="35" pos="6498" len="6" />
          <note tone="11" pan="0" oct="5" vol="31" pos="6504" len="6" />
          <note tone="9" pan="0" oct="5" vol="14" pos="6510" len="6" />
          <note tone="11" pan="0" oct="5" vol="39" pos="6516" len="12" />
          <note tone="11" pan="0" oct="5" vol="28" pos="6534" len="18" />
          <note tone="11" pan="0" oct="5" vol="42" pos="6552" len="12" />
          <note tone="9" pan="0" oct="5" vol="49" pos="6564" len="6" />
          <note tone="1" pan="0" oct="6" vol="28" pos="6570" len="6" />
          <note tone="4" pan="0" oct="6" vol="35" pos="6576" len="6" />
          <note tone="2" pan="0" oct="6" vol="25" pos="6582" len="6" />
          <note tone="1" pan="0" oct="6" vol="22" pos="6588" len="6" />
          <note tone="11" pan="0" oct="5" vol="32" pos="6594" len="6" />
          <note tone="9" pan="0" oct="5" vol="33" pos="6600" len="12" />
          <note tone="11" pan="0" oct="5" vol="30" pos="6612" len="12" />
          <note tone="1" pan="0" oct="6" vol="39" pos="6624" len="18" />
          <note tone="9" pan="0" oct="5" vol="46" pos="6642" len="6" />
          <note tone="11" pan="0" oct="5" vol="35" pos="6648" len="6" />
          <note tone="1" pan="0" oct="6" vol="28" pos="6654" len="6" />
          <note tone="2" pan="0" oct="6" vol="32" pos="6660" len="6" />
          <note tone="9" pan="0" oct="5" vol="31" pos="6666" len="6" />
          <note tone="8" pan="0" oct="5" vol="28" pos="6672" len="6" />
          <note tone="4" pan="0" oct="5" vol="21" pos="6678" len="6" />
          <note tone="9" pan="0" oct="5" vol="26" pos="6684" len="6" />
          <note tone="11" pan="0" oct="5" vol="19" pos="6690" len="6" />
          <note tone="0" pan="0" oct="6" vol="31" pos="6696" len="6" />
          <note tone="9" pan="0" oct="5" vol="39" pos="6702" len="6" />
          <note tone="6" pan="0" oct="5" vol="29" pos="6708" len="12" />
          <note tone="8" pan="0" oct="5" vol="31" pos="6720" len="18" />
          <note tone="11" pan="0" oct="5" vol="33" pos="6738" len="12" />
          <note tone="11" pan="0" oct="5" vol="42" pos="6750" len="6" />
          <note tone="9" pan="0" oct="5" vol="32" pos="6756" len="6" />
          <note tone="8" pan="0" oct="5" vol="31" pos="6762" len="6" />
          <note tone="9" pan="0" oct="5" vol="42" pos="6768" len="6" />
          <note tone="4" pan="0" oct="5" vol="21" pos="6774" len="6" />
          <note tone="5" pan="0" oct="5" vol="49" pos="6780" len="36" />
          <note tone="4" pan="0" oct="5" vol="26" pos="6816" len="24" />
          <note tone="6" pan="0" oct="5" vol="25" pos="6840" len="12" />
          <note tone="3" pan="0" oct="5" vol="20" pos="6852" len="12" />
          <note tone="4" pan="0" oct="5" vol="32" pos="6864" len="30" />
          <note tone="4" pan="0" oct="5" vol="30" pos="6894" len="6" />
          <note tone="3" pan="0" oct="5" vol="25" pos="6900" len="24" />
          <note tone="4" pan="0" oct="5" vol="20" pos="6924" len="12" />
          <note tone="7" pan="0" oct="5" vol="29" pos="6954" len="6" />
          <note tone="9" pan="0" oct="5" vol="36" pos="6960" len="6" />
          <note tone="7" pan="0" oct="5" vol="28" pos="6966" len="6" />
          <note tone="9" pan="0" oct="5" vol="29" pos="6972" len="36" />
          <note tone="7" pan="0" oct="5" vol="30" pos="7008" len="6" />
          <note tone="6" pan="0" oct="5" vol="34" pos="7014" len="6" />
          <note tone="7" pan="0" oct="5" vol="35" pos="7020" len="6" />
          <note tone="11" pan="0" oct="5" vol="31" pos="7026" len="6" />
          <note tone="4" pan="0" oct="6" vol="32" pos="7032" len="48" />
          <note tone="2" pan="0" oct="6" vol="33" pos="7080" len="6" />
          <note tone="0" pan="0" oct="6" vol="33" pos="7086" len="6" />
          <note tone="11" pan="0" oct="5" vol="28" pos="7092" len="6" />
          <note tone="9" pan="0" oct="5" vol="23" pos="7098" len="6" />
          <note tone="2" pan="0" oct="6" vol="37" pos="7104" len="48" />
          <note tone="0" pan="0" oct="6" vol="41" pos="7152" len="6" />
          <note tone="11" pan="0" oct="5" vol="34" pos="7158" len="6" />
          <note tone="9" pan="0" oct="5" vol="37" pos="7164" len="6" />
          <note tone="7" pan="0" oct="5" vol="39" pos="7170" len="6" />
          <note tone="0" pan="0" oct="6" vol="34" pos="7176" len="48" />
          <note tone="11" pan="0" oct="5" vol="38" pos="7224" len="6" />
          <note tone="9" pan="0" oct="5" vol="31" pos="7230" len="6" />
          <note tone="7" pan="0" oct="5" vol="42" pos="7236" len="6" />
          <note tone="6" pan="0" oct="5" vol="30" pos="7242" len="6" />
          <note tone="11" pan="0" oct="5" vol="33" pos="7248" len="36" />
          <note tone="4" pan="0" oct="5" vol="34" pos="7284" len="6" />
          <note tone="9" pan="0" oct="5" vol="34" pos="7284" len="6" />
          <note tone="4" pan="0" oct="5" vol="38" pos="7296" len="6" />
          <note tone="7" pan="0" oct="5" vol="41" pos="7296" len="6" />
          <note tone="7" pan="0" oct="5" vol="49" pos="7308" len="6" />
          <note tone="4" pan="0" oct="5" vol="35" pos="7308" len="6" />
          <note tone="9" pan="0" oct="5" vol="29" pos="7320" len="36" />
          <note tone="7" pan="0" oct="5" vol="35" pos="7356" len="6" />
          <note tone="2" pan="0" oct="5" vol="42" pos="7356" len="6" />
          <note tone="2" pan="0" oct="5" vol="40" pos="7368" len="6" />
          <note tone="5" pan="0" oct="5" vol="44" pos="7368" len="6" />
          <note tone="2" pan="0" oct="5" vol="39" pos="7380" len="6" />
          <note tone="5" pan="0" oct="5" vol="38" pos="7380" len="6" />
          <note tone="7" pan="0" oct="5" vol="33" pos="7392" len="24" />
          <note tone="0" pan="0" oct="6" vol="20" pos="7416" len="12" />
          <note tone="5" pan="0" oct="5" vol="39" pos="7428" len="36" />
          <note tone="0" pan="0" oct="5" vol="20" pos="7428" len="36" />
          <note tone="5" pan="0" oct="5" vol="36" pos="7464" len="48" />
          <note tone="4" pan="0" oct="5" vol="39" pos="7512" len="30" />
          <note tone="2" pan="0" oct="5" vol="22" pos="7542" len="6" />
          <note tone="0" pan="0" oct="5" vol="28" pos="7548" len="6" />
          <note tone="4" pan="0" oct="5" vol="38" pos="7554" len="6" />
          <note tone="2" pan="0" oct="5" vol="26" pos="7560" len="6" />
          <note tone="4" pan="0" oct="5" vol="28" pos="7566" len="6" />
          <note tone="5" pan="0" oct="5" vol="35" pos="7572" len="6" />
          <note tone="4" pan="0" oct="5" vol="30" pos="7578" len="6" />
          <note tone="5" pan="0" oct="5" vol="21" pos="7584" len="6" />
          <note tone="7" pan="0" oct="5" vol="42" pos="7590" len="6" />
          <note tone="4" pan="0" oct="5" vol="33" pos="7596" len="6" />
          <note tone="5" pan="0" oct="5" vol="29" pos="7602" len="6" />
          <note tone="2" pan="0" oct="5" vol="43" pos="7608" len="6" />
          <note tone="0" pan="0" oct="5" vol="17" pos="7614" len="6" />
          <note tone="11" pan="0" oct="4" vol="21" pos="7620" len="6" />
          <note tone="2" pan="0" oct="5" vol="32" pos="7626" len="6" />
          <note tone="0" pan="0" oct="5" vol="42" pos="7632" len="6" />
          <note tone="2" pan="0" oct="5" vol="35" pos="7638" len="6" />
          <note tone="4" pan="0" oct="5" vol="34" pos="7644" len="6" />
          <note tone="2" pan="0" oct="5" vol="27" pos="7650" len="6" />
          <note tone="4" pan="0" oct="5" vol="44" pos="7656" len="6" />
          <note tone="5" pan="0" oct="5" vol="35" pos="7662" len="6" />
          <note tone="2" pan="0" oct="5" vol="32" pos="7668" len="6" />
          <note tone="4" pan="0" oct="5" vol="45" pos="7674" len="6" />
          <note tone="0" pan="0" oct="5" vol="40" pos="7680" len="6" />
          <note tone="11" pan="0" oct="4" vol="35" pos="7686" len="6" />
          <note tone="0" pan="0" oct="5" vol="34" pos="7692" len="6" />
          <note tone="2" pan="0" oct="5" vol="22" pos="7698" len="6" />
          <note tone="11" pan="0" oct="4" vol="31" pos="7704" len="6" />
          <note tone="0" pan="0" oct="5" vol="43" pos="7710" len="6" />
          <note tone="2" pan="0" oct="5" vol="39" pos="7716" len="6" />
          <note tone="0" pan="0" oct="5" vol="45" pos="7722" len="6" />
          <note tone="2" pan="0" oct="5" vol="18" pos="7728" len="6" />
          <note tone="4" pan="0" oct="5" vol="40" pos="7734" len="6" />
          <note tone="0" pan="0" oct="5" vol="25" pos="7740" len="6" />
          <note tone="2" pan="0" oct="5" vol="38" pos="7746" len="6" />
          <note tone="11" pan="0" oct="4" vol="42" pos="7752" len="36" />
          <note tone="9" pan="0" oct="4" vol="38" pos="7788" len="6" />
          <note tone="11" pan="0" oct="4" vol="36" pos="7794" len="6" />
          <note tone="0" pan="0" oct="5" vol="35" pos="7800" len="6" />
          <note tone="2" pan="0" oct="5" vol="42" pos="7806" len="6" />
          <note tone="4" pan="0" oct="5" vol="32" pos="7812" len="6" />
          <note tone="0" pan="0" oct="5" vol="35" pos="7818" len="6" />
          <note tone="5" pan="0" oct="5" vol="25" pos="7824" len="24" />
          <note tone="5" pan="0" oct="5" vol="39" pos="7848" len="12" />
          <note tone="4" pan="0" oct="5" vol="32" pos="7860" len="24" />
          <note tone="4" pan="0" oct="5" vol="35" pos="7884" len="12" />
          <note tone="2" pan="0" oct="5" vol="33" pos="7896" len="24" />
          <note tone="2" pan="0" oct="5" vol="30" pos="7920" len="12" />
          <note tone="0" pan="0" oct="5" vol="38" pos="7932" len="24" />
          <note tone="0" pan="0" oct="5" vol="39" pos="7956" len="12" />
          <note tone="11" pan="0" oct="4" vol="35" pos="7968" len="18" />
          <note tone="0" pan="0" oct="5" vol="34" pos="7986" len="6" />
          <note tone="9" pan="0" oct="4" vol="32" pos="7992" len="6" />
          <note tone="11" pan="0" oct="4" vol="39" pos="7998" len="6" />
          <note tone="0" pan="0" oct="5" vol="39" pos="8004" len="18" />
          <note tone="2" pan="0" oct="5" vol="32" pos="8022" len="6" />
          <note tone="11" pan="0" oct="4" vol="34" pos="8028" len="6" />
          <note tone="0" pan="0" oct="5" vol="39" pos="8034" len="6" />
          <note tone="2" pan="0" oct="5" vol="36" pos="8040" len="18" />
          <note tone="4" pan="0" oct="5" vol="33" pos="8058" len="6" />
          <note tone="0" pan="0" oct="5" vol="33" pos="8064" len="6" />
          <note tone="2" pan="0" oct="5" vol="25" pos="8070" len="6" />
          <note tone="4" pan="0" oct="5" vol="31" pos="8076" len="18" />
          <note tone="5" pan="0" oct="5" vol="32" pos="8094" len="6" />
          <note tone="2" pan="0" oct="5" vol="23" pos="8100" len="6" />
          <note tone="4" pan="0" oct="5" vol="22" pos="8106" len="6" />
          <note tone="5" pan="0" oct="5" vol="32" pos="8112" len="6" />
          <note tone="4" pan="0" oct="5" vol="25" pos="8118" len="6" />
          <note tone="2" pan="0" oct="5" vol="29" pos="8124" len="6" />
          <note tone="5" pan="0" oct="5" vol="30" pos="8130" len="6" />
          <note tone="4" pan="0" oct="5" vol="26" pos="8136" len="6" />
          <note tone="2" pan="0" oct="5" vol="19" pos="8142" len="6" />
          <note tone="0" pan="0" oct="5" vol="40" pos="8148" len="6" />
          <note tone="2" pan="0" oct="5" vol="31" pos="8154" len="6" />
          <note tone="11" pan="0" oct="4" vol="37" pos="8160" len="18" />
          <note tone="0" pan="0" oct="5" vol="34" pos="8178" len="6" />
          <note tone="3" pan="0" oct="5" vol="22" pos="8694" len="6" />
          <note tone="4" pan="0" oct="5" vol="35" pos="8700" len="6" />
          <note tone="11" pan="0" oct="4" vol="32" pos="8706" len="6" />
          <note tone="0" pan="0" oct="5" vol="30" pos="8712" len="6" />
          <note tone="9" pan="0" oct="4" vol="49" pos="8718" len="6" />
          <note tone="11" pan="0" oct="4" vol="42" pos="8724" len="24" />
          <note tone="7" pan="0" oct="5" vol="43" pos="8748" len="12" />
          <note tone="6" pan="0" oct="5" vol="29" pos="8760" len="36" />
          <note tone="11" pan="0" oct="5" vol="35" pos="8796" len="30" />
          <note tone="3" pan="0" oct="6" vol="28" pos="8826" len="6" />
          <note tone="4" pan="0" oct="6" vol="34" pos="8832" len="18" />
          <note tone="6" pan="0" oct="6" vol="28" pos="8850" len="12" />
          <note tone="4" pan="0" oct="6" vol="39" pos="8862" len="6" />
          <note tone="6" pan="0" oct="6" vol="34" pos="8874" len="12" />
          <note tone="2" pan="0" oct="6" vol="42" pos="8886" len="12" />
          <note tone="9" pan="0" oct="5" vol="44" pos="8898" len="6" />
          <note tone="2" pan="0" oct="6" vol="28" pos="8904" len="18" />
          <note tone="4" pan="0" oct="6" vol="33" pos="8922" len="12" />
          <note tone="3" pan="0" oct="6" vol="25" pos="8934" len="6" />
          <note tone="4" pan="0" oct="6" vol="35" pos="8946" len="12" />
          <note tone="0" pan="0" oct="6" vol="37" pos="8958" len="12" />
          <note tone="7" pan="0" oct="5" vol="42" pos="8970" len="6" />
          <note tone="0" pan="0" oct="6" vol="34" pos="8976" len="12" />
          <note tone="3" pan="0" oct="6" vol="26" pos="8994" len="12" />
          <note tone="1" pan="0" oct="6" vol="35" pos="9006" len="6" />
          <note tone="2" pan="0" oct="6" vol="41" pos="9018" len="12" />
          <note tone="11" pan="0" oct="5" vol="35" pos="9030" len="12" />
          <note tone="6" pan="0" oct="5" vol="35" pos="9042" len="6" />
          <note tone="11" pan="0" oct="5" vol="37" pos="9048" len="48" />
          <note tone="9" pan="0" oct="5" vol="40" pos="9096" len="12" />
          <note tone="7" pan="0" oct="5" vol="43" pos="9108" len="12" />
          <note tone="6" pan="0" oct="5" vol="31" pos="9120" len="48" />
          <note tone="2" pan="0" oct="5" vol="37" pos="9168" len="12" />
          <note tone="7" pan="0" oct="5" vol="39" pos="9180" len="12" />
          <note tone="4" pan="0" oct="5" vol="31" pos="9192" len="42" />
          <note tone="7" pan="0" oct="5" vol="34" pos="9234" len="6" />
          <note tone="6" pan="0" oct="5" vol="31" pos="9240" len="6" />
          <note tone="4" pan="0" oct="5" vol="39" pos="9246" len="6" />
          <note tone="3" pan="0" oct="5" vol="30" pos="9252" len="6" />
          <note tone="4" pan="0" oct="5" vol="13" pos="9258" len="6" />
          <note tone="3" pan="0" oct="5" vol="28" pos="9264" len="36" />
          <note tone="4" pan="0" oct="5" vol="40" pos="9300" len="24" />
          <note tone="2" pan="0" oct="5" vol="34" pos="9480" len="12" />
          <note tone="7" pan="0" oct="4" vol="45" pos="9492" len="6" />
          <note tone="2" pan="0" oct="5" vol="35" pos="9498" len="6" />
          <note tone="7" pan="0" oct="5" vol="34" pos="9504" len="6" />
          <note tone="5" pan="0" oct="5" vol="36" pos="9510" len="6" />
          <note tone="4" pan="0" oct="5" vol="31" pos="9516" len="6" />
          <note tone="2" pan="0" oct="5" vol="35" pos="9522" len="6" />
          <note tone="4" pan="0" oct="5" vol="35" pos="9528" len="6" />
          <note tone="5" pan="0" oct="5" vol="28" pos="9534" len="6" />
          <note tone="7" pan="0" oct="5" vol="31" pos="9540" len="6" />
          <note tone="4" pan="0" oct="5" vol="38" pos="9546" len="6" />
          <note tone="9" pan="0" oct="5" vol="30" pos="9552" len="6" />
          <note tone="7" pan="0" oct="5" vol="31" pos="9558" len="6" />
          <note tone="9" pan="0" oct="5" vol="28" pos="9564" len="6" />
          <note tone="5" pan="0" oct="5" vol="36" pos="9570" len="6" />
          <note tone="9" pan="0" oct="5" vol="28" pos="9576" len="6" />
          <note tone="4" pan="0" oct="5" vol="32" pos="9582" len="6" />
          <note tone="9" pan="0" oct="5" vol="39" pos="9588" len="6" />
          <note tone="5" pan="0" oct="5" vol="40" pos="9594" len="6" />
          <note tone="9" pan="0" oct="5" vol="24" pos="9600" len="6" />
          <note tone="2" pan="0" oct="5" vol="36" pos="9606" len="6" />
          <note tone="9" pan="0" oct="5" vol="32" pos="9612" len="6" />
          <note tone="11" pan="0" oct="4" vol="42" pos="9618" len="6" />
          <note tone="7" pan="0" oct="5" vol="36" pos="9624" len="6" />
          <note tone="5" pan="0" oct="5" vol="28" pos="9630" len="6" />
          <note tone="7" pan="0" oct="5" vol="28" pos="9636" len="6" />
          <note tone="4" pan="0" oct="5" vol="32" pos="9642" len="6" />
          <note tone="7" pan="0" oct="5" vol="30" pos="9648" len="6" />
          <note tone="2" pan="0" oct="5" vol="38" pos="9654" len="6" />
          <note tone="7" pan="0" oct="5" vol="24" pos="9660" len="6" />
          <note tone="4" pan="0" oct="5" vol="24" pos="9666" len="6" />
          <note tone="7" pan="0" oct="5" vol="27" pos="9672" len="6" />
          <note tone="0" pan="0" oct="5" vol="41" pos="9678" len="6" />
          <note tone="7" pan="0" oct="5" vol="19" pos="9684" len="6" />
          <note tone="9" pan="0" oct="4" vol="45" pos="9690" len="6" />
          <note tone="5" pan="0" oct="5" vol="38" pos="9696" len="6" />
          <note tone="4" pan="0" oct="5" vol="28" pos="9702" len="6" />
          <note tone="5" pan="0" oct="5" vol="28" pos="9708" len="6" />
          <note tone="2" pan="0" oct="5" vol="28" pos="9714" len="6" />
          <note tone="5" pan="0" oct="5" vol="32" pos="9720" len="6" />
          <note tone="0" pan="0" oct="5" vol="39" pos="9726" len="6" />
          <note tone="5" pan="0" oct="5" vol="29" pos="9732" len="6" />
          <note tone="2" pan="0" oct="5" vol="39" pos="9738" len="6" />
          <note tone="5" pan="0" oct="5" vol="22" pos="9744" len="6" />
          <note tone="11" pan="0" oct="4" vol="29" pos="9750" len="6" />
          <note tone="5" pan="0" oct="5" vol="19" pos="9756" len="6" />
          <note tone="7" pan="0" oct="4" vol="31" pos="9762" len="6" />
          <note tone="4" pan="0" oct="5" vol="32" pos="9768" len="6" />
          <note tone="2" pan="0" oct="5" vol="31" pos="9774" len="6" />
          <note tone="4" pan="0" oct="5" vol="35" pos="9780" len="24" />
          <note tone="9" pan="0" oct="5" vol="23" pos="9810" len="6" />
          <note tone="4" pan="0" oct="5" vol="30" pos="9816" len="6" />
          <note tone="0" pan="0" oct="5" vol="36" pos="9822" len="6" />
          <note tone="9" pan="0" oct="4" vol="30" pos="9828" len="6" />
          <note tone="7" pan="0" oct="5" vol="30" pos="9834" len="6" />
          <note tone="6" pan="0" oct="5" vol="25" pos="9840" len="6" />
          <note tone="4" pan="0" oct="5" vol="25" pos="9846" len="6" />
          <note tone="6" pan="0" oct="5" vol="30" pos="9852" len="24" />
          <note tone="11" pan="0" oct="5" vol="25" pos="9882" len="6" />
          <note tone="6" pan="0" oct="5" vol="26" pos="9888" len="6" />
          <note tone="2" pan="0" oct="5" vol="39" pos="9894" len="6" />
          <note tone="11" pan="0" oct="4" vol="38" pos="9900" len="6" />
          <note tone="9" pan="0" oct="5" vol="39" pos="9906" len="6" />
          <note tone="7" pan="0" oct="5" vol="32" pos="9912" len="6" />
          <note tone="6" pan="0" oct="5" vol="28" pos="9918" len="6" />
          <note tone="7" pan="0" oct="5" vol="29" pos="9924" len="24" />
          <note tone="0" pan="0" oct="6" vol="21" pos="9954" len="6" />
          <note tone="7" pan="0" oct="5" vol="24" pos="9960" len="6" />
          <note tone="4" pan="0" oct="5" vol="40" pos="9966" len="6" />
          <note tone="0" pan="0" oct="5" vol="29" pos="9972" len="6" />
          <note tone="11" pan="0" oct="5" vol="35" pos="9978" len="6" />
          <note tone="9" pan="0" oct="5" vol="35" pos="9984" len="6" />
          <note tone="7" pan="0" oct="5" vol="33" pos="9990" len="6" />
          <note tone="9" pan="0" oct="5" vol="37" pos="9996" len="42" />
          <note tone="9" pan="0" oct="5" vol="32" pos="10038" len="6" />
          <note tone="7" pan="0" oct="5" vol="48" pos="10044" len="6" />
          <note tone="6" pan="0" oct="5" vol="35" pos="10050" len="6" />
          <note tone="4" pan="0" oct="5" vol="32" pos="10056" len="6" />
          <note tone="2" pan="0" oct="5" vol="34" pos="10062" len="6" />
          <note tone="4" pan="0" oct="5" vol="35" pos="10068" len="42" />
          <note tone="4" pan="0" oct="5" vol="33" pos="10110" len="6" />
          <note tone="2" pan="0" oct="5" vol="35" pos="10116" len="6" />
          <note tone="0" pan="0" oct="5" vol="49" pos="10122" len="6" />
          <note tone="0" pan="0" oct="5" vol="19" pos="11892" len="6" />
          <note tone="4" pan="0" oct="5" vol="25" pos="11898" len="6" />
          <note tone="9" pan="0" oct="5" vol="28" pos="11904" len="6" />
          <note tone="8" pan="0" oct="5" vol="28" pos="11910" len="6" />
          <note tone="9" pan="0" oct="5" vol="27" pos="11916" len="6" />
          <note tone="4" pan="0" oct="5" vol="42" pos="11922" len="6" />
          <note tone="2" pan="0" oct="5" vol="38" pos="11928" len="6" />
          <note tone="9" pan="0" oct="5" vol="32" pos="11934" len="6" />
          <note tone="8" pan="0" oct="5" vol="28" pos="11940" len="6" />
          <note tone="6" pan="0" oct="5" vol="26" pos="11946" len="6" />
          <note tone="8" pan="0" oct="5" vol="18" pos="11952" len="6" />
          <note tone="11" pan="0" oct="5" vol="29" pos="11958" len="6" />
          <note tone="9" pan="0" oct="5" vol="36" pos="11964" len="12" />
          <note tone="0" pan="0" oct="6" vol="29" pos="11976" len="6" />
          <note tone="11" pan="0" oct="5" vol="28" pos="11982" len="6" />
          <note tone="0" pan="0" oct="6" vol="34" pos="11988" len="6" />
          <note tone="9" pan="0" oct="5" vol="36" pos="11994" len="6" />
          <note tone="11" pan="0" oct="5" vol="34" pos="12000" len="12" />
          <note tone="4" pan="0" oct="5" vol="22" pos="12012" len="6" />
          <note tone="11" pan="0" oct="5" vol="28" pos="12018" len="6" />
          <note tone="4" pan="0" oct="6" vol="26" pos="12024" len="6" />
          <note tone="11" pan="0" oct="5" vol="23" pos="12030" len="6" />
          <note tone="11" pan="0" oct="5" vol="40" pos="12036" len="12" />
          <note tone="0" pan="0" oct="6" vol="29" pos="12036" len="12" />
          <note tone="9" pan="0" oct="5" vol="22" pos="12048" len="12" />
          <note tone="4" pan="0" oct="5" vol="43" pos="12060" len="12" />
          <note tone="9" pan="0" oct="5" vol="35" pos="12060" len="12" />
          <note tone="5" pan="0" oct="5" vol="36" pos="12072" len="6" />
          <note tone="4" pan="0" oct="5" vol="28" pos="12078" len="6" />
          <note tone="5" pan="0" oct="5" vol="34" pos="12084" len="6" />
          <note tone="2" pan="0" oct="5" vol="30" pos="12090" len="6" />
          <note tone="5" pan="0" oct="5" vol="32" pos="12096" len="6" />
          <note tone="0" pan="0" oct="5" vol="44" pos="12102" len="6" />
          <note tone="5" pan="0" oct="5" vol="31" pos="12108" len="6" />
          <note tone="2" pan="0" oct="5" vol="37" pos="12114" len="6" />
          <note tone="5" pan="0" oct="5" vol="27" pos="12120" len="6" />
          <note tone="11" pan="0" oct="4" vol="42" pos="12126" len="6" />
          <note tone="5" pan="0" oct="5" vol="30" pos="12132" len="6" />
          <note tone="7" pan="0" oct="4" vol="35" pos="12138" len="6" />
          <note tone="4" pan="0" oct="5" vol="43" pos="12144" len="6" />
          <note tone="2" pan="0" oct="5" vol="32" pos="12150" len="6" />
          <note tone="4" pan="0" oct="5" vol="40" pos="12156" len="6" />
          <note tone="0" pan="0" oct="5" vol="37" pos="12162" len="6" />
          <note tone="4" pan="0" oct="5" vol="28" pos="12168" len="6" />
          <note tone="9" pan="0" oct="4" vol="39" pos="12174" len="6" />
          <note tone="4" pan="0" oct="5" vol="35" pos="12180" len="6" />
          <note tone="0" pan="0" oct="5" vol="35" pos="12186" len="6" />
          <note tone="4" pan="0" oct="5" vol="27" pos="12192" len="6" />
          <note tone="9" pan="0" oct="4" vol="45" pos="12198" len="6" />
          <note tone="4" pan="0" oct="5" vol="28" pos="12204" len="6" />
          <note tone="5" pan="0" oct="4" vol="35" pos="12210" len="6" />
          <note tone="2" pan="0" oct="5" vol="42" pos="12216" len="6" />
          <note tone="0" pan="0" oct="5" vol="28" pos="12222" len="6" />
          <note tone="2" pan="0" oct="5" vol="40" pos="12228" len="6" />
          <note tone="11" pan="0" oct="4" vol="30" pos="12234" len="6" />
          <note tone="2" pan="0" oct="5" vol="38" pos="12240" len="6" />
          <note tone="9" pan="0" oct="4" vol="29" pos="12246" len="6" />
          <note tone="2" pan="0" oct="5" vol="32" pos="12252" len="6" />
          <note tone="11" pan="0" oct="4" vol="30" pos="12258" len="6" />
          <note tone="2" pan="0" oct="5" vol="21" pos="12264" len="6" />
          <note tone="8" pan="0" oct="4" vol="28" pos="12270" len="6" />
          <note tone="2" pan="0" oct="5" vol="35" pos="12276" len="6" />
          <note tone="4" pan="0" oct="4" vol="37" pos="12282" len="6" />
          <note tone="0" pan="0" oct="5" vol="34" pos="12288" len="6" />
          <note tone="11" pan="0" oct="4" vol="31" pos="12294" len="6" />
          <note tone="0" pan="0" oct="5" vol="31" pos="12300" len="6" />
          <note tone="9" pan="0" oct="4" vol="21" pos="12306" len="6" />
          <note tone="2" pan="0" oct="5" vol="31" pos="12312" len="6" />
          <note tone="11" pan="0" oct="4" vol="25" pos="12318" len="6" />
          <note tone="4" pan="0" oct="5" vol="32" pos="12540" len="6" />
          <note tone="5" pan="0" oct="5" vol="38" pos="12546" len="6" />
          <note tone="4" pan="0" oct="5" vol="28" pos="12552" len="6" />
          <note tone="2" pan="0" oct="5" vol="34" pos="12558" len="6" />
          <note tone="4" pan="0" oct="5" vol="29" pos="12564" len="6" />
          <note tone="0" pan="0" oct="5" vol="59" pos="12570" len="6" />
          <note tone="9" pan="0" oct="5" vol="36" pos="12576" len="6" />
          <note tone="11" pan="0" oct="5" vol="36" pos="12582" len="6" />
          <note tone="9" pan="0" oct="5" vol="36" pos="12588" len="6" />
          <note tone="7" pan="0" oct="5" vol="39" pos="12594" len="6" />
          <note tone="5" pan="0" oct="5" vol="41" pos="12600" len="6" />
          <note tone="4" pan="0" oct="5" vol="35" pos="12606" len="6" />
          <note tone="2" pan="0" oct="5" vol="46" pos="12612" len="36" />
          <note tone="2" pan="0" oct="5" vol="37" pos="12648" len="36" />
          <note tone="0" pan="0" oct="5" vol="35" pos="12684" len="12" />
          <note tone="2" pan="0" oct="5" vol="29" pos="12696" len="6" />
          <note tone="4" pan="0" oct="5" vol="28" pos="12702" len="6" />
          <note tone="6" pan="0" oct="5" vol="23" pos="12708" len="6" />
          <note tone="8" pan="0" oct="5" vol="32" pos="12714" len="6" />
          <note tone="9" pan="0" oct="5" vol="37" pos="12720" len="6" />
          <note tone="5" pan="0" oct="5" vol="32" pos="12726" len="6" />
          <note tone="4" pan="0" oct="5" vol="32" pos="12732" len="6" />
          <note tone="2" pan="0" oct="5" vol="47" pos="12738" len="6" />
          <note tone="0" pan="0" oct="5" vol="46" pos="12744" len="6" />
          <note tone="11" pan="0" oct="4" vol="15" pos="12750" len="6" />
          <note tone="0" pan="0" oct="5" vol="27" pos="12756" len="36" />
          <note tone="11" pan="0" oct="4" vol="25" pos="12792" len="36" />
          <note tone="11" pan="0" oct="4" vol="39" pos="12828" len="36" />
          <note tone="0" pan="0" oct="5" vol="36" pos="12864" len="24" />
          <note tone="9" pan="0" oct="5" vol="32" pos="12888" len="24" />
          <note tone="6" pan="0" oct="5" vol="32" pos="12912" len="12" />
          <note tone="3" pan="0" oct="5" vol="14" pos="12924" len="12" />
          <note tone="11" pan="0" oct="4" vol="32" pos="12936" len="12" />
          <note tone="11" pan="0" oct="5" vol="32" pos="12948" len="12" />
          <note tone="9" pan="0" oct="5" vol="37" pos="12960" len="12" />
          <note tone="7" pan="0" oct="5" vol="36" pos="12972" len="24" />
          <note tone="6" pan="0" oct="5" vol="31" pos="12996" len="12" />
          <note tone="4" pan="0" oct="5" vol="35" pos="13008" len="24" />
          <note tone="2" pan="0" oct="5" vol="38" pos="13032" len="12" />
          <note tone="0" pan="0" oct="5" vol="33" pos="13044" len="6" />
          <note tone="11" pan="0" oct="4" vol="31" pos="13050" len="6" />
          <note tone="0" pan="0" oct="5" vol="28" pos="13056" len="6" />
          <note tone="9" pan="0" oct="4" vol="36" pos="13062" len="6" />
          <note tone="11" pan="0" oct="4" vol="26" pos="13068" len="6" />
          <note tone="7" pan="0" oct="4" vol="32" pos="13074" len="6" />
          <note tone="0" pan="0" oct="5" vol="42" pos="13080" len="30" />
          <note tone="9" pan="0" oct="5" vol="42" pos="13110" len="6" />
          <note tone="7" pan="0" oct="5" vol="36" pos="13116" len="6" />
          <note tone="6" pan="0" oct="5" vol="28" pos="13122" len="6" />
          <note tone="4" pan="0" oct="5" vol="53" pos="13128" len="6" />
          <note tone="11" pan="0" oct="4" vol="32" pos="13134" len="6" />
          <note tone="3" pan="0" oct="5" vol="28" pos="13140" len="6" />
          <note tone="9" pan="0" oct="4" vol="32" pos="13146" len="6" />
          <note tone="4" pan="0" oct="5" vol="29" pos="13152" len="6" />
          <note tone="6" pan="0" oct="5" vol="17" pos="13158" len="6" />
          <note tone="7" pan="0" oct="5" vol="38" pos="13164" len="6" />
          <note tone="6" pan="0" oct="5" vol="12" pos="13170" len="6" />
          <note tone="7" pan="0" oct="5" vol="38" pos="13176" len="6" />
          <note tone="4" pan="0" oct="5" vol="30" pos="13182" len="6" />
          <note tone="6" pan="0" oct="5" vol="28" pos="13188" len="6" />
          <note tone="11" pan="0" oct="4" vol="22" pos="13194" len="6" />
          <note tone="3" pan="0" oct="5" vol="28" pos="13200" len="6" />
          <note tone="6" pan="0" oct="5" vol="32" pos="13206" len="6" />
          <note tone="11" pan="0" oct="5" vol="19" pos="13212" len="6" />
          <note tone="6" pan="0" oct="5" vol="39" pos="13218" len="6" />
          <note tone="7" pan="0" oct="5" vol="23" pos="13224" len="12" />
          <note tone="11" pan="0" oct="4" vol="36" pos="13236" len="12" />
          <note tone="4" pan="0" oct="5" vol="38" pos="13248" len="24" />
          <note tone="3" pan="0" oct="5" vol="34" pos="13272" len="6" />
          <note tone="1" pan="0" oct="5" vol="28" pos="13278" len="6" />
          <note tone="3" pan="0" oct="5" vol="28" pos="13284" len="12" />
          <note tone="4" pan="0" oct="5" vol="36" pos="13296" len="12" />
          <note tone="11" pan="0" oct="5" vol="36" pos="13308" len="12" />
          <note tone="4" pan="0" oct="6" vol="25" pos="13320" len="24" />
          <note tone="3" pan="0" oct="6" vol="32" pos="13344" len="6" />
          <note tone="1" pan="0" oct="6" vol="32" pos="13350" len="6" />
          <note tone="3" pan="0" oct="6" vol="30" pos="13356" len="12" />
          <note tone="4" pan="0" oct="6" vol="24" pos="13368" len="6" />
          <note tone="4" pan="0" oct="5" vol="32" pos="13374" len="6" />
          <note tone="7" pan="0" oct="5" vol="10" pos="13380" len="6" />
          <note tone="11" pan="0" oct="5" vol="25" pos="13386" len="6" />
          <note tone="4" pan="0" oct="6" vol="17" pos="13392" len="6" />
          <note tone="11" pan="0" oct="5" vol="31" pos="13398" len="6" />
          <note tone="0" pan="0" oct="6" vol="36" pos="13404" len="6" />
          <note tone="11" pan="0" oct="5" vol="32" pos="13410" len="6" />
          <note tone="0" pan="0" oct="6" vol="36" pos="13416" len="6" />
          <note tone="9" pan="0" oct="5" vol="40" pos="13422" len="6" />
          <note tone="0" pan="0" oct="6" vol="28" pos="13428" len="6" />
          <note tone="7" pan="0" oct="5" vol="28" pos="13434" len="6" />
          <note tone="0" pan="0" oct="6" vol="32" pos="13440" len="6" />
          <note tone="9" pan="0" oct="5" vol="27" pos="13446" len="6" />
          <note tone="0" pan="0" oct="6" vol="28" pos="13452" len="6" />
          <note tone="6" pan="0" oct="5" vol="32" pos="13458" len="6" />
          <note tone="0" pan="0" oct="6" vol="25" pos="13464" len="6" />
          <note tone="2" pan="0" oct="5" vol="46" pos="13470" len="6" />
          <note tone="11" pan="0" oct="5" vol="42" pos="13476" len="6" />
          <note tone="9" pan="0" oct="5" vol="30" pos="13482" len="6" />
          <note tone="11" pan="0" oct="5" vol="39" pos="13488" len="6" />
          <note tone="7" pan="0" oct="5" vol="37" pos="13494" len="6" />
          <note tone="11" pan="0" oct="5" vol="35" pos="13500" len="6" />
          <note tone="6" pan="0" oct="5" vol="30" pos="13506" len="6" />
          <note tone="11" pan="0" oct="5" vol="32" pos="13512" len="6" />
          <note tone="7" pan="0" oct="5" vol="28" pos="13518" len="6" />
          <note tone="11" pan="0" oct="5" vol="26" pos="13524" len="6" />
          <note tone="4" pan="0" oct="5" vol="37" pos="13530" len="6" />
          <note tone="11" pan="0" oct="5" vol="28" pos="13536" len="6" />
          <note tone="0" pan="0" oct="5" vol="42" pos="13542" len="6" />
          <note tone="9" pan="0" oct="5" vol="40" pos="13548" len="6" />
          <note tone="7" pan="0" oct="5" vol="25" pos="13554" len="6" />
          <note tone="9" pan="0" oct="5" vol="30" pos="13560" len="6" />
          <note tone="6" pan="0" oct="5" vol="28" pos="13566" len="6" />
          <note tone="9" pan="0" oct="5" vol="32" pos="13572" len="6" />
          <note tone="4" pan="0" oct="5" vol="35" pos="13578" len="6" />
          <note tone="9" pan="0" oct="5" vol="32" pos="13584" len="6" />
          <note tone="6" pan="0" oct="5" vol="26" pos="13590" len="6" />
          <note tone="9" pan="0" oct="5" vol="31" pos="13596" len="6" />
          <note tone="3" pan="0" oct="5" vol="25" pos="13602" len="6" />
          <note tone="9" pan="0" oct="5" vol="17" pos="13608" len="6" />
          <note tone="11" pan="0" oct="4" vol="44" pos="13614" len="6" />
          <note tone="2" pan="0" oct="5" vol="47" pos="13944" len="24" />
          <note tone="6" pan="0" oct="4" vol="32" pos="13944" len="24" />
          <note tone="7" pan="0" oct="5" vol="30" pos="13992" len="12" />
          <note tone="9" pan="0" oct="5" vol="30" pos="14004" len="12" />
          <note tone="11" pan="0" oct="5" vol="39" pos="14016" len="24" />
          <note tone="4" pan="0" oct="5" vol="40" pos="14052" len="12" />
          <note tone="9" pan="0" oct="5" vol="35" pos="14064" len="12" />
          <note tone="5" pan="0" oct="5" vol="41" pos="14076" len="36" />
          <note tone="8" pan="0" oct="5" vol="27" pos="14160" len="24" />
          <note tone="9" pan="0" oct="5" vol="35" pos="14196" len="24" />
          <note tone="11" pan="0" oct="5" vol="33" pos="14232" len="72" />
          <note tone="11" pan="0" oct="5" vol="34" pos="14304" len="36" />
          <note tone="9" pan="0" oct="5" vol="46" pos="14340" len="36" />
          <note tone="9" pan="0" oct="5" vol="38" pos="14376" len="12" />
          <note tone="8" pan="0" oct="5" vol="25" pos="14388" len="12" />
          <note tone="9" pan="0" oct="5" vol="25" pos="14400" len="12" />
          <note tone="4" pan="0" oct="5" vol="39" pos="14412" len="24" />
          <note tone="11" pan="0" oct="5" vol="32" pos="14436" len="24" />
          <note tone="9" pan="0" oct="5" vol="42" pos="14460" len="6" />
          <note tone="8" pan="0" oct="5" vol="26" pos="14466" len="6" />
          <note tone="9" pan="0" oct="5" vol="42" pos="14472" len="12" />
          <note tone="2" pan="0" oct="6" vol="25" pos="14484" len="12" />
          <note tone="11" pan="0" oct="5" vol="48" pos="14496" len="24" />
          <note tone="4" pan="0" oct="5" vol="49" pos="14520" len="7" />
          <note tone="11" pan="0" oct="5" vol="47" pos="14520" len="7" />
          <note tone="4" pan="0" oct="5" vol="35" pos="14532" len="7" />
          <note tone="0" pan="0" oct="5" vol="43" pos="14532" len="7" />
          <note tone="9" pan="0" oct="4" vol="37" pos="14532" len="7" />
          <note tone="4" pan="0" oct="5" vol="39" pos="14544" len="7" />
          <note tone="0" pan="0" oct="5" vol="41" pos="14544" len="7" />
          <note tone="9" pan="0" oct="5" vol="28" pos="14544" len="7" />
          <note tone="9" pan="0" oct="5" vol="39" pos="14556" len="12" />
          <note tone="9" pan="0" oct="5" vol="39" pos="14580" len="12" />
          <note tone="7" pan="0" oct="5" vol="44" pos="14592" len="36" />
          <note tone="7" pan="0" oct="5" vol="35" pos="14628" len="12" />
          <note tone="7" pan="0" oct="5" vol="41" pos="14652" len="12" />
          <note tone="5" pan="0" oct="5" vol="43" pos="14664" len="36" />
          <note tone="5" pan="0" oct="5" vol="36" pos="14700" len="12" />
          <note tone="5" pan="0" oct="5" vol="50" pos="14724" len="12" />
          <note tone="4" pan="0" oct="5" vol="40" pos="14736" len="12" />
          <note tone="4" pan="0" oct="5" vol="31" pos="14760" len="12" />
          <note tone="4" pan="0" oct="5" vol="32" pos="14772" len="24" />
          <note tone="6" pan="0" oct="5" vol="23" pos="14796" len="12" />
          <note tone="8" pan="0" oct="5" vol="32" pos="14808" len="12" />
          <note tone="8" pan="0" oct="5" vol="32" pos="14832" len="12" />
          <note tone="9" pan="0" oct="5" vol="36" pos="14844" len="24" />
          <note tone="9" pan="0" oct="5" vol="32" pos="14868" len="12" />
          <note tone="11" pan="0" oct="5" vol="43" pos="14880" len="12" />
          <note tone="2" pan="0" oct="6" vol="32" pos="14892" len="12" />
          <note tone="11" pan="0" oct="5" vol="35" pos="14904" len="12" />
          <note tone="9" pan="0" oct="5" vol="33" pos="14916" len="12" />
          <note tone="0" pan="0" oct="6" vol="39" pos="14928" len="12" />
          <note tone="9" pan="0" oct="5" vol="25" pos="14940" len="12" />
          <note tone="8" pan="0" oct="5" vol="28" pos="14952" len="24" />
          <note tone="8" pan="0" oct="5" vol="30" pos="14976" len="12" />
          <note tone="6" pan="0" oct="5" vol="35" pos="14988" len="24" />
          <note tone="6" pan="0" oct="5" vol="32" pos="15012" len="12" />
          <note tone="2" pan="0" oct="5" vol="39" pos="15024" len="24" />
          <note tone="5" pan="0" oct="5" vol="37" pos="15024" len="24" />
          <note tone="2" pan="0" oct="5" vol="39" pos="15060" len="24" />
          <note tone="11" pan="0" oct="4" vol="46" pos="15060" len="24" />
          <note tone="4" pan="0" oct="5" vol="42" pos="15060" len="24" />
          <note tone="2" pan="0" oct="5" vol="34" pos="15096" len="24" />
          <note tone="8" pan="0" oct="5" vol="36" pos="15096" len="24" />
          <note tone="11" pan="0" oct="5" vol="35" pos="15096" len="24" />
          <note tone="2" pan="0" oct="6" vol="38" pos="15132" len="24" />
          <note tone="7" pan="0" oct="5" vol="53" pos="15132" len="24" />
          <note tone="11" pan="0" oct="5" vol="45" pos="15132" len="24" />
          <note tone="5" pan="0" oct="5" vol="36" pos="15132" len="24" />
          <note tone="9" pan="0" oct="5" vol="44" pos="15168" len="24" />
          <note tone="4" pan="0" oct="5" vol="42" pos="15168" len="24" />
          <note tone="0" pan="0" oct="6" vol="39" pos="15168" len="24" />
          <note tone="5" pan="0" oct="5" vol="37" pos="15768" len="12" />
          <note tone="8" pan="0" oct="5" vol="32" pos="15768" len="12" />
          <note tone="2" pan="0" oct="5" vol="42" pos="15780" len="24" />
          <note tone="8" pan="0" oct="5" vol="32" pos="15780" len="24" />
          <note tone="5" pan="0" oct="5" vol="34" pos="15780" len="24" />
          <note tone="2" pan="0" oct="5" vol="29" pos="15804" len="12" />
          <note tone="5" pan="0" oct="5" vol="31" pos="15804" len="12" />
          <note tone="8" pan="0" oct="5" vol="31" pos="15804" len="12" />
          <note tone="5" pan="0" oct="5" vol="42" pos="15816" len="24" />
          <note tone="11" pan="0" oct="4" vol="38" pos="15816" len="24" />
          <note tone="2" pan="0" oct="5" vol="42" pos="15816" len="24" />
          <note tone="8" pan="0" oct="5" vol="32" pos="15816" len="24" />
          <note tone="8" pan="0" oct="5" vol="29" pos="15840" len="12" />
          <note tone="11" pan="0" oct="4" vol="32" pos="15840" len="12" />
          <note tone="2" pan="0" oct="5" vol="33" pos="15840" len="12" />
          <note tone="5" pan="0" oct="5" vol="35" pos="15840" len="12" />
          <note tone="4" pan="0" oct="4" vol="45" pos="15900" len="12" />
          <note tone="0" pan="0" oct="4" vol="34" pos="15900" len="12" />
          <note tone="9" pan="0" oct="4" vol="39" pos="15900" len="12" />
          <note tone="2" pan="0" oct="4" vol="40" pos="15912" len="12" />
          <note tone="4" pan="0" oct="4" vol="34" pos="15912" len="12" />
          <note tone="11" pan="0" oct="3" vol="37" pos="15912" len="12" />
          <note tone="4" pan="0" oct="4" vol="47" pos="15924" len="24" />
          <note tone="9" pan="0" oct="3" vol="35" pos="15924" len="24" />
          <note tone="9" pan="0" oct="4" vol="36" pos="15924" len="24" />
        </pattern>
      </track>
      <track muted="0" type="0" >
        <channeltrack surpos="122816786" fxch="0" baseoct="5" vol="42" name="Church Organ" basetone="9" tab="2" >
          <tripleoscillator userwavefile1="samples/empty.wav" wavetype1="5" coarse1="0" userwavefile2="samples/empty.wav" wavetype2="2" coarse2="0" vol0="100" vol1="100" finel0="0" vol2="100" finel1="22" finel2="-25" modalgo1="1" stphdetun0="66" pan0="0" modalgo2="0" stphdetun1="275" pan1="0" stphdetun2="0" pan2="0" phoffset0="0" phoffset1="0" phoffset2="0" finer0="0" finer1="12" finer2="-13" userwavefile0="samples/empty.wav" wavetype0="5" coarse0="0" />
          <eldata fres="1" ftype="0" fcut="6028" fwet="1" >
            <elvol lpdel="0" amt="1" rel="0.138" ctlenvamt="0" latt="0" sus="0" lspd="0.1" att="0.019" pdel="0" lamt="0" dec="0.374" x100="0" lshp="0" hold="0" />
            <elcut lpdel="0" amt="0" rel="0.1" ctlenvamt="0" latt="0" sus="0.5" lspd="0.1" att="0" pdel="0" lamt="0" dec="0.5" x100="0" lshp="0" hold="0.5" />
            <elres lpdel="0" amt="0" rel="0" ctlenvamt="0" latt="0" sus="0.5" lspd="0.1" att="0" pdel="0" lamt="0" dec="0.5" x100="0" lshp="0" hold="0.5" />
          </eldata>
          <arpandchords chordrange="3" arprange="1" chord="0" arpgate="100" arp="0" arptime="100" arpdir="0" />
        </channeltrack>
        <pattern type="1" name="Church Organ" pos="0" frozen="0" len="15040" >
          <note tone="9" pan="0" oct="4" vol="39" pos="2742" len="6" />
          <note tone="10" pan="0" oct="4" vol="32" pos="2748" len="6" />
          <note tone="7" pan="0" oct="4" vol="32" pos="2754" len="6" />
          <note tone="9" pan="0" oct="4" vol="32" pos="2760" len="24" />
          <note tone="9" pan="0" oct="4" vol="35" pos="6096" len="12" />
          <note tone="0" pan="0" oct="5" vol="35" pos="6108" len="6" />
          <note tone="11" pan="0" oct="4" vol="17" pos="6114" len="6" />
          <note tone="0" pan="0" oct="5" vol="32" pos="6120" len="6" />
          <note tone="9" pan="0" oct="4" vol="20" pos="6126" len="6" />
          <note tone="11" pan="0" oct="4" vol="33" pos="6132" len="12" />
          <note tone="4" pan="0" oct="4" vol="32" pos="6144" len="6" />
          <note tone="11" pan="0" oct="4" vol="30" pos="6150" len="6" />
          <note tone="4" pan="0" oct="5" vol="26" pos="6156" len="6" />
          <note tone="11" pan="0" oct="4" vol="31" pos="6162" len="6" />
          <note tone="0" pan="0" oct="5" vol="42" pos="6168" len="12" />
          <note tone="9" pan="0" oct="4" vol="50" pos="6180" len="12" />
          <note tone="4" pan="0" oct="5" vol="36" pos="6192" len="12" />
          <note tone="5" pan="0" oct="5" vol="41" pos="6204" len="6" />
          <note tone="4" pan="0" oct="5" vol="35" pos="6210" len="6" />
          <note tone="5" pan="0" oct="5" vol="39" pos="6216" len="6" />
          <note tone="2" pan="0" oct="5" vol="34" pos="6222" len="6" />
          <note tone="5" pan="0" oct="5" vol="21" pos="6228" len="6" />
          <note tone="0" pan="0" oct="5" vol="39" pos="6234" len="6" />
          <note tone="5" pan="0" oct="5" vol="35" pos="6240" len="6" />
          <note tone="2" pan="0" oct="5" vol="26" pos="6246" len="6" />
          <note tone="5" pan="0" oct="5" vol="21" pos="6252" len="6" />
          <note tone="11" pan="0" oct="4" vol="35" pos="6258" len="6" />
          <note tone="5" pan="0" oct="5" vol="30" pos="6264" len="6" />
          <note tone="7" pan="0" oct="4" vol="33" pos="6270" len="6" />
          <note tone="4" pan="0" oct="5" vol="42" pos="6276" len="6" />
          <note tone="2" pan="0" oct="5" vol="30" pos="6282" len="6" />
          <note tone="4" pan="0" oct="5" vol="40" pos="6288" len="6" />
          <note tone="0" pan="0" oct="5" vol="31" pos="6294" len="6" />
          <note tone="4" pan="0" oct="5" vol="21" pos="6300" len="6" />
          <note tone="11" pan="0" oct="4" vol="32" pos="6306" len="6" />
          <note tone="4" pan="0" oct="5" vol="33" pos="6312" len="6" />
          <note tone="0" pan="0" oct="5" vol="42" pos="6318" len="6" />
          <note tone="4" pan="0" oct="5" vol="33" pos="6324" len="6" />
          <note tone="9" pan="0" oct="4" vol="35" pos="6330" len="6" />
          <note tone="4" pan="0" oct="5" vol="25" pos="6336" len="6" />
          <note tone="5" pan="0" oct="4" vol="34" pos="6342" len="6" />
          <note tone="2" pan="0" oct="5" vol="40" pos="6348" len="6" />
          <note tone="0" pan="0" oct="5" vol="30" pos="6354" len="6" />
          <note tone="2" pan="0" oct="5" vol="26" pos="6360" len="6" />
          <note tone="11" pan="0" oct="4" vol="31" pos="6366" len="6" />
          <note tone="2" pan="0" oct="5" vol="35" pos="6372" len="6" />
          <note tone="9" pan="0" oct="4" vol="26" pos="6378" len="6" />
          <note tone="2" pan="0" oct="5" vol="33" pos="6384" len="6" />
          <note tone="11" pan="0" oct="4" vol="23" pos="6390" len="6" />
          <note tone="2" pan="0" oct="5" vol="20" pos="6396" len="6" />
          <note tone="8" pan="0" oct="4" vol="34" pos="6402" len="6" />
          <note tone="2" pan="0" oct="5" vol="19" pos="6408" len="6" />
          <note tone="4" pan="0" oct="4" vol="33" pos="6414" len="6" />
          <note tone="0" pan="0" oct="5" vol="41" pos="6420" len="6" />
          <note tone="11" pan="0" oct="4" vol="19" pos="6426" len="6" />
          <note tone="0" pan="0" oct="5" vol="32" pos="6432" len="6" />
          <note tone="8" pan="0" oct="4" vol="28" pos="6438" len="6" />
          <note tone="9" pan="0" oct="4" vol="25" pos="6444" len="6" />
          <note tone="0" pan="0" oct="5" vol="41" pos="6450" len="6" />
          <note tone="4" pan="0" oct="5" vol="35" pos="6456" len="6" />
          <note tone="11" pan="0" oct="4" vol="25" pos="6462" len="6" />
          <note tone="0" pan="0" oct="5" vol="30" pos="6468" len="6" />
          <note tone="4" pan="0" oct="5" vol="30" pos="6474" len="6" />
          <note tone="9" pan="0" oct="5" vol="35" pos="6480" len="6" />
          <note tone="6" pan="0" oct="5" vol="22" pos="6486" len="6" />
          <note tone="7" pan="0" oct="5" vol="24" pos="6492" len="18" />
          <note tone="9" pan="0" oct="5" vol="36" pos="6510" len="6" />
          <note tone="7" pan="0" oct="5" vol="38" pos="6516" len="6" />
          <note tone="6" pan="0" oct="5" vol="32" pos="6522" len="6" />
          <note tone="7" pan="0" oct="5" vol="41" pos="6528" len="18" />
          <note tone="3" pan="0" oct="5" vol="10" pos="6546" len="6" />
          <note tone="4" pan="0" oct="5" vol="38" pos="6552" len="6" />
          <note tone="11" pan="0" oct="4" vol="21" pos="6558" len="6" />
          <note tone="1" pan="0" oct="5" vol="31" pos="6564" len="6" />
          <note tone="7" pan="0" oct="4" vol="33" pos="6570" len="6" />
          <note tone="9" pan="0" oct="4" vol="24" pos="6576" len="6" />
          <note tone="1" pan="0" oct="5" vol="21" pos="6582" len="6" />
          <note tone="4" pan="0" oct="5" vol="17" pos="6588" len="6" />
          <note tone="2" pan="0" oct="5" vol="38" pos="6594" len="6" />
          <note tone="1" pan="0" oct="5" vol="32" pos="6600" len="6" />
          <note tone="4" pan="0" oct="5" vol="34" pos="6606" len="6" />
          <note tone="9" pan="0" oct="5" vol="31" pos="6612" len="6" />
          <note tone="7" pan="0" oct="5" vol="30" pos="6618" len="6" />
          <note tone="5" pan="0" oct="5" vol="33" pos="6624" len="6" />
          <note tone="4" pan="0" oct="5" vol="26" pos="6630" len="6" />
          <note tone="2" pan="0" oct="5" vol="32" pos="6636" len="48" />
          <note tone="0" pan="0" oct="5" vol="42" pos="6684" len="30" />
          <note tone="0" pan="0" oct="5" vol="38" pos="6714" len="6" />
          <note tone="11" pan="0" oct="4" vol="32" pos="6720" len="6" />
          <note tone="9" pan="0" oct="4" vol="28" pos="6726" len="6" />
          <note tone="11" pan="0" oct="4" vol="29" pos="6732" len="6" />
          <note tone="8" pan="0" oct="4" vol="26" pos="6738" len="6" />
          <note tone="9" pan="0" oct="4" vol="36" pos="6744" len="12" />
          <note tone="0" pan="0" oct="5" vol="17" pos="6756" len="12" />
          <note tone="9" pan="0" oct="4" vol="39" pos="6768" len="12" />
          <note tone="2" pan="0" oct="5" vol="35" pos="6780" len="42" />
          <note tone="2" pan="0" oct="5" vol="38" pos="6822" len="6" />
          <note tone="0" pan="0" oct="5" vol="34" pos="6828" len="6" />
          <note tone="11" pan="0" oct="4" vol="34" pos="6834" len="6" />
          <note tone="0" pan="0" oct="5" vol="31" pos="6840" len="6" />
          <note tone="9" pan="0" oct="4" vol="25" pos="6846" len="6" />
          <note tone="11" pan="0" oct="4" vol="28" pos="6852" len="12" />
          <note tone="0" pan="0" oct="5" vol="39" pos="6864" len="12" />
          <note tone="9" pan="0" oct="4" vol="37" pos="6876" len="12" />
          <note tone="11" pan="0" oct="4" vol="39" pos="6888" len="12" />
          <note tone="11" pan="0" oct="4" vol="39" pos="6900" len="30" />
          <note tone="11" pan="0" oct="4" vol="43" pos="6930" len="6" />
          <note tone="4" pan="0" oct="5" vol="32" pos="6936" len="6" />
          <note tone="3" pan="0" oct="5" vol="26" pos="6942" len="6" />
          <note tone="4" pan="0" oct="5" vol="39" pos="6948" len="24" />
          <note tone="3" pan="0" oct="5" vol="32" pos="6972" len="6" />
          <note tone="1" pan="0" oct="5" vol="31" pos="6978" len="6" />
          <note tone="3" pan="0" oct="5" vol="32" pos="6984" len="24" />
          <note tone="4" pan="0" oct="5" vol="42" pos="7008" len="12" />
          <note tone="2" pan="0" oct="5" vol="34" pos="7020" len="12" />
          <note tone="4" pan="0" oct="5" vol="39" pos="7032" len="12" />
          <note tone="6" pan="0" oct="5" vol="29" pos="7044" len="12" />
          <note tone="7" pan="0" oct="5" vol="28" pos="7056" len="12" />
          <note tone="9" pan="0" oct="5" vol="35" pos="7068" len="24" />
          <note tone="2" pan="0" oct="5" vol="47" pos="7104" len="12" />
          <note tone="4" pan="0" oct="5" vol="42" pos="7116" len="12" />
          <note tone="6" pan="0" oct="5" vol="28" pos="7128" len="12" />
          <note tone="7" pan="0" oct="5" vol="38" pos="7140" len="24" />
          <note tone="4" pan="0" oct="5" vol="34" pos="7176" len="12" />
          <note tone="2" pan="0" oct="5" vol="39" pos="7188" len="6" />
          <note tone="0" pan="0" oct="5" vol="40" pos="7194" len="6" />
          <note tone="11" pan="0" oct="4" vol="25" pos="7200" len="6" />
          <note tone="9" pan="0" oct="4" vol="40" pos="7206" len="6" />
          <note tone="3" pan="0" oct="5" vol="22" pos="7212" len="48" />
          <note tone="4" pan="0" oct="5" vol="38" pos="7260" len="24" />
          <note tone="2" pan="0" oct="5" vol="26" pos="7320" len="36" />
          <note tone="0" pan="0" oct="5" vol="41" pos="7392" len="36" />
          <note tone="11" pan="0" oct="4" vol="39" pos="7464" len="144" />
          <note tone="9" pan="0" oct="5" vol="36" pos="8184" len="60" />
          <note tone="8" pan="0" oct="5" vol="28" pos="8244" len="12" />
          <note tone="9" pan="0" oct="5" vol="34" pos="8256" len="60" />
          <note tone="9" pan="0" oct="5" vol="32" pos="8316" len="12" />
          <note tone="7" pan="0" oct="5" vol="45" pos="8328" len="60" />
          <note tone="5" pan="0" oct="5" vol="53" pos="8400" len="24" />
          <note tone="0" pan="0" oct="6" vol="28" pos="8424" len="24" />
          <note tone="11" pan="0" oct="5" vol="37" pos="8448" len="6" />
          <note tone="9" pan="0" oct="5" vol="37" pos="8454" len="6" />
          <note tone="8" pan="0" oct="5" vol="25" pos="8460" len="6" />
          <note tone="9" pan="0" oct="5" vol="35" pos="8466" len="6" />
          <note tone="11" pan="0" oct="5" vol="31" pos="8472" len="48" />
          <note tone="9" pan="0" oct="5" vol="41" pos="8520" len="12" />
          <note tone="0" pan="0" oct="6" vol="32" pos="8532" len="24" />
          <note tone="11" pan="0" oct="5" vol="40" pos="8556" len="12" />
          <note tone="4" pan="0" oct="6" vol="28" pos="8568" len="12" />
          <note tone="3" pan="0" oct="6" vol="22" pos="8580" len="6" />
          <note tone="6" pan="0" oct="6" vol="27" pos="8586" len="6" />
          <note tone="11" pan="0" oct="6" vol="27" pos="8592" len="6" />
          <note tone="3" pan="0" oct="6" vol="34" pos="8598" len="6" />
          <note tone="4" pan="0" oct="6" vol="33" pos="8604" len="18" />
          <note tone="9" pan="0" oct="6" vol="32" pos="8622" len="6" />
          <note tone="6" pan="0" oct="6" vol="35" pos="8628" len="18" />
          <note tone="4" pan="0" oct="6" vol="36" pos="8646" len="6" />
          <note tone="4" pan="0" oct="6" vol="44" pos="8652" len="24" />
          <note tone="6" pan="0" oct="4" vol="21" pos="8730" len="6" />
          <note tone="7" pan="0" oct="4" vol="17" pos="8736" len="6" />
          <note tone="3" pan="0" oct="4" vol="20" pos="8742" len="6" />
          <note tone="4" pan="0" oct="4" vol="27" pos="8748" len="6" />
          <note tone="10" pan="0" oct="3" vol="23" pos="8754" len="6" />
          <note tone="11" pan="0" oct="3" vol="36" pos="8760" len="6" />
          <note tone="3" pan="0" oct="4" vol="18" pos="8766" len="6" />
          <note tone="6" pan="0" oct="4" vol="36" pos="8772" len="6" />
          <note tone="0" pan="0" oct="5" vol="22" pos="8778" len="6" />
          <note tone="9" pan="0" oct="4" vol="39" pos="8784" len="6" />
          <note tone="6" pan="0" oct="4" vol="29" pos="8790" len="6" />
          <note tone="7" pan="0" oct="4" vol="32" pos="8796" len="12" />
          <note tone="4" pan="0" oct="4" vol="33" pos="8808" len="12" />
          <note tone="11" pan="0" oct="4" vol="33" pos="8820" len="12" />
          <note tone="0" pan="0" oct="5" vol="39" pos="8832" len="6" />
          <note tone="11" pan="0" oct="4" vol="36" pos="8838" len="6" />
          <note tone="0" pan="0" oct="5" vol="42" pos="8844" len="6" />
          <note tone="9" pan="0" oct="4" vol="40" pos="8850" len="6" />
          <note tone="0" pan="0" oct="5" vol="36" pos="8856" len="6" />
          <note tone="7" pan="0" oct="4" vol="39" pos="8862" len="6" />
          <note tone="0" pan="0" oct="5" vol="42" pos="8868" len="6" />
          <note tone="9" pan="0" oct="4" vol="33" pos="8874" len="6" />
          <note tone="0" pan="0" oct="5" vol="37" pos="8880" len="6" />
          <note tone="6" pan="0" oct="4" vol="30" pos="8886" len="6" />
          <note tone="0" pan="0" oct="5" vol="38" pos="8892" len="6" />
          <note tone="2" pan="0" oct="4" vol="39" pos="8898" len="6" />
          <note tone="11" pan="0" oct="4" vol="37" pos="8904" len="6" />
          <note tone="9" pan="0" oct="4" vol="36" pos="8910" len="6" />
          <note tone="11" pan="0" oct="4" vol="39" pos="8916" len="6" />
          <note tone="7" pan="0" oct="4" vol="38" pos="8922" len="6" />
          <note tone="11" pan="0" oct="4" vol="34" pos="8928" len="6" />
          <note tone="6" pan="0" oct="4" vol="31" pos="8934" len="6" />
          <note tone="11" pan="0" oct="4" vol="32" pos="8940" len="6" />
          <note tone="7" pan="0" oct="4" vol="30" pos="8946" len="6" />
          <note tone="11" pan="0" oct="4" vol="28" pos="8952" len="6" />
          <note tone="4" pan="0" oct="4" vol="32" pos="8958" len="6" />
          <note tone="11" pan="0" oct="4" vol="29" pos="8964" len="6" />
          <note tone="0" pan="0" oct="4" vol="32" pos="8970" len="6" />
          <note tone="9" pan="0" oct="4" vol="39" pos="8976" len="6" />
          <note tone="7" pan="0" oct="4" vol="32" pos="8982" len="6" />
          <note tone="9" pan="0" oct="4" vol="39" pos="8988" len="6" />
          <note tone="6" pan="0" oct="4" vol="25" pos="8994" len="6" />
          <note tone="9" pan="0" oct="4" vol="42" pos="9000" len="6" />
          <note tone="4" pan="0" oct="4" vol="34" pos="9006" len="6" />
          <note tone="9" pan="0" oct="4" vol="37" pos="9012" len="6" />
          <note tone="6" pan="0" oct="4" vol="25" pos="9018" len="6" />
          <note tone="9" pan="0" oct="4" vol="37" pos="9024" len="6" />
          <note tone="3" pan="0" oct="4" vol="29" pos="9030" len="6" />
          <note tone="9" pan="0" oct="4" vol="31" pos="9036" len="6" />
          <note tone="11" pan="0" oct="3" vol="38" pos="9042" len="6" />
          <note tone="7" pan="0" oct="4" vol="39" pos="9048" len="6" />
          <note tone="6" pan="0" oct="4" vol="28" pos="9054" len="6" />
          <note tone="7" pan="0" oct="4" vol="28" pos="9060" len="6" />
          <note tone="9" pan="0" oct="4" vol="42" pos="9066" len="6" />
          <note tone="11" pan="0" oct="4" vol="37" pos="9072" len="6" />
          <note tone="7" pan="0" oct="4" vol="31" pos="9078" len="6" />
          <note tone="9" pan="0" oct="4" vol="34" pos="9084" len="6" />
          <note tone="7" pan="0" oct="4" vol="34" pos="9090" len="6" />
          <note tone="9" pan="0" oct="4" vol="43" pos="9096" len="6" />
          <note tone="11" pan="0" oct="4" vol="22" pos="9102" len="6" />
          <note tone="0" pan="0" oct="5" vol="42" pos="9108" len="6" />
          <note tone="9" pan="0" oct="4" vol="24" pos="9114" len="6" />
          <note tone="2" pan="0" oct="5" vol="29" pos="9120" len="6" />
          <note tone="0" pan="0" oct="5" vol="21" pos="9126" len="6" />
          <note tone="2" pan="0" oct="5" vol="35" pos="9132" len="6" />
          <note tone="2" pan="0" oct="4" vol="34" pos="9138" len="6" />
          <note tone="6" pan="0" oct="4" vol="32" pos="9144" len="6" />
          <note tone="2" pan="0" oct="4" vol="31" pos="9150" len="6" />
          <note tone="7" pan="0" oct="4" vol="42" pos="9156" len="6" />
          <note tone="6" pan="0" oct="4" vol="34" pos="9162" len="6" />
          <note tone="7" pan="0" oct="4" vol="36" pos="9168" len="6" />
          <note tone="9" pan="0" oct="4" vol="36" pos="9174" len="6" />
          <note tone="11" pan="0" oct="4" vol="43" pos="9180" len="6" />
          <note tone="7" pan="0" oct="4" vol="41" pos="9186" len="6" />
          <note tone="0" pan="0" oct="5" vol="41" pos="9192" len="6" />
          <note tone="11" pan="0" oct="4" vol="28" pos="9198" len="6" />
          <note tone="0" pan="0" oct="5" vol="29" pos="9204" len="6" />
          <note tone="0" pan="0" oct="4" vol="39" pos="9210" len="6" />
          <note tone="4" pan="0" oct="4" vol="34" pos="9216" len="6" />
          <note tone="0" pan="0" oct="4" vol="35" pos="9222" len="6" />
          <note tone="6" pan="0" oct="4" vol="29" pos="9228" len="6" />
          <note tone="4" pan="0" oct="4" vol="30" pos="9234" len="6" />
          <note tone="6" pan="0" oct="4" vol="21" pos="9240" len="6" />
          <note tone="7" pan="0" oct="4" vol="35" pos="9246" len="6" />
          <note tone="9" pan="0" oct="4" vol="37" pos="9252" len="6" />
          <note tone="6" pan="0" oct="4" vol="26" pos="9258" len="6" />
          <note tone="11" pan="0" oct="4" vol="34" pos="9264" len="6" />
          <note tone="9" pan="0" oct="4" vol="28" pos="9270" len="6" />
          <note tone="11" pan="0" oct="4" vol="32" pos="9276" len="6" />
          <note tone="11" pan="0" oct="3" vol="28" pos="9282" len="6" />
          <note tone="3" pan="0" oct="4" vol="31" pos="9288" len="6" />
          <note tone="11" pan="0" oct="3" vol="39" pos="9294" len="6" />
          <note tone="4" pan="0" oct="4" vol="39" pos="9300" len="6" />
          <note tone="3" pan="0" oct="4" vol="23" pos="9306" len="6" />
          <note tone="4" pan="0" oct="4" vol="36" pos="9312" len="6" />
          <note tone="6" pan="0" oct="4" vol="32" pos="9318" len="6" />
          <note tone="7" pan="0" oct="4" vol="42" pos="9324" len="6" />
          <note tone="4" pan="0" oct="4" vol="32" pos="9330" len="6" />
          <note tone="9" pan="0" oct="4" vol="33" pos="9336" len="6" />
          <note tone="8" pan="0" oct="4" vol="28" pos="9342" len="6" />
          <note tone="9" pan="0" oct="4" vol="23" pos="9348" len="6" />
          <note tone="9" pan="0" oct="3" vol="25" pos="9354" len="6" />
          <note tone="0" pan="0" oct="4" vol="36" pos="9360" len="6" />
          <note tone="9" pan="0" oct="3" vol="17" pos="9366" len="6" />
          <note tone="2" pan="0" oct="4" vol="22" pos="9372" len="6" />
          <note tone="1" pan="0" oct="4" vol="27" pos="9378" len="6" />
          <note tone="2" pan="0" oct="4" vol="28" pos="9384" len="6" />
          <note tone="4" pan="0" oct="4" vol="39" pos="9390" len="6" />
          <note tone="5" pan="0" oct="4" vol="35" pos="9396" len="6" />
          <note tone="2" pan="0" oct="4" vol="25" pos="9402" len="6" />
          <note tone="7" pan="0" oct="4" vol="34" pos="9408" len="6" />
          <note tone="6" pan="0" oct="4" vol="29" pos="9414" len="6" />
          <note tone="7" pan="0" oct="4" vol="34" pos="9420" len="6" />
          <note tone="9" pan="0" oct="4" vol="38" pos="9426" len="6" />
          <note tone="11" pan="0" oct="4" vol="39" pos="9432" len="6" />
          <note tone="7" pan="0" oct="4" vol="37" pos="9438" len="6" />
          <note tone="0" pan="0" oct="5" vol="39" pos="9444" len="6" />
          <note tone="2" pan="0" oct="5" vol="14" pos="9450" len="6" />
          <note tone="4" pan="0" oct="5" vol="35" pos="9456" len="6" />
          <note tone="2" pan="0" oct="5" vol="28" pos="9462" len="6" />
          <note tone="4" pan="0" oct="5" vol="35" pos="9468" len="6" />
          <note tone="0" pan="0" oct="5" vol="33" pos="9474" len="6" />
          <note tone="5" pan="0" oct="4" vol="25" pos="9552" len="6" />
          <note tone="7" pan="0" oct="4" vol="30" pos="9558" len="6" />
          <note tone="5" pan="0" oct="4" vol="32" pos="9564" len="6" />
          <note tone="4" pan="0" oct="4" vol="17" pos="9570" len="6" />
          <note tone="2" pan="0" oct="4" vol="36" pos="9576" len="6" />
          <note tone="0" pan="0" oct="4" vol="40" pos="9582" len="6" />
          <note tone="11" pan="0" oct="3" vol="32" pos="9588" len="6" />
          <note tone="7" pan="0" oct="4" vol="37" pos="9600" len="6" />
          <note tone="11" pan="0" oct="3" vol="40" pos="9612" len="6" />
          <note tone="4" pan="0" oct="4" vol="30" pos="9624" len="6" />
          <note tone="5" pan="0" oct="4" vol="42" pos="9630" len="6" />
          <note tone="4" pan="0" oct="4" vol="34" pos="9636" len="6" />
          <note tone="2" pan="0" oct="4" vol="35" pos="9642" len="6" />
          <note tone="0" pan="0" oct="4" vol="37" pos="9648" len="6" />
          <note tone="11" pan="0" oct="3" vol="39" pos="9654" len="6" />
          <note tone="9" pan="0" oct="3" vol="43" pos="9660" len="6" />
          <note tone="9" pan="0" oct="4" vol="39" pos="9672" len="6" />
          <note tone="9" pan="0" oct="3" vol="33" pos="9684" len="6" />
          <note tone="2" pan="0" oct="4" vol="24" pos="9696" len="6" />
          <note tone="4" pan="0" oct="4" vol="42" pos="9702" len="6" />
          <note tone="2" pan="0" oct="4" vol="37" pos="9708" len="6" />
          <note tone="0" pan="0" oct="4" vol="39" pos="9714" len="6" />
          <note tone="11" pan="0" oct="3" vol="46" pos="9720" len="6" />
          <note tone="9" pan="0" oct="3" vol="50" pos="9726" len="6" />
          <note tone="7" pan="0" oct="3" vol="44" pos="9732" len="6" />
          <note tone="7" pan="0" oct="4" vol="33" pos="9744" len="6" />
          <note tone="7" pan="0" oct="3" vol="31" pos="9756" len="6" />
          <note tone="0" pan="0" oct="4" vol="25" pos="9768" len="12" />
          <note tone="0" pan="0" oct="5" vol="38" pos="9780" len="12" />
          <note tone="11" pan="0" oct="4" vol="29" pos="9792" len="12" />
          <note tone="9" pan="0" oct="4" vol="34" pos="9804" len="6" />
          <note tone="9" pan="0" oct="3" vol="28" pos="9816" len="6" />
          <note tone="9" pan="0" oct="4" vol="28" pos="9828" len="6" />
          <note tone="2" pan="0" oct="4" vol="32" pos="9840" len="12" />
          <note tone="2" pan="0" oct="5" vol="32" pos="9852" len="12" />
          <note tone="0" pan="0" oct="5" vol="32" pos="9864" len="12" />
          <note tone="11" pan="0" oct="4" vol="39" pos="9876" len="6" />
          <note tone="11" pan="0" oct="3" vol="38" pos="9888" len="6" />
          <note tone="11" pan="0" oct="4" vol="37" pos="9900" len="6" />
          <note tone="4" pan="0" oct="4" vol="38" pos="9912" len="12" />
          <note tone="4" pan="0" oct="5" vol="33" pos="9924" len="12" />
          <note tone="2" pan="0" oct="5" vol="37" pos="9936" len="12" />
          <note tone="0" pan="0" oct="5" vol="36" pos="9948" len="6" />
          <note tone="0" pan="0" oct="4" vol="30" pos="9960" len="6" />
          <note tone="0" pan="0" oct="5" vol="30" pos="9972" len="6" />
          <note tone="6" pan="0" oct="4" vol="32" pos="9984" len="12" />
          <note tone="4" pan="0" oct="4" vol="30" pos="9996" len="12" />
          <note tone="6" pan="0" oct="4" vol="25" pos="10008" len="12" />
          <note tone="7" pan="0" oct="4" vol="34" pos="10020" len="12" />
          <note tone="6" pan="0" oct="4" vol="28" pos="10032" len="12" />
          <note tone="7" pan="0" oct="4" vol="32" pos="10044" len="12" />
          <note tone="0" pan="0" oct="4" vol="26" pos="10056" len="12" />
          <note tone="11" pan="0" oct="3" vol="39" pos="10068" len="12" />
          <note tone="0" pan="0" oct="4" vol="24" pos="10080" len="12" />
          <note tone="2" pan="0" oct="4" vol="33" pos="10092" len="12" />
          <note tone="0" pan="0" oct="4" vol="21" pos="10104" len="12" />
          <note tone="2" pan="0" oct="4" vol="27" pos="10116" len="12" />
          <note tone="11" pan="0" oct="4" vol="32" pos="10128" len="12" />
          <note tone="7" pan="0" oct="4" vol="28" pos="10140" len="12" />
          <note tone="0" pan="0" oct="5" vol="37" pos="10152" len="24" />
          <note tone="11" pan="0" oct="4" vol="25" pos="10176" len="12" />
          <note tone="9" pan="0" oct="4" vol="38" pos="10188" len="12" />
          <note tone="7" pan="0" oct="4" vol="39" pos="10200" len="12" />
          <note tone="9" pan="0" oct="4" vol="29" pos="10212" len="12" />
          <note tone="11" pan="0" oct="4" vol="33" pos="10224" len="12" />
          <note tone="0" pan="0" oct="5" vol="37" pos="10236" len="48" />
          <note tone="11" pan="0" oct="4" vol="32" pos="10284" len="12" />
          <note tone="9" pan="0" oct="4" vol="35" pos="10296" len="12" />
          <note tone="11" pan="0" oct="4" vol="45" pos="10308" len="48" />
          <note tone="9" pan="0" oct="4" vol="34" pos="10356" len="12" />
          <note tone="7" pan="0" oct="4" vol="28" pos="10368" len="12" />
          <note tone="9" pan="0" oct="4" vol="32" pos="10380" len="48" />
          <note tone="7" pan="0" oct="4" vol="46" pos="10428" len="12" />
          <note tone="6" pan="0" oct="4" vol="27" pos="10440" len="12" />
          <note tone="7" pan="0" oct="4" vol="35" pos="10452" len="12" />
          <note tone="6" pan="0" oct="4" vol="28" pos="10464" len="12" />
          <note tone="4" pan="0" oct="4" vol="32" pos="10476" len="12" />
          <note tone="6" pan="0" oct="4" vol="33" pos="10488" len="12" />
          <note tone="4" pan="0" oct="4" vol="35" pos="10500" len="12" />
          <note tone="6" pan="0" oct="4" vol="27" pos="10512" len="12" />
          <note tone="7" pan="0" oct="4" vol="39" pos="10524" len="12" />
          <note tone="6" pan="0" oct="4" vol="28" pos="10536" len="12" />
          <note tone="7" pan="0" oct="4" vol="39" pos="10548" len="12" />
          <note tone="9" pan="0" oct="4" vol="37" pos="10560" len="12" />
          <note tone="7" pan="0" oct="4" vol="25" pos="10572" len="12" />
          <note tone="9" pan="0" oct="4" vol="41" pos="10584" len="12" />
          <note tone="11" pan="0" oct="4" vol="31" pos="10596" len="12" />
          <note tone="9" pan="0" oct="4" vol="32" pos="10608" len="12" />
          <note tone="11" pan="0" oct="4" vol="30" pos="10620" len="12" />
          <note tone="1" pan="0" oct="5" vol="31" pos="10632" len="18" />
          <note tone="2" pan="0" oct="5" vol="32" pos="10650" len="6" />
          <note tone="11" pan="0" oct="4" vol="34" pos="10656" len="6" />
          <note tone="1" pan="0" oct="5" vol="35" pos="10662" len="6" />
          <note tone="2" pan="0" oct="5" vol="31" pos="10668" len="6" />
          <note tone="4" pan="0" oct="5" vol="33" pos="10674" len="6" />
          <note tone="5" pan="0" oct="5" vol="35" pos="10680" len="6" />
          <note tone="4" pan="0" oct="5" vol="27" pos="10686" len="6" />
          <note tone="5" pan="0" oct="5" vol="35" pos="10692" len="6" />
          <note tone="2" pan="0" oct="5" vol="32" pos="10698" len="6" />
          <note tone="4" pan="0" oct="5" vol="29" pos="10704" len="12" />
          <note tone="9" pan="0" oct="4" vol="43" pos="10716" len="6" />
          <note tone="4" pan="0" oct="5" vol="32" pos="10722" len="6" />
          <note tone="9" pan="0" oct="5" vol="25" pos="10728" len="6" />
          <note tone="4" pan="0" oct="5" vol="25" pos="10734" len="6" />
          <note tone="5" pan="0" oct="5" vol="18" pos="10740" len="12" />
          <note tone="2" pan="0" oct="5" vol="32" pos="10752" len="12" />
          <note tone="9" pan="0" oct="5" vol="32" pos="10764" len="12" />
          <note tone="10" pan="0" oct="5" vol="31" pos="10776" len="6" />
          <note tone="9" pan="0" oct="5" vol="30" pos="10782" len="6" />
          <note tone="10" pan="0" oct="5" vol="29" pos="10788" len="6" />
          <note tone="7" pan="0" oct="5" vol="33" pos="10794" len="6" />
          <note tone="10" pan="0" oct="5" vol="29" pos="10800" len="6" />
          <note tone="5" pan="0" oct="5" vol="25" pos="10806" len="6" />
          <note tone="10" pan="0" oct="5" vol="21" pos="10812" len="6" />
          <note tone="7" pan="0" oct="5" vol="26" pos="10818" len="6" />
          <note tone="10" pan="0" oct="5" vol="28" pos="10824" len="6" />
          <note tone="4" pan="0" oct="5" vol="39" pos="10830" len="6" />
          <note tone="10" pan="0" oct="5" vol="30" pos="10836" len="6" />
          <note tone="1" pan="0" oct="5" vol="28" pos="10842" len="6" />
          <note tone="9" pan="0" oct="5" vol="39" pos="10848" len="6" />
          <note tone="7" pan="0" oct="5" vol="39" pos="10854" len="6" />
          <note tone="9" pan="0" oct="5" vol="35" pos="10860" len="6" />
          <note tone="5" pan="0" oct="5" vol="36" pos="10866" len="6" />
          <note tone="9" pan="0" oct="5" vol="25" pos="10872" len="6" />
          <note tone="4" pan="0" oct="5" vol="38" pos="10878" len="6" />
          <note tone="9" pan="0" oct="5" vol="29" pos="10884" len="6" />
          <note tone="5" pan="0" oct="5" vol="31" pos="10890" len="6" />
          <note tone="9" pan="0" oct="5" vol="32" pos="10896" len="6" />
          <note tone="2" pan="0" oct="5" vol="26" pos="10902" len="6" />
          <note tone="9" pan="0" oct="5" vol="22" pos="10908" len="6" />
          <note tone="11" pan="0" oct="4" vol="39" pos="10914" len="6" />
          <note tone="7" pan="0" oct="5" vol="34" pos="10920" len="6" />
          <note tone="5" pan="0" oct="5" vol="31" pos="10926" len="6" />
          <note tone="7" pan="0" oct="5" vol="40" pos="10932" len="6" />
          <note tone="4" pan="0" oct="5" vol="26" pos="10938" len="6" />
          <note tone="7" pan="0" oct="5" vol="35" pos="10944" len="6" />
          <note tone="2" pan="0" oct="5" vol="39" pos="10950" len="6" />
          <note tone="7" pan="0" oct="5" vol="34" pos="10956" len="6" />
          <note tone="4" pan="0" oct="5" vol="33" pos="10962" len="6" />
          <note tone="7" pan="0" oct="5" vol="32" pos="10968" len="6" />
          <note tone="1" pan="0" oct="5" vol="36" pos="10974" len="6" />
          <note tone="7" pan="0" oct="5" vol="33" pos="10980" len="6" />
          <note tone="9" pan="0" oct="4" vol="35" pos="10986" len="6" />
          <note tone="5" pan="0" oct="5" vol="23" pos="10992" len="6" />
          <note tone="2" pan="0" oct="5" vol="39" pos="11004" len="6" />
          <note tone="5" pan="0" oct="5" vol="35" pos="11016" len="6" />
          <note tone="7" pan="0" oct="4" vol="41" pos="11028" len="6" />
          <note tone="10" pan="0" oct="4" vol="23" pos="11034" len="6" />
          <note tone="2" pan="0" oct="5" vol="19" pos="11040" len="6" />
          <note tone="5" pan="0" oct="5" vol="30" pos="11046" len="6" />
          <note tone="7" pan="0" oct="5" vol="39" pos="11052" len="6" />
          <note tone="5" pan="0" oct="5" vol="35" pos="11058" len="6" />
          <note tone="4" pan="0" oct="5" vol="21" pos="11064" len="6" />
          <note tone="0" pan="0" oct="5" vol="41" pos="11076" len="6" />
          <note tone="4" pan="0" oct="5" vol="32" pos="11088" len="6" />
          <note tone="5" pan="0" oct="4" vol="17" pos="11100" len="6" />
          <note tone="9" pan="0" oct="4" vol="12" pos="11106" len="6" />
          <note tone="0" pan="0" oct="5" vol="13" pos="11112" len="6" />
          <note tone="3" pan="0" oct="5" vol="32" pos="11118" len="6" />
          <note tone="5" pan="0" oct="5" vol="39" pos="11124" len="6" />
          <note tone="3" pan="0" oct="5" vol="35" pos="11130" len="6" />
          <note tone="2" pan="0" oct="5" vol="34" pos="11136" len="48" />
          <note tone="0" pan="0" oct="5" vol="37" pos="11184" len="6" />
          <note tone="11" pan="0" oct="4" vol="39" pos="11190" len="6" />
          <note tone="0" pan="0" oct="5" vol="42" pos="11196" len="24" />
          <note tone="11" pan="0" oct="4" vol="37" pos="11220" len="6" />
          <note tone="9" pan="0" oct="4" vol="51" pos="11226" len="6" />
          <note tone="11" pan="0" oct="4" vol="34" pos="11232" len="24" />
          <note tone="9" pan="0" oct="4" vol="37" pos="11256" len="6" />
          <note tone="8" pan="0" oct="4" vol="30" pos="11262" len="6" />
          <note tone="9" pan="0" oct="4" vol="35" pos="11268" len="24" />
          <note tone="8" pan="0" oct="4" vol="32" pos="11292" len="6" />
          <note tone="6" pan="0" oct="4" vol="27" pos="11298" len="6" />
          <note tone="8" pan="0" oct="4" vol="25" pos="11304" len="12" />
          <note tone="9" pan="0" oct="4" vol="35" pos="11316" len="6" />
          <note tone="11" pan="0" oct="4" vol="42" pos="11328" len="6" />
          <note tone="0" pan="0" oct="5" vol="40" pos="11340" len="6" />
          <note tone="2" pan="0" oct="5" vol="35" pos="11352" len="24" />
          <note tone="11" pan="0" oct="4" vol="30" pos="11388" len="6" />
          <note tone="0" pan="0" oct="5" vol="30" pos="11400" len="6" />
          <note tone="2" pan="0" oct="5" vol="37" pos="11412" len="6" />
          <note tone="4" pan="0" oct="5" vol="31" pos="11424" len="24" />
          <note tone="0" pan="0" oct="5" vol="37" pos="11460" len="6" />
          <note tone="2" pan="0" oct="5" vol="32" pos="11472" len="6" />
          <note tone="4" pan="0" oct="5" vol="23" pos="11484" len="6" />
          <note tone="5" pan="0" oct="5" vol="32" pos="11496" len="24" />
          <note tone="2" pan="0" oct="5" vol="32" pos="11532" len="6" />
          <note tone="5" pan="0" oct="5" vol="32" pos="11538" len="6" />
          <note tone="2" pan="0" oct="5" vol="35" pos="11544" len="6" />
          <note tone="7" pan="0" oct="5" vol="33" pos="11550" len="6" />
          <note tone="2" pan="0" oct="5" vol="36" pos="11556" len="6" />
          <note tone="9" pan="0" oct="5" vol="20" pos="11562" len="6" />
          <note tone="7" pan="0" oct="4" vol="32" pos="11568" len="6" />
          <note tone="7" pan="0" oct="5" vol="26" pos="11574" len="6" />
          <note tone="9" pan="0" oct="4" vol="39" pos="11580" len="6" />
          <note tone="7" pan="0" oct="5" vol="25" pos="11586" len="6" />
          <note tone="11" pan="0" oct="4" vol="34" pos="11592" len="6" />
          <note tone="7" pan="0" oct="5" vol="28" pos="11598" len="6" />
          <note tone="0" pan="0" oct="5" vol="38" pos="11604" len="6" />
          <note tone="4" pan="0" oct="5" vol="34" pos="11610" len="6" />
          <note tone="0" pan="0" oct="5" vol="49" pos="11616" len="6" />
          <note tone="5" pan="0" oct="5" vol="32" pos="11622" len="6" />
          <note tone="0" pan="0" oct="5" vol="31" pos="11628" len="6" />
          <note tone="7" pan="0" oct="5" vol="22" pos="11634" len="6" />
          <note tone="5" pan="0" oct="4" vol="25" pos="11640" len="6" />
          <note tone="5" pan="0" oct="5" vol="27" pos="11646" len="6" />
          <note tone="7" pan="0" oct="4" vol="33" pos="11652" len="6" />
          <note tone="5" pan="0" oct="5" vol="29" pos="11658" len="6" />
          <note tone="9" pan="0" oct="4" vol="16" pos="11664" len="6" />
          <note tone="5" pan="0" oct="5" vol="25" pos="11670" len="6" />
          <note tone="10" pan="0" oct="4" vol="21" pos="11676" len="6" />
          <note tone="2" pan="0" oct="5" vol="34" pos="11682" len="6" />
          <note tone="10" pan="0" oct="4" vol="22" pos="11688" len="6" />
          <note tone="4" pan="0" oct="5" vol="33" pos="11694" len="6" />
          <note tone="10" pan="0" oct="4" vol="22" pos="11700" len="6" />
          <note tone="5" pan="0" oct="5" vol="34" pos="11706" len="6" />
          <note tone="8" pan="0" oct="4" vol="28" pos="11712" len="6" />
          <note tone="4" pan="0" oct="5" vol="28" pos="11718" len="6" />
          <note tone="9" pan="0" oct="4" vol="47" pos="11724" len="6" />
          <note tone="4" pan="0" oct="5" vol="36" pos="11730" len="6" />
          <note tone="11" pan="0" oct="4" vol="29" pos="11736" len="6" />
          <note tone="4" pan="0" oct="5" vol="32" pos="11742" len="6" />
          <note tone="0" pan="0" oct="5" vol="37" pos="11748" len="6" />
          <note tone="4" pan="0" oct="5" vol="32" pos="11754" len="6" />
          <note tone="0" pan="0" oct="5" vol="32" pos="11760" len="6" />
          <note tone="6" pan="0" oct="5" vol="26" pos="11766" len="6" />
          <note tone="0" pan="0" oct="5" vol="44" pos="11772" len="6" />
          <note tone="8" pan="0" oct="5" vol="33" pos="11778" len="6" />
          <note tone="9" pan="0" oct="4" vol="28" pos="11784" len="6" />
          <note tone="9" pan="0" oct="5" vol="36" pos="11790" len="6" />
          <note tone="7" pan="0" oct="5" vol="33" pos="11796" len="6" />
          <note tone="9" pan="0" oct="5" vol="35" pos="11802" len="6" />
          <note tone="5" pan="0" oct="5" vol="28" pos="11808" len="6" />
          <note tone="9" pan="0" oct="5" vol="29" pos="11814" len="6" />
          <note tone="4" pan="0" oct="5" vol="31" pos="11820" len="6" />
          <note tone="8" pan="0" oct="5" vol="27" pos="11826" len="6" />
          <note tone="4" pan="0" oct="5" vol="35" pos="11832" len="6" />
          <note tone="9" pan="0" oct="5" vol="35" pos="11838" len="6" />
          <note tone="4" pan="0" oct="5" vol="27" pos="11844" len="6" />
          <note tone="11" pan="0" oct="5" vol="27" pos="11850" len="6" />
          <note tone="0" pan="0" oct="5" vol="21" pos="11856" len="6" />
          <note tone="4" pan="0" oct="5" vol="35" pos="11862" len="6" />
          <note tone="0" pan="0" oct="5" vol="32" pos="11868" len="6" />
          <note tone="6" pan="0" oct="5" vol="27" pos="11874" len="6" />
          <note tone="0" pan="0" oct="5" vol="39" pos="11880" len="6" />
          <note tone="8" pan="0" oct="5" vol="19" pos="11886" len="6" />
          <note tone="0" pan="0" oct="5" vol="38" pos="12324" len="6" />
          <note tone="11" pan="0" oct="4" vol="29" pos="12330" len="6" />
          <note tone="0" pan="0" oct="5" vol="35" pos="12336" len="6" />
          <note tone="9" pan="0" oct="4" vol="19" pos="12342" len="6" />
          <note tone="0" pan="0" oct="5" vol="26" pos="12348" len="6" />
          <note tone="8" pan="0" oct="4" vol="28" pos="12354" len="6" />
          <note tone="9" pan="0" oct="4" vol="41" pos="12360" len="6" />
          <note tone="8" pan="0" oct="4" vol="28" pos="12366" len="6" />
          <note tone="9" pan="0" oct="4" vol="36" pos="12372" len="6" />
          <note tone="4" pan="0" oct="4" vol="35" pos="12378" len="6" />
          <note tone="8" pan="0" oct="4" vol="27" pos="12384" len="6" />
          <note tone="4" pan="0" oct="4" vol="36" pos="12390" len="6" />
          <note tone="9" pan="0" oct="4" vol="25" pos="12396" len="6" />
          <note tone="8" pan="0" oct="4" vol="26" pos="12402" len="6" />
          <note tone="9" pan="0" oct="4" vol="37" pos="12408" len="6" />
          <note tone="4" pan="0" oct="4" vol="28" pos="12414" len="6" />
          <note tone="11" pan="0" oct="4" vol="32" pos="12420" len="6" />
          <note tone="4" pan="0" oct="4" vol="39" pos="12426" len="6" />
          <note tone="0" pan="0" oct="5" vol="23" pos="12432" len="6" />
          <note tone="11" pan="0" oct="4" vol="24" pos="12438" len="6" />
          <note tone="0" pan="0" oct="5" vol="41" pos="12444" len="6" />
          <note tone="9" pan="0" oct="4" vol="23" pos="12450" len="6" />
          <note tone="2" pan="0" oct="5" vol="30" pos="12456" len="6" />
          <note tone="8" pan="0" oct="4" vol="27" pos="12462" len="6" />
          <note tone="9" pan="0" oct="4" vol="38" pos="12468" len="6" />
          <note tone="8" pan="0" oct="4" vol="26" pos="12474" len="6" />
          <note tone="9" pan="0" oct="4" vol="28" pos="12480" len="6" />
          <note tone="0" pan="0" oct="5" vol="30" pos="12486" len="6" />
          <note tone="11" pan="0" oct="4" vol="24" pos="12492" len="6" />
          <note tone="2" pan="0" oct="5" vol="27" pos="12498" len="6" />
          <note tone="8" pan="0" oct="4" vol="32" pos="12504" len="12" />
          <note tone="4" pan="0" oct="4" vol="21" pos="13296" len="6" />
          <note tone="6" pan="0" oct="4" vol="17" pos="13302" len="6" />
          <note tone="7" pan="0" oct="4" vol="28" pos="13308" len="6" />
          <note tone="6" pan="0" oct="4" vol="21" pos="13314" len="6" />
          <note tone="7" pan="0" oct="4" vol="28" pos="13320" len="6" />
          <note tone="4" pan="0" oct="4" vol="28" pos="13326" len="6" />
          <note tone="6" pan="0" oct="4" vol="24" pos="13332" len="6" />
          <note tone="11" pan="0" oct="3" vol="31" pos="13338" len="6" />
          <note tone="3" pan="0" oct="4" vol="28" pos="13344" len="6" />
          <note tone="6" pan="0" oct="4" vol="29" pos="13350" len="6" />
          <note tone="11" pan="0" oct="4" vol="30" pos="13356" len="6" />
          <note tone="6" pan="0" oct="4" vol="30" pos="13362" len="6" />
          <note tone="7" pan="0" oct="4" vol="29" pos="13368" len="12" />
          <note tone="4" pan="0" oct="4" vol="28" pos="13380" len="12" />
          <note tone="7" pan="0" oct="4" vol="39" pos="13392" len="24" />
          <note tone="6" pan="0" oct="4" vol="28" pos="13416" len="12" />
          <note tone="4" pan="0" oct="4" vol="36" pos="13428" len="12" />
          <note tone="6" pan="0" oct="4" vol="26" pos="13440" len="12" />
          <note tone="2" pan="0" oct="4" vol="21" pos="13452" len="12" />
          <note tone="6" pan="0" oct="4" vol="32" pos="13464" len="24" />
          <note tone="4" pan="0" oct="4" vol="39" pos="13488" len="12" />
          <note tone="2" pan="0" oct="4" vol="33" pos="13500" len="12" />
          <note tone="4" pan="0" oct="4" vol="26" pos="13512" len="12" />
          <note tone="0" pan="0" oct="4" vol="22" pos="13524" len="12" />
          <note tone="4" pan="0" oct="4" vol="20" pos="13536" len="24" />
          <note tone="3" pan="0" oct="4" vol="29" pos="13560" len="12" />
          <note tone="1" pan="0" oct="4" vol="23" pos="13572" len="12" />
          <note tone="3" pan="0" oct="4" vol="28" pos="13584" len="12" />
          <note tone="11" pan="0" oct="3" vol="20" pos="13596" len="12" />
          <note tone="3" pan="0" oct="4" vol="25" pos="13608" len="12" />
          <note tone="2" pan="0" oct="5" vol="39" pos="13992" len="12" />
          <note tone="0" pan="0" oct="5" vol="37" pos="14004" len="12" />
          <note tone="11" pan="0" oct="4" vol="45" pos="14016" len="24" />
          <note tone="0" pan="0" oct="5" vol="32" pos="14052" len="24" />
          <note tone="2" pan="0" oct="5" vol="39" pos="14076" len="12" />
          <note tone="0" pan="0" oct="5" vol="36" pos="14088" len="24" />
          <note tone="5" pan="0" oct="5" vol="32" pos="14088" len="6" />
          <note tone="4" pan="0" oct="5" vol="29" pos="14094" len="6" />
          <note tone="2" pan="0" oct="5" vol="34" pos="14100" len="6" />
          <note tone="5" pan="0" oct="5" vol="37" pos="14106" len="6" />
          <note tone="4" pan="0" oct="5" vol="28" pos="14112" len="6" />
          <note tone="2" pan="0" oct="5" vol="23" pos="14118" len="6" />
          <note tone="9" pan="0" oct="4" vol="47" pos="14124" len="24" />
          <note tone="0" pan="0" oct="5" vol="45" pos="14124" len="6" />
          <note tone="4" pan="0" oct="5" vol="36" pos="14130" len="6" />
          <note tone="2" pan="0" oct="5" vol="28" pos="14136" len="6" />
          <note tone="0" pan="0" oct="5" vol="28" pos="14142" len="6" />
          <note tone="11" pan="0" oct="4" vol="24" pos="14148" len="6" />
          <note tone="9" pan="0" oct="4" vol="31" pos="14154" len="6" />
          <note tone="5" pan="0" oct="4" vol="31" pos="14160" len="6" />
          <note tone="4" pan="0" oct="4" vol="16" pos="14166" len="6" />
          <note tone="2" pan="0" oct="4" vol="33" pos="14172" len="6" />
          <note tone="5" pan="0" oct="4" vol="28" pos="14178" len="6" />
          <note tone="4" pan="0" oct="4" vol="28" pos="14184" len="6" />
          <note tone="2" pan="0" oct="4" vol="29" pos="14190" len="6" />
          <note tone="0" pan="0" oct="4" vol="27" pos="14196" len="6" />
          <note tone="4" pan="0" oct="4" vol="32" pos="14202" len="6" />
          <note tone="2" pan="0" oct="4" vol="20" pos="14208" len="6" />
          <note tone="0" pan="0" oct="4" vol="25" pos="14214" len="6" />
          <note tone="11" pan="0" oct="3" vol="44" pos="14220" len="6" />
          <note tone="9" pan="0" oct="3" vol="46" pos="14226" len="6" />
          <note tone="8" pan="0" oct="3" vol="29" pos="14232" len="6" />
          <note tone="11" pan="0" oct="3" vol="21" pos="14238" len="6" />
          <note tone="4" pan="0" oct="4" vol="38" pos="14244" len="6" />
          <note tone="6" pan="0" oct="4" vol="25" pos="14250" len="6" />
          <note tone="8" pan="0" oct="4" vol="31" pos="14256" len="6" />
          <note tone="9" pan="0" oct="4" vol="32" pos="14262" len="6" />
          <note tone="11" pan="0" oct="4" vol="29" pos="14268" len="6" />
          <note tone="0" pan="0" oct="5" vol="14" pos="14274" len="6" />
          <note tone="2" pan="0" oct="5" vol="33" pos="14280" len="6" />
          <note tone="4" pan="0" oct="5" vol="37" pos="14286" len="6" />
          <note tone="6" pan="0" oct="5" vol="28" pos="14292" len="6" />
          <note tone="8" pan="0" oct="5" vol="30" pos="14298" len="6" />
          <note tone="9" pan="0" oct="5" vol="30" pos="14304" len="6" />
          <note tone="8" pan="0" oct="5" vol="25" pos="14310" len="6" />
          <note tone="9" pan="0" oct="5" vol="22" pos="14316" len="6" />
          <note tone="5" pan="0" oct="5" vol="35" pos="14322" len="6" />
          <note tone="4" pan="0" oct="5" vol="28" pos="14328" len="6" />
          <note tone="2" pan="0" oct="5" vol="27" pos="14334" len="6" />
          <note tone="4" pan="0" oct="5" vol="14" pos="14340" len="6" />
          <note tone="2" pan="0" oct="5" vol="25" pos="14346" len="6" />
          <note tone="0" pan="0" oct="5" vol="25" pos="14352" len="6" />
          <note tone="4" pan="0" oct="5" vol="30" pos="14358" len="6" />
          <note tone="2" pan="0" oct="5" vol="30" pos="14364" len="6" />
          <note tone="0" pan="0" oct="5" vol="29" pos="14370" len="6" />
          <note tone="2" pan="0" oct="5" vol="42" pos="14376" len="6" />
          <note tone="0" pan="0" oct="5" vol="30" pos="14382" len="6" />
          <note tone="11" pan="0" oct="4" vol="11" pos="14388" len="6" />
          <note tone="2" pan="0" oct="5" vol="43" pos="14394" len="6" />
          <note tone="0" pan="0" oct="5" vol="26" pos="14400" len="6" />
          <note tone="11" pan="0" oct="4" vol="24" pos="14406" len="6" />
          <note tone="2" pan="0" oct="5" vol="39" pos="14412" len="6" />
          <note tone="11" pan="0" oct="4" vol="30" pos="14418" len="6" />
          <note tone="9" pan="0" oct="4" vol="35" pos="14424" len="6" />
          <note tone="11" pan="0" oct="4" vol="28" pos="14430" len="6" />
          <note tone="9" pan="0" oct="4" vol="48" pos="14436" len="6" />
          <note tone="8" pan="0" oct="4" vol="31" pos="14442" len="6" />
          <note tone="9" pan="0" oct="4" vol="30" pos="14448" len="6" />
          <note tone="11" pan="0" oct="4" vol="42" pos="14454" len="6" />
          <note tone="0" pan="0" oct="5" vol="42" pos="14460" len="6" />
          <note tone="11" pan="0" oct="4" vol="23" pos="14466" len="6" />
          <note tone="0" pan="0" oct="5" vol="35" pos="14472" len="6" />
          <note tone="9" pan="0" oct="4" vol="25" pos="14478" len="6" />
          <note tone="11" pan="0" oct="4" vol="39" pos="14484" len="12" />
          <note tone="4" pan="0" oct="4" vol="38" pos="14496" len="6" />
          <note tone="11" pan="0" oct="4" vol="37" pos="14502" len="6" />
          <note tone="4" pan="0" oct="5" vol="29" pos="14508" len="6" />
          <note tone="11" pan="0" oct="4" vol="35" pos="14514" len="6" />
          <note tone="0" pan="0" oct="5" vol="39" pos="14520" len="24" />
          <note tone="5" pan="0" oct="5" vol="33" pos="14556" len="6" />
          <note tone="4" pan="0" oct="5" vol="27" pos="14562" len="6" />
          <note tone="5" pan="0" oct="5" vol="39" pos="14568" len="6" />
          <note tone="2" pan="0" oct="5" vol="34" pos="14574" len="6" />
          <note tone="5" pan="0" oct="5" vol="21" pos="14580" len="6" />
          <note tone="0" pan="0" oct="5" vol="39" pos="14586" len="6" />
          <note tone="5" pan="0" oct="5" vol="28" pos="14592" len="6" />
          <note tone="2" pan="0" oct="5" vol="32" pos="14598" len="6" />
          <note tone="5" pan="0" oct="5" vol="27" pos="14604" len="6" />
          <note tone="11" pan="0" oct="4" vol="39" pos="14610" len="6" />
          <note tone="5" pan="0" oct="5" vol="28" pos="14616" len="6" />
          <note tone="7" pan="0" oct="4" vol="29" pos="14622" len="6" />
          <note tone="4" pan="0" oct="5" vol="32" pos="14628" len="6" />
          <note tone="2" pan="0" oct="5" vol="34" pos="14634" len="6" />
          <note tone="4" pan="0" oct="5" vol="34" pos="14640" len="6" />
          <note tone="0" pan="0" oct="5" vol="25" pos="14646" len="6" />
          <note tone="4" pan="0" oct="5" vol="35" pos="14652" len="6" />
          <note tone="10" pan="0" oct="4" vol="21" pos="14658" len="6" />
          <note tone="4" pan="0" oct="5" vol="31" pos="14664" len="6" />
          <note tone="0" pan="0" oct="5" vol="28" pos="14670" len="6" />
          <note tone="4" pan="0" oct="5" vol="25" pos="14676" len="6" />
          <note tone="9" pan="0" oct="4" vol="28" pos="14682" len="6" />
          <note tone="4" pan="0" oct="5" vol="28" pos="14688" len="6" />
          <note tone="5" pan="0" oct="4" vol="35" pos="14694" len="6" />
          <note tone="2" pan="0" oct="5" vol="33" pos="14700" len="6" />
          <note tone="0" pan="0" oct="5" vol="32" pos="14706" len="6" />
          <note tone="2" pan="0" oct="5" vol="31" pos="14712" len="6" />
          <note tone="10" pan="0" oct="4" vol="20" pos="14718" len="6" />
          <note tone="2" pan="0" oct="5" vol="28" pos="14724" len="6" />
          <note tone="9" pan="0" oct="4" vol="31" pos="14730" len="6" />
          <note tone="2" pan="0" oct="5" vol="32" pos="14736" len="6" />
          <note tone="11" pan="0" oct="4" vol="28" pos="14742" len="6" />
          <note tone="2" pan="0" oct="5" vol="25" pos="14748" len="6" />
          <note tone="8" pan="0" oct="4" vol="36" pos="14754" len="6" />
          <note tone="2" pan="0" oct="5" vol="17" pos="14760" len="6" />
          <note tone="4" pan="0" oct="4" vol="41" pos="14766" len="6" />
          <note tone="0" pan="0" oct="5" vol="34" pos="14772" len="6" />
          <note tone="11" pan="0" oct="4" vol="32" pos="14778" len="6" />
          <note tone="0" pan="0" oct="5" vol="39" pos="14784" len="6" />
          <note tone="9" pan="0" oct="4" vol="31" pos="14790" len="6" />
          <note tone="0" pan="0" oct="5" vol="25" pos="14796" len="6" />
          <note tone="4" pan="0" oct="4" vol="22" pos="14802" len="6" />
          <note tone="11" pan="0" oct="4" vol="39" pos="14808" len="6" />
          <note tone="9" pan="0" oct="4" vol="32" pos="14814" len="6" />
          <note tone="11" pan="0" oct="4" vol="31" pos="14820" len="6" />
          <note tone="8" pan="0" oct="4" vol="29" pos="14826" len="6" />
          <note tone="11" pan="0" oct="4" vol="32" pos="14832" len="6" />
          <note tone="4" pan="0" oct="4" vol="28" pos="14838" len="6" />
          <note tone="9" pan="0" oct="4" vol="31" pos="14844" len="6" />
          <note tone="8" pan="0" oct="4" vol="25" pos="14850" len="6" />
          <note tone="9" pan="0" oct="4" vol="26" pos="14856" len="6" />
          <note tone="6" pan="0" oct="4" vol="25" pos="14862" len="6" />
          <note tone="9" pan="0" oct="4" vol="25" pos="14868" len="6" />
          <note tone="3" pan="0" oct="4" vol="17" pos="14874" len="6" />
          <note tone="8" pan="0" oct="4" vol="28" pos="14880" len="6" />
          <note tone="6" pan="0" oct="4" vol="25" pos="14886" len="6" />
          <note tone="8" pan="0" oct="4" vol="21" pos="14892" len="6" />
          <note tone="4" pan="0" oct="4" vol="33" pos="14898" len="6" />
          <note tone="6" pan="0" oct="4" vol="27" pos="14904" len="6" />
          <note tone="8" pan="0" oct="4" vol="25" pos="14910" len="6" />
          <note tone="9" pan="0" oct="4" vol="35" pos="14916" len="6" />
          <note tone="8" pan="0" oct="4" vol="23" pos="14922" len="6" />
          <note tone="9" pan="0" oct="4" vol="19" pos="14928" len="6" />
          <note tone="4" pan="0" oct="4" vol="49" pos="14934" len="6" />
          <note tone="8" pan="0" oct="4" vol="33" pos="14940" len="6" />
          <note tone="9" pan="0" oct="4" vol="43" pos="14946" len="6" />
          <note tone="11" pan="0" oct="4" vol="35" pos="14952" len="6" />
          <note tone="9" pan="0" oct="4" vol="27" pos="14958" len="6" />
          <note tone="11" pan="0" oct="4" vol="16" pos="14964" len="6" />
          <note tone="4" pan="0" oct="4" vol="42" pos="14970" len="6" />
          <note tone="9" pan="0" oct="4" vol="32" pos="14976" len="6" />
          <note tone="11" pan="0" oct="4" vol="32" pos="14982" len="6" />
          <note tone="0" pan="0" oct="5" vol="41" pos="14988" len="6" />
          <note tone="11" pan="0" oct="4" vol="27" pos="14994" len="6" />
          <note tone="0" pan="0" oct="5" vol="32" pos="15000" len="6" />
          <note tone="4" pan="0" oct="4" vol="41" pos="15006" len="6" />
          <note tone="11" pan="0" oct="4" vol="29" pos="15012" len="6" />
          <note tone="0" pan="0" oct="5" vol="23" pos="15018" len="6" />
        </pattern>
      </track>
      <track muted="0" type="0" >
        <channeltrack surpos="119539936" fxch="0" baseoct="5" vol="100" name="church_organ01.ogg" basetone="9" tab="2" >
          <audiofileprocessor reversed="0" looped="0" eframe="0.999998" sframe="0" amp="183" src="/usr/local/share/lmms/samples/instruments/church_organ01.ogg" />
          <eldata fres="1" ftype="7" fcut="2524" fwet="1" >
            <elvol lpdel="0" amt="1" rel="0.254" ctlenvamt="0" latt="0" sus="0" lspd="0.1" att="0" pdel="0" lamt="0" dec="0.598" x100="0" lshp="0" hold="0" />
            <elcut lpdel="0" amt="1" rel="0.016" ctlenvamt="0" latt="0" sus="0.999" lspd="0.6268" att="0" pdel="0" lamt="0" dec="0.137" x100="0" lshp="1" hold="0" />
            <elres lpdel="0" amt="0" rel="0.1" ctlenvamt="0" latt="0" sus="0.5" lspd="0.6717" att="0" pdel="0" lamt="0" dec="0.5" x100="0" lshp="0" hold="0.5" />
          </eldata>
          <arpandchords chordrange="2" arprange="2" chord="0" arpgate="100" arp="0" arptime="158" arpdir="0" />
        </channeltrack>
        <pattern type="1" name="church_organ01.ogg" pos="0" frozen="0" len="16000" >
          <note tone="9" pan="0" oct="2" vol="36" pos="4992" len="84" />
          <note tone="9" pan="0" oct="1" vol="38" pos="4992" len="84" />
          <note tone="4" pan="0" oct="4" vol="28" pos="6924" len="12" />
          <note tone="7" pan="0" oct="4" vol="32" pos="6936" len="6" />
          <note tone="6" pan="0" oct="4" vol="23" pos="6942" len="6" />
          <note tone="7" pan="0" oct="4" vol="31" pos="6948" len="6" />
          <note tone="4" pan="0" oct="4" vol="25" pos="6954" len="6" />
          <note tone="6" pan="0" oct="4" vol="25" pos="6960" len="12" />
          <note tone="11" pan="0" oct="3" vol="20" pos="6972" len="12" />
          <note tone="11" pan="0" oct="4" vol="35" pos="6984" len="6" />
          <note tone="6" pan="0" oct="4" vol="28" pos="6990" len="6" />
          <note tone="7" pan="0" oct="4" vol="39" pos="6996" len="12" />
          <note tone="4" pan="0" oct="4" vol="44" pos="7008" len="12" />
          <note tone="11" pan="0" oct="4" vol="25" pos="7020" len="12" />
          <note tone="0" pan="0" oct="5" vol="36" pos="7032" len="6" />
          <note tone="11" pan="0" oct="4" vol="35" pos="7038" len="6" />
          <note tone="0" pan="0" oct="5" vol="40" pos="7044" len="6" />
          <note tone="9" pan="0" oct="4" vol="28" pos="7050" len="6" />
          <note tone="0" pan="0" oct="5" vol="39" pos="7056" len="6" />
          <note tone="7" pan="0" oct="4" vol="28" pos="7062" len="6" />
          <note tone="0" pan="0" oct="5" vol="33" pos="7068" len="6" />
          <note tone="9" pan="0" oct="4" vol="32" pos="7074" len="6" />
          <note tone="0" pan="0" oct="5" vol="31" pos="7080" len="6" />
          <note tone="6" pan="0" oct="4" vol="25" pos="7086" len="6" />
          <note tone="0" pan="0" oct="5" vol="30" pos="7092" len="6" />
          <note tone="2" pan="0" oct="4" vol="42" pos="7098" len="6" />
          <note tone="11" pan="0" oct="4" vol="42" pos="7104" len="6" />
          <note tone="9" pan="0" oct="4" vol="35" pos="7110" len="6" />
          <note tone="11" pan="0" oct="4" vol="40" pos="7116" len="6" />
          <note tone="7" pan="0" oct="4" vol="32" pos="7122" len="6" />
          <note tone="11" pan="0" oct="4" vol="39" pos="7128" len="6" />
          <note tone="6" pan="0" oct="4" vol="32" pos="7134" len="6" />
          <note tone="11" pan="0" oct="4" vol="34" pos="7140" len="6" />
          <note tone="7" pan="0" oct="4" vol="29" pos="7146" len="6" />
          <note tone="11" pan="0" oct="4" vol="32" pos="7152" len="6" />
          <note tone="4" pan="0" oct="4" vol="39" pos="7158" len="6" />
          <note tone="11" pan="0" oct="4" vol="28" pos="7164" len="6" />
          <note tone="0" pan="0" oct="4" vol="41" pos="7170" len="6" />
          <note tone="9" pan="0" oct="4" vol="42" pos="7176" len="6" />
          <note tone="7" pan="0" oct="4" vol="17" pos="7182" len="6" />
          <note tone="9" pan="0" oct="4" vol="41" pos="7188" len="6" />
          <note tone="6" pan="0" oct="4" vol="30" pos="7194" len="6" />
          <note tone="9" pan="0" oct="4" vol="39" pos="7200" len="6" />
          <note tone="4" pan="0" oct="4" vol="39" pos="7206" len="6" />
          <note tone="9" pan="0" oct="4" vol="32" pos="7212" len="6" />
          <note tone="6" pan="0" oct="4" vol="26" pos="7218" len="6" />
          <note tone="9" pan="0" oct="4" vol="28" pos="7224" len="6" />
          <note tone="3" pan="0" oct="4" vol="10" pos="7230" len="6" />
          <note tone="9" pan="0" oct="4" vol="17" pos="7236" len="6" />
          <note tone="11" pan="0" oct="3" vol="24" pos="7242" len="6" />
          <note tone="7" pan="0" oct="4" vol="39" pos="7248" len="6" />
          <note tone="6" pan="0" oct="4" vol="22" pos="7254" len="6" />
          <note tone="7" pan="0" oct="4" vol="25" pos="7260" len="6" />
          <note tone="3" pan="0" oct="4" vol="13" pos="7266" len="6" />
          <note tone="4" pan="0" oct="4" vol="26" pos="7272" len="6" />
          <note tone="11" pan="0" oct="3" vol="28" pos="7278" len="6" />
          <note tone="1" pan="0" oct="4" vol="35" pos="7284" len="6" />
          <note tone="11" pan="0" oct="3" vol="23" pos="7290" len="6" />
          <note tone="1" pan="0" oct="4" vol="25" pos="7296" len="6" />
          <note tone="9" pan="0" oct="3" vol="32" pos="7302" len="6" />
          <note tone="4" pan="0" oct="4" vol="35" pos="7308" len="6" />
          <note tone="1" pan="0" oct="4" vol="32" pos="7314" len="6" />
          <note tone="5" pan="0" oct="4" vol="39" pos="7320" len="6" />
          <note tone="4" pan="0" oct="4" vol="25" pos="7326" len="6" />
          <note tone="5" pan="0" oct="4" vol="36" pos="7332" len="6" />
          <note tone="1" pan="0" oct="4" vol="23" pos="7338" len="6" />
          <note tone="2" pan="0" oct="4" vol="32" pos="7344" len="6" />
          <note tone="9" pan="0" oct="3" vol="26" pos="7350" len="6" />
          <note tone="11" pan="0" oct="3" vol="29" pos="7356" len="6" />
          <note tone="9" pan="0" oct="3" vol="30" pos="7362" len="6" />
          <note tone="11" pan="0" oct="3" vol="32" pos="7368" len="6" />
          <note tone="7" pan="0" oct="3" vol="32" pos="7374" len="6" />
          <note tone="2" pan="0" oct="4" vol="35" pos="7380" len="6" />
          <note tone="11" pan="0" oct="3" vol="37" pos="7386" len="6" />
          <note tone="4" pan="0" oct="4" vol="35" pos="7392" len="6" />
          <note tone="2" pan="0" oct="4" vol="32" pos="7398" len="6" />
          <note tone="4" pan="0" oct="4" vol="21" pos="7404" len="6" />
          <note tone="11" pan="0" oct="3" vol="25" pos="7410" len="6" />
          <note tone="0" pan="0" oct="4" vol="38" pos="7416" len="6" />
          <note tone="8" pan="0" oct="3" vol="18" pos="7422" len="6" />
          <note tone="9" pan="0" oct="3" vol="29" pos="7428" len="6" />
          <note tone="7" pan="0" oct="3" vol="33" pos="7434" len="6" />
          <note tone="9" pan="0" oct="3" vol="35" pos="7440" len="6" />
          <note tone="5" pan="0" oct="3" vol="19" pos="7446" len="6" />
          <note tone="0" pan="0" oct="4" vol="28" pos="7452" len="6" />
          <note tone="9" pan="0" oct="3" vol="28" pos="7458" len="6" />
          <note tone="2" pan="0" oct="4" vol="40" pos="7464" len="6" />
          <note tone="0" pan="0" oct="4" vol="32" pos="7470" len="6" />
          <note tone="2" pan="0" oct="4" vol="29" pos="7476" len="6" />
          <note tone="11" pan="0" oct="3" vol="27" pos="7482" len="6" />
          <note tone="5" pan="0" oct="4" vol="32" pos="7488" len="6" />
          <note tone="2" pan="0" oct="4" vol="29" pos="7494" len="6" />
          <note tone="8" pan="0" oct="4" vol="26" pos="7500" len="6" />
          <note tone="6" pan="0" oct="4" vol="23" pos="7506" len="6" />
          <note tone="8" pan="0" oct="4" vol="29" pos="7512" len="6" />
          <note tone="4" pan="0" oct="4" vol="39" pos="7518" len="6" />
          <note tone="11" pan="0" oct="4" vol="36" pos="7524" len="6" />
          <note tone="8" pan="0" oct="4" vol="32" pos="7530" len="6" />
          <note tone="9" pan="0" oct="4" vol="50" pos="7536" len="12" />
          <note tone="9" pan="0" oct="3" vol="36" pos="7548" len="12" />
          <note tone="2" pan="0" oct="3" vol="42" pos="7584" len="12" />
          <note tone="2" pan="0" oct="4" vol="38" pos="7584" len="12" />
          <note tone="5" pan="0" oct="4" vol="25" pos="7596" len="12" />
          <note tone="5" pan="0" oct="3" vol="31" pos="7596" len="12" />
          <note tone="7" pan="0" oct="4" vol="42" pos="7608" len="12" />
          <note tone="7" pan="0" oct="3" vol="47" pos="7608" len="12" />
          <note tone="7" pan="0" oct="3" vol="37" pos="7620" len="12" />
          <note tone="7" pan="0" oct="2" vol="50" pos="7620" len="12" />
          <note tone="0" pan="0" oct="4" vol="32" pos="7656" len="12" />
          <note tone="0" pan="0" oct="3" vol="42" pos="7656" len="12" />
          <note tone="4" pan="0" oct="3" vol="42" pos="7668" len="12" />
          <note tone="4" pan="0" oct="4" vol="31" pos="7668" len="12" />
          <note tone="5" pan="0" oct="4" vol="30" pos="7680" len="12" />
          <note tone="5" pan="0" oct="3" vol="50" pos="7680" len="12" />
          <note tone="9" pan="0" oct="3" vol="49" pos="7692" len="12" />
          <note tone="9" pan="0" oct="4" vol="52" pos="7692" len="12" />
          <note tone="5" pan="0" oct="3" vol="39" pos="7704" len="12" />
          <note tone="5" pan="0" oct="4" vol="42" pos="7704" len="12" />
          <note tone="2" pan="0" oct="3" vol="46" pos="7716" len="12" />
          <note tone="2" pan="0" oct="4" vol="41" pos="7716" len="12" />
          <note tone="11" pan="0" oct="3" vol="39" pos="7728" len="12" />
          <note tone="11" pan="0" oct="2" vol="50" pos="7728" len="12" />
          <note tone="2" pan="0" oct="4" vol="23" pos="7740" len="12" />
          <note tone="2" pan="0" oct="3" vol="39" pos="7740" len="12" />
          <note tone="4" pan="0" oct="4" vol="41" pos="7752" len="12" />
          <note tone="4" pan="0" oct="3" vol="46" pos="7752" len="12" />
          <note tone="8" pan="0" oct="4" vol="29" pos="7764" len="12" />
          <note tone="4" pan="0" oct="4" vol="35" pos="7776" len="12" />
          <note tone="0" pan="0" oct="4" vol="48" pos="7788" len="12" />
          <note tone="9" pan="0" oct="3" vol="25" pos="7800" len="12" />
          <note tone="9" pan="0" oct="4" vol="46" pos="7812" len="12" />
          <note tone="9" pan="0" oct="4" vol="30" pos="7824" len="6" />
          <note tone="0" pan="0" oct="5" vol="32" pos="7830" len="6" />
          <note tone="11" pan="0" oct="4" vol="29" pos="7836" len="6" />
          <note tone="0" pan="0" oct="5" vol="39" pos="7842" len="6" />
          <note tone="9" pan="0" oct="4" vol="25" pos="7848" len="6" />
          <note tone="11" pan="0" oct="4" vol="35" pos="7854" len="6" />
          <note tone="8" pan="0" oct="4" vol="22" pos="7860" len="6" />
          <note tone="11" pan="0" oct="4" vol="32" pos="7866" len="6" />
          <note tone="9" pan="0" oct="4" vol="15" pos="7872" len="6" />
          <note tone="11" pan="0" oct="4" vol="36" pos="7878" len="6" />
          <note tone="8" pan="0" oct="4" vol="21" pos="7884" len="6" />
          <note tone="9" pan="0" oct="4" vol="41" pos="7890" len="6" />
          <note tone="6" pan="0" oct="4" vol="26" pos="7896" len="6" />
          <note tone="9" pan="0" oct="4" vol="25" pos="7902" len="6" />
          <note tone="8" pan="0" oct="4" vol="14" pos="7908" len="6" />
          <note tone="9" pan="0" oct="4" vol="28" pos="7914" len="6" />
          <note tone="6" pan="0" oct="4" vol="32" pos="7920" len="6" />
          <note tone="8" pan="0" oct="4" vol="17" pos="7926" len="6" />
          <note tone="9" pan="0" oct="4" vol="38" pos="7932" len="6" />
          <note tone="4" pan="0" oct="4" vol="22" pos="7938" len="6" />
          <note tone="5" pan="0" oct="4" vol="38" pos="7944" len="6" />
          <note tone="4" pan="0" oct="4" vol="31" pos="7950" len="6" />
          <note tone="5" pan="0" oct="4" vol="24" pos="7956" len="6" />
          <note tone="0" pan="0" oct="4" vol="18" pos="7962" len="6" />
          <note tone="2" pan="0" oct="3" vol="30" pos="7968" len="24" />
          <note tone="2" pan="0" oct="4" vol="32" pos="7968" len="24" />
          <note tone="4" pan="0" oct="3" vol="28" pos="8004" len="24" />
          <note tone="4" pan="0" oct="4" vol="28" pos="8004" len="24" />
          <note tone="5" pan="0" oct="4" vol="25" pos="8040" len="24" />
          <note tone="5" pan="0" oct="3" vol="25" pos="8040" len="24" />
          <note tone="0" pan="0" oct="3" vol="38" pos="8076" len="24" />
          <note tone="0" pan="0" oct="4" vol="28" pos="8076" len="24" />
          <note tone="2" pan="0" oct="4" vol="21" pos="8112" len="24" />
          <note tone="2" pan="0" oct="3" vol="31" pos="8112" len="24" />
          <note tone="8" pan="0" oct="3" vol="26" pos="8136" len="12" />
          <note tone="9" pan="0" oct="3" vol="32" pos="8148" len="12" />
          <note tone="4" pan="0" oct="3" vol="31" pos="8160" len="12" />
          <note tone="4" pan="0" oct="4" vol="35" pos="8172" len="12" />
          <note tone="9" pan="0" oct="3" vol="38" pos="8184" len="36" />
          <note tone="4" pan="0" oct="4" vol="21" pos="8220" len="36" />
          <note tone="9" pan="0" oct="3" vol="29" pos="8256" len="12" />
          <note tone="0" pan="0" oct="4" vol="30" pos="8268" len="6" />
          <note tone="11" pan="0" oct="3" vol="18" pos="8274" len="6" />
          <note tone="0" pan="0" oct="4" vol="27" pos="8280" len="6" />
          <note tone="9" pan="0" oct="3" vol="25" pos="8286" len="6" />
          <note tone="2" pan="0" oct="4" vol="25" pos="8292" len="24" />
          <note tone="9" pan="0" oct="3" vol="32" pos="8316" len="12" />
          <note tone="11" pan="0" oct="3" vol="20" pos="8328" len="12" />
          <note tone="7" pan="0" oct="3" vol="20" pos="8340" len="12" />
          <note tone="11" pan="0" oct="3" vol="20" pos="8352" len="12" />
          <note tone="0" pan="0" oct="4" vol="25" pos="8364" len="24" />
          <note tone="9" pan="0" oct="3" vol="21" pos="8400" len="12" />
          <note tone="5" pan="0" oct="3" vol="27" pos="8412" len="12" />
          <note tone="9" pan="0" oct="3" vol="23" pos="8424" len="12" />
          <note tone="11" pan="0" oct="3" vol="34" pos="8436" len="24" />
          <note tone="8" pan="0" oct="3" vol="31" pos="8472" len="12" />
          <note tone="4" pan="0" oct="3" vol="34" pos="8484" len="12" />
          <note tone="8" pan="0" oct="3" vol="28" pos="8496" len="12" />
          <note tone="9" pan="0" oct="3" vol="36" pos="8508" len="24" />
          <note tone="4" pan="0" oct="4" vol="33" pos="8544" len="24" />
          <note tone="11" pan="0" oct="4" vol="37" pos="8580" len="24" />
          <note tone="7" pan="0" oct="4" vol="35" pos="8604" len="18" />
          <note tone="9" pan="0" oct="4" vol="34" pos="8622" len="6" />
          <note tone="11" pan="0" oct="4" vol="38" pos="8628" len="12" />
          <note tone="11" pan="0" oct="3" vol="17" pos="8640" len="12" />
          <note tone="4" pan="0" oct="4" vol="43" pos="8652" len="24" />
          <note tone="4" pan="0" oct="3" vol="46" pos="8688" len="24" />
          <note tone="4" pan="0" oct="4" vol="34" pos="10128" len="36" />
          <note tone="6" pan="0" oct="4" vol="17" pos="10164" len="36" />
          <note tone="7" pan="0" oct="4" vol="37" pos="10200" len="48" />
          <note tone="4" pan="0" oct="4" vol="30" pos="10248" len="12" />
          <note tone="0" pan="0" oct="4" vol="17" pos="10260" len="12" />
          <note tone="6" pan="0" oct="4" vol="32" pos="10272" len="48" />
          <note tone="2" pan="0" oct="4" vol="42" pos="10320" len="12" />
          <note tone="11" pan="0" oct="3" vol="43" pos="10332" len="12" />
          <note tone="4" pan="0" oct="4" vol="36" pos="10344" len="48" />
          <note tone="0" pan="0" oct="4" vol="27" pos="10392" len="12" />
          <note tone="9" pan="0" oct="3" vol="35" pos="10404" len="12" />
          <note tone="2" pan="0" oct="4" vol="30" pos="10416" len="264" />
          <note tone="9" pan="0" oct="2" vol="32" pos="11892" len="12" />
          <note tone="9" pan="0" oct="3" vol="32" pos="11892" len="12" />
          <note tone="0" pan="0" oct="4" vol="46" pos="11904" len="6" />
          <note tone="0" pan="0" oct="3" vol="42" pos="11904" len="6" />
          <note tone="11" pan="0" oct="2" vol="46" pos="11910" len="6" />
          <note tone="11" pan="0" oct="3" vol="37" pos="11910" len="6" />
          <note tone="0" pan="0" oct="4" vol="47" pos="11916" len="6" />
          <note tone="0" pan="0" oct="3" vol="45" pos="11916" len="6" />
          <note tone="9" pan="0" oct="2" vol="32" pos="11922" len="6" />
          <note tone="9" pan="0" oct="3" vol="37" pos="11922" len="6" />
          <note tone="11" pan="0" oct="2" vol="44" pos="11928" len="12" />
          <note tone="11" pan="0" oct="3" vol="45" pos="11928" len="12" />
          <note tone="4" pan="0" oct="3" vol="35" pos="11940" len="12" />
          <note tone="4" pan="0" oct="2" vol="34" pos="11940" len="12" />
          <note tone="4" pan="0" oct="4" vol="42" pos="11952" len="6" />
          <note tone="4" pan="0" oct="3" vol="42" pos="11952" len="6" />
          <note tone="11" pan="0" oct="2" vol="38" pos="11958" len="6" />
          <note tone="11" pan="0" oct="3" vol="32" pos="11958" len="6" />
          <note tone="0" pan="0" oct="4" vol="35" pos="11964" len="12" />
          <note tone="0" pan="0" oct="3" vol="27" pos="11964" len="12" />
          <note tone="9" pan="0" oct="3" vol="32" pos="11976" len="12" />
          <note tone="9" pan="0" oct="2" vol="39" pos="11976" len="12" />
          <note tone="9" pan="0" oct="3" vol="37" pos="11988" len="24" />
          <note tone="9" pan="0" oct="4" vol="38" pos="11988" len="24" />
          <note tone="8" pan="0" oct="4" vol="30" pos="12012" len="24" />
          <note tone="8" pan="0" oct="3" vol="31" pos="12012" len="24" />
          <note tone="9" pan="0" oct="3" vol="43" pos="12036" len="6" />
          <note tone="9" pan="0" oct="4" vol="45" pos="12036" len="6" />
          <note tone="9" pan="0" oct="3" vol="46" pos="12042" len="6" />
          <note tone="9" pan="0" oct="2" vol="39" pos="12042" len="6" />
          <note tone="0" pan="0" oct="4" vol="38" pos="12048" len="6" />
          <note tone="0" pan="0" oct="3" vol="34" pos="12048" len="6" />
          <note tone="11" pan="0" oct="2" vol="35" pos="12054" len="6" />
          <note tone="11" pan="0" oct="3" vol="38" pos="12054" len="6" />
          <note tone="0" pan="0" oct="4" vol="43" pos="12060" len="6" />
          <note tone="0" pan="0" oct="3" vol="37" pos="12060" len="6" />
          <note tone="9" pan="0" oct="2" vol="42" pos="12066" len="6" />
          <note tone="9" pan="0" oct="3" vol="48" pos="12066" len="6" />
          <note tone="2" pan="0" oct="3" vol="30" pos="12072" len="24" />
          <note tone="2" pan="0" oct="4" vol="35" pos="12072" len="24" />
          <note tone="11" pan="0" oct="3" vol="28" pos="12120" len="6" />
          <note tone="11" pan="0" oct="2" vol="27" pos="12120" len="6" />
          <note tone="9" pan="0" oct="2" vol="33" pos="12126" len="6" />
          <note tone="9" pan="0" oct="3" vol="34" pos="12126" len="6" />
          <note tone="11" pan="0" oct="2" vol="44" pos="12132" len="6" />
          <note tone="11" pan="0" oct="3" vol="43" pos="12132" len="6" />
          <note tone="7" pan="0" oct="3" vol="36" pos="12138" len="6" />
          <note tone="7" pan="0" oct="2" vol="29" pos="12138" len="6" />
          <note tone="0" pan="0" oct="4" vol="41" pos="12144" len="24" />
          <note tone="0" pan="0" oct="3" vol="39" pos="12144" len="24" />
          <note tone="9" pan="0" oct="3" vol="41" pos="12192" len="6" />
          <note tone="9" pan="0" oct="2" vol="46" pos="12192" len="6" />
          <note tone="7" pan="0" oct="2" vol="38" pos="12198" len="6" />
          <note tone="7" pan="0" oct="3" vol="43" pos="12198" len="6" />
          <note tone="9" pan="0" oct="2" vol="46" pos="12204" len="6" />
          <note tone="9" pan="0" oct="3" vol="46" pos="12204" len="6" />
          <note tone="5" pan="0" oct="3" vol="35" pos="12210" len="6" />
          <note tone="5" pan="0" oct="2" vol="25" pos="12210" len="6" />
          <note tone="11" pan="0" oct="2" vol="42" pos="12216" len="24" />
          <note tone="11" pan="0" oct="3" vol="40" pos="12216" len="24" />
          <note tone="8" pan="0" oct="2" vol="37" pos="12264" len="6" />
          <note tone="8" pan="0" oct="3" vol="37" pos="12264" len="6" />
          <note tone="6" pan="0" oct="2" vol="34" pos="12270" len="6" />
          <note tone="6" pan="0" oct="3" vol="35" pos="12270" len="6" />
          <note tone="8" pan="0" oct="3" vol="39" pos="12276" len="6" />
          <note tone="8" pan="0" oct="2" vol="37" pos="12276" len="6" />
          <note tone="4" pan="0" oct="3" vol="32" pos="12282" len="6" />
          <note tone="4" pan="0" oct="2" vol="34" pos="12282" len="6" />
          <note tone="9" pan="0" oct="2" vol="38" pos="12288" len="24" />
          <note tone="9" pan="0" oct="3" vol="38" pos="12288" len="24" />
          <note tone="9" pan="0" oct="3" vol="39" pos="12360" len="24" />
          <note tone="9" pan="0" oct="4" vol="44" pos="12432" len="24" />
          <note tone="4" pan="0" oct="4" vol="48" pos="12504" len="12" />
          <note tone="6" pan="0" oct="4" vol="25" pos="12516" len="12" />
          <note tone="8" pan="0" oct="4" vol="18" pos="12528" len="12" />
          <note tone="9" pan="0" oct="4" vol="31" pos="12540" len="12" />
          <note tone="9" pan="0" oct="3" vol="28" pos="12552" len="12" />
          <note tone="9" pan="0" oct="4" vol="28" pos="12564" len="12" />
          <note tone="2" pan="0" oct="4" vol="32" pos="12576" len="12" />
          <note tone="4" pan="0" oct="4" vol="26" pos="12588" len="12" />
          <note tone="6" pan="0" oct="4" vol="17" pos="12600" len="12" />
          <note tone="7" pan="0" oct="4" vol="31" pos="12612" len="12" />
          <note tone="7" pan="0" oct="3" vol="32" pos="12624" len="12" />
          <note tone="7" pan="0" oct="4" vol="28" pos="12636" len="6" />
          <note tone="9" pan="0" oct="4" vol="36" pos="12642" len="6" />
          <note tone="11" pan="0" oct="4" vol="35" pos="12648" len="12" />
          <note tone="9" pan="0" oct="4" vol="32" pos="12660" len="12" />
          <note tone="7" pan="0" oct="4" vol="21" pos="12672" len="12" />
          <note tone="0" pan="0" oct="5" vol="15" pos="12684" len="12" />
          <note tone="0" pan="0" oct="4" vol="15" pos="12696" len="12" />
          <note tone="4" pan="0" oct="4" vol="32" pos="12708" len="12" />
          <note tone="9" pan="0" oct="4" vol="32" pos="12720" len="72" />
          <note tone="9" pan="0" oct="4" vol="41" pos="12792" len="18" />
          <note tone="8" pan="0" oct="4" vol="21" pos="12810" len="6" />
          <note tone="9" pan="0" oct="4" vol="32" pos="12816" len="6" />
          <note tone="6" pan="0" oct="4" vol="31" pos="12822" len="6" />
          <note tone="7" pan="0" oct="4" vol="34" pos="12828" len="18" />
          <note tone="6" pan="0" oct="4" vol="20" pos="12846" len="6" />
          <note tone="7" pan="0" oct="4" vol="27" pos="12852" len="6" />
          <note tone="4" pan="0" oct="4" vol="33" pos="12858" len="6" />
          <note tone="0" pan="0" oct="5" vol="32" pos="12864" len="18" />
          <note tone="11" pan="0" oct="4" vol="35" pos="12882" len="6" />
          <note tone="0" pan="0" oct="5" vol="42" pos="12888" len="6" />
          <note tone="9" pan="0" oct="4" vol="19" pos="12894" len="6" />
          <note tone="11" pan="0" oct="4" vol="37" pos="12900" len="6" />
          <note tone="9" pan="0" oct="4" vol="29" pos="12906" len="6" />
          <note tone="11" pan="0" oct="4" vol="25" pos="12912" len="6" />
          <note tone="7" pan="0" oct="4" vol="28" pos="12918" len="6" />
          <note tone="9" pan="0" oct="4" vol="37" pos="12924" len="6" />
          <note tone="6" pan="0" oct="4" vol="26" pos="12930" len="6" />
          <note tone="7" pan="0" oct="4" vol="34" pos="12936" len="6" />
          <note tone="6" pan="0" oct="4" vol="15" pos="12942" len="6" />
          <note tone="7" pan="0" oct="4" vol="30" pos="12948" len="6" />
          <note tone="4" pan="0" oct="4" vol="20" pos="12954" len="6" />
          <note tone="6" pan="0" oct="4" vol="27" pos="12960" len="6" />
          <note tone="2" pan="0" oct="4" vol="16" pos="12966" len="6" />
          <note tone="4" pan="0" oct="4" vol="30" pos="12972" len="6" />
          <note tone="2" pan="0" oct="4" vol="21" pos="12978" len="6" />
          <note tone="4" pan="0" oct="4" vol="32" pos="12984" len="6" />
          <note tone="0" pan="0" oct="4" vol="27" pos="12990" len="6" />
          <note tone="2" pan="0" oct="4" vol="30" pos="12996" len="6" />
          <note tone="11" pan="0" oct="3" vol="18" pos="13002" len="6" />
          <note tone="0" pan="0" oct="4" vol="22" pos="13008" len="6" />
          <note tone="11" pan="0" oct="3" vol="28" pos="13014" len="6" />
          <note tone="0" pan="0" oct="4" vol="27" pos="13020" len="6" />
          <note tone="9" pan="0" oct="3" vol="24" pos="13026" len="6" />
          <note tone="11" pan="0" oct="3" vol="32" pos="13032" len="6" />
          <note tone="7" pan="0" oct="3" vol="35" pos="13038" len="6" />
          <note tone="9" pan="0" oct="3" vol="25" pos="13044" len="24" />
          <note tone="7" pan="0" oct="3" vol="28" pos="13068" len="12" />
          <note tone="6" pan="0" oct="3" vol="30" pos="13080" len="6" />
          <note tone="4" pan="0" oct="3" vol="36" pos="13092" len="6" />
          <note tone="3" pan="0" oct="3" vol="26" pos="13104" len="6" />
          <note tone="4" pan="0" oct="3" vol="40" pos="13116" len="6" />
          <note tone="11" pan="0" oct="3" vol="39" pos="13128" len="24" />
          <note tone="4" pan="0" oct="3" vol="32" pos="13152" len="24" />
          <note tone="9" pan="0" oct="3" vol="37" pos="13188" len="24" />
          <note tone="4" pan="0" oct="4" vol="34" pos="13224" len="24" />
          <note tone="11" pan="0" oct="4" vol="34" pos="13260" len="24" />
          <note tone="4" pan="0" oct="4" vol="39" pos="13296" len="36" />
          <note tone="11" pan="0" oct="3" vol="41" pos="13338" len="30" />
          <note tone="4" pan="0" oct="3" vol="37" pos="13368" len="24" />
          <note tone="9" pan="0" oct="3" vol="25" pos="13404" len="24" />
          <note tone="2" pan="0" oct="3" vol="39" pos="13440" len="24" />
          <note tone="7" pan="0" oct="3" vol="35" pos="13476" len="24" />
          <note tone="0" pan="0" oct="3" vol="41" pos="13512" len="24" />
          <note tone="6" pan="0" oct="3" vol="32" pos="13548" len="24" />
          <note tone="11" pan="0" oct="2" vol="50" pos="13584" len="24" />
          <note tone="7" pan="0" oct="4" vol="35" pos="13620" len="6" />
          <note tone="7" pan="0" oct="3" vol="44" pos="13620" len="6" />
          <note tone="6" pan="0" oct="3" vol="14" pos="13626" len="6" />
          <note tone="6" pan="0" oct="4" vol="31" pos="13626" len="6" />
          <note tone="7" pan="0" oct="4" vol="48" pos="13632" len="6" />
          <note tone="7" pan="0" oct="3" vol="44" pos="13632" len="6" />
          <note tone="4" pan="0" oct="3" vol="35" pos="13638" len="6" />
          <note tone="4" pan="0" oct="4" vol="42" pos="13638" len="6" />
          <note tone="7" pan="0" oct="3" vol="45" pos="13644" len="6" />
          <note tone="7" pan="0" oct="4" vol="42" pos="13644" len="6" />
          <note tone="2" pan="0" oct="4" vol="24" pos="13650" len="6" />
          <note tone="2" pan="0" oct="3" vol="33" pos="13650" len="6" />
          <note tone="7" pan="0" oct="4" vol="46" pos="13656" len="6" />
          <note tone="7" pan="0" oct="3" vol="51" pos="13656" len="6" />
          <note tone="4" pan="0" oct="3" vol="42" pos="13662" len="6" />
          <note tone="4" pan="0" oct="4" vol="38" pos="13662" len="6" />
          <note tone="7" pan="0" oct="3" vol="46" pos="13668" len="6" />
          <note tone="7" pan="0" oct="4" vol="47" pos="13668" len="6" />
          <note tone="1" pan="0" oct="3" vol="35" pos="13674" len="6" />
          <note tone="1" pan="0" oct="4" vol="32" pos="13674" len="6" />
          <note tone="7" pan="0" oct="3" vol="49" pos="13680" len="6" />
          <note tone="7" pan="0" oct="4" vol="50" pos="13680" len="6" />
          <note tone="9" pan="0" oct="2" vol="46" pos="13686" len="6" />
          <note tone="9" pan="0" oct="3" vol="42" pos="13686" len="6" />
          <note tone="5" pan="0" oct="3" vol="40" pos="13692" len="6" />
          <note tone="5" pan="0" oct="4" vol="42" pos="13692" len="6" />
          <note tone="4" pan="0" oct="3" vol="34" pos="13698" len="6" />
          <note tone="4" pan="0" oct="4" vol="36" pos="13698" len="6" />
          <note tone="5" pan="0" oct="4" vol="47" pos="13704" len="6" />
          <note tone="5" pan="0" oct="3" vol="47" pos="13704" len="6" />
          <note tone="2" pan="0" oct="3" vol="44" pos="13710" len="6" />
          <note tone="2" pan="0" oct="4" vol="42" pos="13710" len="6" />
          <note tone="5" pan="0" oct="4" vol="43" pos="13716" len="6" />
          <note tone="5" pan="0" oct="3" vol="47" pos="13716" len="6" />
          <note tone="0" pan="0" oct="4" vol="39" pos="13722" len="6" />
          <note tone="0" pan="0" oct="3" vol="37" pos="13722" len="6" />
          <note tone="5" pan="0" oct="3" vol="48" pos="13728" len="6" />
          <note tone="5" pan="0" oct="4" vol="47" pos="13728" len="6" />
          <note tone="2" pan="0" oct="3" vol="42" pos="13734" len="6" />
          <note tone="2" pan="0" oct="4" vol="40" pos="13734" len="6" />
          <note tone="5" pan="0" oct="4" vol="47" pos="13740" len="6" />
          <note tone="5" pan="0" oct="3" vol="42" pos="13740" len="6" />
          <note tone="11" pan="0" oct="2" vol="47" pos="13746" len="6" />
          <note tone="11" pan="0" oct="3" vol="49" pos="13746" len="6" />
          <note tone="5" pan="0" oct="4" vol="53" pos="13752" len="6" />
          <note tone="5" pan="0" oct="3" vol="49" pos="13752" len="6" />
          <note tone="7" pan="0" oct="2" vol="35" pos="13758" len="6" />
          <note tone="7" pan="0" oct="3" vol="34" pos="13758" len="6" />
          <note tone="4" pan="0" oct="3" vol="34" pos="13764" len="6" />
          <note tone="4" pan="0" oct="4" vol="43" pos="13764" len="6" />
          <note tone="2" pan="0" oct="3" vol="38" pos="13770" len="6" />
          <note tone="2" pan="0" oct="4" vol="35" pos="13770" len="6" />
          <note tone="4" pan="0" oct="3" vol="29" pos="13776" len="6" />
          <note tone="4" pan="0" oct="4" vol="34" pos="13776" len="6" />
          <note tone="0" pan="0" oct="3" vol="40" pos="13782" len="6" />
          <note tone="0" pan="0" oct="4" vol="38" pos="13782" len="6" />
          <note tone="4" pan="0" oct="4" vol="45" pos="13788" len="6" />
          <note tone="4" pan="0" oct="3" vol="45" pos="13788" len="6" />
          <note tone="11" pan="0" oct="3" vol="36" pos="13794" len="6" />
          <note tone="11" pan="0" oct="2" vol="44" pos="13794" len="6" />
          <note tone="4" pan="0" oct="3" vol="42" pos="13800" len="6" />
          <note tone="4" pan="0" oct="4" vol="35" pos="13800" len="6" />
          <note tone="0" pan="0" oct="3" vol="35" pos="13806" len="6" />
          <note tone="0" pan="0" oct="4" vol="44" pos="13806" len="6" />
          <note tone="4" pan="0" oct="4" vol="34" pos="13812" len="6" />
          <note tone="4" pan="0" oct="3" vol="38" pos="13812" len="6" />
          <note tone="9" pan="0" oct="2" vol="42" pos="13818" len="6" />
          <note tone="9" pan="0" oct="3" vol="36" pos="13818" len="6" />
          <note tone="4" pan="0" oct="3" vol="45" pos="13824" len="6" />
          <note tone="4" pan="0" oct="4" vol="44" pos="13824" len="6" />
          <note tone="5" pan="0" oct="3" vol="32" pos="13830" len="6" />
          <note tone="5" pan="0" oct="2" vol="34" pos="13830" len="6" />
          <note tone="2" pan="0" oct="4" vol="36" pos="13836" len="6" />
          <note tone="2" pan="0" oct="3" vol="39" pos="13836" len="6" />
          <note tone="0" pan="0" oct="3" vol="36" pos="13842" len="6" />
          <note tone="0" pan="0" oct="4" vol="42" pos="13842" len="6" />
          <note tone="2" pan="0" oct="3" vol="43" pos="13848" len="6" />
          <note tone="2" pan="0" oct="4" vol="43" pos="13848" len="6" />
          <note tone="11" pan="0" oct="2" vol="41" pos="13854" len="6" />
          <note tone="11" pan="0" oct="3" vol="37" pos="13854" len="6" />
          <note tone="2" pan="0" oct="3" vol="50" pos="13860" len="6" />
          <note tone="2" pan="0" oct="4" vol="46" pos="13860" len="6" />
          <note tone="9" pan="0" oct="2" vol="45" pos="13866" len="6" />
          <note tone="9" pan="0" oct="3" vol="42" pos="13866" len="6" />
          <note tone="2" pan="0" oct="3" vol="45" pos="13872" len="6" />
          <note tone="2" pan="0" oct="4" vol="36" pos="13872" len="6" />
          <note tone="11" pan="0" oct="2" vol="46" pos="13878" len="6" />
          <note tone="11" pan="0" oct="3" vol="39" pos="13878" len="6" />
          <note tone="2" pan="0" oct="3" vol="33" pos="13884" len="6" />
          <note tone="2" pan="0" oct="4" vol="37" pos="13884" len="6" />
          <note tone="8" pan="0" oct="2" vol="40" pos="13890" len="6" />
          <note tone="8" pan="0" oct="3" vol="36" pos="13890" len="6" />
          <note tone="2" pan="0" oct="3" vol="32" pos="13896" len="6" />
          <note tone="2" pan="0" oct="4" vol="33" pos="13896" len="6" />
          <note tone="4" pan="0" oct="2" vol="38" pos="13902" len="6" />
          <note tone="4" pan="0" oct="3" vol="40" pos="13902" len="6" />
          <note tone="0" pan="0" oct="4" vol="42" pos="13908" len="24" />
          <note tone="0" pan="0" oct="3" vol="38" pos="13908" len="24" />
          <note tone="0" pan="0" oct="4" vol="40" pos="13944" len="24" />
          <note tone="11" pan="0" oct="3" vol="31" pos="13980" len="12" />
          <note tone="11" pan="0" oct="4" vol="30" pos="13992" len="12" />
          <note tone="9" pan="0" oct="4" vol="33" pos="14004" len="12" />
          <note tone="8" pan="0" oct="4" vol="26" pos="14016" len="24" />
          <note tone="9" pan="0" oct="4" vol="32" pos="14052" len="12" />
          <note tone="5" pan="0" oct="4" vol="24" pos="14064" len="12" />
          <note tone="2" pan="0" oct="4" vol="43" pos="14076" len="12" />
          <note tone="4" pan="0" oct="4" vol="38" pos="14088" len="24" />
          <note tone="9" pan="0" oct="4" vol="31" pos="14124" len="24" />
          <note tone="4" pan="0" oct="3" vol="35" pos="14160" len="24" />
          <note tone="4" pan="0" oct="3" vol="39" pos="14244" len="12" />
          <note tone="6" pan="0" oct="3" vol="21" pos="14256" len="12" />
          <note tone="8" pan="0" oct="3" vol="28" pos="14268" len="12" />
          <note tone="6" pan="0" oct="3" vol="29" pos="14280" len="12" />
          <note tone="4" pan="0" oct="3" vol="23" pos="14292" len="12" />
          <note tone="9" pan="0" oct="3" vol="26" pos="14316" len="12" />
          <note tone="11" pan="0" oct="3" vol="32" pos="14328" len="12" />
          <note tone="0" pan="0" oct="4" vol="41" pos="14340" len="12" />
          <note tone="11" pan="0" oct="3" vol="27" pos="14352" len="12" />
          <note tone="9" pan="0" oct="3" vol="18" pos="14364" len="12" />
          <note tone="4" pan="0" oct="4" vol="34" pos="14388" len="12" />
          <note tone="6" pan="0" oct="4" vol="31" pos="14400" len="12" />
          <note tone="8" pan="0" oct="4" vol="34" pos="14412" len="12" />
          <note tone="6" pan="0" oct="4" vol="30" pos="14424" len="12" />
          <note tone="4" pan="0" oct="4" vol="35" pos="14436" len="12" />
          <note tone="9" pan="0" oct="3" vol="25" pos="14448" len="48" />
          <note tone="8" pan="0" oct="3" vol="26" pos="14496" len="24" />
          <note tone="0" pan="0" oct="5" vol="32" pos="14520" len="6" />
          <note tone="9" pan="0" oct="3" vol="40" pos="14520" len="6" />
          <note tone="9" pan="0" oct="2" vol="33" pos="14526" len="6" />
          <note tone="9" pan="0" oct="3" vol="30" pos="14526" len="6" />
          <note tone="0" pan="0" oct="3" vol="42" pos="14532" len="6" />
          <note tone="0" pan="0" oct="4" vol="45" pos="14532" len="6" />
          <note tone="11" pan="0" oct="2" vol="38" pos="14538" len="6" />
          <note tone="11" pan="0" oct="3" vol="31" pos="14538" len="6" />
          <note tone="0" pan="0" oct="3" vol="39" pos="14544" len="6" />
          <note tone="0" pan="0" oct="4" vol="42" pos="14544" len="6" />
          <note tone="9" pan="0" oct="2" vol="30" pos="14550" len="6" />
          <note tone="9" pan="0" oct="3" vol="26" pos="14550" len="6" />
          <note tone="2" pan="0" oct="3" vol="36" pos="14556" len="24" />
          <note tone="2" pan="0" oct="4" vol="34" pos="14556" len="24" />
          <note tone="7" pan="0" oct="3" vol="28" pos="14592" len="12" />
          <note tone="7" pan="0" oct="2" vol="35" pos="14592" len="12" />
          <note tone="9" pan="0" oct="3" vol="35" pos="14604" len="12" />
          <note tone="9" pan="0" oct="2" vol="42" pos="14604" len="12" />
          <note tone="11" pan="0" oct="2" vol="31" pos="14616" len="12" />
          <note tone="11" pan="0" oct="3" vol="29" pos="14616" len="12" />
          <note tone="0" pan="0" oct="3" vol="35" pos="14628" len="24" />
          <note tone="0" pan="0" oct="4" vol="40" pos="14628" len="24" />
          <note tone="5" pan="0" oct="2" vol="41" pos="14664" len="12" />
          <note tone="5" pan="0" oct="3" vol="32" pos="14664" len="12" />
          <note tone="7" pan="0" oct="2" vol="34" pos="14676" len="12" />
          <note tone="7" pan="0" oct="3" vol="31" pos="14676" len="12" />
          <note tone="9" pan="0" oct="2" vol="37" pos="14688" len="12" />
          <note tone="9" pan="0" oct="3" vol="37" pos="14688" len="12" />
          <note tone="10" pan="0" oct="2" vol="35" pos="14700" len="12" />
          <note tone="10" pan="0" oct="3" vol="21" pos="14700" len="12" />
          <note tone="0" pan="0" oct="4" vol="34" pos="14712" len="12" />
          <note tone="2" pan="0" oct="4" vol="30" pos="14724" len="12" />
          <note tone="2" pan="0" oct="3" vol="32" pos="14724" len="12" />
          <note tone="4" pan="0" oct="3" vol="41" pos="14736" len="24" />
          <note tone="4" pan="0" oct="4" vol="35" pos="14736" len="24" />
          <note tone="4" pan="0" oct="4" vol="33" pos="14808" len="24" />
          <note tone="4" pan="0" oct="3" vol="37" pos="14808" len="24" />
          <note tone="4" pan="0" oct="3" vol="42" pos="14880" len="24" />
          <note tone="4" pan="0" oct="4" vol="35" pos="14952" len="24" />
          <note tone="4" pan="0" oct="3" vol="41" pos="14952" len="24" />
          <note tone="11" pan="0" oct="3" vol="39" pos="15030" len="4" />
          <note tone="11" pan="0" oct="2" vol="42" pos="15030" len="4" />
          <note tone="2" pan="0" oct="3" vol="37" pos="15036" len="4" />
          <note tone="2" pan="0" oct="4" vol="35" pos="15036" len="4" />
          <note tone="0" pan="0" oct="3" vol="32" pos="15042" len="4" />
          <note tone="0" pan="0" oct="4" vol="47" pos="15042" len="4" />
          <note tone="2" pan="0" oct="4" vol="45" pos="15048" len="4" />
          <note tone="2" pan="0" oct="3" vol="43" pos="15048" len="4" />
          <note tone="11" pan="0" oct="3" vol="32" pos="15054" len="4" />
          <note tone="11" pan="0" oct="2" vol="38" pos="15054" len="4" />
          <note tone="8" pan="0" oct="4" vol="36" pos="15060" len="4" />
          <note tone="8" pan="0" oct="3" vol="33" pos="15060" len="4" />
          <note tone="4" pan="0" oct="4" vol="29" pos="15066" len="4" />
          <note tone="4" pan="0" oct="3" vol="45" pos="15066" len="4" />
          <note tone="5" pan="0" oct="3" vol="25" pos="15072" len="4" />
          <note tone="5" pan="0" oct="4" vol="40" pos="15072" len="4" />
          <note tone="4" pan="0" oct="4" vol="29" pos="15078" len="4" />
          <note tone="4" pan="0" oct="3" vol="38" pos="15078" len="4" />
          <note tone="5" pan="0" oct="4" vol="44" pos="15084" len="4" />
          <note tone="5" pan="0" oct="3" vol="42" pos="15084" len="4" />
          <note tone="2" pan="0" oct="4" vol="28" pos="15090" len="4" />
          <note tone="2" pan="0" oct="3" vol="39" pos="15090" len="4" />
          <note tone="11" pan="0" oct="3" vol="45" pos="15096" len="4" />
          <note tone="11" pan="0" oct="4" vol="37" pos="15096" len="4" />
          <note tone="6" pan="0" oct="4" vol="32" pos="15102" len="4" />
          <note tone="6" pan="0" oct="3" vol="30" pos="15102" len="4" />
          <note tone="8" pan="0" oct="4" vol="42" pos="15108" len="4" />
          <note tone="8" pan="0" oct="3" vol="35" pos="15108" len="4" />
          <note tone="6" pan="0" oct="4" vol="38" pos="15114" len="4" />
          <note tone="6" pan="0" oct="3" vol="32" pos="15114" len="4" />
          <note tone="8" pan="0" oct="3" vol="40" pos="15120" len="4" />
          <note tone="8" pan="0" oct="4" vol="42" pos="15120" len="4" />
          <note tone="4" pan="0" oct="4" vol="50" pos="15126" len="4" />
          <note tone="4" pan="0" oct="3" vol="49" pos="15126" len="4" />
          <note tone="2" pan="0" oct="5" vol="39" pos="15132" len="4" />
          <note tone="2" pan="0" oct="4" vol="40" pos="15132" len="4" />
          <note tone="9" pan="0" oct="3" vol="35" pos="15138" len="4" />
          <note tone="9" pan="0" oct="4" vol="25" pos="15138" len="4" />
          <note tone="11" pan="0" oct="4" vol="42" pos="15144" len="4" />
          <note tone="11" pan="0" oct="3" vol="48" pos="15144" len="4" />
          <note tone="9" pan="0" oct="4" vol="29" pos="15150" len="4" />
          <note tone="9" pan="0" oct="3" vol="39" pos="15150" len="4" />
          <note tone="11" pan="0" oct="4" vol="28" pos="15156" len="4" />
          <note tone="11" pan="0" oct="3" vol="35" pos="15156" len="4" />
          <note tone="8" pan="0" oct="4" vol="21" pos="15162" len="4" />
          <note tone="8" pan="0" oct="3" vol="23" pos="15162" len="4" />
          <note tone="0" pan="0" oct="5" vol="42" pos="15168" len="4" />
          <note tone="0" pan="0" oct="4" vol="54" pos="15168" len="4" />
          <note tone="8" pan="0" oct="4" vol="25" pos="15174" len="4" />
          <note tone="8" pan="0" oct="3" vol="27" pos="15174" len="4" />
          <note tone="9" pan="0" oct="4" vol="39" pos="15180" len="4" />
          <note tone="9" pan="0" oct="3" vol="42" pos="15180" len="4" />
          <note tone="4" pan="0" oct="4" vol="25" pos="15186" len="4" />
          <note tone="4" pan="0" oct="3" vol="44" pos="15186" len="4" />
          <note tone="5" pan="0" oct="4" vol="35" pos="15192" len="4" />
          <note tone="5" pan="0" oct="3" vol="38" pos="15192" len="4" />
          <note tone="3" pan="0" oct="3" vol="28" pos="15198" len="4" />
          <note tone="3" pan="0" oct="4" vol="21" pos="15198" len="4" />
          <note tone="4" pan="0" oct="4" vol="30" pos="15204" len="4" />
          <note tone="4" pan="0" oct="3" vol="31" pos="15204" len="4" />
          <note tone="8" pan="0" oct="4" vol="28" pos="15210" len="4" />
          <note tone="8" pan="0" oct="3" vol="31" pos="15210" len="4" />
          <note tone="9" pan="0" oct="3" vol="47" pos="15216" len="4" />
          <note tone="9" pan="0" oct="4" vol="42" pos="15216" len="4" />
          <note tone="4" pan="0" oct="3" vol="40" pos="15222" len="4" />
          <note tone="4" pan="0" oct="4" vol="23" pos="15222" len="4" />
          <note tone="5" pan="0" oct="4" vol="32" pos="15228" len="4" />
          <note tone="5" pan="0" oct="3" vol="37" pos="15228" len="4" />
          <note tone="2" pan="0" oct="3" vol="35" pos="15234" len="4" />
          <note tone="2" pan="0" oct="4" vol="28" pos="15234" len="4" />
          <note tone="4" pan="0" oct="4" vol="39" pos="15240" len="4" />
          <note tone="4" pan="0" oct="3" vol="42" pos="15240" len="4" />
          <note tone="8" pan="0" oct="4" vol="32" pos="15246" len="4" />
          <note tone="8" pan="0" oct="3" vol="31" pos="15246" len="4" />
          <note tone="9" pan="0" oct="4" vol="42" pos="15252" len="4" />
          <note tone="9" pan="0" oct="3" vol="45" pos="15252" len="4" />
          <note tone="4" pan="0" oct="4" vol="29" pos="15258" len="4" />
          <note tone="4" pan="0" oct="3" vol="39" pos="15258" len="4" />
          <note tone="5" pan="0" oct="3" vol="42" pos="15264" len="4" />
          <note tone="5" pan="0" oct="4" vol="39" pos="15264" len="4" />
          <note tone="3" pan="0" oct="4" vol="26" pos="15270" len="4" />
          <note tone="3" pan="0" oct="3" vol="28" pos="15270" len="4" />
          <note tone="4" pan="0" oct="4" vol="35" pos="15276" len="4" />
          <note tone="4" pan="0" oct="3" vol="36" pos="15276" len="4" />
          <note tone="3" pan="0" oct="3" vol="20" pos="15282" len="4" />
          <note tone="3" pan="0" oct="4" vol="28" pos="15282" len="4" />
          <note tone="4" pan="0" oct="4" vol="42" pos="15288" len="4" />
          <note tone="4" pan="0" oct="3" vol="46" pos="15288" len="4" />
          <note tone="11" pan="0" oct="3" vol="35" pos="15294" len="4" />
          <note tone="11" pan="0" oct="2" vol="42" pos="15294" len="4" />
          <note tone="0" pan="0" oct="4" vol="39" pos="15300" len="4" />
          <note tone="0" pan="0" oct="3" vol="35" pos="15300" len="4" />
          <note tone="8" pan="0" oct="3" vol="35" pos="15306" len="4" />
          <note tone="8" pan="0" oct="2" vol="31" pos="15306" len="4" />
          <note tone="9" pan="0" oct="3" vol="34" pos="15312" len="4" />
          <note tone="9" pan="0" oct="2" vol="36" pos="15312" len="4" />
          <note tone="3" pan="0" oct="4" vol="30" pos="15318" len="4" />
          <note tone="3" pan="0" oct="3" vol="26" pos="15318" len="4" />
          <note tone="4" pan="0" oct="3" vol="42" pos="15324" len="4" />
          <note tone="4" pan="0" oct="4" vol="35" pos="15324" len="4" />
          <note tone="11" pan="0" oct="3" vol="26" pos="15330" len="4" />
          <note tone="11" pan="0" oct="2" vol="31" pos="15330" len="4" />
          <note tone="0" pan="0" oct="3" vol="42" pos="15336" len="4" />
          <note tone="0" pan="0" oct="4" vol="41" pos="15336" len="4" />
          <note tone="8" pan="0" oct="3" vol="27" pos="15342" len="4" />
          <note tone="8" pan="0" oct="2" vol="35" pos="15342" len="4" />
          <note tone="9" pan="0" oct="3" vol="30" pos="15348" len="4" />
          <note tone="9" pan="0" oct="2" vol="39" pos="15348" len="4" />
          <note tone="3" pan="0" oct="4" vol="32" pos="15354" len="4" />
          <note tone="3" pan="0" oct="3" vol="25" pos="15354" len="4" />
          <note tone="4" pan="0" oct="4" vol="39" pos="15360" len="4" />
          <note tone="4" pan="0" oct="3" vol="42" pos="15360" len="4" />
          <note tone="11" pan="0" oct="3" vol="36" pos="15366" len="4" />
          <note tone="11" pan="0" oct="2" vol="38" pos="15366" len="4" />
          <note tone="0" pan="0" oct="4" vol="35" pos="15372" len="4" />
          <note tone="0" pan="0" oct="3" vol="29" pos="15372" len="4" />
          <note tone="8" pan="0" oct="2" vol="26" pos="15378" len="4" />
          <note tone="8" pan="0" oct="3" vol="29" pos="15378" len="4" />
          <note tone="9" pan="0" oct="3" vol="25" pos="15384" len="4" />
          <note tone="9" pan="0" oct="2" vol="37" pos="15384" len="4" />
          <note tone="0" pan="0" oct="4" vol="31" pos="15390" len="4" />
          <note tone="0" pan="0" oct="3" vol="32" pos="15390" len="4" />
          <note tone="0" pan="0" oct="4" vol="49" pos="15396" len="4" />
          <note tone="0" pan="0" oct="3" vol="46" pos="15396" len="4" />
          <note tone="4" pan="0" oct="3" vol="35" pos="15402" len="4" />
          <note tone="4" pan="0" oct="4" vol="34" pos="15402" len="4" />
          <note tone="4" pan="0" oct="4" vol="36" pos="15408" len="4" />
          <note tone="4" pan="0" oct="3" vol="46" pos="15408" len="4" />
          <note tone="9" pan="0" oct="4" vol="40" pos="15414" len="4" />
          <note tone="9" pan="0" oct="3" vol="36" pos="15414" len="4" />
          <note tone="0" pan="0" oct="4" vol="39" pos="15420" len="4" />
          <note tone="0" pan="0" oct="3" vol="42" pos="15420" len="4" />
          <note tone="4" pan="0" oct="3" vol="30" pos="15426" len="4" />
          <note tone="4" pan="0" oct="4" vol="38" pos="15426" len="4" />
          <note tone="4" pan="0" oct="4" vol="50" pos="15432" len="4" />
          <note tone="4" pan="0" oct="3" vol="50" pos="15432" len="4" />
          <note tone="9" pan="0" oct="4" vol="33" pos="15438" len="4" />
          <note tone="9" pan="0" oct="3" vol="42" pos="15438" len="4" />
          <note tone="9" pan="0" oct="4" vol="44" pos="15444" len="4" />
          <note tone="9" pan="0" oct="3" vol="53" pos="15444" len="4" />
          <note tone="0" pan="0" oct="5" vol="44" pos="15450" len="4" />
          <note tone="0" pan="0" oct="4" vol="41" pos="15450" len="4" />
          <note tone="8" pan="0" oct="4" vol="25" pos="15456" len="4" />
          <note tone="8" pan="0" oct="3" vol="29" pos="15456" len="4" />
          <note tone="9" pan="0" oct="4" vol="46" pos="15462" len="4" />
          <note tone="9" pan="0" oct="3" vol="48" pos="15462" len="4" />
          <note tone="4" pan="0" oct="4" vol="28" pos="15468" len="4" />
          <note tone="4" pan="0" oct="3" vol="39" pos="15468" len="4" />
          <note tone="5" pan="0" oct="4" vol="40" pos="15474" len="4" />
          <note tone="5" pan="0" oct="3" vol="39" pos="15474" len="4" />
          <note tone="3" pan="0" oct="3" vol="17" pos="15480" len="4" />
          <note tone="3" pan="0" oct="4" vol="21" pos="15480" len="4" />
          <note tone="4" pan="0" oct="3" vol="43" pos="15486" len="4" />
          <note tone="4" pan="0" oct="4" vol="43" pos="15486" len="4" />
          <note tone="11" pan="0" oct="3" vol="30" pos="15492" len="4" />
          <note tone="11" pan="0" oct="2" vol="42" pos="15492" len="4" />
          <note tone="0" pan="0" oct="4" vol="40" pos="15498" len="4" />
          <note tone="0" pan="0" oct="3" vol="40" pos="15498" len="4" />
          <note tone="8" pan="0" oct="3" vol="28" pos="15504" len="4" />
          <note tone="8" pan="0" oct="2" vol="24" pos="15504" len="4" />
          <note tone="9" pan="0" oct="3" vol="38" pos="15510" len="4" />
          <note tone="9" pan="0" oct="2" vol="32" pos="15510" len="4" />
          <note tone="4" pan="0" oct="2" vol="40" pos="15516" len="4" />
          <note tone="4" pan="0" oct="3" vol="39" pos="15516" len="4" />
          <note tone="6" pan="0" oct="2" vol="21" pos="15522" len="4" />
          <note tone="6" pan="0" oct="3" vol="28" pos="15522" len="4" />
          <note tone="3" pan="0" oct="2" vol="21" pos="15528" len="24" />
          <note tone="3" pan="0" oct="3" vol="22" pos="15528" len="24" />
          <note tone="4" pan="0" oct="2" vol="47" pos="15708" len="24" />
          <note tone="4" pan="0" oct="3" vol="42" pos="15708" len="24" />
          <note tone="4" pan="0" oct="3" vol="39" pos="15888" len="24" />
          <note tone="4" pan="0" oct="4" vol="31" pos="15888" len="24" />
          <note tone="4" pan="0" oct="3" vol="36" pos="15912" len="12" />
          <note tone="4" pan="0" oct="4" vol="38" pos="15912" len="12" />
          <note tone="9" pan="0" oct="2" vol="34" pos="15924" len="24" />
          <note tone="9" pan="0" oct="3" vol="36" pos="15924" len="24" />
          <note tone="9" pan="0" oct="1" vol="50" pos="15924" len="24" />
        </pattern>
      </track>
    </trackcontainer>
    <projectnotes><![CDATA[<html><head><meta name="qrichtext" content="1" /></head><body style="font-size:11pt;font-family:Bitstream Vera Sans">
<p align="center"><span style="font-size:16pt;font-weight:600">Preludium and Fuge A-Minor (BWV 543)</span></p>
<p align="center"><span style="font-size:14pt;font-weight:600">by J.S. Bach (1685-1750)</span></p>
<p>One of the greatest works of the greatest composer ever!!!</p>
</body></html>
]]></projectnotes>
  </song>
</multimediaproject>
