<?xml version="1.0" encoding="UTF-8" standalone="no"?>
<!-- Created with Inkscape (http://www.inkscape.org/) -->

<svg
   xmlns:dc="http://purl.org/dc/elements/1.1/"
   xmlns:cc="http://creativecommons.org/ns#"
   xmlns:rdf="http://www.w3.org/1999/02/22-rdf-syntax-ns#"
   xmlns:svg="http://www.w3.org/2000/svg"
   xmlns="http://www.w3.org/2000/svg"
   xmlns:sodipodi="http://sodipodi.sourceforge.net/DTD/sodipodi-0.dtd"
   xmlns:inkscape="http://www.inkscape.org/namespaces/inkscape"
   width="50mm"
   height="150mm"
   viewBox="0 0 50 150"
   version="1.1"
   id="svg8"
   inkscape:version="0.92.1 r15371"
   sodipodi:docname="advanced_off.svg">
  <defs
     id="defs2">
    <marker
       inkscape:isstock="true"
       style="overflow:visible"
       id="marker8614"
       refX="0"
       refY="0"
       orient="auto"
       inkscape:stockid="TriangleOutM">
      <path
         inkscape:connector-curvature="0"
         transform="scale(0.4)"
         style="fill:#ffffff;fill-opacity:1;fill-rule:evenodd;stroke:#ffffff;stroke-width:1.00000003pt;stroke-opacity:1"
         d="M 5.77,0 -2.88,5 V -5 Z"
         id="path8612" />
    </marker>
    <marker
       inkscape:isstock="true"
       style="overflow:visible"
       id="marker8538"
       refX="0"
       refY="0"
       orient="auto"
       inkscape:stockid="TriangleInM">
      <path
         inkscape:connector-curvature="0"
         transform="scale(-0.4)"
         style="fill:#ffffff;fill-opacity:1;fill-rule:evenodd;stroke:#ffffff;stroke-width:1.00000003pt;stroke-opacity:1"
         d="M 5.77,0 -2.88,5 V -5 Z"
         id="path8536" />
    </marker>
    <marker
       inkscape:stockid="Arrow2Mstart"
       orient="auto"
       refY="0"
       refX="0"
       id="marker9923"
       style="overflow:visible"
       inkscape:isstock="true">
      <path
         id="path9921"
         style="fill:#ffffff;fill-opacity:1;fill-rule:evenodd;stroke:#ffffff;stroke-width:0.625;stroke-linejoin:round;stroke-opacity:1"
         d="M 8.7185878,4.0337352 -2.2072895,0.01601326 8.7185884,-4.0017078 c -1.7454984,2.3720609 -1.7354408,5.6174519 -6e-7,8.035443 z"
         transform="scale(0.6)"
         inkscape:connector-curvature="0" />
    </marker>
    <marker
       inkscape:stockid="Arrow2Mend"
       orient="auto"
       refY="0"
       refX="0"
       id="Arrow2Mend"
       style="overflow:visible"
       inkscape:isstock="true">
      <path
         id="path8461"
         style="fill:#ffffff;fill-opacity:1;fill-rule:evenodd;stroke:#ffffff;stroke-width:0.625;stroke-linejoin:round;stroke-opacity:1"
         d="M 8.7185878,4.0337352 -2.2072895,0.01601326 8.7185884,-4.0017078 c -1.7454984,2.3720609 -1.7354408,5.6174519 -6e-7,8.035443 z"
         transform="scale(-0.6)"
         inkscape:connector-curvature="0" />
    </marker>
    <marker
       inkscape:stockid="Arrow2Mstart"
       orient="auto"
       refY="0"
       refX="0"
       id="Arrow2Mstart"
       style="overflow:visible"
       inkscape:isstock="true">
      <path
         id="path8458"
         style="fill:#ffffff;fill-opacity:1;fill-rule:evenodd;stroke:#ffffff;stroke-width:0.625;stroke-linejoin:round;stroke-opacity:1"
         d="M 8.7185878,4.0337352 -2.2072895,0.01601326 8.7185884,-4.0017078 c -1.7454984,2.3720609 -1.7354408,5.6174519 -6e-7,8.035443 z"
         transform="scale(0.6)"
         inkscape:connector-curvature="0" />
    </marker>
    <marker
       inkscape:isstock="true"
       style="overflow:visible"
       id="marker9470"
       refX="0"
       refY="0"
       orient="auto"
       inkscape:stockid="Arrow2Send">
      <path
         transform="matrix(-0.3,0,0,-0.3,0.69,0)"
         d="M 8.7185878,4.0337352 -2.2072895,0.01601326 8.7185884,-4.0017078 c -1.7454984,2.3720609 -1.7354408,5.6174519 -6e-7,8.035443 z"
         style="fill:#ffffff;fill-opacity:1;fill-rule:evenodd;stroke:#ffffff;stroke-width:0.625;stroke-linejoin:round;stroke-opacity:1"
         id="path9468"
         inkscape:connector-curvature="0" />
    </marker>
    <marker
       inkscape:isstock="true"
       style="overflow:visible"
       id="marker9424"
       refX="0"
       refY="0"
       orient="auto"
       inkscape:stockid="Arrow2Sstart">
      <path
         transform="matrix(0.3,0,0,0.3,-0.69,0)"
         d="M 8.7185878,4.0337352 -2.2072895,0.01601326 8.7185884,-4.0017078 c -1.7454984,2.3720609 -1.7354408,5.6174519 -6e-7,8.035443 z"
         style="fill:#ffffff;fill-opacity:1;fill-rule:evenodd;stroke:#ffffff;stroke-width:0.625;stroke-linejoin:round;stroke-opacity:1"
         id="path9422"
         inkscape:connector-curvature="0" />
    </marker>
    <marker
       inkscape:stockid="Arrow1Mstart"
       orient="auto"
       refY="0"
       refX="0"
       id="Arrow1Mstart"
       style="overflow:visible"
       inkscape:isstock="true">
      <path
         id="path8440"
         d="M 0,0 5,-5 -12.5,0 5,5 Z"
         style="fill:#ffffff;fill-opacity:1;fill-rule:evenodd;stroke:#ffffff;stroke-width:1.00000003pt;stroke-opacity:1"
         transform="matrix(0.4,0,0,0.4,4,0)"
         inkscape:connector-curvature="0" />
    </marker>
    <marker
       inkscape:stockid="TriangleOutL"
       orient="auto"
       refY="0"
       refX="0"
       id="TriangleOutL"
       style="overflow:visible"
       inkscape:isstock="true">
      <path
         id="path8576"
         d="M 5.77,0 -2.88,5 V -5 Z"
         style="fill:#ffffff;fill-opacity:1;fill-rule:evenodd;stroke:#ffffff;stroke-width:1.00000003pt;stroke-opacity:1"
         transform="scale(0.8)"
         inkscape:connector-curvature="0" />
    </marker>
    <marker
       inkscape:stockid="TriangleInL"
       orient="auto"
       refY="0"
       refX="0"
       id="TriangleInL"
       style="overflow:visible"
       inkscape:isstock="true">
      <path
         id="path8567"
         d="M 5.77,0 -2.88,5 V -5 Z"
         style="fill:#ffffff;fill-opacity:1;fill-rule:evenodd;stroke:#ffffff;stroke-width:1.00000003pt;stroke-opacity:1"
         transform="scale(-0.8)"
         inkscape:connector-curvature="0" />
    </marker>
  </defs>
  <sodipodi:namedview
     id="base"
     pagecolor="#ffffff"
     bordercolor="#666666"
     borderopacity="1.0"
     inkscape:pageopacity="0.0"
     inkscape:pageshadow="2"
     inkscape:zoom="3.3196389"
     inkscape:cx="94.488189"
     inkscape:cy="283.46457"
     inkscape:document-units="mm"
     inkscape:current-layer="layer1"
     showgrid="false"
     inkscape:pagecheckerboard="true"
     fit-margin-top="0"
     fit-margin-left="0"
     fit-margin-right="0"
     fit-margin-bottom="0"
     showguides="true"
     inkscape:guide-bbox="true"
     inkscape:snap-center="false"
     inkscape:snap-object-midpoints="true" />
  <metadata
     id="metadata5">
    <rdf:RDF>
      <cc:Work
         rdf:about="">
        <dc:format>image/svg+xml</dc:format>
        <dc:type
           rdf:resource="http://purl.org/dc/dcmitype/StillImage" />
        <dc:title />
      </cc:Work>
    </rdf:RDF>
  </metadata>
  <g
     inkscape:label="Layer 1"
     inkscape:groupmode="layer"
     id="layer1"
     transform="translate(-59.999998,-57)">
    <g
       aria-label="A D V."
       style="font-style:oblique;font-variant:normal;font-weight:bold;font-stretch:normal;font-size:25.39999962px;line-height:125%;font-family:'DejaVu Sans';-inkscape-font-specification:'DejaVu Sans Bold Oblique';text-align:start;letter-spacing:0px;word-spacing:0px;text-anchor:start;fill:#ffffff;fill-opacity:1;stroke:none;stroke-width:0.32664606px;stroke-linecap:butt;stroke-linejoin:miter;stroke-opacity:1"
       id="text8560"
       transform="matrix(0.81,0,0,0.81,16.15003,20.403867)">
      <path
         d="M 87.278317,86.62654 H 79.88652 l -1.835547,3.373437 H 73.152048 L 83.619626,71.483278 h 5.457031 l 3.274219,18.516699 H 87.811618 Z M 81.68486,83.265505 h 4.97334 l -1.116211,-7.131348 z"
         style="font-style:oblique;font-variant:normal;font-weight:bold;font-stretch:normal;font-size:25.39999962px;font-family:'DejaVu Sans';-inkscape-font-specification:'DejaVu Sans Bold Oblique';text-align:start;text-anchor:start;fill:#ffffff;stroke-width:0.32664606px"
         id="path13111"
         inkscape:connector-curvature="0" />
      <path
         d="m 83.036716,106.84236 -2.22002,11.29853 h 1.711523 q 3.336231,0 5.283399,-1.87275 1.947168,-1.87275 1.947168,-5.06016 0,-2.158 -1.277442,-3.26181 -1.265039,-1.10381 -3.770312,-1.10381 z m -4.092774,-3.60908 h 5.022949 q 3.59668,0 5.39502,0.43408 1.79834,0.42168 2.988965,1.42627 1.203027,1.00459 1.810742,2.44326 0.607715,1.42627 0.607715,3.23701 0,2.51768 -1.041797,4.7501 -1.029395,2.22002 -2.902149,3.73311 -1.637109,1.35185 -3.807519,1.92236 -2.158008,0.57051 -6.647656,0.57051 H 75.33486 Z"
         style="font-style:oblique;font-variant:normal;font-weight:bold;font-stretch:normal;font-size:25.39999962px;font-family:'DejaVu Sans';-inkscape-font-specification:'DejaVu Sans Bold Oblique';text-align:start;text-anchor:start;fill:#ffffff;stroke-width:0.32664606px"
         id="path13113"
         inkscape:connector-curvature="0" />
      <path
         d="m 76.736325,134.98328 h 4.539258 l 2.269629,13.84101 7.664648,-13.84101 h 4.92373 l -10.455175,18.5167 h -5.692676 z"
         style="font-style:oblique;font-variant:normal;font-weight:bold;font-stretch:normal;font-size:25.39999962px;font-family:'DejaVu Sans';-inkscape-font-specification:'DejaVu Sans Bold Oblique';text-align:start;text-anchor:start;fill:#ffffff;stroke-width:0.32664606px"
         id="path13115"
         inkscape:connector-curvature="0" />
      <path
         d="m 92.58652,148.70027 h 4.464844 l -0.930176,4.79971 h -4.477246 z"
         style="font-style:oblique;font-variant:normal;font-weight:bold;font-stretch:normal;font-size:25.39999962px;font-family:'DejaVu Sans';-inkscape-font-specification:'DejaVu Sans Bold Oblique';text-align:start;text-anchor:start;fill:#ffffff;stroke-width:0.32664606px"
         id="path13117"
         inkscape:connector-curvature="0" />
    </g>
    <path
       style="opacity:1;fill:#ffffff;fill-opacity:1;stroke:none;stroke-width:1;stroke-linecap:butt;stroke-linejoin:miter;stroke-miterlimit:4;stroke-dasharray:none;stroke-dashoffset:0;stroke-opacity:1"
       d="m 85.084602,154.05774 c -4.167529,-0.0223 -0.480916,3.48589 -4.24523,5.30715 -3.764312,1.82128 -4.106432,-3.30495 -6.721962,-8.5e-4 -2.61553,3.30412 2.376484,2.55635 1.427774,6.68889 -0.94871,4.13255 -5.097666,1.20865 -4.191651,5.35112 0.906015,4.14247 3.444154,-0.29848 6.025446,3.03344 2.581291,3.33193 -2.250566,4.81237 1.494746,6.67382 3.745312,1.86146 1.918612,-2.92849 6.086139,-2.90618 4.167528,0.0223 2.291691,4.79234 6.056002,2.97107 3.764314,-1.82128 -1.052137,-3.35339 1.563395,-6.6575 2.61553,-3.30412 5.10813,1.16355 6.056835,-2.96899 0.948717,-4.13254 -3.230381,-1.25301 -4.136395,-5.39548 -0.906015,-4.14246 4.077715,-3.34148 1.496421,-6.67341 -2.581293,-3.33192 -2.976232,1.79071 -6.721544,-0.0707 -3.745312,-1.86145 -0.02245,-5.33007 -4.189976,-5.35237 z m -0.07367,11.20577 a 3.04264,3.04264 0 0 1 3.042652,3.04266 3.04264,3.04264 0 0 1 -3.042652,3.04265 3.04264,3.04264 0 0 1 -3.042652,-3.04265 3.04264,3.04264 0 0 1 3.042652,-3.04266 z"
       id="path8568"
       inkscape:connector-curvature="0" />
  </g>
</svg>
