<?xml version="1.0" encoding="UTF-8" standalone="no"?>
<svg xmlns="http://www.w3.org/2000/svg" xmlns:svg="http://www.w3.org/2000/svg" xmlns:rdf="http://www.w3.org/1999/02/22-rdf-syntax-ns#" xmlns:cc="http://creativecommons.org/ns#" xmlns:dc="http://purl.org/dc/elements/1.1/" version="1.1" width="48" height="48">
	<metadata>
		<rdf:RDF>
			<cc:Work>
				<dc:title>LMMS plugin logo</dc:title>
				<dc:creator><cc:Agent><dc:title>Rebecca Noel Ati</dc:title></cc:Agent></dc:creator>
			</cc:Work>
			<cc:License rdf:about="http://creativecommons.org/publicdomain/zero/1.0/">
				<cc:permits rdf:resource="http://creativecommons.org/ns#Reproduction" />
				<cc:permits rdf:resource="http://creativecommons.org/ns#Distribution" />
				<cc:permits rdf:resource="http://creativecommons.org/ns#DerivativeWorks" />
			</cc:License>
		</rdf:RDF>
	</metadata>
	<path fill="#fff" d="M7.86719 2C3.95608 2 2 3.95608 2 7.86719V40.1328C2 44.04392 3.95608 46 7.86719 46H40.1328C44.04392 46 46 44.04392 46 40.13281V7.8672C46 3.95608 44.04392 2 40.13281 2H7.8672zM24 9l15 8.4375V35.25l-5.625 2.8125L27.75 35.25v-6.5625l5.625-2.8125V20.25L24 15.5625 14.625 20.25v5.625l5.625 2.8125V35.25l-5.625 2.8125L9 35.25V17.4375L24 9z"/>
</svg>
