<?xml version="1.0" encoding="UTF-8" standalone="no"?>
<!-- Created with Inkscape (http://www.inkscape.org/) -->

<svg
   width="24"
   height="24"
   viewBox="0 0 24 24"
   version="1.1"
   id="svg1"
   xml:space="preserve"
   xmlns="http://www.w3.org/2000/svg"
   xmlns:svg="http://www.w3.org/2000/svg"
   xmlns:rdf="http://www.w3.org/1999/02/22-rdf-syntax-ns#"
   xmlns:cc="http://creativecommons.org/ns#"><defs
     id="defs1"><filter
       style="color-interpolation-filters:sRGB"
       id="filter1"
       x="-0.059363883"
       y="-0.10181841"
       width="1.1187278"
       height="1.2036368"><feGaussianBlur
         stdDeviation="0.59344559"
         id="feGaussianBlur1" /></filter></defs><g
     id="g1"
     style="display:inline;opacity:0.75;fill:#404040;fill-opacity:1;filter:url(#filter1)"
     transform="matrix(0.83360467,0,0,0.83360467,0.32953454,0.32953454)"><path
       id="path1"
       style="fill:#404040;fill-opacity:1;stroke:none;stroke-width:1px;stroke-linecap:butt;stroke-linejoin:miter;stroke-opacity:1"
       d="m 4.0039062,7.0058352 -2,2 v 2.0000008 h 3.996093 v 6 c -1.542113,0 -3.662502,-0.0017 -3.996093,0 v 1.996094 l 1.992187,1.992188 h 4.003906 L 10.009766,19.00193 v -0.002 -1.994141 h 8.009765 v 1.994188 0.002 l 1.988281,1.992188 h 3.996094 l 1.992188,-1.992188 v -1.996094 c -1.179127,0 -2.460453,0 -4,0 v -2.918084 -3.081916 c 1.466312,0 2.332703,6e-6 4,0 V 9.0058352 l -2,-2 h -3.988282 l -1.988281,2 V 10.999977 H 10.009766 V 9.0058352 l -2.0097668,-2 z" /></g><g
     id="layer1"
     style="display:inline;fill:#1bcc00;fill-opacity:1"
     transform="matrix(0.83360467,0,0,0.83360467,0.32953454,0.32953454)"><path
       id="path16"
       style="fill:#1bcc00;fill-opacity:1;stroke:none;stroke-width:1px;stroke-linecap:butt;stroke-linejoin:miter;stroke-opacity:1"
       d="m 4.0039062,7.0058352 -2,2 v 2.0000008 h 3.996093 v 6 c -1.542113,0 -3.662502,-0.0017 -3.996093,0 v 1.996094 l 1.992187,1.992188 h 4.003906 L 10.009766,19.00193 v -0.002 -1.994141 h 8.009765 v 1.994188 0.002 l 1.988281,1.992188 h 3.996094 l 1.992188,-1.992188 v -1.996094 c -1.179127,0 -2.460453,0 -4,0 v -2.918084 -3.081916 c 1.466312,0 2.332703,6e-6 4,0 V 9.0058352 l -2,-2 h -3.988282 l -1.988281,2 V 10.999977 H 10.009766 V 9.0058352 l -2.0097668,-2 z" /></g><metadata
     id="metadata1"><rdf:RDF><cc:Work
         rdf:about=""><cc:license
           rdf:resource="http://creativecommons.org/publicdomain/zero/1.0/" /></cc:Work><cc:License
         rdf:about="http://creativecommons.org/publicdomain/zero/1.0/"><cc:permits
           rdf:resource="http://creativecommons.org/ns#Reproduction" /><cc:permits
           rdf:resource="http://creativecommons.org/ns#Distribution" /><cc:permits
           rdf:resource="http://creativecommons.org/ns#DerivativeWorks" /></cc:License></rdf:RDF></metadata></svg>
