<?xml version="1.0" encoding="UTF-8" standalone="no"?>
<!-- Created with Inkscape (http://www.inkscape.org/) -->

<svg
   width="48"
   height="48"
   viewBox="0 0 48 48"
   version="1.1"
   id="svg1"
   xml:space="preserve"
   xmlns="http://www.w3.org/2000/svg"
   xmlns:svg="http://www.w3.org/2000/svg"
   xmlns:rdf="http://www.w3.org/1999/02/22-rdf-syntax-ns#"
   xmlns:cc="http://creativecommons.org/ns#"><defs
     id="defs1" /><g
     id="layer1"><path
       id="rect8"
       style="display:inline;fill:#ffffff;fill-opacity:1;stroke:none;stroke-width:0;stroke-linecap:butt;stroke-miterlimit:0;stroke-dasharray:none;stroke-opacity:1;paint-order:fill markers stroke"
       d="M 4.9824219 0 C 2.2226169 0 0 2.2226169 0 4.9824219 L 0 43.017578 C 0 45.777383 2.2226169 48 4.9824219 48 L 43.017578 48 C 45.777383 48 48 45.777383 48 43.017578 L 48 4.9824219 C 48 2.2226169 45.777383 0 43.017578 0 L 4.9824219 0 z M 10.046875 15.912109 L 24.501953 15.912109 L 24.501953 20.601562 L 18.478516 20.601562 L 18.478516 27.601562 L 24.501953 27.601562 L 24.501953 32.085938 L 9.8476562 32.085938 L 2.0175781 24.066406 L 10.046875 15.912109 z M 27.660156 15.912109 L 38.990234 15.912109 L 45.982422 23.013672 L 45.982422 25.089844 L 39.091797 32.087891 L 27.599609 32.085938 L 27.660156 26.419922 L 21.867188 26.419922 L 21.867188 21.804688 L 27.660156 21.804688 L 27.660156 15.912109 z " /></g><metadata
     id="metadata34"><rdf:RDF><cc:Work
         rdf:about=""><cc:license
           rdf:resource="http://creativecommons.org/publicdomain/zero/1.0/" /></cc:Work><cc:License
         rdf:about="http://creativecommons.org/publicdomain/zero/1.0/"><cc:permits
           rdf:resource="http://creativecommons.org/ns#Reproduction" /><cc:permits
           rdf:resource="http://creativecommons.org/ns#Distribution" /><cc:permits
           rdf:resource="http://creativecommons.org/ns#DerivativeWorks" /></cc:License></rdf:RDF></metadata></svg>
