<svg xmlns="http://www.w3.org/2000/svg" width="64" height="64"><defs><filter id="A" x="-.012" width="1.023" y="-.012" height="1.025" color-interpolation-filters="sRGB"><feGaussianBlur stdDeviation=".205"/></filter><linearGradient id="B" x1="35" y1="18" x2="35" y2="59" gradientUnits="userSpaceOnUse"><stop offset="0" stop-color="#27ab5f"/><stop offset="1" stop-color="#249a56"/></linearGradient></defs><rect rx="4" y="4" x="4" height="56" width="56" opacity="1" fill="#34d07b"/><rect rx="3" y="5" x="5" height="54" width="54" fill="url(#B)" fill-rule="evenodd"/><path d="M32 13L11 25v24l7 4 7-4v-8l-7-4v-8l14-8 14 8v8l-7 4v8l7 4 7-4V25z" opacity=".15" filter="url(#A)"/><path d="M32 11L11 23v24l7 4 7-4v-8l-7-4v-8l14-8 14 8v8l-7 4v8l7 4 7-4V23z" fill="#fff"/></svg>