<svg xmlns="http://www.w3.org/2000/svg" height="32" width="32"><defs><filter height="1.025" y="-.012" width="1.023" x="-.012" id="A" color-interpolation-filters="sRGB"><feGaussianBlur stdDeviation=".108"/></filter><linearGradient y2="29" x2="16" y1="8" x1="16" id="B" gradientUnits="userSpaceOnUse"><stop offset="0" stop-color="#27ab5f"/><stop offset="1" stop-color="#249a56"/></linearGradient></defs><rect width="28" height="28" x="2" y="2" rx="3" fill="#34d07b"/><rect width="26" height="26" x="3" y="3" rx="2" fill="url(#B)" fill-rule="evenodd"/><path d="M16 5.993L5 12v13l4 2 4-2v-5l-4-2v-4l7-4 7 4v4l-4 2v5l4 2 4-2V12z" opacity=".15" filter="url(#A)"/><path d="M16 5L5 11v13l4 2 4-2v-5l-4-2v-4l7-4 7 4v4l-4 2v5l4 2 4-2V11z" fill="#fff"/></svg>