<svg xmlns="http://www.w3.org/2000/svg" width="48" height="48"><defs><linearGradient id="A" x1="24" y1="13" x2="24" y2="44" gradientUnits="userSpaceOnUse"><stop offset="0" stop-color="#27ab5f"/><stop offset="1" stop-color="#249a56"/></linearGradient><filter id="B" x="-.012" width="1.024" y="-.012" height="1.024" color-interpolation-filters="sRGB"><feGaussianBlur stdDeviation=".158"/></filter></defs><rect rx="3" y="3" x="3" height="42" width="42" opacity="1" fill="#34d07b"/><rect rx="2" y="4" x="4" height="40" width="40" fill="url(#A)" fill-rule="evenodd"/><path d="M24 9.5l-16 9v19l6 3 6-3v-7l-6-3v-6l10-5 10 5v6l-6 3v7l6 3 6-3v-19z" opacity=".15" filter="url(#B)"/><path d="M24 8L8 17v19l6 3 6-3v-7l-6-3v-6l10-5 10 5v6l-6 3v7l6 3 6-3V17z" fill="#fff"/></svg>