<svg xmlns="http://www.w3.org/2000/svg" height="32" width="32"><defs><filter height="1.024" y="-.012" width="1.024" x="-.012" id="A" color-interpolation-filters="sRGB"><feGaussianBlur stdDeviation=".079"/></filter><filter height="1.048" y="-.024" width="1.048" x="-.024" id="B" color-interpolation-filters="sRGB"><feGaussianBlur stdDeviation=".08"/></filter><linearGradient y2="29.228" x2="6.132" y1="11.135" x1="5.944" id="C" gradientUnits="userSpaceOnUse"><stop offset="0" stop-color="#27ab5f"/><stop offset="1" stop-color="#249a56"/></linearGradient></defs><path d="M5 1a1 1 0 0 0-1 1v28a1 1 0 0 0 1 1h22a1 1 0 0 0 1-1V8.5c0-.5-.5-1-.5-1l-6-6s-.5-.5-1-.5z" fill="#34d07b"/><g fill-rule="evenodd"><path d="M6 2a1.08 1.08 0 0 0-1 1v26a1.08 1.08 0 0 0 1 1h20a1.08 1.08 0 0 0 1-1V8.5l-5.696-.283L21 2z" fill="url(#C)"/><path d="M19 2v6c0 1 1 2 2 2h6V9l-7-7z" opacity=".13" fill="#222" filter="url(#B)"/><path d="M20 2v6c0 .516.47 1 1 1h6V8l-6-6z" fill="#34d07b"/></g><path d="M16 11l-8 4v10l3 1.5 3-1.5v-3l-3-1.5v-3.433l5-2.567 5 2.5v3.5L18 22v3l3 1.5 3-1.5V15z" opacity=".15" filter="url(#A)"/><path d="M16 10l-8 4v10l3 1.5 3-1.5v-3l-3-1.5v-3.433l5-2.567 5 2.5v3.5L18 21v3l3 1.5 3-1.5V14z" fill="#fff"/></svg>