<svg xmlns="http://www.w3.org/2000/svg" height="64" width="64"><defs><filter height="1.025" y="-.012" width="1.023" x="-.012" id="A" color-interpolation-filters="sRGB"><feGaussianBlur stdDeviation=".145"/></filter><filter height="1.048" y="-.024" width="1.048" x="-.024" id="B" color-interpolation-filters="sRGB"><feGaussianBlur stdDeviation=".15"/></filter><linearGradient y2="59.931" x2="10.275" y1="22.101" x1="9.884" id="C" gradientUnits="userSpaceOnUse"><stop offset="0" stop-color="#27ab5f"/><stop offset="1" stop-color="#249a56"/></linearGradient></defs><path d="M10 2c-1.108 0-2 .892-2 2v56c0 1.108.892 2 2 2h44c1.108 0 2-.892 2-2V17c0-1-1-2-1-2L43 3s-1-1-2-1z" fill="#34d07b"/><g fill-rule="evenodd"><path d="M10 3a1 1 0 0 0-1 1v56a1 1 0 0 0 1 1h44a1 1 0 0 0 1-1V17l-13-1-1-13z" fill="url(#C)"/><path d="M40 3v12c0 2 1 3 3 3h12v-1L41 3z" opacity=".13" fill="#222" filter="url(#B)"/><path d="M41 3v12c0 1.03.938 2 2 2h12v-1L42 3z" fill="#34d07b"/></g><path d="M32 22l-15 8v17.5l5 2.5 5-2.5v-6L22 39v-6l10-5.5L42 33v6l-5 2.5v6l5 2.5 5-2.5V30z" opacity=".15" filter="url(#A)"/><path d="M32 20l-15 8v17.5l5 2.5 5-2.5v-6L22 37v-6l10-5.5L42 31v6l-5 2.5v6l5 2.5 5-2.5V28z" fill="#fff"/></svg>