<svg xmlns="http://www.w3.org/2000/svg" height="24" width="24"><defs><filter height="1.025" y="-.013" width="1.023" x="-.011" id="A" color-interpolation-filters="sRGB"><feGaussianBlur stdDeviation=".058"/></filter><linearGradient y2="21.631" x2="4.444" y1="8.586" x1="4.307" id="B" gradientUnits="userSpaceOnUse"><stop offset="0" stop-color="#27ab5f"/><stop offset="1" stop-color="#249a56"/></linearGradient><filter height="1.048" y="-.024" width="1.048" x="-.024" id="C" color-interpolation-filters="sRGB"><feGaussianBlur stdDeviation=".06"/></filter></defs><path d="M3.75 1a.74.74 0 0 0-.75.733v20.533a.74.74 0 0 0 .75.733h16.5a.74.74 0 0 0 .75-.733V6.5c0-.367-.375-.733-.375-.733l-4.5-4.4S15.75 1 15.375 1z" fill="#34d07b"/><g fill-rule="evenodd"><path d="M4.348 2C4.155 2 4 2.154 4 2.345v19.3c0 .19.155.345.348.345h15.304c.193 0 .348-.154.348-.345V7l-3-2-2-3z" fill="url(#B)"/><path d="M14 2v4c0 1 1 2 2 2h4V7l-5-5z" opacity=".13" fill="#222" filter="url(#C)"/><path d="M15 2v4a1.08 1.08 0 0 0 1 1h4V6l-4-4z" fill="#34d07b"/></g><path d="M12 9l-6 3v7l2 1 2-1v-2.5l-2-1V13l4-2 4 2v2.5l-2 1V19l2 1 2-1v-7z" opacity=".15" filter="url(#A)"/><path d="M12 8l-6 3v7l2 1 2-1v-2.5l-2-1V12l4-2 4 2v2.5l-2 1V18l2 1 2-1v-7z" fill="#fff"/></svg>