<svg xmlns="http://www.w3.org/2000/svg" width="48" height="48"><defs><filter id="A" x="-.012" width="1.023" y="-.012" height="1.025" color-interpolation-filters="sRGB"><feGaussianBlur stdDeviation=".108"/></filter><filter id="B" x="-.024" width="1.048" y="-.024" height="1.048" color-interpolation-filters="sRGB"><feGaussianBlur stdDeviation=".12"/></filter><linearGradient id="C" x1="8" y1="17" x2="8" y2="44" gradientUnits="userSpaceOnUse"><stop offset="0" stop-color="#27ab5f"/><stop offset="1" stop-color="#249a56"/></linearGradient></defs><path d="M8 2C7 2 6 3 6 4v40c0 1 1 2 2 2h32.502c.83 0 1.5-.654 1.5-1.467L42 14c0-1-1-2-1-2l-9-9s-1-1-2-1z" fill="#34d07b"/><g fill-rule="evenodd"><path d="M8 3c-.406 0-1 .594-1 1v40c0 .406.594 1 1 1h32c.406 0 1.002-.594 1-1V13l-9.667-.733L31 3z" fill="url(#C)"/><path d="M29 3v9c0 2 1 3 3 3h9v-1L30 3z" opacity=".13" fill="#222" filter="url(#B)"/><path d="M30 3v9c0 1 1 2 2 2h9v-1L31 3z" fill="#34d07b"/></g><path d="M24 18l-11 6v13l4 2 4-2v-5l-4-2v-4l7-4 7 4v4l-4 2v5l4 2 4-2V24z" opacity=".15" filter="url(#A)"/><path d="M24 16l-11 6v13l4 2 4-2v-5l-4-2v-4l7-4 7 4v4l-4 2v5l4 2 4-2V22z" fill="#fff"/></svg>