<svg xmlns="http://www.w3.org/2000/svg" height="16" width="16"><defs><filter height="1.024" y="-.012" width="1.024" x="-.012" id="A" color-interpolation-filters="sRGB"><feGaussianBlur stdDeviation=".03"/></filter><filter height="1.048" y="-.024" width="1.048" x="-.024" id="B" color-interpolation-filters="sRGB"><feGaussianBlur stdDeviation=".05"/></filter><linearGradient y2="14.742" x2="3.277" y1="5.61" x1="3.192" id="C" gradientUnits="userSpaceOnUse"><stop offset="0" stop-color="#27ab5f"/><stop offset="1" stop-color="#249a56"/></linearGradient></defs><path d="M2.5 0c-.277 0-.5.238-.5.533v14.933c0 .295.223.533.5.533h11c.277 0 .5-.238.5-.533V4c0-.267-.25-.533-.25-.533l-3-3.2S10.5 0 10.25 0z" fill="#34d07b"/><g fill-rule="evenodd"><path d="M3.217 1C3.097 1 3 1.108 3 1.24V14.76c0 .134.097.24.217.24h9.565c.12 0 .217-.108.217-.24V4.38l-2.826-.24L9.957 1z" fill="url(#C)"/><path d="M8 1v4c0 .533.5 1 1 1h4V5L9 1z" opacity=".13" fill="#222" filter="url(#B)"/><path d="M9 1v3a1.08 1.08 0 0 0 1 1h3V4l-3-3z" fill="#34d07b"/></g><path d="M8 8L5 9.5v4l1 .5 1-.5V12l-1-.5V10l2-1 2 1v1.5L9 12v1.5l1 .5 1-.5v-4z" opacity=".15" filter="url(#A)"/><path d="M8 7L5 8.5v4l1 .5 1-.5V11l-1-.5V9l2-1 2 1v1.5L9 11v1.5l1 .5 1-.5v-4z" fill="#fff"/></svg>