<?xml version="1.0" encoding="UTF-8" standalone="no"?>
<!-- Created with Inkscape (http://www.inkscape.org/) -->

<svg
   xmlns:dc="http://purl.org/dc/elements/1.1/"
   xmlns:cc="http://creativecommons.org/ns#"
   xmlns:rdf="http://www.w3.org/1999/02/22-rdf-syntax-ns#"
   xmlns:svg="http://www.w3.org/2000/svg"
   xmlns="http://www.w3.org/2000/svg"
   xmlns:sodipodi="http://sodipodi.sourceforge.net/DTD/sodipodi-0.dtd"
   xmlns:inkscape="http://www.inkscape.org/namespaces/inkscape"
   width="17in"
   height="11in"
   viewBox="0 0 431.8 279.4"
   version="1.1"
   id="svg8"
   inkscape:version="0.92.3 (2405546, 2018-03-11)"
   sodipodi:docname="Xpressive.svg">
  <defs
     id="defs2" />
  <sodipodi:namedview
     id="base"
     pagecolor="#ffffff"
     bordercolor="#666666"
     borderopacity="1.0"
     inkscape:pageopacity="0.0"
     inkscape:pageshadow="2"
     inkscape:zoom="0.61780345"
     inkscape:cx="1006.8716"
     inkscape:cy="872.08024"
     inkscape:document-units="mm"
     inkscape:current-layer="g956"
     showgrid="false"
     showguides="true"
     inkscape:guide-bbox="true"
     inkscape:measure-start="234.5,1092.07"
     inkscape:measure-end="180.984,1024.7"
     inkscape:window-width="1853"
     inkscape:window-height="1025"
     inkscape:window-x="67"
     inkscape:window-y="27"
     inkscape:window-maximized="1"
     units="in" />
  <metadata
     id="metadata5">
    <rdf:RDF>
      <cc:Work
         rdf:about="">
        <dc:format>image/svg+xml</dc:format>
        <dc:type
           rdf:resource="http://purl.org/dc/dcmitype/StillImage" />
        <dc:title />
      </cc:Work>
    </rdf:RDF>
  </metadata>
  <g
     inkscape:label="Layer 1"
     inkscape:groupmode="layer"
     id="layer1"
     transform="translate(0,-17.6)">
    <path
       sodipodi:nodetypes="ccccccccccccccscssccccc"
       inkscape:connector-curvature="0"
       id="path819"
       style="font-style:normal;font-variant:normal;font-weight:normal;font-stretch:normal;font-size:50.79999924px;line-height:1.25;font-family:Uroob;-inkscape-font-specification:Uroob;letter-spacing:0px;word-spacing:0px;fill:#ffffff;fill-opacity:0;stroke:none;stroke-width:0.65183502"
       d="M 85.029931,192.14174 H 72.13582 L 56.369561,164.82578 40.603301,192.14174 H 27.709189 l 22.18276,-38.62122 c -3.259176,-5.78503 -6.681309,-11.65155 -10.2664,-17.59955 -3.544354,-5.94799 -6.212803,-10.61268 -8.005349,-13.99407 -1.751807,-3.3814 -2.74993,-5.2758 -2.994369,-5.68319 -0.203692,-0.44814 -0.203692,-0.89628 0,-1.34442 0.529617,-1.09997 1.833288,-1.58884 3.911012,-1.46662 h 7.333145 l 16.499573,28.8437 16.499574,-28.8437 h 7.638692 c 1.914764,0 3.096215,0.38702 3.544352,1.16108 0.448135,0.73332 0.549987,1.3444 0.305548,1.83329 -0.244441,0.48886 -0.896272,1.64994 -1.955505,3.48325 -1.059232,1.83328 -2.485121,4.27765 -4.277667,7.33313 -1.751808,3.01474 -3.523983,6.04984 -5.31653,9.10532 -1.751807,3.05548 -3.483244,6.04984 -5.194309,8.98311 -1.711066,2.8925 -3.299915,5.62206 -4.766544,8.18867 7.39425,12.87374 14.788506,25.74748 22.182759,38.62122 z" />
    <path
       inkscape:connector-curvature="0"
       id="path821"
       style="font-style:normal;font-variant:normal;font-weight:normal;font-stretch:normal;font-size:50.79999924px;line-height:1.25;font-family:Uroob;-inkscape-font-specification:Uroob;letter-spacing:0px;word-spacing:0px;fill:#eff3ff;fill-opacity:1;stroke:#001800;stroke-width:0.65183502;stroke-opacity:1"
       d="m 98.901794,135.55432 q 3.972116,-2.87215 8.860876,-2.87215 h 4.27767 q 7.76091,0 12.40524,4.461 4.64432,4.39988 4.64432,12.34413 v 24.4438 q 0,12.77189 -8.61645,16.74402 -2.99437,1.3444 -7.21091,1.3444 h -6.72205 q -3.97212,0 -6.722053,-2.99437 v 29.88257 H 89.246488 l 0.0611,-86.22555 h 9.594197 z m 19.738376,37.58236 v -22.18277 q 0,-4.76654 -1.03886,-6.35537 -1.89439,-2.93327 -6.29429,-2.93327 h -5.25541 q -1.8944,0 -3.42213,0.97775 -2.811043,1.71107 -2.811043,3.54435 v 30.7381 q 0,1.83329 1.588843,3.36102 2.87215,2.68882 4.64433,2.68882 h 5.25541 q 6.11096,0 7.0276,-6.04984 0.30555,-1.77217 0.30555,-3.78879 z" />
    <path
       inkscape:connector-curvature="0"
       id="path823"
       style="font-style:normal;font-variant:normal;font-weight:normal;font-stretch:normal;font-size:50.79999924px;line-height:1.25;font-family:Uroob;-inkscape-font-specification:Uroob;letter-spacing:0px;word-spacing:0px;fill:#eff3ff;fill-opacity:1;stroke:#001800;stroke-width:0.65183502;stroke-opacity:1"
       d="m 162.92377,141.60416 -6.17207,-0.0611 q -7.6998,0 -10.02196,5.56097 -0.79442,1.8944 -0.79442,4.33878 v 40.63783 h -10.44973 l -0.0611,-54.14304 q -2.68882,0 -2.68882,-2.01661 v -3.54436 h 12.03858 v 5.56097 q 0.85553,-2.44438 3.11658,-4.03324 2.26105,-1.58884 4.82765,-1.58884 h 10.20529 z" />
    <path
       inkscape:connector-curvature="0"
       id="path825"
       style="font-style:normal;font-variant:normal;font-weight:normal;font-stretch:normal;font-size:50.79999924px;line-height:1.25;font-family:Uroob;-inkscape-font-specification:Uroob;letter-spacing:0px;word-spacing:0px;fill:#eff3ff;fill-opacity:1;stroke:#001800;stroke-width:0.65183502;stroke-opacity:1"
       d="m 208.51148,178.45321 q -0.1833,9.22754 -7.14982,12.58857 -2.32216,1.09996 -5.31653,1.09996 h -14.48296 q -5.43874,0 -9.0442,-3.97211 -3.54436,-3.8499 -3.54436,-9.34977 v -33.3658 q 0,-5.43874 3.17769,-9.22754 3.48325,-4.03323 8.79978,-4.03323 h 15.52183 q 5.43873,0 8.79977,4.33878 3.11658,3.97212 3.11658,9.53308 v 7.94424 q 0,5.37765 -2.87215,9.04422 -3.05549,3.97211 -8.43311,3.97211 h -17.84398 v 11.06083 q 0,4.88876 4.94987,4.88876 h 9.28866 q 2.07772,0 3.2999,-1.16108 1.28331,-1.22219 1.22218,-3.36102 z m -24.32159,-36.78794 q -4.94987,0 -4.94987,5.1332 v 11.18304 H 192.623 q 2.32216,0 3.91101,-1.2833 1.64997,-1.3444 1.64997,-3.8499 v -6.29428 q 0,-2.5666 -1.64997,-3.72768 -1.58885,-1.16108 -3.91101,-1.16108 z" />
    <path
       inkscape:connector-curvature="0"
       id="path827"
       style="font-style:normal;font-variant:normal;font-weight:normal;font-stretch:normal;font-size:50.79999924px;line-height:1.25;font-family:Uroob;-inkscape-font-specification:Uroob;letter-spacing:0px;word-spacing:0px;fill:#eff3ff;fill-opacity:1;stroke:#001800;stroke-width:0.65183502;stroke-opacity:1"
       d="m 242.67037,145.51517 q 0.1222,-3.42213 -4.21656,-3.42213 h -7.63868 q -5.25542,0 -4.76656,7.14981 0.12219,1.77218 0.12219,3.29991 0,4.58322 4.64434,4.58322 h 10.69417 q 5.49985,0 8.92198,3.97212 3.36103,3.8499 3.36103,9.28865 v 8.18868 q 0,5.62208 -3.60547,9.53309 -3.72766,4.09433 -9.28864,4.09433 h -13.4441 q -5.98874,0 -9.47199,-3.91101 -3.2999,-3.78878 -3.2999,-9.77753 h 10.51084 q -0.12219,2.13885 1.03887,3.05548 1.22218,0.85554 3.17769,0.85554 h 8.86088 q 4.64433,0 4.64433,-4.58322 v -6.11095 q 0,-4.76654 -4.64433,-4.76654 H 228.1874 q -5.56098,0 -9.22756,-3.42213 -3.66656,-3.48325 -3.66656,-9.04421 v -8.92199 q 0,-5.49986 3.29991,-9.28866 3.60547,-4.03322 8.9831,-4.03322 h 13.13856 q 5.62207,0 9.16642,3.84989 3.2999,3.66657 3.2999,9.41087 z" />
    <path
       inkscape:connector-curvature="0"
       id="path829"
       style="font-style:normal;font-variant:normal;font-weight:normal;font-stretch:normal;font-size:50.79999924px;line-height:1.25;font-family:Uroob;-inkscape-font-specification:Uroob;letter-spacing:0px;word-spacing:0px;fill:#eff3ff;fill-opacity:1;stroke:#001800;stroke-width:0.65183502;stroke-opacity:1"
       d="m 287.16347,145.51517 q 0.12219,-3.42213 -4.21658,-3.42213 h -7.63867 q -5.25544,0 -4.76656,7.14981 0.1222,1.77218 0.1222,3.29991 0,4.58322 4.64434,4.58322 h 10.69416 q 5.49985,0 8.92198,3.97212 3.36104,3.8499 3.36104,9.28865 v 8.18868 q 0,5.62208 -3.60547,9.53309 -3.72768,4.09433 -9.28865,4.09433 h -13.4441 q -5.98873,0 -9.47198,-3.91101 -3.29991,-3.78878 -3.29991,-9.77753 h 10.51082 q -0.12219,2.13885 1.03887,3.05548 1.2222,0.85554 3.1777,0.85554 h 8.86089 q 4.64431,0 4.64431,-4.58322 v -6.11095 q 0,-4.76654 -4.64431,-4.76654 h -10.08309 q -5.56094,0 -9.22752,-3.42213 -3.66657,-3.48325 -3.66657,-9.04421 v -8.92199 q 0,-5.49986 3.29991,-9.28866 3.60548,-4.03322 8.98311,-4.03322 h 13.13855 q 5.62207,0 9.16642,3.84989 3.29991,3.66657 3.29991,9.41087 z" />
    <path
       inkscape:connector-curvature="0"
       id="path831"
       style="font-style:normal;font-variant:normal;font-weight:normal;font-stretch:normal;font-size:50.79999924px;line-height:1.25;font-family:Uroob;-inkscape-font-specification:Uroob;letter-spacing:0px;word-spacing:0px;fill:#eff3ff;fill-opacity:1;stroke:#001800;stroke-width:0.65183502;stroke-opacity:1"
       d="m 312.24186,114.71597 q 6.72205,0 6.72205,6.84427 0,6.90537 -6.72205,6.90537 -3.29991,0 -5.07211,-1.77218 -1.77215,-1.83328 -1.77215,-5.13319 0,-3.29993 1.77215,-5.0721 1.7722,-1.77217 5.07211,-1.77217 z m 5.13318,77.12023 h -10.51082 v -59.39847 h 10.51082 z" />
    <path
       inkscape:connector-curvature="0"
       id="path833"
       style="font-style:normal;font-variant:normal;font-weight:normal;font-stretch:normal;font-size:50.79999924px;line-height:1.25;font-family:Uroob;-inkscape-font-specification:Uroob;letter-spacing:0px;word-spacing:0px;fill:#eff3ff;fill-opacity:1;stroke:#001800;stroke-width:0.65183502;stroke-opacity:1"
       d="m 345.66878,178.02544 q 0.61108,-2.5666 10.93861,-45.5266 h 6.23315 q 2.13884,0 3.23882,1.9555 0.36666,0.54999 0.36666,1.2833 0,0.67222 -0.61111,3.29992 -0.54998,2.5666 -1.52772,6.29429 -0.91664,3.72768 -2.13885,8.31089 -1.22218,4.58322 -2.56658,9.34976 -1.28331,4.76654 -2.56661,9.47198 -1.28331,4.64432 -2.38326,8.55533 -2.56662,9.04421 -2.99438,10.75528 h -11.97747 q -0.42778,-1.40552 -1.34442,-4.461 -0.85552,-3.05548 -2.07771,-7.08871 -1.2222,-4.09433 -2.62772,-8.79976 -1.40551,-4.76655 -2.81103,-9.53309 -1.40553,-4.76655 -2.68883,-9.28865 -1.2833,-4.52212 -2.26104,-8.12758 -2.26105,-8.06644 -2.26105,-9.22753 0,-1.16108 0.97775,-1.95551 1.03885,-0.79442 2.26104,-0.79442 h 6.78316 q 6.84427,25.6049 12.03859,45.5266 z" />
    <path
       inkscape:connector-curvature="0"
       id="path835"
       style="font-style:normal;font-variant:normal;font-weight:normal;font-stretch:normal;font-size:50.79999924px;line-height:1.25;font-family:Uroob;-inkscape-font-specification:Uroob;letter-spacing:0px;word-spacing:0px;fill:#eff3ff;fill-opacity:1;stroke:#001800;stroke-width:0.65183502;stroke-opacity:1"
       d="m 411.48372,178.45321 q -0.18328,9.22754 -7.14981,12.58857 -2.32217,1.09996 -5.31654,1.09996 h -14.48295 q -5.43876,0 -9.04421,-3.97211 -3.54437,-3.8499 -3.54437,-9.34977 v -33.3658 q 0,-5.43874 3.17771,-9.22754 3.48322,-4.03323 8.79976,-4.03323 h 15.52182 q 5.43876,0 8.79979,4.33878 3.11659,3.97212 3.11659,9.53308 v 7.94424 q 0,5.37765 -2.87215,9.04422 -3.0555,3.97211 -8.43312,3.97211 h -17.84399 v 11.06083 q 0,4.88876 4.94987,4.88876 h 9.28864 q 2.07773,0 3.29994,-1.16108 1.28327,-1.22219 1.22218,-3.36102 z m -24.3216,-36.78794 q -4.94987,0 -4.94987,5.1332 v 11.18304 h 13.38299 q 2.32217,0 3.91102,-1.2833 1.64993,-1.3444 1.64993,-3.8499 v -6.29428 q 0,-2.5666 -1.64993,-3.72768 -1.58885,-1.16108 -3.91102,-1.16108 z" />
    <path
       style="font-style:normal;font-variant:normal;font-weight:normal;font-stretch:normal;font-size:50.79999924px;line-height:1.25;font-family:Uroob;-inkscape-font-specification:Uroob;letter-spacing:0px;word-spacing:0px;fill:#50626e;fill-opacity:1;stroke:#000000;stroke-width:0.65183496;stroke-opacity:1"
       d="m 31.793889,113.41583 c -1.648687,0.0267 -2.704098,0.52071 -3.167508,1.48318 -0.203699,0.44815 -0.203699,0.89628 0,1.34442 0.244438,0.40739 1.242553,2.30179 2.994367,5.68318 1.792541,3.3814 4.460996,8.04609 8.005349,13.99409 2.997776,4.97358 5.874553,9.88684 8.644447,14.74649 l 6.472519,-11.23524 -14.872528,-25.99957 h -7.333144 c -0.259717,-0.0152 -0.507975,-0.0203 -0.743502,-0.0165 z m 32.622309,42.83525 -6.47379,11.29889 14.193961,24.59149 H 85.030481 C 78.159057,180.178 71.287615,168.21454 64.416198,156.25108 Z"
       id="path819-7"
       inkscape:connector-curvature="0" />
    <g
       id="g956"
       style="stroke:#000000;stroke-opacity:1"
       transform="matrix(2.4636285,0,0,2.4636285,-59.948071,75.031414)">
      <path
         d="m 47.213951,36.448011 -6.399609,11.087694 h -5.233789 l 9.004101,-15.676562 2.629297,-4.564063 6.697266,-11.707812 2.980857,-5.060626 138.949186,-0.0013 c 0.79306,-7e-6 0.30296,4.198952 -0.53489,4.167335 l -135.515802,-4e-6 c 0,0 -1.116851,1.91157 -1.21607,2.110007 -0.09922,0.198437 -0.363802,0.669726 -0.79375,1.413867 -0.429948,0.744141 -1.008724,1.736328 -1.736328,2.976562 -0.711068,1.223698 -1.430404,2.455664 -2.158008,3.695899 -0.711068,1.240234 -1.413867,2.455665 -2.108398,3.64629 -0.694531,1.174088 -1.339453,2.282031 -1.934766,3.323827 z"
         style="font-style:normal;font-variant:normal;font-weight:normal;font-stretch:normal;font-size:50.79999924px;line-height:1.25;font-family:Uroob;-inkscape-font-specification:Uroob;letter-spacing:0px;word-spacing:0px;fill:#41bbff;fill-opacity:1;stroke:#000000;stroke-width:0.26465029;stroke-opacity:1;stroke-miterlimit:4;stroke-dasharray:none;stroke-linejoin:round;stroke-linecap:round"
         id="path819-5"
         inkscape:connector-curvature="0"
         sodipodi:nodetypes="cccccccsccssccccc" />
      <path
         sodipodi:nodetypes="ccccccccccc"
         id="path819-7-3"
         d="m 28.89259,32.41518 c -0.669211,0.01085 -1.097608,0.211356 -1.285708,0.602031 -0.08268,0.181901 -0.08268,0.363802 0,0.545703 0.09922,0.165365 0.504359,0.93431 1.215429,2.306836 0.727602,1.372526 1.810743,3.26595 3.249415,5.680273 1.216813,2.018806 2.384512,4.013124 3.508827,5.985682 l 2.62723,-4.560446 -6.036839,-10.553361 h -2.976562 c -0.105421,-0.0062 -0.20619,-0.0083 -0.301792,-0.0067 z"
         style="font-style:normal;font-variant:normal;font-weight:normal;font-stretch:normal;font-size:50.79999924px;line-height:1.25;font-family:Uroob;-inkscape-font-specification:Uroob;letter-spacing:0px;word-spacing:0px;fill:#009acd;fill-opacity:1;stroke:#000000;stroke-width:0.26458332;stroke-opacity:1;stroke-linejoin:round;stroke-linecap:round"
         inkscape:connector-curvature="0" />
    </g>
  </g>
</svg>
