<?xml version="1.0" encoding="UTF-8" standalone="no"?>
<!-- Created with Inkscape (http://www.inkscape.org/) -->

<svg
   width="20"
   height="20"
   viewBox="0 0 5.2916665 5.2916666"
   version="1.1"
   id="svg1"
   inkscape:export-filename="chain400.png"
   inkscape:export-xdpi="1920"
   inkscape:export-ydpi="1920"
   inkscape:version="1.4.1 (93de688d07, 2025-03-30)"
   sodipodi:docname="chain peki 2.svg"
   xmlns:inkscape="http://www.inkscape.org/namespaces/inkscape"
   xmlns:sodipodi="http://sodipodi.sourceforge.net/DTD/sodipodi-0.dtd"
   xmlns="http://www.w3.org/2000/svg"
   xmlns:svg="http://www.w3.org/2000/svg">
  <sodipodi:namedview
     id="namedview1"
     pagecolor="#686868"
     bordercolor="#000000"
     borderopacity="0.25"
     inkscape:showpageshadow="2"
     inkscape:pageopacity="0.0"
     inkscape:pagecheckerboard="0"
     inkscape:deskcolor="#d1d1d1"
     inkscape:document-units="mm"
     showgrid="true"
     inkscape:zoom="22.627417"
     inkscape:cx="2.2318058"
     inkscape:cy="14.539883"
     inkscape:window-width="1916"
     inkscape:window-height="1051"
     inkscape:window-x="0"
     inkscape:window-y="25"
     inkscape:window-maximized="1"
     inkscape:current-layer="layer1">
    <inkscape:grid
       id="grid1"
       units="px"
       originx="0"
       originy="0"
       spacingx="0.26458333"
       spacingy="0.26458333"
       empcolor="#0099e5"
       empopacity="0.30196078"
       color="#0099e5"
       opacity="0.14901961"
       empspacing="4"
       enabled="true"
       visible="true" />
  </sodipodi:namedview>
  <defs
     id="defs1" />
  <g
     inkscape:label="Layer 1"
     inkscape:groupmode="layer"
     id="layer1">
    <path
       style="opacity:1;baseline-shift:baseline;display:inline;overflow:visible;vector-effect:none;fill:#ffffff;stroke-linecap:round;stroke-linejoin:round;stroke-miterlimit:4.3;enable-background:accumulate;stop-color:#000000;stop-opacity:1"
       d="m 2.9882813,2.9882813 a 0.2645835,0.2645835 0 0 0 0,0.3730468 l 1.5878906,1.5878906 a 0.2645835,0.2645835 0 0 0 0.3730468,0 0.2645835,0.2645835 0 0 0 0,-0.3730468 L 3.3613281,2.9882813 a 0.2645835,0.2645835 0 0 0 -0.3730468,0 z"
       id="path13"
       inkscape:label="down" />
    <path
       style="opacity:1;baseline-shift:baseline;display:inline;overflow:visible;vector-effect:none;fill:#ffffff;stroke-linecap:round;stroke-linejoin:round;stroke-miterlimit:4.3;enable-background:accumulate;stop-color:#000000;stop-opacity:1"
       d="m 0.34179688,0.34179688 a 0.2645835,0.2645835 0 0 0 0,0.37499999 L 1.9296875,2.3046875 a 0.2645835,0.2645835 0 0 0 0.375,0 0.2645835,0.2645835 0 0 0 0,-0.375 L 0.71679687,0.34179688 a 0.2645835,0.2645835 0 0 0 -0.37499999,0 z"
       id="path15"
       inkscape:label="up" />
    <path
       id="path11"
       style="baseline-shift:baseline;display:inline;overflow:visible;fill:#ffffff;stroke-linecap:round;stroke-linejoin:round;stroke-miterlimit:4.3;enable-background:accumulate;stop-color:#000000;stop-opacity:1;opacity:1;stroke:#ffffff;stroke-opacity:1;stroke-width:0.13229167;stroke-dasharray:none"
       inkscape:label="cen"
       d="M 2.1171834 0.79271647 A 0.26460981 0.26460981 0 0 0 1.929598 0.87126465 L 1.7285767 1.072286 L 2.102714 1.4464233 L 2.2267375 1.3223999 L 2.5373128 1.3223999 L 3.0189372 1.8050578 L 3.3925578 1.4314372 L 2.8318685 0.87126465 A 0.26460981 0.26460981 0 0 0 2.6463501 0.79271647 L 2.1171834 0.79271647 z M 1.4474569 1.3534058 L 1.3534058 1.4474569 L 1.7280599 1.822111 L 1.822111 1.7280599 L 1.4474569 1.3534058 z M 1.072286 1.7285767 L 0.87126465 1.929598 A 0.26460981 0.26460981 0 0 0 0.79271647 2.1171834 L 0.79271647 2.6463501 A 0.26460981 0.26460981 0 0 0 0.87126465 2.8318685 L 1.4314372 3.3925578 L 1.8050578 3.0189372 L 1.3223999 2.5373128 L 1.3223999 2.2282878 L 1.4469401 2.1032308 L 1.072286 1.7285767 z M 3.8602295 1.8996257 L 3.4866089 2.2732463 L 3.96875 2.7559041 L 3.96875 3.0644124 L 3.843693 3.1894694 L 4.2178304 3.5636068 L 4.4198853 3.3615519 A 0.26460981 0.26460981 0 0 0 4.4979167 3.1760335 L 4.4979167 2.6463501 A 0.26460981 0.26460981 0 0 0 4.4198853 2.4587646 L 3.8602295 1.8996257 z M 3.5625732 3.4705892 L 3.4685221 3.5646403 L 3.8426595 3.9387777 L 3.9367106 3.8447266 L 3.5625732 3.4705892 z M 2.2732463 3.4866089 L 1.8996257 3.8602295 L 2.4587646 4.4198853 A 0.26460981 0.26460981 0 0 0 2.6463501 4.4979167 L 3.1760335 4.4979167 A 0.26460981 0.26460981 0 0 0 3.3615519 4.4198853 L 3.5615397 4.2198975 L 3.1874023 3.8457601 L 3.0644124 3.96875 L 2.7559041 3.96875 L 2.2732463 3.4866089 z " />
  </g>
</svg>
