<?xml version="1.0" encoding="UTF-8" standalone="no"?>
<svg
   xml:space="preserve"
   width="20"
   height="20"
   version="1.1"
   id="svg3"
   xmlns:xlink="http://www.w3.org/1999/xlink"
   xmlns="http://www.w3.org/2000/svg"
   xmlns:svg="http://www.w3.org/2000/svg"
   xmlns:rdf="http://www.w3.org/1999/02/22-rdf-syntax-ns#"
   xmlns:cc="http://creativecommons.org/ns#"
   xmlns:dc="http://purl.org/dc/elements/1.1/">
  <title
   id="title1">LMMS mute button (inactive)</title>
  <defs
   id="defs2"><linearGradient
     xlink:href="#a"
     id="b"
     x1="16"
     x2="16"
     y1="27.5"
     y2="4.5"
     gradientTransform="matrix(0.826,0,0,0.826,-3.217,-3.217)"
     gradientUnits="userSpaceOnUse" /><linearGradient
     id="a">
      <stop
   offset="0"
   style="stop-color:#49515b;stop-opacity:1;"
   id="stop1" />
      <stop
   offset="1"
   style="stop-color:#697482;stop-opacity:1;"
   id="stop2" />
    </linearGradient></defs>
  <rect
   width="19"
   height="19"
   x="0.5"
   y="0.5"
   fill="url(#b)"
   stroke="#000"
   stroke-linecap="round"
   stroke-linejoin="bevel"
   ry="2.0650001"
   style="display:inline;fill:url(#b);fill-opacity:1;stroke:#202428;stroke-opacity:1"
   id="button" />
  <path
   d="M 2.56445,1 C 1.6888,1 1,1.6888 1,2.56445 V 3 C 1,2.446 1.446,2 2,2 h 16 c 0.554,0 1,0.446 1,1 V 2.56445 C 19,1.6888 18.3112,1 17.43555,1 Z"
   style="display:inline;opacity:0.1;fill:#ffffff;fill-opacity:1;stroke:none"
   id="highlight" />
  <path
   d="M 2.56445,19 C 1.6888,19 1,18.3112 1,17.43555 V 17 c 0,0.554 0.446,1 1,1 h 16 c 0.554,0 1,-0.446 1,-1 v 0.43555 C 19,18.3112 18.3112,19 17.43555,19 Z"
   style="display:inline;opacity:0.1;fill:#000000;fill-opacity:1;stroke:none"
   id="shadow" />
  <metadata
   id="metadata3">
    <rdf:RDF>
      <cc:Work>
        <cc:license
   rdf:resource="http://creativecommons.org/publicdomain/zero/1.0/" />
        <dc:title>LMMS mute button (inactive)</dc:title>
        <dc:creator>
          <cc:Agent>
            <dc:title>Rebecca Noel Ati, Stakeout Punch</dc:title>
          </cc:Agent>
        </dc:creator>
      </cc:Work>
      
    <cc:License
   rdf:about="http://creativecommons.org/publicdomain/zero/1.0/"><cc:permits
     rdf:resource="http://creativecommons.org/ns#Reproduction" /><cc:permits
     rdf:resource="http://creativecommons.org/ns#Distribution" /><cc:permits
     rdf:resource="http://creativecommons.org/ns#DerivativeWorks" /></cc:License></rdf:RDF>
  </metadata>
<path
   id="path1"
   style="display:inline;fill:#ffffff;fill-opacity:1;stroke-width:0;stroke-dasharray:none"
   d="m 9.3339845,4.0000002 c -0.341797,0.00684 -0.3964845,0.0625 -0.8339845,0.5 l -2,2 c -0.5,0.5 -0.5,0.5 -1,0.5 H 4 c -0.5,0 -1,0.440207 -1,1 V 12 c 0,0.5 0.5,1 1,1 h 1.5 c 0.5,0 0.5,0 1,0.5 l 2,2 C 9,16 9,16 9.5,16 H 10 V 4.0000002 H 9.5 c -0.0625,0 -0.1172,-9.765e-4 -0.1660155,0 z m 4.6660155,1 -1,1 C 14.417505,7.4175047 15,8.7333337 15,10 c 0,1.266665 -0.582495,2.582495 -2,4 l 1,1 c 1.582495,-1.582495 2.367188,-3.266665 2.367188,-5 0,-1.7333348 -0.784693,-3.4175038 -2.367188,-4.9999998 z m -2,2 -1,1 c 0.95875,0.958755 1.375,1.56111 1.375,1.9999998 0,0.4389 -0.41625,1.04125 -1.375,2 l 1,1 c 1.04125,-1.04125 1.703125,-1.938885 1.703125,-3 C 13.703125,8.9388902 13.04125,8.0412492 12,7.0000002 Z" /></svg>
