<svg width="250" height="250" version="1.1" viewBox="0 0 66.146 66.146" xmlns="http://www.w3.org/2000/svg" xmlns:cc="http://creativecommons.org/ns#" xmlns:rdf="http://www.w3.org/1999/02/22-rdf-syntax-ns#" xmlns:xlink="http://www.w3.org/1999/xlink">
	<defs>
		<linearGradient id="linearGradient18">
			<stop stop-color="#999" offset="0"/>
			<stop stop-color="#707070" stop-opacity="0" offset="1"/>
		</linearGradient>
		<linearGradient id="linearGradient11" x1="37.077" x2="30.257" y1="66.146" y2="33.331" gradientTransform="matrix(1 0 0 .99497 0 .33254)" gradientUnits="userSpaceOnUse" spreadMethod="reflect">
			<stop stop-color="#333" offset="0"/>
			<stop stop-color="#525252" offset="1"/>
		</linearGradient>
		<linearGradient id="linearGradient13" x1="33.073" x2="33.073" y1="14.555" y2="15.087" gradientTransform="translate(0 .25937)" gradientUnits="userSpaceOnUse">
			<stop stop-color="#feab73" offset="0"/>
			<stop stop-color="#e25321" offset="1"/>
		</linearGradient>
		<linearGradient id="linearGradient15" x1="33.024" x2="33.024" y1="20.939" y2="22.755" gradientUnits="userSpaceOnUse">
			<stop stop-color="#1f1f1f" offset="0"/>
			<stop stop-color="#555" stop-opacity="0" offset="1"/>
		</linearGradient>
		<linearGradient id="linearGradient16" x1="1.5909" x2="3.4378" y1="27.119" y2="27.119" gradientUnits="userSpaceOnUse">
			<stop stop-color="#1f1f1f" offset="0"/>
			<stop stop-color="#555" stop-opacity="0" offset="1"/>
		</linearGradient>
		<linearGradient id="linearGradient19" x1="34.939" x2="34.939" y1="33.34" y2="31.49" gradientUnits="userSpaceOnUse" xlink:href="#linearGradient18"/>
		<linearGradient id="linearGradient20" x1="64.55" x2="62.71" y1="28.379" y2="28.379" gradientUnits="userSpaceOnUse" xlink:href="#linearGradient18"/>
		<linearGradient id="linearGradient8" x1="33.073" x2="33.073" y1=".52917" gradientUnits="userSpaceOnUse">
			<stop stop-color="#252525" offset="0"/>
			<stop stop-color="#252525" stop-opacity="0" offset="1"/>
		</linearGradient>
		<linearGradient id="linearGradient3-8">
			<stop stop-color="#abe923" offset="0"/>
			<stop stop-color="#5dbe2b" offset=".33132"/>
			<stop stop-color="#109334" offset="1"/>
		</linearGradient>
		<linearGradient id="linearGradient1-5">
			<stop stop-color="#fff01f" offset="0"/>
			<stop stop-color="#fdc80f" offset=".33088"/>
			<stop stop-color="#fb000a" offset="1"/>
		</linearGradient>
		<radialGradient id="radialGradient2-8" cx="2.5083" cy="24.216" r="11.242" gradientTransform="matrix(1.2473 -.0055965 .0031537 .70286 -1.2221 7.0454)" gradientUnits="userSpaceOnUse" xlink:href="#linearGradient1-5"/>
		<radialGradient id="radialGradient5-8" cx="23.105" cy="23.813" r="12.058" gradientTransform="matrix(-1.4205 1.9619e-8 0 -.67084 77.914 39.885)" gradientUnits="userSpaceOnUse" xlink:href="#linearGradient3-8"/>
		<filter id="filter3" x="-.039999" y="-.060003" width="1.08" height="1.12" color-interpolation-filters="sRGB">
			<feGaussianBlur stdDeviation="0.39992188"/>
		</filter>
		<radialGradient id="radialGradient4" cx="2.5083" cy="24.216" r="11.242" gradientTransform="matrix(1.2531 -.0055965 .0031686 .70286 -1.1878 6.9043)" gradientUnits="userSpaceOnUse" xlink:href="#linearGradient1-5"/>
		<radialGradient id="radialGradient5" cx="23.105" cy="23.813" r="12.058" gradientTransform="matrix(-1.4287 1.9619e-8 0 -.67084 78.092 39.885)" gradientUnits="userSpaceOnUse" xlink:href="#linearGradient3-8"/>
		<filter id="filter42" x="-.040007" y="-.060055" width="1.08" height="1.1201" color-interpolation-filters="sRGB">
			<feGaussianBlur stdDeviation="0.40027203"/>
		</filter>
		<filter id="filter63" x="-.0075286" y="-.029551" width="1.0151" height="1.0591" color-interpolation-filters="sRGB">
			<feGaussianBlur stdDeviation="0.099637875"/>
		</filter>
	</defs>
	<rect y="-5e-7" width="66.146" height="66.146" fill="url(#linearGradient8)" stroke-width=".26458"/>
	<rect y="14.815" width="66.146" height="51.331" fill="url(#linearGradient11)" stroke-width=".26392"/>
	<rect y="14.815" width="66.146" height=".5313" fill="url(#linearGradient13)"/>
	<g stroke-width=".26458">
		<rect x="1.5909" y="20.94" width="62.959" height="12.391" rx="1.8355" ry="1.8113" fill="#5c5c5c"/>
		<rect x="1.5909" y="20.94" width="62.959" height="12.391" rx="1.8403" ry="1.8148" fill="url(#linearGradient19)"/>
		<rect x="1.5909" y="20.906" width="62.959" height="12.425" rx="1.8521" ry="1.8449" fill="url(#linearGradient15)"/>
		<rect x="1.5909" y="20.906" width="62.959" height="12.425" rx="1.8403" ry="1.8449" fill="url(#linearGradient16)"/>
		<rect x="1.5909" y="20.906" width="62.959" height="12.425" rx="1.8399" ry="1.8148" fill="url(#linearGradient20)"/>
	</g>
	<metadata>
		<rdf:RDF>
			<cc:License rdf:about="http://creativecommons.org/publicdomain/zero/1.0/">
				<cc:permits rdf:resource="http://creativecommons.org/ns#Reproduction"/>
				<cc:permits rdf:resource="http://creativecommons.org/ns#Distribution"/>
				<cc:permits rdf:resource="http://creativecommons.org/ns#DerivativeWorks"/>
			</cc:License>
			<cc:Work rdf:about="">
				<cc:license rdf:resource="http://creativecommons.org/publicdomain/zero/1.0/"/>
			</cc:Work>
		</rdf:RDF>
	</metadata>
	<g transform="matrix(.34959 0 0 .34959 1.3968 -.96109)">
		<path d="m23.105 21.923h6.0078v-6.0048h9.9961l7.9922 7.9922-8.0039 8.0039h-9.9844v-5.9917h-6.0078z" fill="url(#radialGradient5-8)" filter="url(#filter3)" style="mix-blend-mode:normal"/>
		<path d="m22.967 21.923h6.0425v-6.0048h10.054l8.0383 7.9922-8.0501 8.0039h-10.042v-5.9917h-6.0425z" fill="url(#radialGradient5)"/>
		<path transform="matrix(1.0047 0 0 1 .040119 -.14113)" d="m1.9827 24.052 7.9922-7.9922h16.02v3.9922l-6.0039-1e-6v8.0156h6.0039v3.9883h-16.008z" fill="url(#radialGradient2-8)" filter="url(#filter42)" style="mix-blend-mode:normal"/>
		<path d="m2.0322 23.91 8.0299-7.9922h16.095v3.9922l-6.0322-1e-6v8.0156h6.0322v3.9883h-16.083z" fill="url(#radialGradient4)"/>
	</g>
	<g transform="matrix(1.3673 0 0 1.3673 -11.224 -2.6804)" filter="url(#filter63)" stroke-width=".25936" style="mix-blend-mode:normal">
		<g fill="#fa4d04">
			<path d="m54.519 6.9192q0 0.29879-0.0166 0.45648h-3.7597q0.0249 0.51458 0.24899 0.87976t0.58928 0.55608q0.36518 0.18259 0.79677 0.18259 0.56438 0 0.94616-0.27389 0.39008-0.27389 0.51458-0.73867h0.61418q-0.16599 0.66397-0.71377 1.0873-0.53948 0.41498-1.3611 0.41498-0.63907 0-1.1454-0.28219-0.50628-0.29049-0.79677-0.81337-0.28219-0.53118-0.28219-1.2366 0-0.70547 0.28219-1.2366 0.28219-0.53118 0.78847-0.81337t1.1537-0.28219q0.64737 0 1.1288 0.28219 0.48968 0.28219 0.74697 0.76357 0.26559 0.47308 0.26559 1.0541zm-0.58928-0.0166q0.008299-0.50628-0.20749-0.86316-0.20749-0.35689-0.57268-0.53948-0.36518-0.18259-0.79677-0.18259-0.64737 0-1.1039 0.41498-0.45648 0.41498-0.50628 1.1703z"/>
			<path d="m46.717 4.8194q0.63907 0 1.1122 0.29879 0.47308 0.29879 0.68057 0.75527v-0.98766h0.58098v4.6478q0 0.62247-0.27389 1.1039-0.26559 0.48138-0.74697 0.73867-0.48138 0.26559-1.0956 0.26559-0.87146 0-1.4524-0.41498-0.57268-0.41498-0.71377-1.1288h0.57268q0.14939 0.47308 0.56438 0.75527 0.42328 0.28219 1.0292 0.28219 0.43988 0 0.78847-0.19089 0.34859-0.18259 0.54778-0.54778t0.19919-0.86316v-1.1205q-0.21579 0.46478-0.68887 0.77187-0.46478 0.29879-1.1039 0.29879-0.62247 0-1.1205-0.29049-0.48968-0.29049-0.77187-0.82167-0.27389-0.53118-0.27389-1.2283t0.27389-1.22q0.28219-0.53118 0.77187-0.81337 0.49798-0.29049 1.1205-0.29049zm1.7927 2.3322q0-0.54778-0.22409-0.96276t-0.61418-0.63907q-0.38178-0.22409-0.84656-0.22409-0.48138 0-0.86316 0.21579t-0.60588 0.63077q-0.21579 0.40668-0.21579 0.97106 0 0.55608 0.21579 0.97936 0.22409 0.41498 0.60588 0.63907 0.38178 0.21579 0.86316 0.21579 0.46478 0 0.84656-0.22409 0.39008-0.22409 0.61418-0.63907t0.22409-0.96276z"/>
			<path d="m43.497 4.9605v4.4569h-0.58098v-4.4569z"/>
			<path d="m43.207 4.4708q-0.17429 0-0.29879-0.12449t-0.1245-0.30709 0.1245-0.29879q0.1245-0.12449 0.29879-0.12449t0.29879 0.12449q0.1245 0.1162 0.1245 0.29879t-0.1245 0.30709-0.29879 0.12449z"/>
		</g>
		<path d="m41.995 3.6159v0.48138h-1.6101v5.3201h-0.58098v-5.3201h-1.6184v-0.48138z" fill="#a0e325"/>
		<path d="m35.612 9.4755q-0.57268 0-1.0126-0.19919-0.43158-0.19919-0.68057-0.55608t-0.26559-0.79677h0.61418q0.0415 0.42328 0.37348 0.74697 0.33199 0.31539 0.97106 0.31539 0.58928 0 0.92956-0.29879 0.34859-0.30709 0.34859-0.77187 0-0.37348-0.19089-0.59758-0.19089-0.23239-0.47308-0.34029-0.28219-0.1162-0.78017-0.24899-0.58098-0.15769-0.92126-0.30709t-0.58098-0.46478q-0.24069-0.31539-0.24069-0.85486 0-0.44818 0.23239-0.79677 0.23239-0.35689 0.65567-0.55608t0.97106-0.19919q0.80507 0 1.2947 0.39838 0.49798 0.39008 0.57268 1.0126h-0.63077q-0.0581-0.35689-0.39008-0.63077-0.33199-0.28219-0.89636-0.28219-0.52288 0-0.87146 0.28219-0.34858 0.27389-0.34858 0.75527 0 0.36518 0.19089 0.58928t0.47308 0.34029q0.29049 0.1162 0.78017 0.24899 0.56438 0.15769 0.91296 0.31539 0.34859 0.14939 0.58928 0.46478t0.24069 0.84657q0 0.40668-0.21579 0.77187t-0.63907 0.58928-1.0126 0.22409z" fill="#60c12c"/>
		<path d="m32.791 6.9192q0 0.29879-0.0166 0.45648h-3.7597q0.0249 0.51458 0.24899 0.87976t0.58928 0.55608q0.36518 0.18259 0.79677 0.18259 0.56438 0 0.94616-0.27389 0.39008-0.27389 0.51458-0.73867h0.61418q-0.16599 0.66397-0.71377 1.0873-0.53948 0.41498-1.3611 0.41498-0.63907 0-1.1454-0.28219-0.50628-0.29049-0.79677-0.81337-0.28219-0.53118-0.28219-1.2366 0-0.70547 0.28219-1.2366 0.28219-0.53118 0.78847-0.81337t1.1537-0.28219q0.64737 0 1.1288 0.28219 0.48968 0.28219 0.74697 0.76357 0.26559 0.47308 0.26559 1.0541zm-0.58928-0.016599q0.0083-0.50628-0.20749-0.86316-0.20749-0.35689-0.57268-0.53948-0.36518-0.18259-0.79677-0.18259-0.64737 0-1.1039 0.41498-0.45648 0.41498-0.50628 1.1703z" fill="#fa4d04"/>
		<path d="m27.819 3.6159-2.1994 5.8015h-0.66397l-2.1994-5.8015h0.63077l1.9006 5.1707 1.9172-5.1707z" fill="#31a931"/>
	</g>
	<g transform="matrix(1.3673 0 0 1.3673 -11.224 -2.6804)" stroke-width=".25936">
		<g fill="#fa4d04">
			<path d="m54.519 6.9192q0 0.29879-0.0166 0.45648h-3.7597q0.0249 0.51458 0.24899 0.87976t0.58928 0.55608q0.36518 0.18259 0.79677 0.18259 0.56438 0 0.94616-0.27389 0.39008-0.27389 0.51458-0.73867h0.61418q-0.16599 0.66397-0.71377 1.0873-0.53948 0.41498-1.3611 0.41498-0.63907 0-1.1454-0.28219-0.50628-0.29049-0.79677-0.81337-0.28219-0.53118-0.28219-1.2366 0-0.70547 0.28219-1.2366 0.28219-0.53118 0.78847-0.81337t1.1537-0.28219q0.64737 0 1.1288 0.28219 0.48968 0.28219 0.74697 0.76357 0.26559 0.47308 0.26559 1.0541zm-0.58928-0.0166q0.008299-0.50628-0.20749-0.86316-0.20749-0.35689-0.57268-0.53948-0.36518-0.18259-0.79677-0.18259-0.64737 0-1.1039 0.41498-0.45648 0.41498-0.50628 1.1703z"/>
			<path d="m46.717 4.8194q0.63907 0 1.1122 0.29879 0.47308 0.29879 0.68057 0.75527v-0.98766h0.58098v4.6478q0 0.62247-0.27389 1.1039-0.26559 0.48138-0.74697 0.73867-0.48138 0.26559-1.0956 0.26559-0.87146 0-1.4524-0.41498-0.57268-0.41498-0.71377-1.1288h0.57268q0.14939 0.47308 0.56438 0.75527 0.42328 0.28219 1.0292 0.28219 0.43988 0 0.78847-0.19089 0.34859-0.18259 0.54778-0.54778t0.19919-0.86316v-1.1205q-0.21579 0.46478-0.68887 0.77187-0.46478 0.29879-1.1039 0.29879-0.62247 0-1.1205-0.29049-0.48968-0.29049-0.77187-0.82167-0.27389-0.53118-0.27389-1.2283t0.27389-1.22q0.28219-0.53118 0.77187-0.81337 0.49798-0.29049 1.1205-0.29049zm1.7927 2.3322q0-0.54778-0.22409-0.96276t-0.61418-0.63907q-0.38178-0.22409-0.84656-0.22409-0.48138 0-0.86316 0.21579t-0.60588 0.63077q-0.21579 0.40668-0.21579 0.97106 0 0.55608 0.21579 0.97936 0.22409 0.41498 0.60588 0.63907 0.38178 0.21579 0.86316 0.21579 0.46478 0 0.84656-0.22409 0.39008-0.22409 0.61418-0.63907t0.22409-0.96276z"/>
			<path d="m43.497 4.9605v4.4569h-0.58098v-4.4569z"/>
			<path d="m43.207 4.4708q-0.17429 0-0.29879-0.12449t-0.1245-0.30709 0.1245-0.29879q0.1245-0.12449 0.29879-0.12449t0.29879 0.12449q0.1245 0.1162 0.1245 0.29879t-0.1245 0.30709-0.29879 0.12449z"/>
		</g>
		<path d="m41.995 3.6159v0.48138h-1.6101v5.3201h-0.58098v-5.3201h-1.6184v-0.48138z" fill="#a0e325"/>
		<path d="m35.612 9.4755q-0.57268 0-1.0126-0.19919-0.43158-0.19919-0.68057-0.55608t-0.26559-0.79677h0.61418q0.0415 0.42328 0.37348 0.74697 0.33199 0.31539 0.97106 0.31539 0.58928 0 0.92956-0.29879 0.34859-0.30709 0.34859-0.77187 0-0.37348-0.19089-0.59758-0.19089-0.23239-0.47308-0.34029-0.28219-0.1162-0.78017-0.24899-0.58098-0.15769-0.92126-0.30709t-0.58098-0.46478q-0.24069-0.31539-0.24069-0.85486 0-0.44818 0.23239-0.79677 0.23239-0.35689 0.65567-0.55608t0.97106-0.19919q0.80507 0 1.2947 0.39838 0.49798 0.39008 0.57268 1.0126h-0.63077q-0.0581-0.35689-0.39008-0.63077-0.33199-0.28219-0.89636-0.28219-0.52288 0-0.87146 0.28219-0.34858 0.27389-0.34858 0.75527 0 0.36518 0.19089 0.58928t0.47308 0.34029q0.29049 0.1162 0.78017 0.24899 0.56438 0.15769 0.91296 0.31539 0.34859 0.14939 0.58928 0.46478t0.24069 0.84657q0 0.40668-0.21579 0.77187t-0.63907 0.58928-1.0126 0.22409z" fill="#60c12c"/>
		<path d="m32.791 6.9192q0 0.29879-0.0166 0.45648h-3.7597q0.0249 0.51458 0.24899 0.87976t0.58928 0.55608q0.36518 0.18259 0.79677 0.18259 0.56438 0 0.94616-0.27389 0.39008-0.27389 0.51458-0.73867h0.61418q-0.16599 0.66397-0.71377 1.0873-0.53948 0.41498-1.3611 0.41498-0.63907 0-1.1454-0.28219-0.50628-0.29049-0.79677-0.81337-0.28219-0.53118-0.28219-1.2366 0-0.70547 0.28219-1.2366 0.28219-0.53118 0.78847-0.81337t1.1537-0.28219q0.64737 0 1.1288 0.28219 0.48968 0.28219 0.74697 0.76357 0.26559 0.47308 0.26559 1.0541zm-0.58928-0.016599q0.0083-0.50628-0.20749-0.86316-0.20749-0.35689-0.57268-0.53948-0.36518-0.18259-0.79677-0.18259-0.64737 0-1.1039 0.41498-0.45648 0.41498-0.50628 1.1703z" fill="#fa4d04"/>
		<path d="m27.819 3.6159-2.1994 5.8015h-0.66397l-2.1994-5.8015h0.63077l1.9006 5.1707 1.9172-5.1707z" fill="#31a931"/>
	</g>
</svg>
