<?xml version="1.0" encoding="UTF-8" standalone="no"?>
<!-- Created with Inkscape (http://www.inkscape.org/) -->

<svg
   width="28"
   height="28"
   viewBox="0 0 28 28"
   version="1.1"
   id="svg1"
   xml:space="preserve"
   xmlns:xlink="http://www.w3.org/1999/xlink"
   xmlns="http://www.w3.org/2000/svg"
   xmlns:svg="http://www.w3.org/2000/svg"><defs
     id="defs1"><linearGradient
       id="linearGradient22"><stop
         style="stop-color:#7a7a7a;stop-opacity:1;"
         offset="0.25"
         id="stop22" /><stop
         style="stop-color:#3d3d3d;stop-opacity:1;"
         offset="1"
         id="stop23" /></linearGradient><radialGradient
       xlink:href="#linearGradient22"
       id="radialGradient23"
       cx="14"
       cy="14"
       fx="14"
       fy="14"
       r="11.996094"
       gradientTransform="matrix(1,0,0,0.58303686,0,5.837484)"
       gradientUnits="userSpaceOnUse" /></defs><g
     id="layer1"
     style="fill:#ffffff;fill-opacity:1"><path
       id="path16"
       style="fill:#ffffff;fill-opacity:1;stroke:none;stroke-width:1px;stroke-linecap:butt;stroke-linejoin:miter;stroke-opacity:1"
       d="m 4.0039062,7.0058352 -2,2 v 2.0000008 h 3.996093 v 6 c -1.542113,0 -3.662502,-0.0017 -3.996093,0 v 1.996094 l 1.992187,1.992188 h 4.003906 L 10.009766,19.00193 v -0.002 -1.994141 h 8.009765 v 1.994188 0.002 l 1.988281,1.992188 h 3.996094 l 1.992188,-1.992188 v -1.996094 c -1.179127,0 -2.460453,0 -4,0 v -2.918084 -3.081916 c 1.466312,0 2.332703,6e-6 4,0 V 9.0058352 l -2,-2 h -3.988282 l -1.988281,2 V 10.999977 H 10.009766 V 9.0058352 l -2.0097668,-2 z" /></g></svg>
