<?xml version="1.0" encoding="UTF-8" standalone="no"?>
<!-- Created with Inkscape (http://www.inkscape.org/) -->

<svg
   width="48"
   height="48"
   viewBox="0 0 48 48"
   version="1.1"
   id="svg1"
   xml:space="preserve"
   xmlns="http://www.w3.org/2000/svg"
   xmlns:svg="http://www.w3.org/2000/svg"
   xmlns:rdf="http://www.w3.org/1999/02/22-rdf-syntax-ns#"
   xmlns:cc="http://creativecommons.org/ns#"><defs
     id="defs1" /><path
     id="rect24"
     style="display:inline;opacity:1;mix-blend-mode:normal;fill:#ffffff;fill-opacity:1;stroke-width:0"
     d="M 3.9963506 0.055595 C 1.7744666 0.055595 -0.013415 1.8434766 -0.013415 4.0653606 L -0.013415 44.045829 C -0.013415 46.267713 1.7744666 48.055595 3.9963506 48.055595 L 43.976819 48.055595 C 46.198703 48.055595 47.986585 46.267713 47.986585 44.045829 L 47.986585 4.0653606 C 47.986585 1.8434766 46.198703 0.055595 43.976819 0.055595 L 3.9963506 0.055595 z M 9.9748662 16.059501 L 25.994398 16.059501 L 25.994398 20.051689 L 19.990491 20.051689 L 19.990491 28.067314 L 25.994398 28.067314 L 25.994398 32.055595 L 9.986585 32.055595 L 1.9826788 24.051689 L 9.9748662 16.059501 z M 27.994398 16.059501 L 37.990491 16.059501 L 45.982679 24.051689 L 37.978772 32.055595 L 27.994398 32.055595 L 27.994398 26.063408 L 21.986585 26.063408 L 21.986585 22.063408 L 27.994398 22.063408 L 27.994398 16.059501 z "
     transform="translate(0.013415,-0.055595)" /><metadata
     id="metadata34"><rdf:RDF><cc:Work
         rdf:about=""><cc:license
           rdf:resource="http://creativecommons.org/publicdomain/zero/1.0/" /></cc:Work><cc:License
         rdf:about="http://creativecommons.org/publicdomain/zero/1.0/"><cc:permits
           rdf:resource="http://creativecommons.org/ns#Reproduction" /><cc:permits
           rdf:resource="http://creativecommons.org/ns#Distribution" /><cc:permits
           rdf:resource="http://creativecommons.org/ns#DerivativeWorks" /></cc:License></rdf:RDF></metadata></svg>
