<svg xmlns="http://www.w3.org/2000/svg" xmlns:xlink="http://www.w3.org/1999/xlink" xml:space="preserve" width="25" height="18">
  <defs>
    <linearGradient xlink:href="#a" id="b" x1="16" x2="16" y1="27.5" y2="4.5" gradientTransform="matrix(1.04337 0 0 .73905 -4.19516 -2.82574)" gradientUnits="userSpaceOnUse"/>
    <linearGradient id="a">
      <stop offset="0" stop-color="#1a1d21"/>
      <stop offset="1" stop-color="#2d333a"/>
    </linearGradient>
  </defs>
  <rect width="24" height="17" x=".5" y=".5" fill="url(#b)" stroke="#000" stroke-linecap="round" stroke-linejoin="bevel" rx="2.065" ry="2.065"/>
  <path fill="#fff" d="M2.56445 1C1.6888 1 1 1.6888 1 2.56445v1C1 2.6888 1.6888 2 2.56445 2h19.8711C23.3112 2 24 2.6888 24 3.56445v-1C24 1.6888 23.3112 1 22.43555 1Z" color="#000" opacity=".1"/>
  <path d="M2.56445 17C1.6888 17 1 16.3112 1 15.43555v-1C1 15.3112 1.6888 16 2.56445 16h19.8711C23.3112 16 24 15.3112 24 14.43555v1C24 16.3112 23.3112 17 22.43555 17Z" color="#000" opacity=".2"/>
  <text xml:space="preserve" x="12.20703" y="13.54297" fill="#fff" font-family="System-ui" font-size="12" font-weight="700" letter-spacing="0"><tspan x="12.20703" y="13.54297" font-family="System-ui">DC</tspan></text>
</svg>
