/* XPM */
static char * lmms_xpm[] = {
"24 24 76 1",
" 	c None",
".	c #208B4D",
"+	c #208C4D",
"@	c #229452",
"#	c #239654",
"$	c #239754",
"%	c #299557",
"&	c #2A9658",
"*	c #239B56",
"=	c #249B56",
"-	c #249C57",
";	c #249D57",
">	c #259E58",
",	c #259F59",
"'	c #25A059",
")	c #25A15A",
"!	c #25A25A",
"~	c #25A35A",
"{	c #26A35B",
"]	c #26A45B",
"^	c #26A55C",
"/	c #26A65C",
"(	c #26A65D",
"_	c #3E9E67",
":	c #26A75D",
"<	c #28A75E",
"[	c #28A75F",
"}	c #27A85E",
"|	c #27A95E",
"1	c #27AA5F",
"2	c #27AB5F",
"3	c #29AC60",
"4	c #2AAC61",
"5	c #2FAC64",
"6	c #54A275",
"7	c #33AE67",
"8	c #56A477",
"9	c #2AB365",
"0	c #5BA67B",
"a	c #3CB36F",
"b	c #41B572",
"c	c #64B285",
"d	c #50BA7D",
"e	c #58B881",
"f	c #5CBA84",
"g	c #56BC82",
"h	c #5FBB86",
"i	c #34D07B",
"j	c #34D17A",
"k	c #34D17B",
"l	c #68C28F",
"m	c #77C899",
"n	c #7DCD9F",
"o	c #90C7A8",
"p	c #8CD2AA",
"q	c #9AD7B4",
"r	c #A9DDBF",
"s	c #B0E0C5",
"t	c #BDDDCB",
"u	c #C3DFCF",
"v	c #BFE6CF",
"w	c #CBE3D5",
"x	c #C5E6D3",
"y	c #CDE9D9",
"z	c #D1EDDD",
"A	c #D7EFE2",
"B	c #E1F0E8",
"C	c #E6F5EC",
"D	c #EAF6EF",
"E	c #F3FAF6",
"F	c #F7FBF9",
"G	c #F8FBFA",
"H	c #F6FCF9",
"I	c #FCFEFD",
"J	c #FDFEFE",
"K	c #FFFFFF",
"                        ",
"  kiiiiiiiiiiiiiiiiiij  ",
" j92222222222222222229i ",
" i22222222222222222222i ",
" i22222222asvb22222222i ",
" i2222223nEKKHp4222222i ",
" i11111dzKKKKKKAg11111i ",
" i|||5qIKKBccBKKJr7|||i ",
" i}}lCKKFo%))&oGKKDm}}i ",
" i::KKKt_*(::(*_tKKK::i ",
" i//KKK@~//////~@KKK//i ",
" i^^KKK^^^^^^^^^^KKK^^i ",
" i]]KKK]]]]]]]]]]KKK]]i ",
" i{{KKKf{{{{{{{{fKKK{{i ",
" i!!KKKKyh!!!!exKKKK!!i ",
" i))KKKKKK))))KKKKKK))i ",
" i''KKKKKK''''KKKKKK''i ",
" i,,KKKKKK,,,,KKKKKK,,i ",
" i>>6uKKw0>>>>6uKKw0>>i ",
" i;;$+88.$;;;;$+88.$;;i ",
" i----##--------##----i ",
" j<==================[i ",
"  jiiiiiiiiiiiiiiiiiii  ",
"                        "};
