/* XPM */
static char *lmms[] = {
/* columns rows colors chars-per-pixel */
"24 24 222 2 ",
"   c #061811",
".  c #071B13",
"X  c #062F1D",
"o  c #072F1E",
"O  c #0C2A1D",
"+  c #06301C",
"@  c #06301D",
"#  c #07301D",
"$  c #07301E",
"%  c #07311E",
"&  c #07311F",
"*  c #09301F",
"=  c #0D2E20",
"-  c #083320",
";  c #0B3623",
":  c #093825",
">  c #093A25",
",  c #0C3C26",
"<  c #084C2D",
"1  c #14432D",
"2  c #054D31",
"3  c #0D4E31",
"4  c #075434",
"5  c #075535",
"6  c #095034",
"7  c #0A5E34",
"8  c #0C5839",
"9  c #0E5E3B",
"0  c #125937",
"q  c #13533B",
"w  c #17593D",
"e  c #1C5B3E",
"r  c #0C603F",
"t  c #0B673F",
"y  c #0C683B",
"u  c #0B6642",
"i  c #0B6940",
"p  c #0C6941",
"a  c #1A6144",
"s  c #1C6445",
"d  c #116D44",
"f  c #1B6949",
"g  c #137446",
"h  c #147645",
"j  c #137A4A",
"k  c #157F4D",
"l  c #207450",
"z  c #2A7A51",
"x  c #2A7F54",
"c  c #0F804B",
"v  c #128041",
"b  c #148448",
"n  c #13824F",
"m  c #17884D",
"M  c #139446",
"N  c #16984F",
"B  c #178851",
"V  c #158C53",
"C  c #168A55",
"Z  c #198851",
"A  c #1A9C5A",
"S  c #1E9F59",
"D  c #2E8D5F",
"F  c #2C905E",
"G  c #18AB4E",
"H  c #1CB24B",
"J  c #1DB54B",
"K  c #1DB44D",
"L  c #1DB74D",
"P  c #1DB54E",
"I  c #1DB64F",
"U  c #1DB849",
"Y  c #1EBA48",
"T  c #1EBA4B",
"R  c #1FBC4B",
"E  c #1BAD54",
"W  c #1CB150",
"Q  c #1EB551",
"!  c #1EB751",
"~  c #1EB652",
"^  c #1EB654",
"/  c #1EB950",
"(  c #1FBB52",
")  c #1FB854",
"_  c #1FB158",
"`  c #1FB659",
"'  c #20BC4D",
"]  c #20BD4D",
"[  c #20BC4E",
"{  c #20A35C",
"}  c #20BC51",
"|  c #21BF51",
" . c #21BD52",
".. c #22BF52",
"X. c #20BA55",
"o. c #20B957",
"O. c #20BC55",
"+. c #21BE54",
"@. c #21BC56",
"#. c #20B75C",
"$. c #20B858",
"%. c #23BF5C",
"&. c #23BD5E",
"*. c #2E8E60",
"=. c #2E9161",
"-. c #299562",
";. c #319463",
":. c #349966",
">. c #369C67",
",. c #379C67",
"<. c #309B69",
"1. c #1FAD64",
"2. c #20A861",
"3. c #21AE62",
"4. c #2BAF64",
"5. c #34A06C",
"6. c #39A069",
"7. c #3AA169",
"8. c #3AA16A",
"9. c #3DA46B",
"0. c #3DA56B",
"q. c #23BD61",
"w. c #24BF64",
"e. c #45B877",
"r. c #40BA7B",
"t. c #42BC7C",
"y. c #23C059",
"u. c #24C358",
"i. c #24C35B",
"p. c #24C15E",
"a. c #25C45E",
"s. c #25C360",
"d. c #25C361",
"f. c #27C563",
"g. c #25C164",
"h. c #25C165",
"j. c #26C167",
"k. c #27C467",
"l. c #28C863",
"z. c #2DCC62",
"x. c #28C965",
"c. c #29CA67",
"v. c #26C368",
"b. c #27C369",
"n. c #27C36A",
"m. c #28C668",
"M. c #29C76A",
"N. c #29C66D",
"B. c #2AC86B",
"V. c #2BCD68",
"C. c #2BCD69",
"Z. c #2BCC6A",
"A. c #2CCD6B",
"S. c #2DCF6A",
"D. c #2BC96C",
"F. c #2DCD6E",
"G. c #2ECE6F",
"H. c #31C563",
"J. c #38C76E",
"K. c #2DD06B",
"L. c #2ED06D",
"P. c #2FD36E",
"I. c #32D46A",
"U. c #33D76A",
"Y. c #30D66F",
"T. c #2BC970",
"R. c #2FCF70",
"E. c #2FD271",
"W. c #32D771",
"Q. c #31D572",
"!. c #32D772",
"~. c #32D871",
"^. c #34DB73",
"/. c #38DC7C",
"(. c #3FEA7B",
"). c #3FE97E",
"_. c #47C27F",
"`. c #48C380",
"'. c #48CB86",
"]. c #4BCE87",
"[. c #51CF85",
"{. c #51D68B",
"}. c #43EE81",
"|. c #55E68D",
" X c #57E98E",
".X c #44F383",
"XX c #46F482",
"oX c #46F683",
"OX c #47F783",
"+X c #4AFD85",
"@X c #58E392",
"#X c #5AE392",
"$X c #5AE593",
"%X c #5DE693",
"&X c #5EED91",
"*X c #5CE995",
"=X c #5EE894",
"-X c #60ED97",
";X c #61ED97",
":X c #63EF97",
">X c #63EF98",
",X c #63F098",
"<X c #64F098",
"1X c #64F198",
"2X c #65F199",
"3X c #65F299",
"4X c #66F399",
"5X c #66F39A",
"6X c #65F49A",
"7X c #67F49A",
"8X c #68F69B",
"9X c #69F79B",
"0X c #6AF99C",
"qX c #6BF99C",
"wX c #6BFA9D",
"eX c #6CFB9D",
"rX c #6DFC9E",
"tX c #6DFD9E",
"yX c #6EFD9E",
"uX c #6EFE9F",
"iX c #6FFF9F",
"pX c None",
/* pixels */
"pXpXpXpXpXpXpXpXpXpXpXpXpXpXpXpXpXpXpXpXpXpXpXpX",
"pXpXpXpXpXpXpXpXpXpXpX-.d pXpXpXpXpXpXpXpXpXpXpX",
"pXpXpXpXpXpXpXpXpX;.;X X!.2.8 pXpXpXpXpXpXpXpXpX",
"pXpXpXpXpXpXpXl ].eXtX X^.^.T.C pXpXpXpXpXpXpXpX",
"pXpXpXpXpXs _.;XiX2X2X|.!.R.!.G.N.j pXpXpXpXpXpX",
"pXpXpXpX<.6XtX2XiXtX[.w Z E.!.G.!.P.1.r pXpXpXpX",
"pXpX*.$X8X2X6X2X%Xz   pXpX3 { B.K.D.V.b.A 6 pXpX",
"a {.tXwX8XtX2XD O pXpXpXpXpXpX9 3.K.Z.M.V.b.n pX",
"7.>X9XeX2Xe.1 pXpXpXpXpXpXpXpXpXpXg j.m.x.j.w.- ",
"0.iX9X{.e pXpXpXpXpXpXpXpXpXpXpXpXpX: V d.l.d.o ",
"0.iX2Xr.pXpXpXpXpXpXpXpXpXpXpXpXpXpXpXu q.a.a.o ",
",.>XtX`.pXpXpXpXpXpXpXpXpXpXpXpXpXpXpXp a.p.` X ",
",.2XiX`.pXpXpXpXpXpXpXpXpXpXpXpXpXpXpXi i.%.` X ",
"0.eX2Xt.pXpXpXpXpXpXpXpXpXpXpXpXpXpXpXt ` @.+.$ ",
"0.tXtX'.q pXpXpXpXpXpXpXpXpXpXpXpXpXpXk @.u.} $ ",
"0.2X2XwX*X5.pXpXpXpXpXpXpXpXpXpXpXy E @.L J J $ ",
"F tXiXwX8XiX@Xf pXpXpXpXpXpXpXpXN +. .~ ] R W $ ",
"v H.&XeX8X8X>X6.pXpXpXpXpXpXpX5 ^ ~  .J T z.).; ",
"b u. .J.@XwXiX7.pXpXpXpXpXpXpX4 / ] J _ (.+X.X; ",
"m x.&.o.:X>XtX7.pXpXpXpXpXpXpX4 L J H I.}..X.X; ",
"k M.V.f.8XiX:X=.pXpXpXpXpXpXpX2 G U Y U.+XOX/.* ",
"pXg n.Z.9X-Xx . pXpXpXpXpXpXpXpX< M T U..X4., pX",
"pXpX: Z :.= pXpXpXpXpXpXpXpXpXpXpXpX7 { 0 pXpXpX",
"pXpXpXpXpXpXpXpXpXpXpXpXpXpXpXpXpXpXpXpXpXpXpXpX"
};
