<svg height="48" viewBox="0 0 48 48" width="48" xmlns="http://www.w3.org/2000/svg"><path d="m4 7a2 2 0 0 0 -2 2v30a2 2 0 0 0 2 2h40a2 2 0 0 0 2-2v-30a2 2 0 0 0 -2-2zm1 2h32v.0019531a1 .9401738 89.998037 0 1 .052734-.0019531h.015625a1 .9401738 89.998037 0 1 .351563.0761719 1 .9401738 89.998037 0 1 .580078.9238281v22h-.001953a.9401738 1 89.99983 0 1 .001953.052734v.015625a.9401738 1 89.99983 0 1 -.076172.351563.9401738 1 89.99983 0 1 -.923828.580078h-32v-.001953a.9401738 1 0 0 1 -.0527344.001953h-.015625a.9401738 1 0 0 1 -.3515625-.076172.9401738 1 0 0 1 -.5800781-.923828v-22h.0019531a1 .9401738 0 0 1 -.0019531-.0527344v-.015625a1 .9401738 0 0 1 .0761719-.3515625 1 .9401738 0 0 1 .9238281-.5800781zm37 0a2 2 0 0 1 2 2 2 2 0 0 1 -2 2 2 2 0 0 1 -2-2 2 2 0 0 1 2-2zm-28 3v19h2v-19zm12 0v18h2v-18zm-8 1v15h2v-15zm12 1v13h2v-13zm-20 1v11h2v-11zm12 2v8h2v-8zm-16 1v5h2v-5zm28 1v4h2v-4zm8 3a2 2 0 0 1 2 2 2 2 0 0 1 -2 2 2 2 0 0 1 -2-2 2 2 0 0 1 2-2zm-36 13a2 2 0 0 1 2 2 2 2 0 0 1 -2 2 2 2 0 0 1 -2-2 2 2 0 0 1 2-2zm36 0a2 2 0 0 1 2 2 2 2 0 0 1 -2 2 2 2 0 0 1 -2-2 2 2 0 0 1 2-2z" fill="#fff"/></svg>