<svg xmlns="http://www.w3.org/2000/svg" xmlns:cc="http://creativecommons.org/ns#" xmlns:dc="http://purl.org/dc/elements/1.1/" xmlns:rdf="http://www.w3.org/1999/02/22-rdf-syntax-ns#" xmlns:xlink="http://www.w3.org/1999/xlink" xml:space="preserve" width="20" height="20">
  <title>LMMS 20x20 button (inactive)</title>
  <defs>
    <linearGradient xlink:href="#a" id="b" x1="16" x2="16" y1="27.5" y2="4.5" gradientTransform="matrix(.826 0 0 .826 -3.217 -3.217)" gradientUnits="userSpaceOnUse"/>
    <linearGradient id="a">
      <stop offset="0" style="stop-color:#07090a;stop-opacity:1"/>
      <stop offset="1" style="stop-color:#171a1d;stop-opacity:1"/>
    </linearGradient>
  </defs>
  <rect width="19" height="19" x=".5" y=".5" fill="url(#b)" stroke="#000" stroke-linecap="round" stroke-linejoin="bevel" ry="2.065" style="display:inline;fill-opacity:1"/>
  <path d="M2.56444 1C1.6888 1 1 1.6888 1 2.56445V3c0-.554.446-1 1-1h16c.55399 0 1 .446 1 1v-.43555C19 1.6888 18.31119 1 17.43555 1Z" style="opacity:.1;fill:#fff;fill-opacity:1;stroke:none"/>
  <path d="M2.56444 19C1.6888 19 1 18.3112 1 17.43555V17c0 .554.446 1 1 1h16c.55399 0 1-.446 1-1v.43555C19 18.3112 18.31119 19 17.43555 19Z" style="opacity:.3;fill:#000;fill-opacity:1;stroke:none"/>
  <metadata>
    <rdf:RDF>
      <cc:Work>
        <cc:license rdf:resource="http://creativecommons.org/publicdomain/zero/1.0/"/>
        <dc:title>
          LMMS 20x20 button (inactive)
        </dc:title>
        <dc:creator>
          <cc:Agent>
            <dc:title>
              Rebecca Noel Ati
            </dc:title>
          </cc:Agent>
        </dc:creator>
      </cc:Work>
      <cc:License rdf:about="http://creativecommons.org/publicdomain/zero/1.0/">
        <cc:permits rdf:resource="http://creativecommons.org/ns#Reproduction"/>
        <cc:permits rdf:resource="http://creativecommons.org/ns#Distribution"/>
        <cc:permits rdf:resource="http://creativecommons.org/ns#DerivativeWorks"/>
      </cc:License>
    </rdf:RDF>
  </metadata>
</svg>
