<?xml version="1.0" encoding="UTF-8" standalone="no"?>
<svg
   xml:space="preserve"
   width="20"
   height="20"
   version="1.1"
   id="svg3"
   xmlns:xlink="http://www.w3.org/1999/xlink"
   xmlns="http://www.w3.org/2000/svg"
   xmlns:svg="http://www.w3.org/2000/svg"
   xmlns:rdf="http://www.w3.org/1999/02/22-rdf-syntax-ns#"
   xmlns:cc="http://creativecommons.org/ns#"
   xmlns:dc="http://purl.org/dc/elements/1.1/">
  <title
   id="title1">LMMS mute button (active)</title>
  <defs
   id="defs2"><linearGradient
     xlink:href="#a"
     id="b"
     x1="16"
     x2="16"
     y1="27.5"
     y2="4.5"
     gradientTransform="matrix(.826 0 0 .826 -3.217 -3.217)"
     gradientUnits="userSpaceOnUse" /><linearGradient
     id="a">
      <stop
   offset="0"
   style="stop-color:#07090a;stop-opacity:1"
   id="stop1" />
      <stop
   offset="1"
   style="stop-color:#171a1d;stop-opacity:1"
   id="stop2" />
    </linearGradient></defs>
  <rect
   width="19"
   height="19"
   x=".5"
   y=".5"
   fill="url(#b)"
   stroke="#000"
   stroke-linecap="round"
   stroke-linejoin="bevel"
   ry="2.065"
   style="display:inline;fill-opacity:1"
   id="btn-active" />
  <path
   d="M2.56444 1C1.6888 1 1 1.6888 1 2.56445V3c0-.554.446-1 1-1h16c.55399 0 1 .446 1 1v-.43555C19 1.6888 18.31119 1 17.43555 1Z"
   style="opacity:.1;fill:#fff;fill-opacity:1;stroke:none"
   id="highlight" />
  <path
   d="M2.56444 19C1.6888 19 1 18.3112 1 17.43555V17c0 .554.446 1 1 1h16c.55399 0 1-.446 1-1v.43555C19 18.3112 18.31119 19 17.43555 19Z"
   style="opacity:.3;fill:#000;fill-opacity:1;stroke:none"
   id="shadow" />
  <metadata
   id="metadata3">
    <rdf:RDF>
      <cc:Work>
        <cc:license
   rdf:resource="http://creativecommons.org/publicdomain/zero/1.0/" />
        <dc:title>LMMS mute button (active)</dc:title>
        <dc:creator>
          <cc:Agent>
            <dc:title>Rebecca Noel Ati, Stakeout Punch</dc:title>
          </cc:Agent>
        </dc:creator>
      </cc:Work>
      
    <cc:License
   rdf:about="http://creativecommons.org/publicdomain/zero/1.0/"><cc:permits
     rdf:resource="http://creativecommons.org/ns#Reproduction" /><cc:permits
     rdf:resource="http://creativecommons.org/ns#Distribution" /><cc:permits
     rdf:resource="http://creativecommons.org/ns#DerivativeWorks" /></cc:License></rdf:RDF>
  </metadata>
<path
   id="speaker-cut"
   style="display:inline;fill:#fa5570;stroke-width:3;fill-opacity:1"
   d="M 9.3339845,4.000434 C 8.9921875,4.00727 8.9375,4.062934 8.5,4.500434 l -2,2 C 6.220436,6.779998 6.096815,6.901174 5.955078,6.955512 L 10,11.000434 v -7 H 9.5 c -0.0625,0 -0.1172,-9.765e-4 -0.1660155,0 z M 4,7.000434 c -0.5,0 -1,0.440207 -1,1 v 4 c 0,0.5 0.5,1 1,1 h 1.5 c 0.5,0 0.5,0 1,0.5 l 2,2 c 0.5,0.5 0.5,0.5 1,0.5 H 10 v -3 z" /><path
   style="fill:none;fill-opacity:1;stroke:#fa5570;stroke-width:1.4;stroke-dasharray:none;stroke-opacity:1"
   d="m 11.5,7.500434 c 2,2 2,3 0,5"
   id="sound-wave-inner" /><path
   style="fill:none;fill-opacity:1;stroke:#fa5570;stroke-width:1.4;stroke-dasharray:none;stroke-opacity:1"
   d="m 13.5,5.500434 c 3,3 3,6 0,9"
   id="sound-wave-outer" /><path
   style="display:inline;fill:#fa5570;fill-opacity:1;stroke-width:3"
   d="m 15,16.000434 0.5,-0.5 0.5,-0.5 -11,-11 -0.5,0.5 -0.5,0.5 z"
   id="mute-strike" /></svg>
