<svg xmlns="http://www.w3.org/2000/svg" xmlns:xlink="http://www.w3.org/1999/xlink" xml:space="preserve" width="20" height="20"><defs><linearGradient id="a"><stop offset=".06" stop-color="#040506"/><stop offset=".1" stop-color="#07080a"/><stop offset=".9" stop-color="#15181b"/><stop offset=".94" stop-color="#2e3033"/></linearGradient><linearGradient xlink:href="#a" id="b" x1="16" x2="16" y1="27.5" y2="4.5" gradientTransform="matrix(.826 0 0 .826 -3.217 -3.217)" gradientUnits="userSpaceOnUse"/></defs><rect width="19" height="19" x=".5" y=".5" fill="url(#b)" stroke="#000" stroke-linecap="round" stroke-linejoin="bevel" ry="2.065"/><path fill="#ff496b" d="M9.712 6.05a.5.5 0 0 1 .283.45v8a.5.5 0 0 1-.811.39L6.823 13H4.5a.5.5 0 0 1-.5-.5v-4a.5.5 0 0 1 .5-.5h2.323l2.36-1.89a.5.5 0 0 1 .53-.06m6.131 2.096a.5.5 0 0 1 0 .708L14.2 10.5l1.645 1.646c.472.472-.235 1.18-.707.708l-1.645-1.647-1.644 1.647c-.472.472-1.18-.236-.708-.708l1.646-1.646-1.646-1.646c-.471-.472.236-1.18.708-.708l1.644 1.647 1.645-1.647a.5.5 0 0 1 .707 0"/></svg>