<?xml version="1.0" encoding="UTF-8" standalone="no"?>
<svg xml:space="preserve" width="20" height="20" version="1.1"
   xmlns:xlink="http://www.w3.org/1999/xlink"
   xmlns="http://www.w3.org/2000/svg"
   xmlns:svg="http://www.w3.org/2000/svg"
   xmlns:rdf="http://www.w3.org/1999/02/22-rdf-syntax-ns#"
   xmlns:cc="http://creativecommons.org/ns#"
   xmlns:dc="http://purl.org/dc/elements/1.1/">
  <title>LMMS mute button (active)</title>
  <metadata>
    <rdf:RDF>
      <cc:Work>
        <cc:license rdf:resource="http://creativecommons.org/publicdomain/zero/1.0/" />
        <dc:title>LMMS mute button (active)</dc:title>
        <dc:creator>
          <cc:Agent>
            <dc:title>Rebecca Noel Ati, Stakeout Punch</dc:title>
          </cc:Agent>
        </dc:creator>
      </cc:Work>
      <cc:License rdf:about="http://creativecommons.org/publicdomain/zero/1.0/">
        <cc:permits rdf:resource="http://creativecommons.org/ns#Reproduction" />
        <cc:permits rdf:resource="http://creativecommons.org/ns#Distribution" />
        <cc:permits rdf:resource="http://creativecommons.org/ns#DerivativeWorks" />
      </cc:License>
    </rdf:RDF>
  </metadata>
  <rect width="19" height="19" x=".5" y=".5" fill="#d40237"
    stroke="#890120" stroke-linecap="round" stroke-linejoin="bevel"
    ry="2.065" id="button" />
  <path id="highlight" fill="#fff" opacity=".1"
    d="M2.56445 1C1.6888 1 1 1.6888 1 2.56445V3c0-.554.446-1 1-1h16c.554 0 1 .446 1 1v-.43555C19 1.6888 18.3112 1 17.43555 1Z" />
  <path id="shadow" fill="#000" opacity=".1"
    d="M2.56445 19C1.6888 19 1 18.3112 1 17.43555V17c0 .554.446 1 1 1h16c.554 0 1-.446 1-1v.43555C19 18.3112 18.3112 19 17.43555 19Z" />
  <path id="speaker-cut" fill="#fff"
    d="m 5,4.0000001 -0.5,0.5 -0.5,0.5 1.95508,1.95508 L 10,11 l 1,1 1,1 1,1 1,1 1,1 0.5,-0.5 L 16,15 14.9336,13.9336 C 15.89052,12.66885 16.36719,11.34907 16.36719,10 16.36719,8.2666701 15.58249,6.5825001 14,5.0000001 l -1,1 c 1.4175,1.4175 2,2.73334 2,3.9999999 0,0.94192 -0.32225,1.9118 -1.07031,2.9297 L 12.94336,11.94336 C 13.42336,11.30872 13.70312,10.6884 13.70312,10 13.70312,8.9389001 13.04125,8.0412501 12,7.0000001 l -1,1 c 0.95875,0.95876 1.375,1.56111 1.375,1.9999999 0,0.2501 -0.13605,0.5534 -0.4297,0.94531 L 10,9.0000101 v -5 H 9.5 c -0.5,0 -0.5,0 -1,0.5 l -1.5,1.5 z m -1,3 c -0.5,0 -1,0.44021 -1,1 V 12 c 0,0.5 0.5,1 1,1 h 1.5 c 0.5,0 0.5,0 1,0.5 l 2,2 C 9,16 9,16 9.5,16 H 10 v -3 z" />
</svg>
