<?xml version="1.0" encoding="UTF-8" standalone="no"?>
<svg xml:space="preserve" width="20" height="20" version="1.1"
   xmlns:xlink="http://www.w3.org/1999/xlink"
   xmlns="http://www.w3.org/2000/svg"
   xmlns:svg="http://www.w3.org/2000/svg"
   xmlns:rdf="http://www.w3.org/1999/02/22-rdf-syntax-ns#"
   xmlns:cc="http://creativecommons.org/ns#"
   xmlns:dc="http://purl.org/dc/elements/1.1/">
  <title>LMMS mute button (inactive)</title>
  <metadata>
    <rdf:RDF>
      <cc:Work>
        <cc:license rdf:resource="http://creativecommons.org/publicdomain/zero/1.0/" />
        <dc:title>LMMS mute button (inactive)</dc:title>
        <dc:creator>
          <cc:Agent>
            <dc:title>Rebecca Noel Ati, Stakeout Punch</dc:title>
          </cc:Agent>
        </dc:creator>
      </cc:Work>
      <cc:License rdf:about="http://creativecommons.org/publicdomain/zero/1.0/">
        <cc:permits rdf:resource="http://creativecommons.org/ns#Reproduction" />
        <cc:permits rdf:resource="http://creativecommons.org/ns#Distribution" />
        <cc:permits rdf:resource="http://creativecommons.org/ns#DerivativeWorks" />
      </cc:License>
    </rdf:RDF>
  </metadata>
  <rect width="19" height="19" x=".5" y=".5" fill="transparent"
    stroke="#000" stroke-linecap="round" stroke-linejoin="bevel"
    stroke-opacity="0.5" ry="2.065" id="button" />
  <path id="highlight" fill="#fff" opacity=".1"
    d="M2.56445 1C1.6888 1 1 1.6888 1 2.56445V3c0-.554.446-1 1-1h16c.554 0 1 .446 1 1v-.43555C19 1.6888 18.3112 1 17.43555 1Z" />
  <path id="shadow" fill="#000" opacity=".1"
    d="M2.56445 19C1.6888 19 1 18.3112 1 17.43555V17c0 .554.446 1 1 1h16c.554 0 1-.446 1-1v.43555C19 18.3112 18.3112 19 17.43555 19Z" />
  <path id="speaker" fill="#fff"
    d="m 9.3339845,4.0000002 c -0.341797,0.00684 -0.3964845,0.0625 -0.8339845,0.5 l -2,2 c -0.5,0.5 -0.5,0.5 -1,0.5 H 4 c -0.5,0 -1,0.440207 -1,1 V 12 c 0,0.5 0.5,1 1,1 h 1.5 c 0.5,0 0.5,0 1,0.5 l 2,2 C 9,16 9,16 9.5,16 H 10 V 4.0000002 H 9.5 c -0.0625,0 -0.1172,-9.765e-4 -0.1660155,0 z m 4.6660155,1 -1,1 C 14.417505,7.4175047 15,8.7333337 15,10 c 0,1.266665 -0.582495,2.582495 -2,4 l 1,1 c 1.582495,-1.582495 2.367188,-3.266665 2.367188,-5 0,-1.7333348 -0.784693,-3.4175038 -2.367188,-4.9999998 z m -2,2 -1,1 c 0.95875,0.958755 1.375,1.56111 1.375,1.9999998 0,0.4389 -0.41625,1.04125 -1.375,2 l 1,1 c 1.04125,-1.04125 1.703125,-1.938885 1.703125,-3 C 13.703125,8.9388902 13.04125,8.0412492 12,7.0000002 Z" />
</svg>
