<?xml version="1.0" encoding="UTF-8" standalone="no"?>
<svg
   xml:space="preserve"
   width="20"
   height="20"
   version="1.1"
   id="svg3"
   xmlns:xlink="http://www.w3.org/1999/xlink"
   xmlns="http://www.w3.org/2000/svg"
   xmlns:svg="http://www.w3.org/2000/svg"
   xmlns:rdf="http://www.w3.org/1999/02/22-rdf-syntax-ns#"
   xmlns:cc="http://creativecommons.org/ns#"
   xmlns:dc="http://purl.org/dc/elements/1.1/">
  <title
   id="title1">LMMS mute button (inactive)</title>
  <defs
   id="defs2">
    <linearGradient
   xlink:href="#a"
   id="b"
   x1="16"
   x2="16"
   y1="27.5"
   y2="4.5"
   gradientTransform="matrix(.826 0 0 .826 -3.217 -3.217)"
   gradientUnits="userSpaceOnUse" />
    <linearGradient
   id="a">
      <stop
   offset="0"
   style="stop-color:#1a1d21;stop-opacity:1"
   id="stop1" />
      <stop
   offset="1"
   style="stop-color:#2d333a;stop-opacity:1"
   id="stop2" />
    </linearGradient>
  </defs>
  <rect
   width="19"
   height="19"
   x=".5"
   y=".5"
   fill="url(#b)"
   stroke="#000"
   stroke-linecap="round"
   stroke-linejoin="bevel"
   ry="2.065"
   style="display:inline;fill:url(#b);fill-opacity:1"
   id="button" />
  <path
   d="M2.56445 1C1.6888 1 1 1.6888 1 2.56445V3c0-.554.446-1 1-1h16c.554 0 1 .446 1 1v-.43555C19 1.6888 18.3112 1 17.43555 1Z"
   style="display:inline;opacity:.1;fill:#fff;fill-opacity:1;stroke:none"
   id="highlight" />
  <path
   d="M2.56445 19C1.6888 19 1 18.3112 1 17.43555V17c0 .554.446 1 1 1h16c.554 0 1-.446 1-1v.43555C19 18.3112 18.3112 19 17.43555 19Z"
   style="display:inline;opacity:.1;fill:#000;fill-opacity:1;stroke:none"
   id="shadow" />
  <metadata
   id="metadata3">
    <rdf:RDF>
      <cc:Work>
        <cc:license
   rdf:resource="http://creativecommons.org/publicdomain/zero/1.0/" />
        <dc:title>LMMS mute button (inactive)</dc:title>
        <dc:creator>
          <cc:Agent>
            <dc:title>Rebecca Noel Ati, Stakeout Punch</dc:title>
          </cc:Agent>
        </dc:creator>
      </cc:Work>
      
    <cc:License
   rdf:about="http://creativecommons.org/publicdomain/zero/1.0/"><cc:permits
     rdf:resource="http://creativecommons.org/ns#Reproduction" /><cc:permits
     rdf:resource="http://creativecommons.org/ns#Distribution" /><cc:permits
     rdf:resource="http://creativecommons.org/ns#DerivativeWorks" /></cc:License></rdf:RDF>
  </metadata>
<path
   style="display:inline;fill:#ffffff;stroke-width:0.06"
   d="M 0,0.1 C 0,0.08880414 0.01,0.08 0.02,0.08 h 0.03 c 0.01,0 0.01,0 0.02,-0.01 L 0.11,0.03 C 0.12,0.02 0.12,0.02 0.13,0.02 H 0.14 V 0.25999999 H 0.13 c -0.01,0 -0.01,0 -0.02,-0.01 l -0.04,-0.04 c -0.01,-0.01 -0.01,-0.01 -0.02,-0.01 H 0.02 C 0.01,0.2 0,0.19 0,0.18 Z"
   id="speaker"
   transform="matrix(50,0,0,50,3,3.0000002)" /><path
   style="fill:none;fill-opacity:1;stroke:#ffffff;stroke-width:1.4;stroke-dasharray:none;stroke-opacity:1"
   d="m 11.5,7.5000002 c 2,2 2,2.9999998 0,4.9999998"
   id="sound-wave-inner" /><path
   style="fill:none;fill-opacity:1;stroke:#ffffff;stroke-width:1.4;stroke-dasharray:none;stroke-opacity:1"
   d="m 13.5,5.5000002 c 3,3 3,5.9999998 0,8.9999998"
   id="sound-wave-outer" /></svg>
