<svg xmlns="http://www.w3.org/2000/svg" xmlns:xlink="http://www.w3.org/1999/xlink" xml:space="preserve" width="20" height="20"><defs><linearGradient id="a"><stop offset=".06" stop-color="#191c1f"/><stop offset=".1" stop-color="#1d2125"/><stop offset=".9" stop-color="#2b3138"/><stop offset=".94" stop-color="#42474d"/></linearGradient><linearGradient xlink:href="#a" id="b" x1="16" x2="16" y1="27.5" y2="4.5" gradientTransform="matrix(.826 0 0 .826 -3.217 -3.217)" gradientUnits="userSpaceOnUse"/></defs><rect width="19" height="19" x=".5" y=".5" fill="url(#b)" stroke="#000" stroke-linecap="round" stroke-linejoin="bevel" ry="2.065"/><path fill="#fff" d="m13.121 5.904-.707.707a5.48 5.48 0 0 1 1.611 3.889 5.48 5.48 0 0 1-1.61 3.89l.706.706a6.48 6.48 0 0 0 1.904-4.596 6.48 6.48 0 0 0-1.904-4.596zm-3.584.098a.5.5 0 0 0-.35.107L6.825 8H4.5a.5.5 0 0 0-.5.5v4a.5.5 0 0 0 .5.5h2.324l2.364 1.89A.5.5 0 0 0 10 14.5v-8a.5.5 0 0 0-.283-.45.5.5 0 0 0-.18-.048zm2.17 1.316L11 8.025a3.5 3.5 0 0 1 1.025 2.475A3.5 3.5 0 0 1 11 12.975l.707.707a4.5 4.5 0 0 0 1.318-3.182 4.5 4.5 0 0 0-1.318-3.182z"/></svg>
