<?xml version="1.0" encoding="UTF-8" standalone="no"?>
<svg xmlns="http://www.w3.org/2000/svg" xmlns:svg="http://www.w3.org/2000/svg" xmlns:xlink="http://www.w3.org/1999/xlink" xmlns:rdf="http://www.w3.org/1999/02/22-rdf-syntax-ns#" xmlns:cc="http://creativecommons.org/ns#" xmlns:dc="http://purl.org/dc/elements/1.1/" version="1.1" width="157.443" height="71.502" viewBox="0 0 41.657 18.918">
	<metadata>
		<rdf:RDF>
			<cc:Work>
				<dc:title>Graphic for piano roll without clip</dc:title>
				<dc:creator><cc:Agent><dc:title>allejok96</dc:title></cc:Agent></dc:creator>
			</cc:Work>
			<cc:License rdf:about="http://creativecommons.org/publicdomain/zero/1.0/">
				<cc:permits rdf:resource="http://creativecommons.org/ns#Reproduction" />
				<cc:permits rdf:resource="http://creativecommons.org/ns#Distribution" />
				<cc:permits rdf:resource="http://creativecommons.org/ns#DerivativeWorks" />
			</cc:License>
		</rdf:RDF>
	</metadata>
	<g fill="#fff" opacity=".2">
		<path d="M32.323 6.173c-.593 0-1.07.732-1.07 1.642v6.52l-1.107-1.108c-.35-.35-.968-.294-1.387.125l-.05.05c-.419.418-.475 1.037-.125 1.386l3.242 3.242c.09.09.196.152.313.19a3.797 1.964 0 0 0 2.903.698 3.797 1.964 0 0 0 3.765-1.745 1.079 1.079 0 0 0 .036-.279v-5.16c0-.556-.413-1.004-.926-1.004h-.06c-.463 0-.844.364-.915.843-.07-.48-.452-.843-.914-.843h-.061a.915.915 0 0 0-.808.511.915.915 0 0 0-.807-.511h-.061a.92.92 0 0 0-.829.554V7.815c0-.91-.477-1.642-1.069-1.642z" />
		<path d="M.012 0A.016.016 0 0 0 0 .016v2.49c0 .01.007.016.016.016h41.625a.016.016 0 0 0 .016-.016V.016A.015.015 0 0 0 41.64 0H.013zm39.661.447h.308l.424.6.421-.6h.305l-.57.778.6.813h-.307l-.449-.635-.455.635h-.305l.597-.813zM0 3.022v12.727h28.8c-.236-.222-.478-.44-.674-.694H13.649v-5.22h17.078l-.006-.74H13.65v-5.22h27.293v5.22h-6.95c-.002.247-.005.494-.005.74h6.955v5.22H39.37l.003.639-.003.055h2.287V3.022Zm14.111 1.255v4.316h10.141V4.277Zm10.526.014v4.315h6.083c.002-.404.01-.807.033-1.21.096-.807.636-1.713 1.53-1.75a1.29 1.29 0 0 1 .524.068V4.29zM2.772 6.037H10.2a.04.04 0 0 1 .04.04v.817a.04.04 0 0 1-.04.04H2.772a.04.04 0 0 1-.04-.04v-.817a.04.04 0 0 1 .04-.04zm0 5.96H10.2a.04.04 0 0 1 .04.04v.817a.04.04 0 0 1-.04.04H2.772a.039.039 0 0 1-.04-.04v-.818a.04.04 0 0 1 .04-.04z" />
	</g>
</svg>
