<?xml version="1.0" encoding="UTF-8" standalone="no"?>
<!-- Created with Inkscape (http://www.inkscape.org/) -->

<svg
   width="41.656872mm"
   height="18.918169mm"
   viewBox="0 0 41.656872 18.918169"
   version="1.1"
   id="svg1"
   xmlns="http://www.w3.org/2000/svg"
   xmlns:svg="http://www.w3.org/2000/svg">
  <defs
     id="defs1" />
  <g
     id="layer1"
     transform="translate(-65.462152,-72.005422)"
     style="opacity:0.2">
    <g
       id="g49"
       style="opacity:1"
       transform="matrix(0.4288876,0,0,0.4288876,37.326982,39.850001)">
      <path
         id="path57"
         style="opacity:1;fill:#ffffff;fill-rule:evenodd;stroke:none;stroke-width:2.446;stroke-linecap:square;stroke-dasharray:none;paint-order:stroke fill markers"
         d="m 140.96421,89.366819 c -1.38098,0 -2.49236,1.70814 -2.49236,3.82974 v 15.200621 l -2.58382,-2.58382 c -0.81493,-0.81493 -2.2569,-0.68504 -3.23339,0.29146 l -0.11628,0.11575 c -0.97649,0.9765 -1.10638,2.41898 -0.29145,3.23391 l 7.55923,7.55923 c 0.20829,0.20829 0.4577,0.35483 0.72967,0.44132 a 8.8532639,4.5803905 0 0 0 6.76961,1.62884 8.8532639,4.5803905 0 0 0 8.77776,-4.06849 c 0.0356,-0.13452 0.0609,-0.27358 0.0739,-0.41703 0.007,-0.0767 0.0103,-0.15479 0.0103,-0.23357 v -12.03131 c 0,-1.29705 -0.96292,-2.341461 -2.15904,-2.341461 h -0.14211 c -1.0781,0 -1.96678,0.848611 -2.13165,1.965771 -0.16487,-1.11716 -1.05355,-1.965771 -2.13165,-1.965771 h -0.14211 c -0.81028,0 -1.51369,0.479311 -1.88309,1.191661 -0.36941,-0.71235 -1.07231,-1.191661 -1.88258,-1.191661 h -0.14211 c -0.84745,0 -1.57785,0.524521 -1.93166,1.291401 v -8.086851 c 0,-2.1216 -1.1119,-3.82974 -2.49287,-3.82974 z" />
      <path
         id="rect60"
         style="opacity:1;fill:#ffffff;fill-rule:evenodd;stroke-width:0.504132;stroke-linecap:square"
         d="m 65.629257,74.974009 c -0.01681,0.0034 -0.02892,0.01829 -0.02892,0.03615 v 5.807592 c 0,0.02041 0.01695,0.03735 0.03735,0.03735 h 97.054263 c 0.0204,0 0.0361,-0.01695 0.0361,-0.03735 v -5.807592 c 0,-0.02041 -0.0157,-0.03615 -0.0361,-0.03615 H 65.637691 c -0.0013,0 -0.0045,6.2e-5 -0.006,0 h -0.0012 z m 92.473243,1.042234 h 0.71691 l 0.99043,1.398883 0.98199,-1.398883 h 0.70968 l -1.32659,1.813367 1.39888,1.896504 h -0.71691 l -1.04705,-1.480816 -1.06151,1.480816 h -0.71089 l 1.39165,-1.896504 z m -92.502161,6.002785 v 29.676552 h 67.148771 c -0.54928,-0.51899 -1.11219,-1.02798 -1.56998,-1.61938 H 97.425219 V 97.906767 h 39.818151 c -0.004,-0.575652 -0.01,-1.15099 -0.0133,-1.726614 H 97.425219 V 84.010718 H 161.06172 V 96.180153 H 144.8583 c -0.007,0.575824 -0.0143,1.151269 -0.0133,1.726614 h 16.21667 V 110.0762 h -3.66529 c 1.2e-4,0.49653 0.002,0.99296 0.006,1.48925 -0.002,0.0432 -0.005,0.0868 -0.006,0.13013 h 5.33166 V 82.019028 Z m 32.902174,2.927478 V 95.008581 H 122.14751 V 84.946506 Z m 24.542097,0.03174 V 95.04032 h 14.18309 c 0.004,-0.94162 0.0229,-1.882699 0.0771,-2.821863 0.22321,-1.880873 1.4837,-3.994073 3.56649,-4.082183 0.43987,-0.03113 0.84801,0.02909 1.22176,0.160251 v -3.318279 z m -50.981216,4.071338 h 17.320359 c 0.05117,0 0.09157,0.04161 0.09157,0.09278 v 1.904939 c 0,0.05117 -0.0404,0.09278 -0.09157,0.09278 H 72.063394 c -0.05117,0 -0.09157,-0.04161 -0.09157,-0.09278 v -1.904939 c 0,-0.05117 0.0404,-0.09278 0.09157,-0.09278 z m 0,13.896056 h 17.320359 c 0.05117,0 0.09157,0.0416 0.09157,0.0928 v 1.90615 c 0,0.0512 -0.0404,0.0916 -0.09157,0.0916 H 72.063394 c -0.05117,0 -0.09157,-0.0404 -0.09157,-0.0916 v -1.90615 c 0,-0.0512 0.0404,-0.0928 0.09157,-0.0928 z" />
    </g>
  </g>
</svg>
