<?xml version="1.0" encoding="UTF-8" standalone="no"?>
<svg
   xml:space="preserve"
   width="20"
   height="20"
   version="1.1"
   id="svg3"
   xmlns:xlink="http://www.w3.org/1999/xlink"
   xmlns="http://www.w3.org/2000/svg"
   xmlns:svg="http://www.w3.org/2000/svg"
   xmlns:rdf="http://www.w3.org/1999/02/22-rdf-syntax-ns#"
   xmlns:cc="http://creativecommons.org/ns#"
   xmlns:dc="http://purl.org/dc/elements/1.1/">
  <title
   id="title1">LMMS solo button (inactive)</title>
  <defs
   id="defs2">
    <linearGradient
   xlink:href="#a"
   id="b"
   x1="16"
   x2="16"
   y1="27.5"
   y2="4.5"
   gradientTransform="matrix(.826 0 0 .826 -3.217 -3.217)"
   gradientUnits="userSpaceOnUse" />
    <linearGradient
   id="a">
      <stop
   offset="0"
   style="stop-color:#1a1d21;stop-opacity:1"
   id="stop1" />
      <stop
   offset="1"
   style="stop-color:#2d333a;stop-opacity:1"
   id="stop2" />
    </linearGradient>
  </defs>
  <rect
   width="19"
   height="19"
   x=".5"
   y=".5"
   fill="url(#b)"
   stroke="#000"
   stroke-linecap="round"
   stroke-linejoin="bevel"
   ry="2.065"
   style="display:inline;fill:url(#b);fill-opacity:1"
   id="button" />
  <path
   d="M2.56445 1C1.6888 1 1 1.6888 1 2.56445V3c0-.554.446-1 1-1h16c.554 0 1 .446 1 1v-.43555C19 1.6888 18.3112 1 17.43555 1Z"
   style="display:inline;opacity:.1;fill:#fff;fill-opacity:1;stroke:none"
   id="highlight" />
  <path
   d="M2.56445 19C1.6888 19 1 18.3112 1 17.43555V17c0 .554.446 1 1 1h16c.554 0 1-.446 1-1v.43555C19 18.3112 18.3112 19 17.43555 19Z"
   style="display:inline;opacity:.1;fill:#000;fill-opacity:1;stroke:none"
   id="shadow" />
  <metadata
   id="metadata3">
    <rdf:RDF>
      <cc:Work>
        <cc:license
   rdf:resource="http://creativecommons.org/publicdomain/zero/1.0/" />
        <dc:title>LMMS solo button (inactive)</dc:title>
        <dc:creator>
          <cc:Agent>
            <dc:title>Rebecca Noel Ati, Stakeout Punch</dc:title>
          </cc:Agent>
        </dc:creator>
      </cc:Work>
      
    <cc:License
   rdf:about="http://creativecommons.org/publicdomain/zero/1.0/"><cc:permits
     rdf:resource="http://creativecommons.org/ns#Reproduction" /><cc:permits
     rdf:resource="http://creativecommons.org/ns#Distribution" /><cc:permits
     rdf:resource="http://creativecommons.org/ns#DerivativeWorks" /></cc:License></rdf:RDF>
  </metadata>
<path
   style="display:inline;fill:none;fill-opacity:1;stroke:#ffffff;stroke-width:2;stroke-dasharray:none;stroke-opacity:1"
   id="headband"
   d="m 4,10 a 6,6 0 0 1 6,-6 6,6 0 0 1 6,6" /><path
   style="display:inline;fill:#ffffff;fill-opacity:1;stroke:none;stroke-width:2;stroke-dasharray:none;stroke-opacity:1"
   d="m 3,10 v 6 c 0,0.5 0.5,1 1,1 h 3 c 0.5,0 1,-0.5 1,-1 V 12 C 8,11.5 7.5,11 7,11 H 6 5 v -1"
   id="left-ear" /><path
   style="display:inline;fill:#ffffff;fill-opacity:1;stroke:none;stroke-width:2;stroke-dasharray:none;stroke-opacity:1"
   d="m 15,10 v 1 h -2 c -0.5,0 -1,0.5 -1,1 0,0 0,2.666665 0,4 0,0.5 0.5,1 1,1 h 3 c 0.5,0 1,-0.5 1,-1 v -6 z"
   id="right-ear" /></svg>
