<svg xmlns="http://www.w3.org/2000/svg" xmlns:xlink="http://www.w3.org/1999/xlink" xml:space="preserve" width="20" height="20"><defs><linearGradient id="a"><stop offset=".06" stop-color="#191c1f"/><stop offset=".1" stop-color="#1d2125"/><stop offset=".9" stop-color="#2b3138"/><stop offset=".94" stop-color="#42474d"/></linearGradient><linearGradient xlink:href="#a" id="b" x1="16" x2="16" y1="27.5" y2="4.5" gradientTransform="matrix(.826 0 0 .826 -3.217 -3.217)" gradientUnits="userSpaceOnUse"/></defs><rect width="19" height="19" x=".5" y=".5" fill="url(#b)" stroke="#000" stroke-linecap="round" stroke-linejoin="bevel" ry="2.065"/><path fill="#fff" d="M10 5a5 5 0 0 0-5 5v1h1a1 1 0 0 1 1 1v3a1 1 0 0 1-1 1H5a1 1 0 0 1-1-1v-5a6 6 0 1 1 12 0v5a1 1 0 0 1-1 1h-1a1 1 0 0 1-1-1v-3a1 1 0 0 1 1-1h1v-1a5 5 0 0 0-5-5"/></svg>