<?xml version="1.0" encoding="UTF-8" standalone="no"?>
<svg
   xml:space="preserve"
   width="14"
   height="14"
   version="1.1"
   id="svg1"
   xmlns="http://www.w3.org/2000/svg"
   xmlns:svg="http://www.w3.org/2000/svg"
   xmlns:rdf="http://www.w3.org/1999/02/22-rdf-syntax-ns#"
   xmlns:cc="http://creativecommons.org/ns#"
   xmlns:dc="http://purl.org/dc/elements/1.1/"><defs
   id="defs1" />
  <title
   id="title1">LMMS mute button (active)</title>
  <metadata
   id="metadata1">
    <rdf:RDF>
      <cc:Work>
        <cc:license
   rdf:resource="http://creativecommons.org/publicdomain/zero/1.0/" />
        <dc:title>LMMS mute button (active)</dc:title>
        <dc:creator>
          <cc:Agent>
            <dc:title>Rebecca Noel Ati, Stakeout Punch</dc:title>
          </cc:Agent>
        </dc:creator>
      </cc:Work>
      
    <cc:License
   rdf:about="http://creativecommons.org/publicdomain/zero/1.0/"><cc:permits
     rdf:resource="http://creativecommons.org/ns#Reproduction" /><cc:permits
     rdf:resource="http://creativecommons.org/ns#Distribution" /><cc:permits
     rdf:resource="http://creativecommons.org/ns#DerivativeWorks" /></cc:License></rdf:RDF>
  </metadata>
  
  
  
  <path
   id="speaker-cut"
   fill="#fff"
   d="M 2,1 1.5,1.5 1,2 2.95508,3.95508 7,7.9999999 l 1,1 1,1 L 10,11 l 1,1 1,1 0.5,-0.5 L 13,12 11.9336,10.9336 C 12.89052,9.6688499 13.36719,8.3490699 13.36719,6.9999999 13.36719,5.26667 12.58249,3.5825 11,2 l -1,1 c 1.4175,1.4175 2,2.73334 2,3.9999999 0,0.94192 -0.32225,1.9118 -1.07031,2.9297 l -0.98633,-0.98634 c 0.48,-0.63464 0.75976,-1.25496 0.75976,-1.94336 C 10.70312,5.9389 10.04125,5.04125 9,4 L 8,5 c 0.95875,0.95876 1.375,1.56111 1.375,1.9999999 0,0.2501 -0.13605,0.5534 -0.4297,0.94531 L 7,6.00001 v -5 H 6.5 c -0.5,0 -0.5,0 -1,0.5 l -1.5,1.5 z M 1,4 C 0.5,4 0,4.44021 0,5 v 3.9999999 c 0,0.5 0.5,1 1,1 h 1.5 c 0.5,0 0.5,0 1,0.5000001 l 2,2 C 6,13 6,13 6.5,13 H 7 V 9.9999999 Z"
   style="fill:#ffffff;fill-opacity:1" />
</svg>
