<svg xmlns="http://www.w3.org/2000/svg" xmlns:xlink="http://www.w3.org/1999/xlink" xml:space="preserve" width="160" height="185">
  <defs>
    <path id="c" stroke="#b52543" d="M 60,126 85,101.00001"/>
    <path id="d" stroke="#c18204" d="M 35,101.00001 60,126"/>
  </defs>
  <defs>
    <linearGradient id="a">
      <stop offset="0" stop-color="#08090c"/>
      <stop offset="1" stop-color="#101116"/>
    </linearGradient>
    <linearGradient xlink:href="#a" id="b" x1="0" x2="0" y1="185" y2="0" gradientUnits="userSpaceOnUse"/>
  </defs>
  <path fill="url(#b)" d="M 0,0 H 160 V 185.00001 H 0 Z"/>
  <path fill="none" stroke="#596675" stroke-linecap="round" stroke-linejoin="round" stroke-width="3" d="M60 44.5c0-2.666 0-5.332 1.334-6.666 1.334-1.334 4-1.334 6.166-1.334 2.165 0 3.828 0 5.491 0 0 0 7.01-12.141 7.01-12.141 0 0 7.01 12.141 7.01 12.141 1.663 0 3.328 0 5.493 0 2.165 0 4.832 0 6.165 1.334C100 39.168 100 41.834 100 44.5M60 139c0 2.666 0 5.332 1.334 6.666C62.668 147 65.334 147 67.499 147c2.165 0 3.828 0 5.491 0 0 0 7.01 12.141 7.01 12.141 0 0 7.01-12.141 7.01-12.141 1.663 0 3.328 0 5.493 0 2.165 0 4.832 0 6.165-1.334C100 144.332 100 141.666 100 139" />
  <g fill="none" stroke-linecap="round" stroke-linejoin="round" stroke-width="3" >
    <use xlink:href="#c"/>
    <use xlink:href="#d"/>
  </g>
  <g fill="none" stroke-linecap="round" stroke-linejoin="round" stroke-width="3" transform="translate(40)">
    <use xlink:href="#d"/>
    <use xlink:href="#c"/>
  </g>
  <rect width="13" height="13" x="53.5" y="46" fill="#c18204" stroke="#c18204" stroke-linecap="round" stroke-linejoin="round" stroke-width="3" ry="2.065"/>
  <rect width="13" height="13" x="93.5" y="46" fill="#b52543" stroke="#b52543" stroke-linecap="round" stroke-linejoin="round" stroke-width="3" ry="2.065"/>
  <rect width="13" height="13" x="53.5" y="126" fill="#c18204" stroke="#c18204" stroke-linecap="round" stroke-linejoin="round" stroke-width="3" ry="2.065"/>
  <rect width="13" height="13" x="93.5" y="126" fill="#b52543" stroke="#b52543" stroke-linecap="round" stroke-linejoin="round" stroke-width="3" ry="2.065"/>
  <path fill="none" stroke="#c18204" stroke-linecap="round" stroke-linejoin="round" stroke-width="3" d="M 35,84.000005 60,59.000004 v 18.982185" />
  <path fill="none" stroke="#b52543" stroke-linecap="round" stroke-linejoin="round" stroke-width="3" d="M 100,77.982189 V 59.000004 l 25,25.000001" />
  <path fill="#fff" d="m 74.015625,10 c -0.06844,0 -0.121043,0.01948 -0.160156,0.05859 -0.03911,0.03911 -0.05859,0.09367 -0.05859,0.162109 v 9.826172 c 0,0.06844 0.01948,0.122996 0.05859,0.162109 0.03911,0.03911 0.09171,0.05859 0.160156,0.05859 h 2.318359 c 0.06844,0 0.121043,-0.01948 0.160157,-0.05859 0.03911,-0.03911 0.05859,-0.09366 0.05859,-0.162109 v -9.826172 c 0,-0.06844 -0.01948,-0.122996 -0.05859,-0.162109 C 76.455029,10.01948 76.402429,10 76.333984,10 Z m 3.902344,0 c -0.06844,0 -0.122996,0.01948 -0.16211,0.05859 -0.03911,0.03911 -0.05859,0.09367 -0.05859,0.162109 v 9.826172 c 0,0.06844 0.01948,0.122996 0.05859,0.162109 0.03911,0.03911 0.09367,0.05859 0.16211,0.05859 h 2.316406 c 0.06844,0 0.122996,-0.01948 0.162109,-0.05859 0.03911,-0.03911 0.05859,-0.09366 0.05859,-0.162109 l -0.0293,-4.884766 c 0,-0.03911 0.0097,-0.05859 0.0293,-0.05859 0.01956,-0.0098 0.03904,-3.7e-5 0.05859,0.0293 l 2.992187,4.986329 c 0.05867,0.09778 0.146339,0.148437 0.263672,0.148437 h 2.214844 c 0.06844,0 0.121043,-0.01948 0.160156,-0.05859 0.03911,-0.03911 0.05859,-0.09366 0.05859,-0.162109 V 10.22071 c 0,-0.06844 -0.01948,-0.122996 -0.05859,-0.162109 C 86.10542,10.01948 86.05282,10 85.984375,10 h -2.318359 c -0.06844,0 -0.121043,0.01948 -0.160157,0.05859 -0.03911,0.03911 -0.05859,0.09367 -0.05859,0.162109 l 0.01367,4.882813 c 0,0.03911 -0.0097,0.06444 -0.0293,0.07422 -0.01956,0 -0.03904,-0.01559 -0.05859,-0.04492 L 80.396484,10.146484 C 80.337818,10.048706 80.250146,10 80.132812,10 Z M 56.427734,47.367188 c -0.06844,0 -0.121043,0.01948 -0.160156,0.05859 -0.03911,0.03911 -0.05859,0.09171 -0.05859,0.160157 v 9.828124 c 0,0.06844 0.01948,0.121043 0.05859,0.160157 0.03911,0.03911 0.09171,0.05859 0.160156,0.05859 h 7.144532 c 0.06844,10e-7 0.121043,-0.01948 0.160156,-0.05859 0.03911,-0.03911 0.05859,-0.09171 0.05859,-0.160157 v -1.921874 c 0,-0.06844 -0.01948,-0.122997 -0.05859,-0.16211 -0.03911,-0.03911 -0.09171,-0.05859 -0.160156,-0.05859 h -4.533204 c -0.04889,0 -0.07227,-0.02338 -0.07227,-0.07227 v -7.613281 c 0,-0.06844 -0.01948,-0.121043 -0.05859,-0.160157 -0.03911,-0.03911 -0.09367,-0.05859 -0.162109,-0.05859 z m 39.759766,0 c -0.06844,-10e-7 -0.122996,0.01948 -0.162109,0.05859 -0.03911,0.03911 -0.05859,0.09171 -0.05859,0.160157 v 9.828124 c 0,0.06844 0.01948,0.121043 0.05859,0.160157 0.03911,0.03911 0.09366,0.05859 0.162109,0.05859 h 2.316406 c 0.06844,10e-7 0.122996,-0.01948 0.16211,-0.05859 0.03911,-0.03911 0.05859,-0.09171 0.05859,-0.160157 v -3.652343 c 0,-0.04889 0.02338,-0.07422 0.07227,-0.07422 h 0.617187 c 0.03911,0 0.06834,0.01948 0.08789,0.05859 l 1.613277,3.726562 c 0.0391,0.107555 0.12094,0.160157 0.24805,0.160156 h 2.46484 c 0.0586,0 0.10736,-0.01364 0.14649,-0.04297 0.0391,-0.02934 0.0586,-0.0683 0.0586,-0.117188 0,-0.0098 -0.01,-0.04485 -0.0293,-0.103515 l -1.86329,-3.871094 c -0.0195,-0.04889 -0.004,-0.08396 0.0449,-0.103516 0.55733,-0.224889 0.9918,-0.577529 1.30468,-1.05664 0.32267,-0.48889 0.48438,-1.055838 0.48438,-1.701172 0,-0.645334 -0.14223,-1.212283 -0.42578,-1.701172 -0.27378,-0.498668 -0.66343,-0.884426 -1.17188,-1.158203 -0.49866,-0.273779 -1.0812,-0.410156 -1.74609,-0.410156 z m 2.609375,2.361328 h 1.378905 c 0.31289,0 0.56811,0.08767 0.76367,0.263672 0.19556,0.166222 0.29297,0.390271 0.29297,0.673828 0,0.273777 -0.0974,0.49978 -0.29297,0.675781 -0.19556,0.166222 -0.45078,0.248047 -0.76367,0.248047 h -1.378905 c -0.04889,0 -0.07227,-0.02338 -0.07227,-0.07227 v -1.716797 c 0,-0.04889 0.02338,-0.07227 0.07227,-0.07227 z M 56.427734,127.36719 c -0.06844,0 -0.121043,0.0195 -0.160156,0.0586 -0.03911,0.0391 -0.05859,0.0917 -0.05859,0.16016 v 9.82812 c 0,0.0684 0.01948,0.12103 0.05859,0.16016 0.03911,0.0391 0.09171,0.0586 0.160156,0.0586 h 7.144532 c 0.06844,0 0.121043,-0.0195 0.160156,-0.0586 0.03911,-0.0391 0.05859,-0.0917 0.05859,-0.16016 v -1.92187 c 0,-0.0684 -0.01948,-0.12298 -0.05859,-0.16211 -0.03911,-0.0391 -0.09171,-0.0586 -0.160156,-0.0586 h -4.533204 c -0.04889,0 -0.07227,-0.0234 -0.07227,-0.0723 v -7.61328 c 0,-0.0684 -0.01948,-0.12103 -0.05859,-0.16016 -0.03911,-0.0391 -0.09367,-0.0586 -0.162109,-0.0586 z m 39.759766,0 c -0.06844,0 -0.122996,0.0195 -0.162109,0.0586 -0.03911,0.0391 -0.05859,0.0917 -0.05859,0.16016 v 9.82812 c 0,0.0684 0.01948,0.12103 0.05859,0.16016 0.03911,0.0391 0.09366,0.0586 0.162109,0.0586 h 2.316406 c 0.06844,0 0.122996,-0.0195 0.16211,-0.0586 0.03911,-0.0391 0.05859,-0.0917 0.05859,-0.16016 v -3.65234 c 0,-0.0489 0.02338,-0.0742 0.07227,-0.0742 h 0.617187 c 0.03911,0 0.06834,0.0195 0.08789,0.0586 l 1.613277,3.72657 c 0.0391,0.10756 0.12094,0.16015 0.24805,0.16015 h 2.46484 c 0.0586,0 0.10736,-0.0136 0.14649,-0.043 0.0391,-0.0294 0.0586,-0.0683 0.0586,-0.11718 0,-0.01 -0.01,-0.0448 -0.0293,-0.10352 l -1.86329,-3.87109 c -0.0195,-0.0489 -0.004,-0.084 0.0449,-0.10352 0.55733,-0.22489 0.9918,-0.57753 1.30468,-1.05664 0.32267,-0.48889 0.48438,-1.05584 0.48438,-1.70117 0,-0.64533 -0.14223,-1.21228 -0.42578,-1.70117 -0.27378,-0.49867 -0.66343,-0.88443 -1.17188,-1.15821 -0.49866,-0.27377 -1.0812,-0.41015 -1.74609,-0.41015 z m 2.609375,2.36133 h 1.378905 c 0.31289,0 0.56811,0.0877 0.76367,0.26367 0.19556,0.16622 0.29297,0.39027 0.29297,0.67383 0,0.27378 -0.0974,0.49978 -0.29297,0.67578 -0.19556,0.16622 -0.45078,0.24804 -0.76367,0.24804 h -1.378905 c -0.04889,0 -0.07227,-0.0234 -0.07227,-0.0723 v -1.7168 c 0,-0.0489 0.02338,-0.0723 0.07227,-0.0723 z m -27.691406,34.88671 c -0.811557,0 -1.530472,0.16171 -2.15625,0.48438 -0.616001,0.32267 -1.095277,0.77857 -1.4375,1.36523 -0.342223,0.58667 -0.513672,1.26077 -0.513672,2.02344 v 2.75781 c 0,0.78222 0.171449,1.46996 0.513672,2.06641 0.342223,0.58667 0.821499,1.04646 1.4375,1.37891 0.625778,0.32266 1.344693,0.48437 2.15625,0.48437 0.821334,0 1.538296,-0.16171 2.154297,-0.48437 0.625778,-0.33245 1.110902,-0.79224 1.453125,-1.37891 0.342223,-0.59645 0.513671,-1.28419 0.513671,-2.06641 v -2.75781 c 0,-0.76267 -0.171448,-1.43677 -0.513671,-2.02344 -0.342223,-0.58666 -0.827347,-1.04256 -1.453125,-1.36523 -0.616001,-0.32267 -1.332963,-0.48438 -2.154297,-0.48438 z m 5.292969,0.11719 c -0.06844,0 -0.121043,0.0214 -0.160157,0.0606 -0.03911,0.0391 -0.05859,0.0917 -0.05859,0.16015 v 6.48243 c -1e-6,0.73333 0.165601,1.3782 0.498046,1.93554 0.332445,0.55734 0.80198,0.98791 1.408204,1.29102 0.616,0.30311 1.319326,0.45508 2.111328,0.45508 0.792,0 1.491432,-0.15197 2.097656,-0.45508 0.606223,-0.30311 1.075758,-0.73368 1.408203,-1.29102 0.332445,-0.55734 0.498047,-1.20221 0.498047,-1.93554 v -6.48243 c 0,-0.0684 -0.01948,-0.12102 -0.05859,-0.16015 -0.03911,-0.0391 -0.09171,-0.0606 -0.160156,-0.0606 h -2.31836 c -0.06844,0 -0.121042,0.0214 -0.160156,0.0606 -0.03911,0.0391 -0.05859,0.0917 -0.05859,0.16015 v 6.48243 c 0,0.39111 -0.118848,0.70868 -0.353515,0.95312 -0.224889,0.24445 -0.522976,0.36719 -0.894531,0.36719 -0.381335,0 -0.689162,-0.11689 -0.923828,-0.35156 -0.22489,-0.24444 -0.335938,-0.56786 -0.335938,-0.96875 v -6.48243 c 0,-0.0684 -0.01948,-0.12102 -0.05859,-0.16015 -0.03911,-0.0391 -0.09367,-0.0606 -0.162109,-0.0606 z m 8.800781,0 c -0.06844,0 -0.122996,0.0214 -0.16211,0.0606 -0.03911,0.0391 -0.05859,0.0917 -0.05859,0.16015 v 1.93555 c 0,0.0684 0.01948,0.12298 0.05859,0.16211 0.03911,0.0391 0.09367,0.0586 0.16211,0.0586 h 2.390625 c 0.04889,-1e-5 0.07422,0.0254 0.07422,0.0742 v 7.59571 c 0,0.0684 0.01948,0.12297 0.05859,0.16211 0.03911,0.0391 0.09171,0.0586 0.160156,0.0586 h 2.31836 c 0.06844,0 0.121043,-0.0195 0.160156,-0.0586 0.03911,-0.0391 0.05859,-0.0937 0.05859,-0.16211 v -7.59571 c 0,-0.0489 0.02533,-0.0742 0.07422,-0.0742 h 2.464843 c 0.06844,0 0.121043,-0.0195 0.160157,-0.0586 0.03911,-0.0391 0.05859,-0.0937 0.05859,-0.16211 v -1.93555 c 0,-0.0684 -0.01948,-0.12102 -0.05859,-0.16015 -0.03911,-0.0391 -0.09171,-0.0606 -0.160157,-0.0606 z m -14.09375,2.24414 c 0.410667,0 0.737977,0.13834 0.982422,0.41211 0.254222,0.264 0.380859,0.62053 0.380859,1.07031 v 2.875 c 0,0.44978 -0.126637,0.81021 -0.380859,1.08399 -0.244445,0.264 -0.571755,0.39648 -0.982422,0.39648 -0.40089,0 -0.730153,-0.13248 -0.984375,-0.39648 -0.244445,-0.27378 -0.365235,-0.63421 -0.365235,-1.08399 v -2.875 c 0,-0.44978 0.12079,-0.80631 0.365235,-1.07031 0.254222,-0.27377 0.583485,-0.41211 0.984375,-0.41211 z" font-family="Barlow" font-size="14.667" font-weight="900" style="-inkscape-font-specification:&quot;Barlow Heavy&quot;"/>
</svg>
