<?xml version="1.0" encoding="UTF-8"?>
<svg width="160" height="185" version="1.1" xml:space="preserve" xmlns="http://www.w3.org/2000/svg" xmlns:xlink="http://www.w3.org/1999/xlink">
  <defs>
    
    
  <linearGradient id="c" x1="80" x2="80" y1="185" y2="7.6294e-6" gradientUnits="userSpaceOnUse" xlink:href="#a"/></defs>
  <defs>
    <linearGradient id="a">
      <stop stop-color="#08090c" offset="0"/>
      <stop stop-color="#101116" offset="1"/>
    </linearGradient>
    <linearGradient id="b" x2="0" y1="185" gradientUnits="userSpaceOnUse" xlink:href="#a"/>
  </defs>
  <g fill="#2c974f"><path d="m0 0h11.2v185h-11.2z"/><path d="m37.2 4.6014e-6h11.2v185h-11.2z"/><path d="m74.4 7.6294e-6h11.2v185h-11.2z"/><path d="m111.6 6.7294e-6h11.2v185h-11.2z"/><path d="m148.8 0h11.2v185h-11.2z"/></g><path d="m0 0h160v185h-160z" fill="url(#b)"/><g fill="none" stroke-linejoin="round" stroke-width="3"><path d="m98.6 129.7 37.2-37.2-37.2-37.2v37.2l-37.2 37.2" stroke="#d40237" stroke-linecap="round"/><path d="m61.4 129.7-37.2-37.2 37.2-37.2v37.2l37.2 37.2" stroke="#2784d5" stroke-linecap="round"/>
  
  
  
  <path d="m61 42.5c0-7.5 4.5463-6.5 12.55-6.5l6.2505-10.063 6.4091 10.063c7.9975 0 12.791-1 12.791 6.5" stroke="#5a6776"/></g><g stroke-linejoin="round" stroke-width="3"><rect x="54.5" y="42.5" width="13" height="13" rx="2.065" ry="2.065" fill="#2784d5" stroke="#2784d5" stroke-linecap="round"/>
  <rect x="92.5" y="42.5" width="13" height="13" rx="2.065" ry="2.065" fill="#d40237" stroke="#d40237" stroke-linecap="round"/>
  <path d="m61 142.5c0 7.5 4.5463 6.5 12.55 6.5l6.2505 10.063 6.4091-10.063c7.9975 0 12.791 1 12.791-6.5" fill="none" stroke="#5a6776"/></g><g stroke-linecap="round" stroke-linejoin="round" stroke-width="3"><rect x="54.5" y="129.5" width="13" height="13" rx="2.065" ry="2.065" fill="#2784d5" stroke="#2784d5"/>
  <rect x="92.5" y="129.5" width="13" height="13" rx="2.065" ry="2.065" fill="#d40237" stroke="#d40237"/>
  
  
  
<path d="m61 49v0z" fill="#596675" opacity=".1" stroke="#c18204"/></g><g display="none" stroke-linejoin="round"><g><path d="m37.2 92.5a13 13 0 0 1-13 13 13 13 0 0 1-13-13 13 13 0 0 1 13-13 13 13 0 0 1 13 13z" fill="#da950b"/><path d="m148.8 92.5a13 13 0 0 1-13 13 13 13 0 0 1-13-13 13 13 0 0 1 13-13 13 13 0 0 1 13 13z" fill="#d40237"/><path d="m61.4 105.5a13 13 0 0 1-11.258-6.5 13 13 0 0 1 0-13 13 13 0 0 1 11.258-6.5v13z" fill="#da950b"/><path d="m61.4 79.5a13 13 0 0 1 11.258 6.5 13 13 0 0 1 0 13 13 13 0 0 1-11.258 6.5v-13z" fill="#d40237"/><path d="m98.6 105.5a13 13 0 0 1-11.258-6.5 13 13 0 0 1 0-13 13 13 0 0 1 11.258-6.5v13z" fill="#da950b"/><path d="m98.6 79.5a13 13 0 0 1 11.258 6.5 13 13 0 0 1 0 13 13 13 0 0 1-11.258 6.5v-13z" fill="#d40237"/></g><g fill="#ffffff" font-family="Poppins" font-size="13.333px" letter-spacing="1px" stroke-width="3"><text x="72.693344" y="19.437975" style="font-variant-numeric:tabular-nums slashed-zero;line-height:1" xml:space="preserve"><tspan x="72.693344" y="19.437975" fill="#ffffff" font-family="Orbitron" font-size="13.333px" font-weight="900" letter-spacing="1px" style="line-height:1">IN</tspan></text><text x="62.666721" y="175.16197" style="font-variant-numeric:tabular-nums slashed-zero;line-height:1" xml:space="preserve"><tspan x="62.666721" y="175.16197" fill="#ffffff" font-family="Orbitron" font-size="13.333px" font-weight="900" letter-spacing="1px" style="line-height:1">OUT</tspan></text><text x="55.440014" y="53.806656" style="font-variant-numeric:tabular-nums slashed-zero;line-height:1" xml:space="preserve"><tspan x="55.440014" y="53.806656" fill="#ffffff" font-family="Orbitron" font-size="13.333px" font-weight="900" letter-spacing="1px" style="line-height:1">L</tspan></text><text x="93.453346" y="53.79332" style="font-variant-numeric:tabular-nums slashed-zero;line-height:1" xml:space="preserve"><tspan x="93.453346" y="53.79332" fill="#ffffff" font-family="Orbitron" font-size="13.333px" font-weight="900" letter-spacing="1px" style="line-height:1">R</tspan></text><text x="55.440014" y="140.80666" style="font-variant-numeric:tabular-nums slashed-zero;line-height:1" xml:space="preserve"><tspan x="55.440014" y="140.80666" fill="#ffffff" font-family="Orbitron" font-size="13.333px" font-weight="900" letter-spacing="1px" style="line-height:1">L</tspan></text><text x="93.453346" y="140.79332" style="font-variant-numeric:tabular-nums slashed-zero;line-height:1" xml:space="preserve"><tspan x="93.453346" y="140.79332" fill="#ffffff" font-family="Orbitron" font-size="13.333px" font-weight="900" letter-spacing="1px" style="line-height:1">R</tspan></text></g></g><path d="m73.107 9.8379v9.5996h2.0391v-9.5996h-2.0391zm4.1855 0v9.5996h2.0664v-6.4258l5.4004 6.4258h2.1328v-9.5996h-2.0918v6.4004l-5.375-6.4004h-2.1328zm-21.094 34.355v9.6133h9.6016v-2.0801h-7.5332v-7.5332h-2.0684zm38 0.013672v9.5859h2.0684v-3.1465l2.7402-0.005859 2.6465 3.1523h2.1328v-0.70703l-2.0762-2.4531h0.10156c0.36444 1e-6 0.69495-0.087847 0.98828-0.26562 0.30222-0.17778 0.54097-0.41848 0.71875-0.7207 0.18667-0.30222 0.28125-0.63077 0.28125-0.98633v-2.4805c0-0.35556-0.09458-0.68411-0.28125-0.98633-0.17778-0.30222-0.41653-0.54293-0.71875-0.7207-0.29333-0.17778-0.62384-0.26562-0.98828-0.26562h-7.6133zm2.0684 2.0664h5.4395v2.2793h-5.4395v-2.2793zm-40.068 84.92v9.6133h9.6016v-2.0801h-7.5332v-7.5332h-2.0684zm38 0.01367v9.5859h2.0684v-3.1465l2.7402-0.00586 2.6465 3.1524h2.1328v-0.70703l-2.0762-2.4531h0.10156c0.36444 0 0.69495-0.08784 0.98828-0.26562 0.30222-0.17778 0.54097-0.41848 0.71875-0.72071 0.18667-0.30222 0.28125-0.63077 0.28125-0.98632v-2.4805c0-0.35556-0.09458-0.68411-0.28125-0.98633-0.17778-0.30222-0.41653-0.54292-0.71875-0.7207-0.29333-0.17778-0.62384-0.26563-0.98828-0.26563h-7.6133zm2.0684 2.0664h5.4395v2.2793h-5.4395v-2.2793zm-30.908 32.289c-0.35555 0-0.68411 0.08785-0.98633 0.26562-0.30222 0.17778-0.54097 0.41849-0.71875 0.72071-0.17778 0.29333-0.26758 0.62189-0.26758 0.98633v5.6543c0 0.35556 0.089801 0.68411 0.26758 0.98633s0.41653 0.54097 0.71875 0.71875c0.30222 0.17777 0.63077 0.26758 0.98633 0.26758h5.6543c0.35555 0 0.67932-0.08981 0.97266-0.26758 0.30222-0.17778 0.54293-0.41653 0.7207-0.71875 0.18667-0.30222 0.2793-0.63077 0.2793-0.98633v-5.6543c0-0.36444-0.092631-0.693-0.2793-0.98633-0.17778-0.30222-0.41848-0.54293-0.7207-0.72071-0.29333-0.17777-0.6171-0.26562-0.97266-0.26562h-5.6543zm10.066 0v7.627c0 0.35556 0.089801 0.68411 0.26758 0.98633 0.17778 0.30222 0.41848 0.54097 0.7207 0.71875 0.30222 0.17777 0.63077 0.26758 0.98633 0.26758h5.6523c0.35556 0 0.68128-0.08981 0.97461-0.26758 0.30222-0.17778 0.54097-0.41653 0.71875-0.71875 0.18667-0.30222 0.28125-0.63077 0.28125-0.98633v-7.627h-2.0938v7.5195h-5.4395v-7.5195h-2.0684zm11.588 0v2.0801h3.7598v7.5195h2.0801v-7.5195h3.7598v-2.0801h-9.5996zm-21.561 2.0801h5.4395v5.4394h-5.4395v-5.4394z" fill="#fff" stroke-linejoin="round" stroke-width="3" style="font-variant-numeric:tabular-nums slashed-zero"/><path d="m24.199 79.5a13 13 0 0 0-13 13 13 13 0 0 0 13 13 13 13 0 0 0 13-13 13 13 0 0 0-13-13zm37.201 0a13 13 0 0 0-13 13 13 13 0 0 0 13 13 13 13 0 0 0 13-13 13 13 0 0 0-13-13zm37.199 0a13 13 0 0 0-13 13 13 13 0 0 0 13 13 13 13 0 0 0 13-13 13 13 0 0 0-13-13zm37.201 0a13 13 0 0 0-13 13 13 13 0 0 0 13 13 13 13 0 0 0 13-13 13 13 0 0 0-13-13z" fill="url(#c)" stroke-linejoin="round"/></svg>
